<svg xmlns="http://www.w3.org/2000/svg" xmlns:xlink="http://www.w3.org/1999/xlink" width="610" height="469.964" viewBox="0 0 610 469.964">
  <defs>
    <linearGradient id="linear-gradient" x1="24.474" y1="-0.456" x2="21.636" y2="5.933" gradientUnits="objectBoundingBox">
      <stop offset="0" stop-color="#09005d"/>
      <stop offset="1" stop-color="#1a0f91"/>
    </linearGradient>
    <linearGradient id="linear-gradient-2" x1="94.026" y1="0.533" x2="95.033" y2="0.533" gradientUnits="objectBoundingBox">
      <stop offset="0" stop-color="#febbba"/>
      <stop offset="1" stop-color="#ff928e"/>
    </linearGradient>
    <linearGradient id="linear-gradient-3" x1="31.531" y1="0.035" x2="28.514" y2="0.89" xlink:href="#linear-gradient"/>
    <linearGradient id="linear-gradient-4" x1="61.298" y1="-2.166" x2="54.278" y2="5.399" xlink:href="#linear-gradient"/>
    <linearGradient id="linear-gradient-5" x1="109.607" y1="0.551" x2="110.621" y2="0.551" xlink:href="#linear-gradient-2"/>
    <linearGradient id="linear-gradient-6" x1="21.194" y1="-0.033" x2="19.176" y2="0.81" xlink:href="#linear-gradient"/>
    <linearGradient id="linear-gradient-7" x1="17.511" y1="1.586" x2="19.491" y2="4.27" xlink:href="#linear-gradient-2"/>
    <linearGradient id="linear-gradient-8" x1="130.572" y1="0.665" x2="132.573" y2="-1.115" xlink:href="#linear-gradient-2"/>
    <linearGradient id="linear-gradient-9" x1="14.436" y1="0.528" x2="15.438" y2="0.528" xlink:href="#linear-gradient-2"/>
    <linearGradient id="linear-gradient-10" x1="36.096" y1="0.519" x2="37.087" y2="0.519" xlink:href="#linear-gradient-2"/>
    <linearGradient id="linear-gradient-11" x1="-9.2" y1="4.839" x2="-8.996" y2="6.022" xlink:href="#linear-gradient"/>
    <linearGradient id="linear-gradient-12" x1="13.016" y1="-0.062" x2="13.529" y2="2.428" xlink:href="#linear-gradient"/>
    <linearGradient id="linear-gradient-13" x1="43.437" y1="0.5" x2="44.437" y2="0.5" xlink:href="#linear-gradient-2"/>
    <linearGradient id="linear-gradient-14" x1="0.389" y1="-10.035" x2="0.495" y2="0.398" gradientUnits="objectBoundingBox">
      <stop offset="0" stop-color="#4f52ff"/>
      <stop offset="1" stop-color="#4042e2"/>
    </linearGradient>
    <linearGradient id="linear-gradient-15" x1="0" y1="0.5" x2="1" y2="0.5" xlink:href="#linear-gradient-2"/>
    <linearGradient id="linear-gradient-16" x1="0.384" y1="-3.582" x2="0.505" y2="0.525" xlink:href="#linear-gradient-14"/>
    <linearGradient id="linear-gradient-17" x1="0" y1="0.5" x2="1" y2="0.5" xlink:href="#linear-gradient"/>
    <linearGradient id="linear-gradient-19" x1="0.708" y1="0.132" x2="0.066" y2="1.227" xlink:href="#linear-gradient"/>
    <linearGradient id="linear-gradient-20" x1="1.924" y1="-2.115" x2="0.335" y2="1.087" xlink:href="#linear-gradient-14"/>
    <linearGradient id="linear-gradient-21" x1="0.766" y1="0.225" x2="11.383" y2="-10.741" xlink:href="#linear-gradient"/>
    <linearGradient id="linear-gradient-23" x1="9.893" y1="2.234" x2="10.662" y2="3.128" xlink:href="#linear-gradient"/>
    <linearGradient id="linear-gradient-24" x1="58.699" y1="-888.587" x2="57.47" y2="-874.255" xlink:href="#linear-gradient"/>
    <linearGradient id="linear-gradient-25" x1="104.496" y1="-79.584" x2="101.87" y2="-78.285" xlink:href="#linear-gradient"/>
    <linearGradient id="linear-gradient-26" x1="-1.05" y1="2.829" x2="0.734" y2="-0.03" xlink:href="#linear-gradient-2"/>
    <linearGradient id="linear-gradient-27" x1="3.826" y1="-5.068" x2="1.473" y2="-1.022" xlink:href="#linear-gradient"/>
    <linearGradient id="linear-gradient-28" x1="0.47" y1="0.997" x2="0.639" y2="-1.153" xlink:href="#linear-gradient-2"/>
    <linearGradient id="linear-gradient-30" x1="3.608" y1="-17.352" x2="1.775" y2="-6.678" xlink:href="#linear-gradient"/>
    <linearGradient id="linear-gradient-31" x1="0.619" y1="-0.242" x2="0.442" y2="0.664" xlink:href="#linear-gradient"/>
    <linearGradient id="linear-gradient-32" x1="-8.736" y1="27.164" x2="-9.072" y2="30.144" xlink:href="#linear-gradient"/>
    <linearGradient id="linear-gradient-33" x1="-64.909" y1="65.625" x2="-59.04" y2="68.068" xlink:href="#linear-gradient-2"/>
    <linearGradient id="linear-gradient-34" x1="0.623" y1="0.5" x2="1.623" y2="0.5" xlink:href="#linear-gradient-2"/>
    <linearGradient id="linear-gradient-35" x1="0.906" y1="3.328" x2="0.167" y2="5.764" xlink:href="#linear-gradient"/>
    <linearGradient id="linear-gradient-36" x1="0.733" y1="0.134" x2="0.333" y2="0.8" xlink:href="#linear-gradient"/>
    <linearGradient id="linear-gradient-37" x1="-59.102" y1="4.474" x2="-59.087" y2="8.118" xlink:href="#linear-gradient"/>
    <linearGradient id="linear-gradient-38" x1="-189.32" y1="1.164" x2="-189.582" y2="-0.58" xlink:href="#linear-gradient-2"/>
    <linearGradient id="linear-gradient-39" x1="-113.541" y1="3.704" x2="-113.514" y2="7.135" xlink:href="#linear-gradient"/>
    <linearGradient id="linear-gradient-40" x1="-223.399" y1="1.13" x2="-223.684" y2="-0.791" xlink:href="#linear-gradient-2"/>
    <linearGradient id="linear-gradient-41" x1="0.262" y1="-0.145" x2="0.562" y2="0.725" xlink:href="#linear-gradient"/>
    <linearGradient id="linear-gradient-42" x1="-965.272" y1="2.369" x2="-963.891" y2="1.878" xlink:href="#linear-gradient-14"/>
    <linearGradient id="linear-gradient-43" x1="-22.88" y1="0.161" x2="-23.473" y2="1.632" xlink:href="#linear-gradient-14"/>
    <linearGradient id="linear-gradient-44" x1="-53.987" y1="0.5" x2="-52.987" y2="0.5" xlink:href="#linear-gradient-2"/>
    <linearGradient id="linear-gradient-45" x1="-27.458" y1="0.5" x2="-26.458" y2="0.5" xlink:href="#linear-gradient-2"/>
    <linearGradient id="linear-gradient-46" x1="1.637" y1="-2.121" x2="0.754" y2="-0.158" gradientUnits="objectBoundingBox">
      <stop offset="0" stop-color="#e1473d"/>
      <stop offset="1" stop-color="#e9605a"/>
    </linearGradient>
    <linearGradient id="linear-gradient-47" x1="-1.288" y1="3.145" x2="0.762" y2="0.112" xlink:href="#linear-gradient-14"/>
    <linearGradient id="linear-gradient-48" x1="-1.297" y1="3.157" x2="0.754" y2="0.125" xlink:href="#linear-gradient-14"/>
    <linearGradient id="linear-gradient-49" x1="-1.74" y1="3.813" x2="0.31" y2="0.78" xlink:href="#linear-gradient-14"/>
    <linearGradient id="linear-gradient-50" x1="-1.749" y1="3.825" x2="0.302" y2="0.793" xlink:href="#linear-gradient-14"/>
    <linearGradient id="linear-gradient-51" x1="0.857" y1="-10.915" x2="0.637" y2="-3.932" xlink:href="#linear-gradient"/>
    <linearGradient id="linear-gradient-52" x1="0.211" y1="32.997" x2="0.464" y2="4.261" xlink:href="#linear-gradient-14"/>
  </defs>
  <g id="Grupo_166276" data-name="Grupo 166276" transform="translate(-180 -1586.537)">
    <path id="Trazado_225930" data-name="Trazado 225930" d="M149.479,376.766c76.244,5.224,174.761-3.879,168.7-107.853S203.755,5.465,127.511.242-5.623,75.071.443,179.046,73.235,371.542,149.479,376.766Z" transform="translate(243.532 1907.931) rotate(-71)" fill="#8c6df2" opacity="0.25"/>
    <path id="Trazado_138100" data-name="Trazado 138100" d="M448.213,152.815a249.877,249.877,0,0,0-26.229-18.544,206.628,206.628,0,0,0-29.875-15.083,172.827,172.827,0,0,0-34.278-10.03,136.536,136.536,0,0,0-19.06-2.065c-1.65-.034-3.3-.1-4.973-.06-.836.012-1.67.01-2.512.035l-2.533.112c-1.7.068-3.34.2-5.021.305-1.664.158-3.342.29-5.006.5a182.252,182.252,0,0,0-38.6,9.286c-12.224,4.234-23.7,9.188-34.737,13.933-5.516,2.382-10.946,4.7-16.282,6.871-2.673,1.1-5.314,2.128-7.943,3.141-1.309.487-2.62.992-3.919,1.457l-4.027,1.448c-11.214,4.022-22.166,7.791-32.924,10.893-5.374,1.553-10.69,2.939-15.907,4.1q-3.912.869-7.74,1.563-3.827.675-7.536,1.145c-9.888,1.272-18.982,1.294-26.478,0a54.363,54.363,0,0,1-5.357-1.2c-.851-.231-1.673-.495-2.483-.761l-1.19-.421c-.357-.145-.716-.277-1.065-.43a33.9,33.9,0,0,1-7.651-4.4c-.561-.438-1.108-.884-1.626-1.352l-2.018-1.744c-.7-.6-1.317-1.235-1.981-1.837-.638-.617-1.217-1.255-1.833-1.868a42.846,42.846,0,0,1-5.781-7.735,34.927,34.927,0,0,1-3.469-8.064,34.253,34.253,0,0,1-1.345-8.473,52.6,52.6,0,0,1,2.9-18.457,92.416,92.416,0,0,1,9.54-19.751,112.028,112.028,0,0,1,6.8-9.7c1.221-1.565,2.482-3.1,3.741-4.544.628-.717,1.266-1.412,1.875-2.044.3-.313.6-.618.873-.867.138-.133.262-.24.371-.326.046-.03.113-.091.131-.084l.022,0s.028-.022-.008.034l-.136.23c15.112-19.994,7.722-44.294-16.508-54.275S40.305,11.88,25.193,31.874l-.432.627-.277.428-.445.715-.762,1.28c-.481.824-.914,1.6-1.335,2.367-.839,1.533-1.608,3.017-2.356,4.489-1.477,2.937-2.825,5.829-4.083,8.724a177.489,177.489,0,0,0-6.49,17.455,138.7,138.7,0,0,0-6.485,36.228,97.4,97.4,0,0,0,5.562,37.4,88.917,88.917,0,0,0,8.851,17.743,91.655,91.655,0,0,0,12.934,15.763A108.249,108.249,0,0,0,46,188.086c1.462.932,2.908,1.882,4.391,2.775,1.5.871,2.974,1.769,4.493,2.593l2.283,1.224c.777.413,1.466.788,2.4,1.259,1.754.9,3.558,1.752,5.392,2.56A109.872,109.872,0,0,0,88.54,205.8c1.036.206,2.086.381,3.132.56,1.026.16,2.039.313,3.06.456,2.044.272,4.093.511,6.147.686,4.1.36,8.215.531,12.282.521a154.367,154.367,0,0,0,23.681-1.952,187.905,187.905,0,0,0,21.748-4.821,278.256,278.256,0,0,0,38.1-14.109c11.751-5.274,22.736-10.931,33.314-16.523l4.126-2.191c1.416-.752,2.784-1.518,4.17-2.277,2.728-1.53,5.426-3.066,8.04-4.611,5.257-3.086,10.3-6.185,15.269-9.2,9.93-6.037,19.5-11.842,29.33-16.834a144.4,144.4,0,0,1,30.453-11.785c1.318-.343,2.645-.618,3.976-.928l2-.395,1-.2c.333-.061.66-.1.991-.154l1.984-.3c.665-.091,1.335-.158,2-.24,1.338-.179,2.694-.264,4.05-.385,1.358-.1,2.726-.16,4.1-.221,1.371-.015,2.75-.091,4.127-.059l2.072.016c.692.008,1.382.045,2.073.068,1.385.04,2.765.139,4.147.238,1.388.076,2.759.248,4.145.368,1.38.143,2.753.329,4.133.5,1.363.22,2.735.42,4.1.657,1.353.26,2.726.479,4.072.77q4.062.818,8.025,1.9c1.324.353,2.647.711,3.948,1.111l1.961.588,1.931.639A141.334,141.334,0,0,1,415.1,140.917a115.293,115.293,0,0,1,23.533,18.511c1.93,2.018,5.743,2.269,8.518.56s3.458-4.73,1.528-6.748a4.6,4.6,0,0,0-.437-.4Z" transform="matrix(0.788, 0.616, -0.616, 0.788, 306.145, 1585.236)" fill="#fdb74d"/>
    <g id="Grupo_166275" data-name="Grupo 166275" transform="translate(9383.658 12486.024)">
      <g id="Grupo_166274" data-name="Grupo 166274" transform="translate(-8898.325 -10899.487)">
        <circle id="Elipse_6475" data-name="Elipse 6475" cx="49.424" cy="49.424" r="49.424" transform="translate(0 69.896) rotate(-45)" fill="#5038a1"/>
        <circle id="Elipse_6476" data-name="Elipse 6476" cx="47.781" cy="47.781" r="47.781" transform="translate(2.324 69.896) rotate(-45)" fill="#8c6df2"/>
        <path id="Trazado_225822" data-name="Trazado 225822" d="M1898.262,963.818a.781.781,0,0,1-.356-.085.791.791,0,0,1-.351-1.066,44.713,44.713,0,0,1,40.107-24.694,45.256,45.256,0,0,1,8.1.728.793.793,0,0,1-.286,1.561,43.722,43.722,0,0,0-7.816-.7,43.136,43.136,0,0,0-38.691,23.822A.792.792,0,0,1,1898.262,963.818Z" transform="translate(-1867.766 -912.976)" fill="#fff" opacity="0.78"/>
        <circle id="Elipse_6477" data-name="Elipse 6477" cx="40.44" cy="40.44" r="40.44" transform="translate(13.746 70.937) rotate(-45)" fill="#fff" opacity="0.78"/>
        <g id="Grupo_166230" data-name="Grupo 166230" transform="translate(53.125 42.316)">
          <path id="Trazado_225823" data-name="Trazado 225823" d="M2011.029,1070.4v-4.4a35.829,35.829,0,0,1-12.345-2.677,2.542,2.542,0,0,1-1.408-3.006l1.119-4.1a2.565,2.565,0,0,1,3.483-1.679,29.779,29.779,0,0,0,11.4,2.4c4.419,0,7.714-1.5,7.714-4.568,0-2.77-2.546-4.418-8.685-6.065-8.761-2.4-15.051-6.215-15.051-13.927,0-6.964,5.092-12.28,13.928-13.7v-4.4a2.564,2.564,0,0,1,2.563-2.564h2.584a2.564,2.564,0,0,1,2.563,2.564v3.95a32.733,32.733,0,0,1,9.786,1.757,2.553,2.553,0,0,1,1.594,3.079l-1.029,3.791a2.556,2.556,0,0,1-3.375,1.727,26.683,26.683,0,0,0-9.6-1.743c-5.241,0-6.738,2.172-6.738,4.119,0,2.4,3.145,4.043,9.958,6.139,9.734,2.92,13.777,6.964,13.777,14.226,0,6.664-4.942,12.655-14.527,14.152v4.924a2.562,2.562,0,0,1-2.563,2.563h-2.582A2.563,2.563,0,0,1,2011.029,1070.4Z" transform="translate(-1997.184 -1011.71)" fill="#8c6df2"/>
        </g>
      </g>
      <g id="Grupo_166273" data-name="Grupo 166273" transform="translate(-9202.991 -10837.591)">
        <g id="Grupo_166252" data-name="Grupo 166252" transform="translate(136.695 0)">
          <path id="Trazado_225852" data-name="Trazado 225852" d="M1451.07,3070.794s-1.434,7.688-2.174,15.306a5.253,5.253,0,0,0,4.97,5.738c10.148.52,31.857,1.549,39.653,1.276a1.709,1.709,0,0,0,1.526-2.327h0a3.823,3.823,0,0,0-1.937-2.08l-35.713-16.829Z" transform="translate(-1369.747 -2702.828)" fill="url(#linear-gradient)"/>
          <path id="Trazado_225853" data-name="Trazado 225853" d="M1454.049,3045.159l1.005,9.222s6.256,2.985,10.578-.268l-2.5-10.291Z" transform="translate(-1373.797 -2681.729)" fill="url(#linear-gradient-2)"/>
          <path id="Trazado_225854" data-name="Trazado 225854" d="M1362.591,2253.562c-.495,2.4-3.679,120.022,8.392,172.861a1.79,1.79,0,0,1-1.069,2.072,31.159,31.159,0,0,1-10.261,1.983,3.083,3.083,0,0,1-3.036-2.241c-3.478-12.266-20.117-73.713-21.806-132.277-1.887-65.44.021-2.228.021-2.228l1.858-40.422Z" transform="translate(-1279.866 -2063.311)" fill="url(#linear-gradient-3)"/>
          <path id="Trazado_225855" data-name="Trazado 225855" d="M1253.188,3087.442s-2.2,3.867-4.4,14.178a3.2,3.2,0,0,0,2.783,3.865c3.349.361,8.506.835,12.64.846a3.2,3.2,0,0,0,3.2-3.534c-.422-3.776-1.789-9.977-6.15-14.841Z" transform="translate(-1213.168 -2715.852)" fill="url(#linear-gradient-4)"/>
          <path id="Trazado_225856" data-name="Trazado 225856" d="M1261.032,3031.291l2.421,13.955s2.507,1.9,7.516.589l-1.076-15Z" transform="translate(-1222.8 -2671.568)" fill="url(#linear-gradient-5)"/>
          <path id="Trazado_225857" data-name="Trazado 225857" d="M1220.378,2247.214c-10.877,61.97.767,153.429,4.818,171.345a2.788,2.788,0,0,0,2.231,2.139,18.713,18.713,0,0,0,8.047-.245,2.555,2.555,0,0,0,1.859-2.335c.7-14.447.531-103.185,10.449-138.16a7.967,7.967,0,0,1,3.115-4.365l18.725-13.045,1.63-21.36Z" transform="translate(-1187.459 -2053.827)" fill="url(#linear-gradient-6)"/>
          <g id="Grupo_166247" data-name="Grupo 166247" transform="translate(29.524 29.495)">
            <path id="Trazado_225858" data-name="Trazado 225858" d="M1291.083,1714.484c-30.816-.8-64.905,7.474-64.905,7.474-9.7,53.519-2.708,115.422-2.708,115.422,23.8,6.485,50.814-3.341,50.814-3.341,4.18-22.368,23.285-85.25,23.285-85.25a101.531,101.531,0,0,0,37.794-11.6c-7.706-9.107-11.27-20.636-12.8-27.445C1311.633,1713.028,1300.589,1714.732,1291.083,1714.484Z" transform="translate(-1221.033 -1667.575)" fill="#8c6df2"/>
            <path id="Trazado_225859" data-name="Trazado 225859" d="M1747.4,1518.413a5.9,5.9,0,0,0-6.841-1.993c-4.718,19.115-28.648,34.423-53.153,41.783,1.531,6.809,5.095,18.338,12.8,27.445C1740.971,1563.237,1747.4,1518.413,1747.4,1518.413Z" transform="translate(-1585.876 -1516.032)" fill="#8c6df2"/>
          </g>
          <g id="Grupo_166248" data-name="Grupo 166248" transform="translate(184.276)">
            <path id="Trazado_225860" data-name="Trazado 225860" d="M1937.913,1413.347c.307,1.01-3.376,2.509-5.5-1.631-.056-1.975-1.177-10.444.019-12.041,6.364-8.505,18.648-19.126,18.648-19.126a2.9,2.9,0,0,1,.324,4.03l-5.968,6.1c1.215,2.245,2.7,4.145,3.385,6.853a8.282,8.282,0,0,1-.884,6.086c-1.055,1.859-2.494,4.275-3.849,6.163A8.177,8.177,0,0,1,1937.913,1413.347Z" transform="translate(-1931.886 -1380.549)" fill="url(#linear-gradient-7)"/>
            <path id="Trazado_225861" data-name="Trazado 225861" d="M1956.356,1445.312l-5.429,4.514-1.734,4.529,4.751,5.372s1.7-9,2.919-10.943S1957.469,1445.893,1956.356,1445.312Z" transform="translate(-1945.426 -1431.213)" fill="url(#linear-gradient-8)"/>
          </g>
          <path id="Trazado_225862" data-name="Trazado 225862" d="M1134.217,1795.8l-11.537-29.956s-28.976,19.286-33.946,44.041a68.139,68.139,0,0,1,24.963,6.946C1115.937,1805.143,1134.217,1795.8,1134.217,1795.8Z" transform="translate(-1088.011 -1681.966)" fill="#8c6df2"/>
          <path id="Trazado_225863" data-name="Trazado 225863" d="M1156.511,1982.386s-32.5,17.959-43.254,2.256a12.261,12.261,0,0,1-2.157-9.548,68.131,68.131,0,0,0-24.963-6.946,34.233,34.233,0,0,0,3.5,23.5c18.771,35.129,71.078-1.254,71.078-1.254Z" transform="translate(-1085.415 -1840.228)" fill="url(#linear-gradient-9)"/>
          <path id="Trazado_225864" data-name="Trazado 225864" d="M1364.071,1615.206l-10.077,28.267a1.022,1.022,0,0,0,.454,1.235c2.659,1.5,12.25,5.867,23.926-1.38a4.812,4.812,0,0,0,2.249-3.415l3.41-24.516Z" transform="translate(-1295.477 -1564.121)" fill="url(#linear-gradient-10)"/>
          <g id="Grupo_166249" data-name="Grupo 166249" transform="translate(50.081 10.279)">
            <path id="Trazado_225865" data-name="Trazado 225865" d="M1409.083,1495.505s10.576,20.374,9.117,28.549-14.8,7.46-26.39.7l-7.935-21.966Z" transform="translate(-1368.982 -1480.758)" fill="#febbba"/>
            <path id="Trazado_225866" data-name="Trazado 225866" d="M1338.909,1461.014a.836.836,0,0,0,.376-1.22,21.808,21.808,0,0,1-2.936-6.39s-1.924-1.258,4.955-2.835,17.138-4.03,19.345-9.851c2.152-5.676-3.222-20.052-12.123-8.723a.835.835,0,0,1-1.324,0c-1.423-1.889-5.176-5.819-10.459-3.509-4.944,2.162-5.533,5.764-5.483,7.583a.831.831,0,0,1-.992.841c-2.485-.5-8.454-.963-11.3,5.138-2.344,5.025-.879,7.9.467,9.307a.833.833,0,0,1-.37,1.38c-1.641.485-3.766,1.852-3.591,5.687.242,5.3,6.17,4.891,7.859,4.666a.836.836,0,0,1,.74.27c1.431,1.614,7.882,8.472,14.926,9.358a.843.843,0,0,0,.894-1.105l-2.967-8.9a.839.839,0,0,1,.464-1.036Z" transform="translate(-1315.463 -1427.764)" fill="url(#linear-gradient-11)"/>
            <path id="Trazado_225867" data-name="Trazado 225867" d="M1399.08,1576.761s-7.617-5.334-8.22-.909,6.843,6.483,10.557,4.866Z" transform="translate(-1374.419 -1542.24)" fill="#febbba"/>
          </g>
          <g id="Grupo_166251" data-name="Grupo 166251" transform="translate(64.384 103.582)">
            <g id="Grupo_166250" data-name="Grupo 166250">
              <path id="Trazado_225868" data-name="Trazado 225868" d="M1381.231,1923.309l17.7-61.82a1.8,1.8,0,0,1,1.525-1.3c3.207-.374,12.5-1.425,23.231-2.333,12.925-1.093,27.935-1.979,36.9-1.226a1.809,1.809,0,0,1,1.479,2.6c-5.1,10.319-26.081,52.295-36.588,66.046a1.815,1.815,0,0,1-1.46.717l-41.072-.382A1.809,1.809,0,0,1,1381.231,1923.309Z" transform="translate(-1381.16 -1856.353)" fill="url(#linear-gradient-12)"/>
              <path id="Trazado_225869" data-name="Trazado 225869" d="M1395,2019.568s-2.466-10.14-1.471-13.737,2.922-8.223,9.346-7.2a94,94,0,0,1,14,3.734s-.383,4.686-5.265,3.174l3.027,2.343s-.433,3.752-4.557,1.748l2.816,3.107a3.282,3.282,0,0,1-4.805,1.1C1405.054,2011.869,1403.6,2020.789,1395,2019.568Z" transform="translate(-1390.648 -1967.547)" fill="url(#linear-gradient-13)"/>
            </g>
            <path id="Trazado_225870" data-name="Trazado 225870" d="M1571.1,1929.368a5.2,5.2,0,1,0,5.2-5.2A5.2,5.2,0,0,0,1571.1,1929.368Z" transform="translate(-1529.748 -1909.408)" fill="#91b3fa"/>
            <path id="Trazado_225871" data-name="Trazado 225871" d="M1467.241,1894.024l-1.325-.391,3.6-12.226a5.57,5.57,0,0,1,4.194-3.9c11.424-2.385,41.512-2.871,42.787-2.891l.021,1.381c-.311,0-31.231.5-42.526,2.861a4.194,4.194,0,0,0-3.151,2.943Z" transform="translate(-1447.465 -1870.638)" fill="#91b3fa"/>
          </g>
        </g>
        <g id="Grupo_166253" data-name="Grupo 166253" transform="translate(0 286.074)">
          <path id="Trazado_225872" data-name="Trazado 225872" d="M471.691,2758.484c-1.887,2.792-9.387,66.013-10.561,89.363a2.761,2.761,0,0,0,2.765,2.9h0a2.767,2.767,0,0,0,2.734-2.34l13.718-87.907Z" transform="translate(-460.339 -2744.582)" fill="#7d97f4"/>
          <path id="Trazado_225873" data-name="Trazado 225873" d="M755.529,2758.484c1.887,2.792,9.387,66.013,10.561,89.363a2.761,2.761,0,0,1-2.765,2.9h0a2.767,2.767,0,0,1-2.734-2.34l-13.718-87.907Z" transform="translate(-683.878 -2744.582)" fill="#7d97f4"/>
          <path id="Trazado_225874" data-name="Trazado 225874" d="M457.515,2703.594l-.006.689c-.045,4.959,4.228,9.028,9.578,9.119l63.406,1.078c5.273.09,9.669-3.721,9.925-8.6l.033-.631c.267-5.093-4.058-9.382-9.557-9.481l-63.433-1.136C462.031,2694.53,457.561,2698.56,457.515,2703.594Z" transform="translate(-457.508 -2694.626)" fill="#7d97f4"/>
        </g>
        <g id="Grupo_166257" data-name="Grupo 166257" transform="translate(18.831 98.163)">
          <g id="Grupo_166254" data-name="Grupo 166254" transform="translate(96.141 277.361)">
            <path id="Trazado_225875" data-name="Trazado 225875" d="M1004.641,3151.779c-11.271,0-16.258-.968-18.488-1.85a4.276,4.276,0,0,0,4.165,3.313h39.874a1.94,1.94,0,0,0,1.87-2.45C1027.517,3151.158,1017.863,3151.779,1004.641,3151.779Z" transform="translate(-986.039 -3140.26)" fill="#91b3fa"/>
            <path id="Trazado_225876" data-name="Trazado 225876" d="M1031.653,3116.049a1.886,1.886,0,0,0-.327-.679c-3.037-3.878-9.139-9.968-17.439-9.851-12.159.172-16.4,1.49-25.847.074l-2.229,7.389a4.246,4.246,0,0,0-.068,2.2c2.23.881,7.217,1.849,18.488,1.849C1017.454,3117.034,1027.108,3116.414,1031.653,3116.049Z" transform="translate(-985.63 -3105.517)" fill="url(#linear-gradient-14)"/>
          </g>
          <path id="Trazado_225877" data-name="Trazado 225877" d="M999.439,3069.292,996.7,3078.6s6.062,2.76,11.393.544l1.047-8.062Z" transform="translate(-898.152 -2799.817)" fill="url(#linear-gradient-15)"/>
          <g id="Grupo_166255" data-name="Grupo 166255" transform="translate(164.178 263.909)">
            <path id="Trazado_225878" data-name="Trazado 225878" d="M1332.965,3067.035c-8.786,7.059-13.277,9.434-15.565,10.146a4.272,4.272,0,0,0,5.312-.04l31.084-24.975a1.932,1.932,0,0,0-.069-3.071C1350.412,3052.225,1343.273,3058.753,1332.965,3067.035Z" transform="translate(-1313.211 -3047.927)" fill="#91b3fa"/>
            <path id="Trazado_225879" data-name="Trazado 225879" d="M1338.672,3044.895a1.879,1.879,0,0,0-.677-.322c-4.785-1.106-13.338-2.009-19.735,3.28-9.372,7.749-11.854,11.428-20.1,16.247l2.868,7.128a4.2,4.2,0,0,0,1.321,1.752c2.288-.712,6.778-3.086,15.565-10.146C1328.218,3054.553,1335.357,3048.026,1338.672,3044.895Z" transform="translate(-1298.157 -3043.727)" fill="url(#linear-gradient-16)"/>
          </g>
          <path id="Trazado_225880" data-name="Trazado 225880" d="M693.721,2582.273s67.482,5.51,81.325,12.027-11.3,97.852-11.3,97.852-3.769,1.814-12.155-.793c0,0,8.6-67.4,2.2-82.018L680.73,2597.39Z" transform="translate(-650.966 -2418.821)" fill="url(#linear-gradient-17)"/>
          <path id="Trazado_225881" data-name="Trazado 225881" d="M1267.358,3064.073c.627.571,6.7,12.83,6.7,12.83s6.767-1.464,8.147-5.746l-6.089-11.064Z" transform="translate(-1109.885 -2792.62)" fill="url(#linear-gradient-15)"/>
          <path id="Trazado_225882" data-name="Trazado 225882" d="M546.121,2579.683a34.171,34.171,0,0,0-2.109,12.323,18.5,18.5,0,0,0,17.656,18.1l79.774,3.638a3.827,3.827,0,0,1,3.532,2.876c1.875,7.25,11.038,29.517,55.828,73.949a3.611,3.611,0,0,0,4.467.487l6.376-4.028a1.469,1.469,0,0,0,.483-1.983l-46.449-79.318a17.975,17.975,0,0,0-10.922-8.1l-67.992-17.38Z" transform="translate(-544.009 -2416.796)" fill="url(#linear-gradient-19)"/>
          <path id="Trazado_225883" data-name="Trazado 225883" d="M852.817,2010.541s-8.546,15.11-17.259,22.43l18.009,10.048s4.058-16,13.329-20.68Z" transform="translate(-772.088 -1971.555)" fill="#febbba"/>
          <path id="Trazado_225884" data-name="Trazado 225884" d="M547.055,2206.508s21.536,5.249,42.092,0c0,0,28.764-38.667,39.892-49.191,0,0,17.75,28.01,57.26,31.98l2.2-4.924s-31.454-14.5-41.137-36.778-13.572-31.781-22.382-37.593c-5.486-3.621-8.771-6.093-10.469-7.444a2.817,2.817,0,0,0-3.226-.2C601.94,2108.05,557.95,2138.179,547.055,2206.508Z" transform="translate(-546.392 -2043.057)" fill="url(#linear-gradient-20)"/>
          <path id="Trazado_225885" data-name="Trazado 225885" d="M875.073,2276.076a1.379,1.379,0,0,1-1.1-.541,85.914,85.914,0,0,1-10.837-19.214,1.381,1.381,0,0,1,2.579-.99,84.694,84.694,0,0,0,10.45,18.523,1.381,1.381,0,0,1-1.1,2.222Z" transform="translate(-793.592 -2162.362)" fill="url(#linear-gradient-21)"/>
          <path id="Trazado_225886" data-name="Trazado 225886" d="M1175.762,2452.7l4.447-1.186,13.5-3.126a6.259,6.259,0,0,1,4.746.8l11.61,7.3-32.061-.054Z" transform="translate(-1038.23 -2313.961)" fill="url(#linear-gradient-15)"/>
          <g id="Grupo_166256" data-name="Grupo 166256" transform="translate(58.51)">
            <path id="Trazado_225887" data-name="Trazado 225887" d="M890.271,1906.466s8.3,13.806,9.746,21.436,3.754,12.4-4.93,15.119-16.756-.722-21.821-7.845c0,0-7.91-10.962-7.121-15.981S890.271,1906.466,890.271,1906.466Z" transform="translate(-854.483 -1890.138)" fill="#febbba"/>
            <path id="Trazado_225888" data-name="Trazado 225888" d="M833.868,1870.595l1.124-.148s-5.881-8.886-2.033-11.091,19.529-7.614,22.252-13.789c2.625-5.953-1.3-12.68-6.036-14.083a.6.6,0,0,0-.724.381l-.278.75a.609.609,0,0,1-1.129.032h0a.606.606,0,0,0-1.1-.023c-.839,1.85-3.354,5.01-10.9,7.455-10.7,3.469-17.366,8.863-16.545,16.465a.609.609,0,0,1-.869.618c-.875-.387-2.2-.447-3.741,1.236-2.678,2.929-.58,9.335,6.733,13.868a.605.605,0,0,1,.1.971c-1.094.937-2.633,3.026,2.315,4.887,5.062,1.9,7.824,1.26,8.844.851a.61.61,0,0,0,.375-.685l-1.3-6.662a.609.609,0,0,1,.518-.721Z" transform="translate(-812.773 -1831.461)" fill="url(#linear-gradient-23)"/>
            <path id="Trazado_225889" data-name="Trazado 225889" d="M880.909,1994.023s-3.665-9.035-7.514-5.859,3.558,10.2,6.976,10.1Z" transform="translate(-859.352 -1953.521)" fill="#febbba"/>
          </g>
        </g>
        <g id="Grupo_166260" data-name="Grupo 166260" transform="translate(141.064 178.275)">
          <g id="Grupo_166258" data-name="Grupo 166258" transform="translate(0 62.529)">
            <path id="Trazado_225890" data-name="Trazado 225890" d="M1108.4,2492.864q.078,0,.158,0l68.494-.068a3.06,3.06,0,1,0-.008-6.12l-68.494.068a3.06,3.06,0,0,0-.15,6.117Z" transform="translate(-1105.486 -2486.679)" fill="url(#linear-gradient-24)"/>
          </g>
          <g id="Grupo_166259" data-name="Grupo 166259" transform="translate(68.914)">
            <path id="Trazado_225891" data-name="Trazado 225891" d="M1451.217,2201.092c-.024.046-.048.094-.07.141l-28.819,62.136a3.06,3.06,0,1,0,5.552,2.574l28.819-62.135a3.06,3.06,0,0,0-5.483-2.716Z" transform="translate(-1422.042 -2199.455)" fill="url(#linear-gradient-25)"/>
          </g>
        </g>
        <g id="Grupo_166266" data-name="Grupo 166266" transform="translate(260.398 90.561)">
          <g id="Grupo_166261" data-name="Grupo 166261" transform="translate(115.945 201.357)">
            <rect id="Rect치ngulo_46071" data-name="Rect치ngulo 46071" width="7.229" height="78.179" transform="translate(34.939 17.517)" fill="#7d97f4"/>
            <path id="Trazado_225892" data-name="Trazado 225892" d="M2281.226,3151.061h-63.317a4.706,4.706,0,0,1,4.706-4.706h53.9a4.706,4.706,0,0,1,4.706,4.706Z" transform="translate(-2211.014 -3053.858)" fill="#7d97f4"/>
            <rect id="Rect치ngulo_46072" data-name="Rect치ngulo 46072" width="79.609" height="22.578" rx="11.289" fill="#7d97f4"/>
          </g>
          <g id="Grupo_166262" data-name="Grupo 166262" transform="translate(7.765 152.064)">
            <path id="Trazado_225893" data-name="Trazado 225893" d="M2026.462,2562.488s-10.742,1.665-22.82,9.739a6.021,6.021,0,0,0-2.657,5.754c1.446,11.455,7.392,48.533,27,84.748a9.117,9.117,0,0,1,.875,6.255l-3.407,15.853-6.317,5.924h16.272l10.834-29.32-4.633-1.465a8.766,8.766,0,0,1-6.122-8.207l-.543-31.452c.464-14.012-8.592-23.681-8.592-23.681l25.987-1.264Z" transform="translate(-1933.098 -2547.806)" fill="url(#linear-gradient-26)"/>
            <path id="Trazado_225894" data-name="Trazado 225894" d="M2055.025,3043.678c-1.481,1.939,15.95,4.5,24.757.256,0,0,12.208-21.241,12.208-32.177,0,0-.969-2.23-8.137-1.724,0,0-4.1,25.15-8.427,27.967s-12.11.285-12.11.285S2057.211,3040.817,2055.025,3043.678Z" transform="translate(-1975.34 -2897.862)" fill="url(#linear-gradient-27)"/>
            <path id="Trazado_225895" data-name="Trazado 225895" d="M1832.17,2611.607c-.138-.239-27.979-3.348-27.979-3.348a64.353,64.353,0,0,1-1.936,20.118c-2.848,11.653-43.724,62.14-43.724,62.14l4.286,13.587a68.937,68.937,0,0,1-39.114,2.353l26.562-15.939s24.859-84.716,40.086-99.829l27.907-9.655Z" transform="translate(-1716.216 -2562.314)" fill="url(#linear-gradient-28)"/>
            <path id="Trazado_225896" data-name="Trazado 225896" d="M2135.114,2495.044s16.04,23.858,17.357,34.741-4.394,15.305-21.225,16.034-61.761.718-61.761.718l-38.348-32.773s27.946-9.972,35.212-12.792S2135.114,2495.044,2135.114,2495.044Z" transform="translate(-1956.722 -2495.044)" fill="url(#linear-gradient-17)"/>
            <path id="Trazado_225897" data-name="Trazado 225897" d="M1734.3,3125.337s4.614,4.469,1.5,9.442c0,0-36.554,6.479-46.478,3.539,0,0,2.061-4.7,13.236-10.057l-.825.633a1.335,1.335,0,0,0,.882,2.4C1709.972,3130.869,1725.211,3129.52,1734.3,3125.337Z" transform="translate(-1689.314 -2988.123)" fill="url(#linear-gradient-30)"/>
          </g>
          <g id="Grupo_166264" data-name="Grupo 166264" transform="translate(87.034)">
            <path id="Trazado_225898" data-name="Trazado 225898" d="M2148.205,1797.3c32.789-5.575,48.226,21.168,47.1,26.787a1.027,1.027,0,0,0,1.287,1.178c3.764-1.013,12.081-2.29,17.236,4.169,4.551,5.7,1.15,11.085-1.624,14.039a1.034,1.034,0,0,0,.865,1.749c6.921-.874,21.96-1.083,24.42,13.005,2.294,13.138-6.85,16.842-12.273,17.887a1.029,1.029,0,0,0-.343,1.883c2.706,1.716,5.84,5.263,4.573,12.262-1.985,10.97-23.494,10.072-26.008,9.929a1.009,1.009,0,0,1-.448-.134l-34.451-19.648a1.035,1.035,0,0,1-.507-.723l-6.955-40.167a1.036,1.036,0,0,1,.274-.895l-22.459-31.695C2130.738,1805.726,2147.819,1797.363,2148.205,1797.3Z" transform="translate(-2118.565 -1796.538)" fill="url(#linear-gradient-31)"/>
            <path id="Trazado_225899" data-name="Trazado 225899" d="M2190.383,2169.761s-18.679-17.786-27.874-29.567a25,25,0,0,1-4.232-22.5c4.2-14.143,11.658-28.791,12.338-31.071,1.042-3.494,21.987-3.349,21.987-3.349s41.214,26.748,57.407,72.058L2231.824,2161s-10.761-18.053-21.394-29.531c0,0,18.4,24.3,19.046,34.254Z" transform="translate(-2134.64 -2020.855)" fill="#fdb74d"/>
            <path id="Trazado_225900" data-name="Trazado 225900" d="M2207.052,1973.385c.219.726,5.685,18.848,6.113,19.224s11.988,1,17.43-2.721l-13.5-26.4Z" transform="translate(-2173.61 -1927.141)" fill="#febbba"/>
            <g id="Grupo_166263" data-name="Grupo 166263" transform="translate(0 3.266)">
              <path id="Trazado_225901" data-name="Trazado 225901" d="M2104.715,1877.708s-2.642,10.381,4.667,24.345,15.583,13.948,20.107,9.479,10.1-12.053,8.776-25.553S2108.531,1864.5,2104.715,1877.708Z" transform="translate(-2093.188 -1858.017)" fill="#febbba"/>
              <path id="Trazado_225902" data-name="Trazado 225902" d="M2088.4,1840.237s-12.126-18.539-23.5-3.948l-.206,5.306s-13.318-1.581-10.988-13.793,13.842-19.846,28.665-14.556,23.317,10.715,24.274,21.338-7.495,8.293-7.495,8.293-2.757-7.48-6.676-8.257-2.9,5.055-2.9,5.055Z" transform="translate(-2053.438 -1811.542)" fill="url(#linear-gradient-32)"/>
              <path id="Trazado_225903" data-name="Trazado 225903" d="M2218.436,1902.544s-6.289-9.494.155-10.909,5.445,9.251,4.749,13.2Z" transform="translate(-2180.365 -1874.098)" fill="url(#linear-gradient-33)"/>
            </g>
            <path id="Trazado_225904" data-name="Trazado 225904" d="M2134.69,2430.023l13.724-13.228,18.986,8.021s18.9,2.927,29.713,0l10.816-2.928,24.442-7.609,3.838,10.849a6.531,6.531,0,0,1-2.386,7.5,43.108,43.108,0,0,1-6.173,3.845c-3.219,1.408-79.345-.974-79.345-.974Z" transform="translate(-2117.001 -2279.797)" fill="url(#linear-gradient-34)"/>
          </g>
          <g id="Grupo_166265" data-name="Grupo 166265" transform="translate(0 84.182)">
            <path id="Trazado_225905" data-name="Trazado 225905" d="M2073.73,2489.34c-.061,0-.122,0-.183,0l-79.61-.087a3.563,3.563,0,0,1,.008-7.127l79.609.087a3.564,3.564,0,0,1,.176,7.123Z" transform="translate(-1917.071 -2417.058)" fill="url(#linear-gradient-35)"/>
            <path id="Trazado_225906" data-name="Trazado 225906" d="M1658.946,2183.226h66.3a12.636,12.636,0,0,1,11.429,7.246l30.65,64.992h-82.393a7.679,7.679,0,0,1-7.142-4.857l-23.768-60.141A5.3,5.3,0,0,1,1658.946,2183.226Z" transform="translate(-1653.646 -2183.226)" fill="url(#linear-gradient-36)"/>
            <path id="Trazado_225907" data-name="Trazado 225907" d="M1854.511,2312.436c1.437,4.464.375,8.8-2.37,9.682s-6.137-2.018-7.574-6.482-.375-8.8,2.371-9.683S1853.074,2307.972,1854.511,2312.436Z" transform="translate(-1802.502 -2279.112)" fill="#7d97f4"/>
          </g>
        </g>
        <g id="Grupo_166270" data-name="Grupo 166270" transform="translate(416.147 18.86)">
          <g id="Grupo_166267" data-name="Grupo 166267" transform="translate(48.633 174.411)">
            <path id="Trazado_225908" data-name="Trazado 225908" d="M2635.512,3110.3a96.763,96.763,0,0,1,1.165,10.147,4.369,4.369,0,0,1-3.938,4.613c-8.149.791-26.7,2.25-38.54.541a1.988,1.988,0,0,1-1.092-3.42c4.884-4.55,16.677-13.4,36.089-15.334Z" transform="translate(-2592.474 -2924.301)" fill="url(#linear-gradient-37)"/>
            <path id="Trazado_225909" data-name="Trazado 225909" d="M2758.226,3058.985l-4.12,10.1a3.366,3.366,0,0,1-3.455,2.089,18.472,18.472,0,0,1-3.365-.652,4.423,4.423,0,0,1-2.94-5.5l3.11-10.4Z" transform="translate(-2711.137 -2883.448)" fill="url(#linear-gradient-38)"/>
            <path id="Trazado_225910" data-name="Trazado 225910" d="M3090.328,3159.651s-8.25,6.9-11.464,15.757a3.764,3.764,0,0,0,3.575,5h16.978a4,4,0,0,0,3.958-4.682C3102.292,3169.612,3099.174,3159.677,3090.328,3159.651Z" transform="translate(-2972.803 -2965.613)" fill="url(#linear-gradient-39)"/>
            <path id="Trazado_225911" data-name="Trazado 225911" d="M3133.811,3113.864s-1.666,7.375-2.947,12.25a1.559,1.559,0,0,1-2.038,1.062,14.2,14.2,0,0,0-6.18-1.121,1.2,1.2,0,0,1-1.325-1.2l-.16-12.25Z" transform="translate(-3006.066 -2928.81)" fill="url(#linear-gradient-40)"/>
            <path id="Trazado_225912" data-name="Trazado 225912" d="M2797.4,2287.425l-50.18,153.087s9.625,6.3,14.21,6.041l59.6-123.03s10.429,75.806,5.376,130.23l17.072,1.3s27.759-139.08,6.734-186.716Z" transform="translate(-2713.533 -2268.34)" fill="url(#linear-gradient-41)"/>
            <path id="Trazado_225913" data-name="Trazado 225913" d="M3076.054,2456.713a.52.52,0,0,0,.062,0,.487.487,0,0,0,.422-.543l-1.948-15.456a.486.486,0,0,0-.964.121l1.948,15.457A.485.485,0,0,0,3076.054,2456.713Z" transform="translate(-2968.876 -2402.854)" fill="url(#linear-gradient-42)"/>
          </g>
          <path id="Trazado_225914" data-name="Trazado 225914" d="M2758.96,1737.226s40.655,3.61,34.9,32.578c0,0,22.473,42.292,32.98,92.112a2.93,2.93,0,0,1-2.377,3.482l-67.7,11.592a3.646,3.646,0,0,1-4.144-2.679l-16.176-62.521-6.3,29.068-20.03-5.219,16.862-85.416S2729.322,1737.762,2758.96,1737.226Z" transform="translate(-2635.866 -1678.438)" fill="url(#linear-gradient-43)"/>
          <path id="Trazado_225915" data-name="Trazado 225915" d="M2807.4,1970.147a.518.518,0,0,0,.108-.011.5.5,0,0,0,.385-.6l-5.644-25.914a.5.5,0,0,0-.985.215l5.644,25.914A.5.5,0,0,0,2807.4,1970.147Z" transform="translate(-2707.168 -1839.592)" fill="#91b3fa"/>
          <path id="Trazado_225916" data-name="Trazado 225916" d="M2797.925,2260.871a9.664,9.664,0,0,1,6.991-.909l4.71,1.172a1.707,1.707,0,0,0,2.109-1.466l4.874-43.388c6.1,2.894,14.889,2.549,17.789,2.337l-11.22,51.151h-39.261Z" transform="translate(-2693.607 -2053.202)" fill="url(#linear-gradient-44)"/>
          <path id="Trazado_225917" data-name="Trazado 225917" d="M2369.078,1882.785l1.187-3.944a7.8,7.8,0,0,1,4.56-4.99l21.463-8.631s.324-2.752-4.535-4.623-3.723-7.312-3.723-7.312,6.639,3.028,16.356,7.831a22.746,22.746,0,0,1,10.33,11.246l48.635,59.29-5.71,3.924a15.244,15.244,0,0,1-22.1-5.424l-26.347-50.522A98.212,98.212,0,0,1,2369.078,1882.785Z" transform="translate(-2369.078 -1769.23)" fill="url(#linear-gradient-45)"/>
          <g id="Grupo_166269" data-name="Grupo 166269" transform="translate(63.009 0)">
            <path id="Trazado_225918" data-name="Trazado 225918" d="M2827.473,1608.7l12.5,35s-11.072,8.656-19.152,5.729l-6.3-20.061S2819.336,1604.846,2827.473,1608.7Z" transform="translate(-2780.559 -1577.57)" fill="#febbba"/>
            <g id="Grupo_166268" data-name="Grupo 166268">
              <path id="Trazado_225919" data-name="Trazado 225919" d="M2702.58,1527.424c0,.539,12.045,34.1,12.045,34.1l19.015-7.285-6.691-33.5S2702.58,1518.4,2702.58,1527.424Z" transform="translate(-2692.985 -1508.863)" fill="#febbba"/>
              <path id="Trazado_225920" data-name="Trazado 225920" d="M2689.136,1487.216l4.9,17.361a2.49,2.49,0,0,1,.1.678c0,1.416-.349,6.288-5.312,5.626-4.5-.6-8.623-1.083-11.242.15a2.518,2.518,0,0,0-1.3,3.131,108.884,108.884,0,0,0,6.849,15.458,2.512,2.512,0,0,0,3.232,1.035c3.572-1.625,11.008-5.262,16.305-9.59a2.519,2.519,0,0,0,.892-2.419c-.833-4.441-3.316-17.949-3.426-21.82-.1-3.633,3.974-6.407,5.769-7.45a2.474,2.474,0,0,0,1.166-1.566c.564-2.339,1.042-7.631-5.709-8.8a2.523,2.523,0,0,1-2.047-3c.571-2.8.388-6.913-4.923-8.429-5.4-1.541-8.795,1.709-10.523,4.2a2.521,2.521,0,0,1-3.125.834,1.994,1.994,0,0,0-2.235.4,2.482,2.482,0,0,1-3.631-.552c-1.574-2.317-4.435-4.63-9.276-3.063-8.591,2.78-8.18,12.685-5.031,18.07s12.292,1.842,16.621-1.727c3.291-2.713,8.3-1.09,10.514-.156A2.5,2.5,0,0,1,2689.136,1487.216Z" transform="translate(-2658.507 -1467.183)" fill="url(#linear-gradient-46)"/>
              <path id="Trazado_225921" data-name="Trazado 225921" d="M2847.319,1580.826s-5.084-9.618-1.722-12.638,9.059-2.526,8.905,5C2854.312,1582.538,2847.319,1580.826,2847.319,1580.826Z" transform="translate(-2803.969 -1544.844)" fill="#febbba"/>
            </g>
          </g>
          <path id="Trazado_225922" data-name="Trazado 225922" d="M2937.3,1978.8a48.764,48.764,0,0,0,4.969-.234l.361-.04,14.8-69.021a.5.5,0,0,0-.986-.212l-14.65,68.3c-2.2.194-13.968.975-20.178-3.425l12.823-59.966-2.676-5.044a.5.5,0,1,0-.891.473l2.505,4.72-12.883,60.241.258.193C2925.248,1978.159,2932.476,1978.8,2937.3,1978.8Z" transform="translate(-2800.458 -1812.732)" fill="#91b3fa"/>
        </g>
        <g id="Grupo_166271" data-name="Grupo 166271" transform="translate(106.611 252.472)">
          <path id="Trazado_225923" data-name="Trazado 225923" d="M949.8,2683.169a2.391,2.391,0,0,1-1.018-.23,2.918,2.918,0,0,1-1.35-3.7l54.1-137.258a2.5,2.5,0,0,1,3.389-1.474,2.917,2.917,0,0,1,1.35,3.7l-54.1,137.259A2.584,2.584,0,0,1,949.8,2683.169Z" transform="translate(-947.225 -2540.279)" fill="url(#linear-gradient-47)"/>
          <path id="Trazado_225924" data-name="Trazado 225924" d="M1035.335,2683.167a2.582,2.582,0,0,1-2.371-1.7l-54.1-137.259a2.918,2.918,0,0,1,1.35-3.7,2.5,2.5,0,0,1,3.389,1.474l54.1,137.258a2.918,2.918,0,0,1-1.35,3.7A2.386,2.386,0,0,1,1035.335,2683.167Z" transform="translate(-971.815 -2540.277)" fill="url(#linear-gradient-48)"/>
          <path id="Trazado_225925" data-name="Trazado 225925" d="M2636.227,2683.169a2.389,2.389,0,0,1-1.017-.23,2.918,2.918,0,0,1-1.351-3.7l54.1-137.258a2.5,2.5,0,0,1,3.389-1.474,2.918,2.918,0,0,1,1.35,3.7l-54.1,137.259A2.584,2.584,0,0,1,2636.227,2683.169Z" transform="translate(-2266.515 -2540.279)" fill="url(#linear-gradient-49)"/>
          <path id="Trazado_225926" data-name="Trazado 225926" d="M2721.757,2683.167a2.583,2.583,0,0,1-2.371-1.7l-54.1-137.259a2.919,2.919,0,0,1,1.35-3.7,2.5,2.5,0,0,1,3.389,1.474l54.1,137.258a2.918,2.918,0,0,1-1.35,3.7A2.386,2.386,0,0,1,2721.757,2683.167Z" transform="translate(-2291.104 -2540.277)" fill="url(#linear-gradient-50)"/>
        </g>
        <g id="Grupo_166272" data-name="Grupo 166272" transform="translate(466.085 234.567)">
          <path id="Trazado_225927" data-name="Trazado 225927" d="M2609.439,2474.515h78.35v-8.085h-78.35C2611.116,2466.43,2611.116,2474.515,2609.439,2474.515Z" transform="translate(-2607.05 -2464.601)" fill="#91b3fa"/>
          <path id="Trazado_225928" data-name="Trazado 225928" d="M2678.468,2467.946a.738.738,0,0,0,.736-.736V2460.6a.738.738,0,0,0-.736-.735H2599.2a.738.738,0,0,1-.735-.736v-.357a.738.738,0,0,1,.735-.736h84.49a3.384,3.384,0,0,1,3.384,3.384v5.168a3.19,3.19,0,0,1-3.191,3.19H2599.2a.737.737,0,0,1-.735-.735v-.357a.738.738,0,0,1,.735-.736Z" transform="translate(-2598.464 -2458.032)" fill="url(#linear-gradient-51)"/>
        </g>
        <path id="Trazado_225929" data-name="Trazado 225929" d="M1298.907,2515.437a2.381,2.381,0,0,0-.977-2.545,5.809,5.809,0,0,0-3.581-1.12H824.884a6.35,6.35,0,0,0-4.5,1.635,2.553,2.553,0,0,0-.349,3.4l5.087,7.3c1.165,1.673,3.689,2.744,6.467,2.744h459.54c2.584,0,4.8-1.216,5.3-2.9Z" transform="translate(-740.726 -2265.505)" fill="url(#linear-gradient-52)"/>
      </g>
    </g>
  </g>
</svg>
