<svg xmlns="http://www.w3.org/2000/svg" width="191.936" height="191.936" viewBox="0 0 191.936 191.936">
  <g id="Grupo_167860" data-name="Grupo 167860" transform="translate(-337.665 -1767.004)">
    <g id="Grupo_134154" data-name="Grupo 134154" transform="translate(2287.329 2244.518)">
      <circle id="Elipse_5760" data-name="Elipse 5760" cx="95.968" cy="95.968" r="95.968" transform="translate(-1949.664 -477.513)" fill="#5038a1"/>
    </g>
    <g id="deportes-con-balones" transform="translate(376.223 1762.851)">
      <g id="Grupo_167841" data-name="Grupo 167841" transform="translate(-0.001 45.661)">
        <path id="Trazado_226645" data-name="Trazado 226645" d="M216.6,391.968h-2.708v2.6h-1.828v-2.6h-2.708v2.6H206.94v-2.6h-2.708v2.6h-2.415v-2.6h-2.709v2.6h-2.031v2.708h2.031v2.46h2.709v-2.46h2.415v2.46h2.708v-2.46h2.415v2.46h2.708v-2.46h1.828v2.46H216.6v-2.46h2.257v-2.708H216.6Z" transform="translate(-158.661 -324.463)" fill="#fedc72"/>
        <path id="Trazado_226646" data-name="Trazado 226646" d="M105.787,114.114a18.339,18.339,0,0,0-3.724-1.49,35.384,35.384,0,0,0,8.78-7.945,36.347,36.347,0,0,0-5.733-51.053l-.023-.023a.022.022,0,0,1-.023-.023A36.272,36.272,0,0,0,80.689,45.7h-.023A36.384,36.384,0,0,0,54.034,59.336c-.135.181-.271.361-.406.519a33.265,33.265,0,0,0-6.884-3.972,33.678,33.678,0,0,0-25.324-.406c-.023,0-.023,0-.045.023A33.507,33.507,0,0,0,7.313,65.859a34.048,34.048,0,0,0-4.672,7.877c0,.023-.023.023-.023.045a1.269,1.269,0,0,0-.09.271,33.809,33.809,0,0,0-.88,23.225c0,.023,0,.023.023.045,0,.023,0,.023.023.045a33.4,33.4,0,0,0,9.141,14.2,16.911,16.911,0,0,0-3.769,2.392l-.023.023A.022.022,0,0,0,7.02,114a17.268,17.268,0,0,0,0,26.52l.045.045a17.256,17.256,0,0,0,22.028,0l.068-.068c.316-.271.609-.519.9-.812.474-.474.925-.948,1.354-1.467.406.181.79.361,1.287.564A46.557,46.557,0,0,0,51.032,142.6a47.6,47.6,0,0,0,15.122-2.483c.023,0,.045,0,.045-.023a48.338,48.338,0,0,0,10.676-5.078h.045a44.335,44.335,0,0,0,3.656-2.618A17.288,17.288,0,1,0,109.6,116.913,16.908,16.908,0,0,0,105.787,114.114ZM80.305,129.033a34.876,34.876,0,0,1-2.8,2.257V103.009c5.214,3.837,8.915,8.509,9.8,12.414-.271.2-.542.406-.79.609a17.3,17.3,0,0,0-6.207,13Zm-52.024,8.577a14.073,14.073,0,0,1-1.693-1.986l1.693-1.151-1.535-2.234-1.535,1.038a15.652,15.652,0,0,1-.971-2.844l1.986-.474-.632-2.641-1.715.406c0-.158-.023-.339-.023-.5,0-.564.045-1.128.09-1.693l1.625.384.632-2.641-1.625-.406a12.825,12.825,0,0,1,.88-2.167l1.309.88L28.3,119.35l-1.4-.948a13.215,13.215,0,0,1,1.4-1.58,14.45,14.45,0,0,1,3.611,5.778,1.3,1.3,0,0,0,.113.316,15.049,15.049,0,0,1,.632,4.288,14.565,14.565,0,0,1-4.378,10.4Zm1.783-22.841c-.293-.271-.587-.542-.9-.812-.023-.023-.045-.045-.068-.045a17.547,17.547,0,0,0-4.9-2.866v-7.922a43.034,43.034,0,0,1,7.674-4.559v18.214a21.054,21.054,0,0,0-1.806-2.009ZM4.064,95.9a33.168,33.168,0,0,1-.88-3.656A30.855,30.855,0,0,1,4.56,76.286l7.38,3.792,1.467,12.5a1.15,1.15,0,0,0-.384.474l-2.8,5.71Zm27.851-33.11,11.263-.7L51.8,71.163l-3.453,9.254L36.971,81.794l-8.712-9.3Zm20.922-.113a31.186,31.186,0,0,1,8.193,9.976l-6.884-2.934-8.689-9.141,1.219-1.738a32.294,32.294,0,0,1,6.161,3.837ZM80.554,82.245,69.9,95.584c-1.151-.5-2.347-.971-3.544-1.377a31.983,31.983,0,0,0,.722-4.83c.023-.248.045-.474.045-.722a34.534,34.534,0,0,0-.158-5.507A36.238,36.238,0,0,0,73.9,76.918Zm1.738,21.193a41.173,41.173,0,0,0-5.417-4.13c-1.422-.925-2.934-1.76-4.446-2.55L82.675,83.915l6.071,4.853A36.481,36.481,0,0,0,82.291,103.438ZM54.124,72.675l8.486,3.611A30.04,30.04,0,0,1,63.9,80.981a30.815,30.815,0,0,1,.519,7.335l-7.29,2.957-6.3-9.773Zm12.368,7.471A31.564,31.564,0,0,0,64.935,74.8c-.045-.135-.113-.293-.158-.429a33.234,33.234,0,0,0-5.349-8.983l12.346,9.841A34.033,34.033,0,0,1,66.492,80.146Zm-40.13-5.665,8.4,8.96-5.936,10.5L16.048,91.792,14.672,80.01ZM15.371,94.433l13.294,2.234.226.384a44.254,44.254,0,0,0-6.861,4.356,33.31,33.31,0,0,0-7.019,7.177l-2.686-7.922Zm6.116,10.924v4.92a17.171,17.171,0,0,0-3.431-.339c-.248,0-.5,0-.745.023A28.99,28.99,0,0,1,21.488,105.357Zm11.24-10.089c-.474.181-.925.384-1.377.587l-.248-.429L37.287,84.5l11.353-1.377,5.53,8.6c-1.038-.068-2.1-.113-3.137-.113a47.654,47.654,0,0,0-18.3,3.656Zm31.4-3.9c-.09.677-.226,1.354-.361,2.031-.948-.271-1.918-.5-2.866-.722Zm3,6a46.745,46.745,0,0,1,7.674,3.814V133.1a44.813,44.813,0,0,1-7.674,3.769ZM90.507,128.4c.068-.7.226-1.6.406-2.641.519-3.137,1.174-6.906.587-9.683a14.779,14.779,0,0,1,6.071-1.332,14.591,14.591,0,0,1,5.891,1.241c-.7,2.821.045,6.636.677,9.8.2,1.038.384,1.941.474,2.641a4.149,4.149,0,0,1-1.106,3.273,7.13,7.13,0,0,1-5.259,2.257H96.872a7.149,7.149,0,0,1-5.191-2.212A4.382,4.382,0,0,1,90.507,128.4Zm7.155-16.363h-.068a17.325,17.325,0,0,0-7.877,1.9,22.337,22.337,0,0,0-5.033-8.148,33.629,33.629,0,0,1,6.207-15.3l17.018,13.565a34.2,34.2,0,0,1-10.247,7.99Zm11.894-10.111-17-13.587A33.6,33.6,0,0,1,115.7,76.805,33.685,33.685,0,0,1,109.556,101.926Zm5.6-27.784A36.3,36.3,0,0,0,90.439,86.669l-6.071-4.853,20.11-25.211A33.592,33.592,0,0,1,115.153,74.142Zm-12.8-19.23L82.246,80.123,75.566,74.8A36.419,36.419,0,0,0,82.359,48.39a33.59,33.59,0,0,1,20,6.523ZM79.651,48.5a33.676,33.676,0,0,1-6.184,24.6L57.035,59.991A33.727,33.727,0,0,1,79.651,48.5ZM32.1,55.973A31.03,31.03,0,0,1,44.1,57.779L42.974,59.4l-11.736.722-5.891-3.07A31.175,31.175,0,0,1,32.1,55.973Zm-22.66,11.6a30.893,30.893,0,0,1,12.391-9.3l7.448,3.882L25.6,71.84,13.227,77.708,5.576,73.781a30.985,30.985,0,0,1,3.86-6.207ZM5.418,99.511l4.356,2.009,2.618,7.787a30.365,30.365,0,0,1-6.974-9.8ZM3.5,127.2a14.546,14.546,0,0,1,4.356-10.382,14.066,14.066,0,0,1,1.6,1.873l-.948.655,1.535,2.234.812-.564a14.969,14.969,0,0,1,.745,1.986l-1.083.248.632,2.641.993-.226c.045.519.09,1.038.09,1.557v.339l-1.061-.248-.632,2.641,1.377.316a15.847,15.847,0,0,1-.835,2.663l-1.016-.7-1.535,2.234,1.241.858a15.175,15.175,0,0,1-1.9,2.279A14.488,14.488,0,0,1,3.5,127.2Zm6.478,12.12a16.284,16.284,0,0,0,2.031-2.483l1.467.993L15.01,135.6l-1.648-1.128a18.12,18.12,0,0,0,1.2-3.589l1.828.429.632-2.641-2.076-.5c.023-.316.023-.655.023-.971a17.192,17.192,0,0,0-.135-2.167l2.189-.519-.632-2.641-2.122.5a18.71,18.71,0,0,0-1.128-2.889L15.01,118.2l-1.535-2.234-1.76,1.2a18.812,18.812,0,0,0-1.738-2.076,14.536,14.536,0,0,1,16.183,0,19.359,19.359,0,0,0-1.535,1.783l-1.332-.9L21.759,118.2l1.4.948a16.784,16.784,0,0,0-1.264,3.092l-1.512-.361-.632,2.641,1.557.361a15.878,15.878,0,0,0-.158,2.325c0,.384.023.745.045,1.128l-1.444.339.632,2.641,1.2-.293a17.007,17.007,0,0,0,1.332,3.769l-1.174.79,1.535,2.234,1.016-.7a16.775,16.775,0,0,0,1.828,2.189,14.517,14.517,0,0,1-16.138.022Zm23.789-3.07c-.293-.135-.542-.226-.767-.339a17.144,17.144,0,0,0,2.347-8.712,17.71,17.71,0,0,0-.767-5.123V97.435a44.449,44.449,0,0,1,29.7-1.061c.023,0,.045.023.068.023s.045.023.068.023v41.393a45.225,45.225,0,0,1-13.384,2.054,43.717,43.717,0,0,1-17.266-3.611Zm73.94,3.543A14.562,14.562,0,1,1,88.25,118.154c.248-.2.5-.406.745-.587a36.217,36.217,0,0,1-.745,7.764c-.18,1.083-.339,2.031-.429,2.8a7.012,7.012,0,0,0,1.851,5.439,9.81,9.81,0,0,0,7.222,3.115h1.377a9.878,9.878,0,0,0,7.29-3.16,6.785,6.785,0,0,0,1.76-5.394c-.09-.79-.293-1.738-.5-2.821-.451-2.325-1.106-5.62-.835-7.854a14.917,14.917,0,0,1,1.738,1.422,14.5,14.5,0,0,1-.023,20.922Z" transform="translate(0.001 -45.661)" fill="#fedc72"/>
      </g>
    </g>
  </g>
</svg>
