<svg xmlns="http://www.w3.org/2000/svg" width="191.936" height="191.937" viewBox="0 0 191.936 191.937">
  <g id="Grupo_167878" data-name="Grupo 167878" transform="translate(249 9613)">
    <circle id="Elipse_5760" data-name="Elipse 5760" cx="95.968" cy="95.968" r="95.968" transform="translate(-249 -9613)" fill="#5038a1"/>
    <g id="instrumento-musical" transform="translate(-207 -9570.99)">
      <path id="Trazado_226647" data-name="Trazado 226647" d="M105.541,75.619a1.7,1.7,0,0,0,1.714-1.7V67.14a1.7,1.7,0,0,0-1.714-1.7H94.6L88.553,53.557l7.628-12.3a5.244,5.244,0,0,0,.047-5.416,5.376,5.376,0,0,0-9.4.3l-3.567,7.012-3.567-7.012a5.378,5.378,0,0,0-9.424-.319,5.246,5.246,0,0,0,.068,5.435l7.63,12.3L71.922,65.445H65.647A11.791,11.791,0,0,0,65.519,48.8L58.247,41.6A12.241,12.241,0,0,0,57,40.543,43.532,43.532,0,0,1,83.84,29.12a7.833,7.833,0,0,0,1.991.3,3.707,3.707,0,0,0,2.713-1c1.6-1.582,1.371-4.294-.686-8.06a45.344,45.344,0,0,0-7.8-9.927A45.713,45.713,0,0,0,70.028,2.7C66.222.676,63.479.447,61.884,2.024a4.54,4.54,0,0,0-.722,4.726A42.656,42.656,0,0,1,48.554,34.413l-7.27,7.19h0l-1.212,1.2-3.635-3.6a1.777,1.777,0,0,0-2.423,0L32.8,40.4,30.376,38l-2.423,2.4,2.423,2.4L29.166,44l-1.213,1.2-2.425-2.4L23.1,45.2l2.425,2.4-1.213,1.2L23.1,50l-2.423-2.4L18.256,50l2.423,2.4-1.212,1.2a1.683,1.683,0,0,0,0,2.4l3.637,3.6L8.338,74.2a5.182,5.182,0,0,0-5.827.977h0a5.049,5.049,0,0,0,0,7.193l4.847,4.8a5.169,5.169,0,0,0,6.6.567,5.041,5.041,0,0,0,1.663-6.341l5.073-5.019,8.484,8.394a12.1,12.1,0,0,0,16.967,0l6.271-6.215V95.968H50.7a1.7,1.7,0,0,0-1.714,1.7v6.783a1.7,1.7,0,0,0,1.714,1.7h54.843a1.7,1.7,0,0,0,1.714-1.7V97.664a1.7,1.7,0,0,0-1.714-1.7h-1.714V75.619Zm-1.714-3.391H52.411V68.836h51.415ZM78.119,93.872,68.9,75.619H87.343ZM89.854,78.236l6.4,17.732H80.892ZM75.346,95.968H59.985l6.4-17.732ZM30.375,66.786h0l3.635,3.6a5.157,5.157,0,0,0,5.468,1.155,5.068,5.068,0,0,0,3.273-4.485,5.116,5.116,0,0,0,3.369-1.465h0A5.025,5.025,0,0,0,47.6,62.253a5.138,5.138,0,0,0,3.369-1.462h0a5.049,5.049,0,0,0,0-7.193L47.342,50h0a3.539,3.539,0,0,1,4.847,0l4.85,4.8a3.366,3.366,0,0,1,0,4.8l-5.92,5.854H50.7a1.7,1.7,0,0,0-1.714,1.7v.417l-8.912,8.818a3.542,3.542,0,0,1-4.847,0l-4.848-4.8a3.366,3.366,0,0,1,0-4.792Zm0-19.187L43.7,60.788a1.683,1.683,0,0,1,0,2.4h0a1.765,1.765,0,0,1-2.422,0L27.951,50ZM85.34,65.445H81.182l2.079-3.351Zm4.55-27.781a1.943,1.943,0,0,1,2.591-.848,1.87,1.87,0,0,1,.989,1.17,1.827,1.827,0,0,1-.209,1.492L86.748,49.991,85.187,46.92Zm-16.839.326a1.87,1.87,0,0,1,.991-1.17,1.943,1.943,0,0,1,2.59.848L90.762,65.445h-1.4L73.252,39.479A1.828,1.828,0,0,1,73.051,37.989Zm7.027,18.968L81.25,58.85l-4.091,6.595h-1.4ZM63.1,51.192a8.415,8.415,0,0,1,0,11.991l-2.288,2.262H55.966l3.493-3.456a6.732,6.732,0,0,0,0-9.593l-4.847-4.8a6.907,6.907,0,0,0-9.694,0h0L42.5,45.2,43.708,44a8.634,8.634,0,0,1,12.117,0ZM64.3,4.444a.792.792,0,0,1,.379-.071c1.542,0,6.576,2.12,12.972,8.448,7.09,7.015,8.953,12.362,8.5,13.174-.857.48-6.259-1.357-13.351-8.377S63.836,5.261,64.288,4.449ZM50.977,36.807A46.084,46.084,0,0,0,63.922,12.324a50.1,50.1,0,0,0,6.446,7.7A50.485,50.485,0,0,0,78.159,26.4,46.9,46.9,0,0,0,53.8,38.822a12.112,12.112,0,0,0-4.034-.7h-.129ZM35.223,42.8l13.33,13.191a1.683,1.683,0,0,1,0,2.4h0a1.727,1.727,0,0,1-2.425,0L32.8,45.2Zm-9.7,9.594L38.858,65.585a1.685,1.685,0,0,1,0,2.4,1.728,1.728,0,0,1-2.426,0l-3.635-3.6-2.423-2.4-7.272-7.2Zm2.425,11.989h0v.008l-9.688,9.584-2.43-2.4,9.7-9.593ZM10.984,76.377l2.425-2.4,2.423,2.4-2.425,2.4Zm1.21,8.4a1.765,1.765,0,0,1-2.422,0l-4.847-4.8a1.683,1.683,0,0,1,0-2.4h0a1.727,1.727,0,0,1,2.423,0l4.847,4.8a1.683,1.683,0,0,1,0,2.4Zm31.511-2.4a8.634,8.634,0,0,1-12.117,0L23.1,73.978l3.1-3.064a6.674,6.674,0,0,0,1.75,3.064l4.848,4.8a6.907,6.907,0,0,0,9.694,0l6.49-6.422v1.57a1.69,1.69,0,0,0,1.575,1.669Zm12.134-6.752H63.69L56.353,95.968h-.514Zm47.988,27.132H52.411V99.359h51.415ZM100.4,95.968h-.514L92.548,75.619H100.4Z" transform="translate(0.005 0)" fill="#fedc72"/>
      <path id="Trazado_226648" data-name="Trazado 226648" d="M5.584,36.835a4.157,4.157,0,0,0,4.584-3.667V19.882l9.167-2.618v8.641a5.97,5.97,0,0,0-.917-.072A4.157,4.157,0,0,0,13.834,29.5a4.157,4.157,0,0,0,4.584,3.667A4.157,4.157,0,0,0,23,29.5V14.833a1.833,1.833,0,0,0-2.336-1.762L7.832,16.738A1.833,1.833,0,0,0,6.5,18.5V29.572a5.97,5.97,0,0,0-.917-.071A4.157,4.157,0,0,0,1,33.168a4.157,4.157,0,0,0,4.584,3.667Z" transform="translate(0 7.917)" fill="#fedc72"/>
      <path id="Trazado_226649" data-name="Trazado 226649" d="M19.584,24.835a4.157,4.157,0,0,0,4.584-3.667V7.882l9.167-2.618v8.641a5.97,5.97,0,0,0-.917-.072A4.157,4.157,0,0,0,27.834,17.5a4.157,4.157,0,0,0,4.584,3.667A4.157,4.157,0,0,0,37,17.5V2.833a1.833,1.833,0,0,0-2.336-1.762L21.832,4.738A1.833,1.833,0,0,0,20.5,6.5V17.572a5.97,5.97,0,0,0-.917-.072A4.157,4.157,0,0,0,15,21.168,4.157,4.157,0,0,0,19.584,24.835Z" transform="translate(9.592 0.009)" fill="#fedc72"/>
    </g>
  </g>
</svg>
