<svg xmlns="http://www.w3.org/2000/svg" width="136.973" height="136.973" viewBox="0 0 136.973 136.973">
  <g id="Grupo_170650" data-name="Grupo 170650" transform="translate(-384.1 -3533.017)">
    <g id="Grupo_159899" data-name="Grupo 159899" transform="translate(384.1 3533.017)">
      <g id="Trazado_137458" data-name="Trazado 137458" transform="translate(0 0)" fill="#fff">
        <path d="M 68.48631286621094 131.9726409912109 C 59.91350936889648 131.9726409912109 51.59981155395508 130.2947692871094 43.77611541748047 126.9856185913086 C 40.01535797119141 125.3949661254883 36.38774871826172 123.4259033203125 32.9940071105957 121.1331405639648 C 29.6312255859375 118.8612899780273 26.46885681152344 116.2520523071289 23.5947265625 113.3779220581055 C 20.72059631347656 110.503791809082 18.11135673522949 107.341423034668 15.83950805664062 103.9786376953125 C 13.5467472076416 100.5848999023438 11.57768249511719 96.95726776123047 9.987030029296875 93.196533203125 C 6.677877902984619 85.37283325195312 5.000008583068848 77.05912017822266 5.000008583068848 68.48631286621094 C 5.000008583068848 59.91350936889648 6.677877902984619 51.59981155395508 9.987030029296875 43.77611541748047 C 11.57768249511719 40.01535797119141 13.5467472076416 36.38774871826172 15.83950805664062 32.9940071105957 C 18.11135673522949 29.6312255859375 20.72059631347656 26.46885681152344 23.5947265625 23.5947265625 C 26.46885681152344 20.72059631347656 29.6312255859375 18.11135673522949 32.9940071105957 15.83950805664062 C 36.38774871826172 13.5467472076416 40.01535797119141 11.57768249511719 43.77611541748047 9.987030029296875 C 51.59981155395508 6.677877902984619 59.91350936889648 5.000008583068848 68.48631286621094 5.000008583068848 C 77.05912017822266 5.000008583068848 85.37283325195312 6.677877902984619 93.196533203125 9.987030029296875 C 96.95726776123047 11.57768249511719 100.5848999023438 13.5467472076416 103.9786376953125 15.83950805664062 C 107.341423034668 18.11135673522949 110.503791809082 20.72059631347656 113.3779220581055 23.5947265625 C 116.2520523071289 26.46885681152344 118.8612899780273 29.6312255859375 121.1331405639648 32.9940071105957 C 123.4259033203125 36.38774871826172 125.3949661254883 40.01535797119141 126.9856185913086 43.77611541748047 C 130.2947692871094 51.59981155395508 131.9726409912109 59.91350936889648 131.9726409912109 68.48631286621094 C 131.9726409912109 77.05912017822266 130.2947692871094 85.37283325195312 126.9856185913086 93.196533203125 C 125.3949661254883 96.95726776123047 123.4259033203125 100.5848999023438 121.1331405639648 103.9786376953125 C 118.8612899780273 107.341423034668 116.2520523071289 110.503791809082 113.3779220581055 113.3779220581055 C 110.503791809082 116.2520523071289 107.341423034668 118.8612899780273 103.9786376953125 121.1331405639648 C 100.5848999023438 123.4259033203125 96.95726776123047 125.3949661254883 93.196533203125 126.9856185913086 C 85.37283325195312 130.2947692871094 77.05912017822266 131.9726409912109 68.48631286621094 131.9726409912109 Z" stroke="none"/>
        <path d="M 68.48631286621094 10.00000762939453 C 36.23686981201172 10.00000762939453 10.00000762939453 36.23686981201172 10.00000762939453 68.48631286621094 C 10.00000762939453 100.7357559204102 36.23686981201172 126.9726181030273 68.48631286621094 126.9726181030273 C 100.7357559204102 126.9726181030273 126.9726181030273 100.7357559204102 126.9726181030273 68.48631286621094 C 126.9726181030273 36.23686981201172 100.7357559204102 10.00000762939453 68.48631286621094 10.00000762939453 M 68.48631286621094 0 C 106.3102569580078 0 136.9726257324219 30.66236877441406 136.9726257324219 68.48631286621094 C 136.9726257324219 106.3102569580078 106.3102569580078 136.9726257324219 68.48631286621094 136.9726257324219 C 30.66236877441406 136.9726257324219 0 106.3102569580078 0 68.48631286621094 C 0 30.66236877441406 30.66236877441406 0 68.48631286621094 0 Z" stroke="none" fill="#8c6df2"/>
      </g>
    </g>
    <g id="tienda" transform="translate(417.51 3551.925)">
      <g id="Grupo_170603" data-name="Grupo 170603" transform="translate(0 75.122)">
        <g id="Grupo_170602" data-name="Grupo 170602">
          <path id="Trazado_227365" data-name="Trazado 227365" d="M68.505,443.733H1.161A1.161,1.161,0,0,0,0,444.894v4.645A1.161,1.161,0,0,0,1.161,450.7H68.505a1.16,1.16,0,0,0,1.161-1.161v-4.644A1.16,1.16,0,0,0,68.505,443.733Zm-1.161,4.645H2.322v-2.322H67.344v2.322Z" transform="translate(0 -443.733)" fill="#8c6df2"/>
        </g>
      </g>
      <g id="Grupo_170605" data-name="Grupo 170605" transform="translate(1.161 21.711)">
        <g id="Grupo_170604" data-name="Grupo 170604">
          <path id="Trazado_227366" data-name="Trazado 227366" d="M75.844,66.012,72.361,52.079a1.163,1.163,0,0,0-1.126-.879H13.179a1.161,1.161,0,0,0-1.126.879L8.569,66.012A1.162,1.162,0,0,0,9.7,67.456H74.718a1.162,1.162,0,0,0,1.126-1.443Zm-64.661-.879,2.9-11.611H70.327l2.9,11.611Z" transform="translate(-8.535 -51.2)" fill="#8c6df2"/>
        </g>
      </g>
      <g id="Grupo_170607" data-name="Grupo 170607" transform="translate(29.028 36.806)">
        <g id="Grupo_170606" data-name="Grupo 170606">
          <path id="Trazado_227367" data-name="Trazado 227367" d="M222.622,162.133v2.322a3.483,3.483,0,1,1-6.967,0v-2.322h-2.322v2.322a5.806,5.806,0,1,0,11.611,0v-2.322Z" transform="translate(-213.333 -162.133)" fill="#8c6df2"/>
        </g>
      </g>
      <g id="Grupo_170609" data-name="Grupo 170609" transform="translate(19.739 36.806)">
        <g id="Grupo_170608" data-name="Grupo 170608">
          <path id="Trazado_227368" data-name="Trazado 227368" d="M154.355,162.133v2.322a3.483,3.483,0,0,1-6.967,0v-2.322h-2.322v2.322a5.806,5.806,0,1,0,11.611,0v-2.322Z" transform="translate(-145.066 -162.133)" fill="#8c6df2"/>
        </g>
      </g>
      <g id="Grupo_170611" data-name="Grupo 170611" transform="translate(10.45 36.806)">
        <g id="Grupo_170610" data-name="Grupo 170610">
          <path id="Trazado_227369" data-name="Trazado 227369" d="M86.089,162.133v2.322a3.483,3.483,0,1,1-6.967,0v-2.322H76.8v2.322a5.806,5.806,0,1,0,11.611,0v-2.322Z" transform="translate(-76.8 -162.133)" fill="#8c6df2"/>
        </g>
      </g>
      <g id="Grupo_170613" data-name="Grupo 170613" transform="translate(1.161 36.806)">
        <g id="Grupo_170612" data-name="Grupo 170612">
          <path id="Trazado_227370" data-name="Trazado 227370" d="M17.822,162.133v2.322a3.483,3.483,0,1,1-6.967,0v-2.322H8.533v2.322a5.806,5.806,0,1,0,11.611,0v-2.322Z" transform="translate(-8.533 -162.133)" fill="#8c6df2"/>
        </g>
      </g>
      <g id="Grupo_170615" data-name="Grupo 170615" transform="translate(56.894 36.806)">
        <g id="Grupo_170614" data-name="Grupo 170614">
          <path id="Trazado_227371" data-name="Trazado 227371" d="M427.422,162.133v2.322a3.483,3.483,0,1,1-6.967,0v-2.322h-2.322v2.322a5.806,5.806,0,1,0,11.611,0v-2.322Z" transform="translate(-418.133 -162.133)" fill="#8c6df2"/>
        </g>
      </g>
      <g id="Grupo_170617" data-name="Grupo 170617" transform="translate(47.605 36.806)">
        <g id="Grupo_170616" data-name="Grupo 170616">
          <path id="Trazado_227372" data-name="Trazado 227372" d="M359.155,162.133v2.322a3.483,3.483,0,1,1-6.967,0v-2.322h-2.322v2.322a5.806,5.806,0,1,0,11.611,0v-2.322Z" transform="translate(-349.866 -162.133)" fill="#8c6df2"/>
        </g>
      </g>
      <g id="Grupo_170619" data-name="Grupo 170619" transform="translate(38.317 36.806)">
        <g id="Grupo_170618" data-name="Grupo 170618">
          <path id="Trazado_227373" data-name="Trazado 227373" d="M290.889,162.133v2.322a3.483,3.483,0,1,1-6.967,0v-2.322H281.6v2.322a5.806,5.806,0,1,0,11.611,0v-2.322Z" transform="translate(-281.6 -162.133)" fill="#8c6df2"/>
        </g>
      </g>
      <g id="Grupo_170621" data-name="Grupo 170621" transform="translate(29.028 22.872)">
        <g id="Grupo_170620" data-name="Grupo 170620">
          <rect id="Rectángulo_46247" data-name="Rectángulo 46247" width="2.322" height="13.933" fill="#8c6df2"/>
        </g>
      </g>
      <g id="Grupo_170623" data-name="Grupo 170623" transform="translate(38.317 22.872)">
        <g id="Grupo_170622" data-name="Grupo 170622">
          <rect id="Rectángulo_46248" data-name="Rectángulo 46248" width="2.322" height="13.933" fill="#8c6df2"/>
        </g>
      </g>
      <g id="Grupo_170625" data-name="Grupo 170625" transform="translate(19.742 22.781)">
        <g id="Grupo_170624" data-name="Grupo 170624" transform="translate(0 0)">
          <rect id="Rectángulo_46249" data-name="Rectángulo 46249" width="13.979" height="2.322" transform="translate(0 13.93) rotate(-85.239)" fill="#8c6df2"/>
        </g>
      </g>
      <g id="Grupo_170627" data-name="Grupo 170627" transform="translate(10.466 22.681)">
        <g id="Grupo_170626" data-name="Grupo 170626" transform="translate(0 0)">
          <rect id="Rectángulo_46250" data-name="Rectángulo 46250" width="14.127" height="2.322" transform="matrix(0.165, -0.986, 0.986, 0.165, 0, 13.935)" fill="#8c6df2"/>
        </g>
      </g>
      <g id="Grupo_170629" data-name="Grupo 170629" transform="translate(46.444 22.777)">
        <g id="Grupo_170628" data-name="Grupo 170628" transform="translate(0 0)">
          <rect id="Rectángulo_46251" data-name="Rectángulo 46251" width="2.321" height="13.979" transform="translate(0 0.193) rotate(-4.761)" fill="#8c6df2"/>
        </g>
      </g>
      <g id="Grupo_170631" data-name="Grupo 170631" transform="translate(54.589 22.681)">
        <g id="Grupo_170630" data-name="Grupo 170630" transform="translate(0 0)">
          <rect id="Rectángulo_46252" data-name="Rectángulo 46252" width="2.322" height="14.126" transform="translate(0 0.382) rotate(-9.462)" fill="#8c6df2"/>
        </g>
      </g>
      <g id="Grupo_170633" data-name="Grupo 170633" transform="translate(4.645 17.067)">
        <g id="Grupo_170632" data-name="Grupo 170632" transform="translate(0 0)">
          <path id="Trazado_227374" data-name="Trazado 227374" d="M93.35,17.067H35.3a1.162,1.162,0,0,0-1.161,1.161v4.644h2.322V19.389H92.189v3.483h2.322V18.228A1.161,1.161,0,0,0,93.35,17.067Z" transform="translate(-34.134 -17.067)" fill="#8c6df2"/>
        </g>
      </g>
      <g id="Grupo_170635" data-name="Grupo 170635" transform="translate(4.644 43.772)">
        <g id="Grupo_170634" data-name="Grupo 170634">
          <rect id="Rectángulo_46253" data-name="Rectángulo 46253" width="2.322" height="31.35" fill="#8c6df2"/>
        </g>
      </g>
      <g id="Grupo_170637" data-name="Grupo 170637" transform="translate(62.7 43.772)">
        <g id="Grupo_170636" data-name="Grupo 170636">
          <rect id="Rectángulo_46254" data-name="Rectángulo 46254" width="2.322" height="32.511" fill="#8c6df2"/>
        </g>
      </g>
      <g id="Grupo_170639" data-name="Grupo 170639" transform="translate(9.289 49.578)">
        <g id="Grupo_170638" data-name="Grupo 170638">
          <path id="Trazado_227375" data-name="Trazado 227375" d="M101.939,256H69.428a1.161,1.161,0,0,0-1.161,1.161v18.578a1.161,1.161,0,0,0,1.161,1.161h32.511a1.16,1.16,0,0,0,1.161-1.161V257.161A1.16,1.16,0,0,0,101.939,256Zm-1.161,18.578H70.589V258.322h30.189Z" transform="translate(-68.267 -256)" fill="#8c6df2"/>
        </g>
      </g>
      <g id="Grupo_170641" data-name="Grupo 170641" transform="translate(46.444 49.578)">
        <g id="Grupo_170640" data-name="Grupo 170640">
          <path id="Trazado_227376" data-name="Trazado 227376" d="M354.106,256H342.5a1.16,1.16,0,0,0-1.161,1.161v25.544a1.16,1.16,0,0,0,1.161,1.161h11.611a1.16,1.16,0,0,0,1.161-1.161V257.161A1.16,1.16,0,0,0,354.106,256Zm-1.161,25.544h-9.289V258.322h9.289Z" transform="translate(-341.334 -256)" fill="#8c6df2"/>
        </g>
      </g>
      <g id="Grupo_170643" data-name="Grupo 170643" transform="translate(16.599 54.562)">
        <g id="Grupo_170642" data-name="Grupo 170642" transform="translate(0 0)">
          <rect id="Rectángulo_46255" data-name="Rectángulo 46255" width="6.568" height="2.322" transform="translate(0 4.644) rotate(-45)" fill="#8c6df2"/>
        </g>
      </g>
      <g id="Grupo_170645" data-name="Grupo 170645" transform="translate(18.921 53.398)">
        <g id="Grupo_170644" data-name="Grupo 170644" transform="translate(0 0)">
          <rect id="Rectángulo_46256" data-name="Rectángulo 46256" width="14.778" height="2.322" transform="translate(0 10.45) rotate(-45)" fill="#8c6df2"/>
        </g>
      </g>
      <g id="Grupo_170647" data-name="Grupo 170647" transform="translate(27.043 59.207)">
        <g id="Grupo_170646" data-name="Grupo 170646" transform="translate(0 0)">
          <rect id="Rectángulo_46257" data-name="Rectángulo 46257" width="6.568" height="2.322" transform="translate(0 4.644) rotate(-45)" fill="#8c6df2"/>
        </g>
      </g>
    </g>
  </g>
</svg>
