<svg xmlns="http://www.w3.org/2000/svg" width="109" height="109" viewBox="0 0 109 109">
  <g id="Grupo_147580" data-name="Grupo 147580" transform="translate(-167.167 -5962.503)">
    <g id="Grupo_138784" data-name="Grupo 138784" transform="translate(-93.5 5048.503)">
      <circle id="Elipse_4743" data-name="Elipse 4743" cx="54.5" cy="54.5" r="54.5" transform="translate(260.667 914)" fill="#8c6df2"/>
    </g>
    <g id="salud" transform="translate(191.167 5986.492)">
      <path id="Trazado_227331" data-name="Trazado 227331" d="M294.341.012a3.13,3.13,0,1,0,3.13,3.13,3.13,3.13,0,0,0-3.13-3.13Zm0,4.174a1.043,1.043,0,1,1,1.043-1.043A1.044,1.044,0,0,1,294.341,4.186Zm0,0" transform="translate(-253.226 0)" fill="#fff"/>
      <path id="Trazado_227332" data-name="Trazado 227332" d="M208.432,40.012a5.217,5.217,0,1,0,5.217,5.217A5.217,5.217,0,0,0,208.432,40.012Zm0,8.347a3.13,3.13,0,1,1,3.13-3.13A3.131,3.131,0,0,1,208.432,48.359Zm0,0" transform="translate(-176.708 -34.783)" fill="#fff"/>
      <path id="Trazado_227333" data-name="Trazado 227333" d="M103.393,56.008a4.174,4.174,0,1,0,4.173,4.174A4.174,4.174,0,0,0,103.393,56.008Zm0,6.261a2.087,2.087,0,1,1,2.086-2.087A2.087,2.087,0,0,1,103.393,62.269Zm0,0" transform="translate(-86.277 -48.692)" fill="#fff"/>
      <path id="Trazado_227334" data-name="Trazado 227334" d="M62.353.012a3.13,3.13,0,1,0,3.13,3.13,3.13,3.13,0,0,0-3.13-3.13Zm0,4.174A1.043,1.043,0,1,1,63.4,3.142,1.044,1.044,0,0,1,62.353,4.186Zm0,0" transform="translate(-51.498 0)" fill="#fff"/>
      <path id="Trazado_227335" data-name="Trazado 227335" d="M277.418,252.531l1.974-.672,6.749,19.835-1.975.672Zm0,0" transform="translate(-241.232 -218.998)" fill="#fff"/>
      <path id="Trazado_227336" data-name="Trazado 227336" d="M236.492,266.407l1.974-.672,6.749,19.835-1.975.672Zm0,0" transform="translate(-205.645 -231.063)" fill="#fff"/>
      <path id="Trazado_227337" data-name="Trazado 227337" d="M318.34,238.578l1.975-.672,6.747,19.835-1.974.672Zm0,0" transform="translate(-276.817 -206.865)" fill="#fff"/>
      <path id="Trazado_227338" data-name="Trazado 227338" d="M61.384,143.476l-4.931-14.5A5.877,5.877,0,0,0,49,125.307h0l-2.828.962-.182-.538A7.488,7.488,0,0,0,32.942,123.6a5.789,5.789,0,0,0-4.807,1.983,5.074,5.074,0,0,0-.688-.173,5.886,5.886,0,0,0-2.325.063,7.488,7.488,0,0,0-12.555,4.12l-.1.56-2.942-.515a5.878,5.878,0,0,0-6.8,4.777h0L.088,149.493a5.886,5.886,0,0,0,4.779,6.8l2.941.514-.094.537a2.655,2.655,0,0,0,.15,5.2l22.225,3.887a2.6,2.6,0,0,0,.457.041,2.656,2.656,0,0,0,2.406-1.557,2.54,2.54,0,0,0,1.4-.077l21.362-7.268a2.656,2.656,0,0,0-.654-5.162l-.175-.514,2.826-.962a5.886,5.886,0,0,0,3.672-7.46ZM44.35,127.392l.366,1.077-7.18,2.443-.369-1.077Zm-17.364.8a3.732,3.732,0,0,1,1.368-.195,1.034,1.034,0,0,0,.938-.5h0a3.777,3.777,0,0,1,3.95-1.755,1.044,1.044,0,0,0,1.081-.471,5.338,5.338,0,0,1,2.823-2.238,5.408,5.408,0,0,1,6.42,2.421L35.5,128.2a1.044,1.044,0,0,0-.648,1.324l1.557,4.578a1.374,1.374,0,0,1-2.6.884l-.522-1.525a1.043,1.043,0,1,0-2,.608c.007.022.014.043.022.065a1.374,1.374,0,0,1-2.6.882l-1.043-3.052a1.044,1.044,0,0,0-1.323-.651l-1.908.649a3.784,3.784,0,0,1,2.548-3.77ZM26.4,134.7l-1.077.366-.365-1.077,1.076-.365Zm-5.523-9.149h0a5.343,5.343,0,0,1,3.142,1.774,1.034,1.034,0,0,0,.183.156A5.914,5.914,0,0,0,22.53,130.3l-7.617-1.364a5.408,5.408,0,0,1,5.965-3.385Zm-6.434,5.431,7.927,1.417a5.775,5.775,0,0,0,.244,1.16L14.249,132.1ZM5.221,154.241a3.8,3.8,0,0,1-3.077-4.388L4.782,134.77a3.789,3.789,0,0,1,4.383-3.083h.006l2.94.514-.2,1.12-2.148-.375a3.461,3.461,0,0,0-4.006,2.813v0l-2.36,13.5a3.464,3.464,0,0,0,2.817,4.006l2.148.376-.2,1.12Zm6.335-18.863-2.833,16.2-2.149-.376a1.374,1.374,0,0,1-1.116-1.59h0l2.36-13.5A1.378,1.378,0,0,1,9.409,135Zm19.553,28.538a.569.569,0,0,1-.659.462v0L8.224,160.492a.568.568,0,1,1,.157-1.126l.039.007a1.044,1.044,0,0,0,1.208-.848l4.264-24.376,9.485,1.659,7.272,21.381-.85,4.861a1.043,1.043,0,0,0,.849,1.207.569.569,0,0,1,.462.659Zm24.29-9.04a.567.567,0,0,1-.353.72h0l-21.362,7.268a.569.569,0,1,1-.368-1.077,1.043,1.043,0,0,0,.652-1.324h0L26,137.039l1.244-.423a3.449,3.449,0,0,0,5.335.283,3.462,3.462,0,0,0,5.811-3.474l-.183-.538,7.181-2.444,7.97,23.426a1.044,1.044,0,0,0,1.324.653h0a.569.569,0,0,1,.719.355ZM47.88,131.3l2.064-.7a1.374,1.374,0,0,1,1.743.857.022.022,0,0,1,0,0L56.1,144.422a1.376,1.376,0,0,1-.859,1.744l-2.064.7Zm9.162,17.661-2.826.962-.37-1.077,2.065-.7a3.465,3.465,0,0,0,2.161-4.392l-4.414-12.97a3.468,3.468,0,0,0-4.391-2.162l-2.064.7-.365-1.076,2.834-.958a3.793,3.793,0,0,1,4.812,2.369l4.927,14.493a3.8,3.8,0,0,1-2.369,4.81Zm0,0" transform="translate(0 -104.901)" fill="#fff"/>
      <path id="Trazado_227339" data-name="Trazado 227339" d="M142.125,291.724l3.61-20.638,2.056.36-3.61,20.638Zm0,0" transform="translate(-123.586 -235.716)" fill="#fff"/>
      <path id="Trazado_227340" data-name="Trazado 227340" d="M184.793,354.974l2.024-12.274,2.058.339-2.024,12.274Zm0,0" transform="translate(-160.689 -297.989)" fill="#fff"/>
      <path id="Trazado_227341" data-name="Trazado 227341" d="M99.605,284.226l3.61-20.64,2.056.359-3.61,20.64Zm0,0" transform="translate(-86.613 -229.195)" fill="#fff"/>
    </g>
  </g>
</svg>
