<svg xmlns="http://www.w3.org/2000/svg" width="400.754" height="318.333" viewBox="0 0 400.754 318.333">
  <g id="Grupo_171031" data-name="Grupo 171031" transform="translate(-600.514 -1421)">
    <rect id="Rectángulo_44550" data-name="Rectángulo 44550" width="400.754" height="318.334" rx="21" transform="translate(600.514 1421)" fill="#fedc72"/>
    <g id="Grupo_166438" data-name="Grupo 166438" transform="translate(676.514 1456)">
      <g id="Grupo_166438-2" data-name="Grupo 166438">
        <g id="filled_outline" data-name="filled outline">
          <rect id="Rectángulo_46073" data-name="Rectángulo 46073" width="91.135" height="86.992" transform="translate(132.56 66.28)" fill="#fedc72"/>
          <path id="Trazado_226320" data-name="Trazado 226320" d="M168.673,183.366H60.968V96.374l53.853-45.568,53.852,45.568Z" transform="translate(-36.113 -30.094)" fill="#fedc72"/>
          <path id="Trazado_226321" data-name="Trazado 226321" d="M10.161,375.968H250.426a33.141,33.141,0,0,1-33.14,33.14H43.3a33.142,33.142,0,0,1-33.14-33.14Z" transform="translate(-6.019 -222.695)" fill="#fedc72"/>
          <path id="Trazado_226322" data-name="Trazado 226322" d="M470.076,375.968a33.141,33.141,0,0,1-33.14,33.14h33.14a33.141,33.141,0,0,0,33.14-33.14Z" transform="translate(-258.808 -222.695)" fill="#f9b916"/>
          <path id="Trazado_226323" data-name="Trazado 226323" d="M338.052,96.374H246.917L193.065,50.806H284.2Z" transform="translate(-114.357 -30.094)" fill="#8c6df2"/>
          <rect id="Rectángulo_46074" data-name="Rectángulo 46074" width="24.855" height="33.14" transform="translate(144.987 4.142)" fill="#8c6df2"/>
          <rect id="Rectángulo_46075" data-name="Rectángulo 46075" width="41.425" height="24.855" transform="translate(157.415 95.278)" fill="#8c6df2"/>
          <path id="Trazado_226324" data-name="Trazado 226324" d="M168.349,444.232l-1.056.576H135.532a12.428,12.428,0,1,0,0,24.855h-8.285l-47.1-21.574A13.538,13.538,0,0,0,60.967,460.4v.9a13.537,13.537,0,0,0,7.485,12.108l48.3,24.151a49.724,49.724,0,0,0,22.233,5.236h87.684V444.8A59.818,59.818,0,0,0,168.349,444.232Z" transform="translate(-36.112 -258.802)" fill="#ffb782"/>
          <rect id="Rectángulo_46076" data-name="Rectángulo 46076" width="53.853" height="57.995" transform="translate(190.555 186.006)" fill="#fdb74d"/>
          <rect id="Rectángulo_46077" data-name="Rectángulo 46077" width="8.285" height="8.285" transform="translate(202.982 223.289)" fill="#3582bd"/>
          <rect id="Rectángulo_46078" data-name="Rectángulo 46078" width="33.14" height="57.995" transform="translate(62.137 95.278)" fill="#8c6df2"/>
          <rect id="Rectángulo_46079" data-name="Rectángulo 46079" width="8.285" height="57.995" transform="translate(62.137 95.278)" fill="#40298d"/>
          <path id="Trazado_226325" data-name="Trazado 226325" d="M248.55,153.273a4.144,4.144,0,0,0-4.142-4.142h-16.57V66.28a2.174,2.174,0,0,0-.05-.24,3.758,3.758,0,0,0-.232-1.148,3.457,3.457,0,0,0-.19-.439,4,4,0,0,0-.563-.828,3.087,3.087,0,0,0-.3-.348c-.05-.046-.079-.108-.128-.149L173.985,18.791V4.143A4.144,4.144,0,0,0,169.843,0H144.987a4.144,4.144,0,0,0-4.142,4.142V16.57H78.708a4.158,4.158,0,0,0-1.334.232c-.12.042-.224.12-.344.17a4.3,4.3,0,0,0-.828.493c-.046.037-.1.05-.149.087L22.2,63.119a4.141,4.141,0,0,0-1.487,3.161v82.85H4.142A4.144,4.144,0,0,0,0,153.273a37.341,37.341,0,0,0,26.512,35.679A17.585,17.585,0,0,0,20.712,202v.9a17.591,17.591,0,0,0,9.772,15.824l48.3,24.147a54.115,54.115,0,0,0,24.085,5.679H244.407a4.144,4.144,0,0,0,4.142-4.142V186.412a4.144,4.144,0,0,0-4.142-4.142h-9.76A37.222,37.222,0,0,0,248.55,153.273ZM136.7,70.423h82.85V149.13H136.7ZM149.13,8.285H165.7V33.14H149.13Zm-8.285,16.57V37.283a4.144,4.144,0,0,0,4.142,4.142h24.855a4.144,4.144,0,0,0,4.142-4.142V29.644l38.4,32.494H134.093L90.017,24.855ZM29,68.2l49.71-42.063L128.417,68.2V149.13h-29V95.278a4.144,4.144,0,0,0-4.142-4.142H62.138A4.144,4.144,0,0,0,58,95.278V149.13H29ZM91.135,149.13H66.28V99.42H91.135Zm-7.709,54.052L55.862,190.555H85.153A16.254,16.254,0,0,0,83.426,203.181Zm-.932,32.27L34.192,211.3A9.343,9.343,0,0,1,29,202.9V202A9.379,9.379,0,0,1,42.3,193.455l47.1,21.574a4.147,4.147,0,0,0,1.727.381H132.56a4.142,4.142,0,0,0,0-8.285H99.42a8.285,8.285,0,0,1,0-16.57h31.761a4.139,4.139,0,0,0,1.98-.506l1.06-.576a55.279,55.279,0,0,1,52.191-.6v51.392H102.871A45.674,45.674,0,0,1,82.494,235.451Zm157.771-44.9v49.71H194.7v-49.71Zm-48.687-8.285a63.5,63.5,0,0,0-61.309-.075l-30.849.075H37.283a29.044,29.044,0,0,1-28.7-24.855H239.971a29.044,29.044,0,0,1-28.7,24.855Z" fill="#5038a1"/>
          <rect id="Rectángulo_46080" data-name="Rectángulo 46080" width="8.285" height="8.285" transform="translate(202.982 223.695)" fill="#40298d"/>
          <path id="Trazado_226326" data-name="Trazado 226326" d="M421.535,223.548H380.11a4.144,4.144,0,0,0-4.142,4.142v24.855a4.144,4.144,0,0,0,4.142,4.142h41.425a4.144,4.144,0,0,0,4.142-4.142V227.691A4.144,4.144,0,0,0,421.535,223.548ZM417.393,248.4h-33.14v-16.57h33.14Z" transform="translate(-222.695 -132.413)" fill="#5038a1"/>
        </g>
      </g>
    </g>
  </g>
</svg>
