<svg xmlns="http://www.w3.org/2000/svg" width="136.973" height="136.973" viewBox="0 0 136.973 136.973">
  <g id="Grupo_171015" data-name="Grupo 171015" transform="translate(-736.221 -1033.661)">
    <g id="Grupo_89571" data-name="Grupo 89571" transform="translate(736.221 1033.661)">
      <g id="Trazado_137458" data-name="Trazado 137458" transform="translate(0 0)" fill="#fff">
        <path d="M 68.48631286621094 131.9726409912109 C 59.91350936889648 131.9726409912109 51.59981155395508 130.2947692871094 43.77611541748047 126.9856185913086 C 40.01535797119141 125.3949661254883 36.38774871826172 123.4259033203125 32.9940071105957 121.1331405639648 C 29.6312255859375 118.8612899780273 26.46885681152344 116.2520523071289 23.5947265625 113.3779220581055 C 20.72059631347656 110.503791809082 18.11135673522949 107.341423034668 15.83950805664062 103.9786376953125 C 13.5467472076416 100.5848999023438 11.57768249511719 96.95726776123047 9.987030029296875 93.196533203125 C 6.677877902984619 85.37283325195312 5.000008583068848 77.05912017822266 5.000008583068848 68.48631286621094 C 5.000008583068848 59.91350936889648 6.677877902984619 51.59981155395508 9.987030029296875 43.77611541748047 C 11.57768249511719 40.01535797119141 13.5467472076416 36.38774871826172 15.83950805664062 32.9940071105957 C 18.11135673522949 29.6312255859375 20.72059631347656 26.46885681152344 23.5947265625 23.5947265625 C 26.46885681152344 20.72059631347656 29.6312255859375 18.11135673522949 32.9940071105957 15.83950805664062 C 36.38774871826172 13.5467472076416 40.01535797119141 11.57768249511719 43.77611541748047 9.987030029296875 C 51.59981155395508 6.677877902984619 59.91350936889648 5.000008583068848 68.48631286621094 5.000008583068848 C 77.05912017822266 5.000008583068848 85.37283325195312 6.677877902984619 93.196533203125 9.987030029296875 C 96.95726776123047 11.57768249511719 100.5848999023438 13.5467472076416 103.9786376953125 15.83950805664062 C 107.341423034668 18.11135673522949 110.503791809082 20.72059631347656 113.3779220581055 23.5947265625 C 116.2520523071289 26.46885681152344 118.8612899780273 29.6312255859375 121.1331405639648 32.9940071105957 C 123.4259033203125 36.38774871826172 125.3949661254883 40.01535797119141 126.9856185913086 43.77611541748047 C 130.2947692871094 51.59981155395508 131.9726409912109 59.91350936889648 131.9726409912109 68.48631286621094 C 131.9726409912109 77.05912017822266 130.2947692871094 85.37283325195312 126.9856185913086 93.196533203125 C 125.3949661254883 96.95726776123047 123.4259033203125 100.5848999023438 121.1331405639648 103.9786376953125 C 118.8612899780273 107.341423034668 116.2520523071289 110.503791809082 113.3779220581055 113.3779220581055 C 110.503791809082 116.2520523071289 107.341423034668 118.8612899780273 103.9786376953125 121.1331405639648 C 100.5848999023438 123.4259033203125 96.95726776123047 125.3949661254883 93.196533203125 126.9856185913086 C 85.37283325195312 130.2947692871094 77.05912017822266 131.9726409912109 68.48631286621094 131.9726409912109 Z" stroke="none"/>
        <path d="M 68.48631286621094 10.00000762939453 C 36.23686981201172 10.00000762939453 10.00000762939453 36.23686981201172 10.00000762939453 68.48631286621094 C 10.00000762939453 100.7357559204102 36.23686981201172 126.9726181030273 68.48631286621094 126.9726181030273 C 100.7357559204102 126.9726181030273 126.9726181030273 100.7357559204102 126.9726181030273 68.48631286621094 C 126.9726181030273 36.23686981201172 100.7357559204102 10.00000762939453 68.48631286621094 10.00000762939453 M 68.48631286621094 0 C 106.3102569580078 0 136.9726257324219 30.66236877441406 136.9726257324219 68.48631286621094 C 136.9726257324219 106.3102569580078 106.3102569580078 136.9726257324219 68.48631286621094 136.9726257324219 C 30.66236877441406 136.9726257324219 0 106.3102569580078 0 68.48631286621094 C 0 30.66236877441406 30.66236877441406 0 68.48631286621094 0 Z" stroke="none" fill="#8c6df2"/>
      </g>
    </g>
    <g id="Grupo_166401" data-name="Grupo 166401" transform="translate(657.252 606.985)">
      <path id="Trazado_226218" data-name="Trazado 226218" d="M163.3,469.945h-3.237v-7.19a.978.978,0,0,0-1.189-.955L122,469.965h0l-.014,0-.028.008-.062.017-.037.014-.053.02-.043.021-.041.021-.047.028-.033.021-.046.034-.028.023-.042.038-.028.027c-.012.012-.024.026-.035.039l-.028.033-.028.037-.028.04-.022.036c-.009.015-.018.031-.026.046l-.017.036c-.008.017-.016.033-.022.05s-.01.026-.015.04-.012.032-.017.049-.008.032-.012.048-.007.028-.01.043-.006.04-.009.06,0,.022,0,.034,0,.047,0,.07c0,.008,0,.016,0,.024v6.561a.978.978,0,1,0,1.956,0V471.9h39.146v54.691H123.175V482.057a.978.978,0,1,0-1.956,0V527.57a.978.978,0,0,0,.978.978h41.1a.978.978,0,0,0,.978-.978V470.923A.978.978,0,0,0,163.3,469.945Zm-5.194,0H131.138l26.967-5.971Z" transform="translate(0 0)" fill="#8c6df2"/>
      <path id="Trazado_226219" data-name="Trazado 226219" d="M168.469,529.923a.978.978,0,0,0,.978-.978v-26.1a.978.978,0,0,0-.978-.978h-33.2a.978.978,0,0,0-.978.978v48.743a.978.978,0,0,0,.978.978h33.2a.978.978,0,0,0,.978-.978V533.516a.978.978,0,0,0-1.956,0v17.1H136.249V503.828h31.242v25.117A.978.978,0,0,0,168.469,529.923Z" transform="translate(-9.122 -27.975)" fill="#8c6df2"/>
      <path id="Trazado_226220" data-name="Trazado 226220" d="M181.01,526.133l-3.058-.444-1.368-2.771h0a1.79,1.79,0,0,0-3.21,0l-1.368,2.771-3.059.444a1.79,1.79,0,0,0-.992,3.053l2.213,2.157-.523,3.046a1.79,1.79,0,0,0,2.6,1.887l2.736-1.438,2.736,1.438a1.79,1.79,0,0,0,2.6-1.887l-.523-3.046L182,529.186a1.79,1.79,0,0,0-.992-3.053ZM178.361,530a1.79,1.79,0,0,0-.514,1.584l.48,2.8-2.515-1.323a1.792,1.792,0,0,0-1.666,0l-2.515,1.322.48-2.8A1.791,1.791,0,0,0,171.6,530l-2.035-1.983,2.812-.408a1.79,1.79,0,0,0,1.348-.979l1.258-2.548,1.257,2.548a1.789,1.789,0,0,0,1.348.979l2.812.408Z" transform="translate(-32.231 -41.962)" fill="#8c6df2"/>
      <path id="Trazado_226221" data-name="Trazado 226221" d="M225.919,547.328a.978.978,0,0,0,.978-.978v-.791a.978.978,0,0,0-1.956,0v.791A.978.978,0,0,0,225.919,547.328Z" transform="translate(-72.369 -57.774)" fill="#8c6df2"/>
      <path id="Trazado_226222" data-name="Trazado 226222" d="M231.94,554.381a.978.978,0,0,0,0-1.956h-.79a.978.978,0,1,0,0,1.956Z" transform="translate(-76.018 -63.246)" fill="#8c6df2"/>
      <path id="Trazado_226223" data-name="Trazado 226223" d="M226.9,559.424v-.79a.978.978,0,1,0-1.956,0v.79a.978.978,0,0,0,1.956,0Z" transform="translate(-72.369 -66.896)" fill="#8c6df2"/>
      <path id="Trazado_226224" data-name="Trazado 226224" d="M218.075,552.425a.978.978,0,1,0,0,1.956h.79a.978.978,0,0,0,0-1.956Z" transform="translate(-66.896 -63.246)" fill="#8c6df2"/>
      <path id="Trazado_226225" data-name="Trazado 226225" d="M154.447,544.581a.978.978,0,0,0-.978.978v.791a.978.978,0,1,0,1.956,0v-.791A.978.978,0,0,0,154.447,544.581Z" transform="translate(-22.501 -57.774)" fill="#8c6df2"/>
      <path id="Trazado_226226" data-name="Trazado 226226" d="M146.6,552.425a.978.978,0,0,0,0,1.956h.79a.978.978,0,1,0,0-1.956Z" transform="translate(-17.028 -63.246)" fill="#8c6df2"/>
      <path id="Trazado_226227" data-name="Trazado 226227" d="M154.447,560.4a.978.978,0,0,0,.978-.978v-.79a.978.978,0,1,0-1.956,0v.79A.978.978,0,0,0,154.447,560.4Z" transform="translate(-22.501 -66.896)" fill="#8c6df2"/>
      <path id="Trazado_226228" data-name="Trazado 226228" d="M160.467,552.425h-.79a.978.978,0,0,0,0,1.956h.79a.978.978,0,1,0,0-1.956Z" transform="translate(-26.15 -63.246)" fill="#8c6df2"/>
      <path id="Trazado_226229" data-name="Trazado 226229" d="M178.12,587.29H159.677a.978.978,0,0,0,0,1.956H178.12a.978.978,0,0,0,0-1.956Z" transform="translate(-26.15 -87.572)" fill="#8c6df2"/>
      <path id="Trazado_226230" data-name="Trazado 226230" d="M178.12,604.722H159.677a.978.978,0,0,0,0,1.956H178.12a.978.978,0,0,0,0-1.956Z" transform="translate(-26.15 -99.735)" fill="#8c6df2"/>
      <path id="Trazado_226231" data-name="Trazado 226231" d="M168.393,642.851h13.173a.978.978,0,1,0,0-1.956H168.393a.978.978,0,1,0,0,1.956Z" transform="translate(-32.232 -124.973)" fill="#8c6df2"/>
      <path id="Trazado_226232" data-name="Trazado 226232" d="M165.925,623.133a.978.978,0,0,0-.978-.978h-5.27a.978.978,0,0,0,0,1.956h5.27A.978.978,0,0,0,165.925,623.133Z" transform="translate(-26.15 -111.898)" fill="#8c6df2"/>
      <path id="Trazado_226233" data-name="Trazado 226233" d="M209.5,623.133a.978.978,0,0,0-.978-.978h-5.27a.978.978,0,1,0,0,1.956h5.27A.978.978,0,0,0,209.5,623.133Z" transform="translate(-56.557 -111.898)" fill="#8c6df2"/>
    </g>
  </g>
</svg>
