<svg xmlns="http://www.w3.org/2000/svg" width="136.973" height="136.973" viewBox="0 0 136.973 136.973">
  <g id="Grupo_171018" data-name="Grupo 171018" transform="translate(4396.292 10297.091)">
    <g id="Grupo_156116" data-name="Grupo 156116" transform="translate(-4396.292 -10297.091)">
      <g id="Trazado_137458" data-name="Trazado 137458" transform="translate(0 0)" fill="#fff">
        <path d="M 68.48631286621094 131.9726409912109 C 59.91350936889648 131.9726409912109 51.59981155395508 130.2947692871094 43.77611541748047 126.9856185913086 C 40.01535797119141 125.3949661254883 36.38774871826172 123.4259033203125 32.9940071105957 121.1331405639648 C 29.6312255859375 118.8612899780273 26.46885681152344 116.2520523071289 23.5947265625 113.3779220581055 C 20.72059631347656 110.503791809082 18.11135673522949 107.341423034668 15.83950805664062 103.9786376953125 C 13.5467472076416 100.5848999023438 11.57768249511719 96.95726776123047 9.987030029296875 93.196533203125 C 6.677877902984619 85.37283325195312 5.000008583068848 77.05912017822266 5.000008583068848 68.48631286621094 C 5.000008583068848 59.91350936889648 6.677877902984619 51.59981155395508 9.987030029296875 43.77611541748047 C 11.57768249511719 40.01535797119141 13.5467472076416 36.38774871826172 15.83950805664062 32.9940071105957 C 18.11135673522949 29.6312255859375 20.72059631347656 26.46885681152344 23.5947265625 23.5947265625 C 26.46885681152344 20.72059631347656 29.6312255859375 18.11135673522949 32.9940071105957 15.83950805664062 C 36.38774871826172 13.5467472076416 40.01535797119141 11.57768249511719 43.77611541748047 9.987030029296875 C 51.59981155395508 6.677877902984619 59.91350936889648 5.000008583068848 68.48631286621094 5.000008583068848 C 77.05912017822266 5.000008583068848 85.37283325195312 6.677877902984619 93.196533203125 9.987030029296875 C 96.95726776123047 11.57768249511719 100.5848999023438 13.5467472076416 103.9786376953125 15.83950805664062 C 107.341423034668 18.11135673522949 110.503791809082 20.72059631347656 113.3779220581055 23.5947265625 C 116.2520523071289 26.46885681152344 118.8612899780273 29.6312255859375 121.1331405639648 32.9940071105957 C 123.4259033203125 36.38774871826172 125.3949661254883 40.01535797119141 126.9856185913086 43.77611541748047 C 130.2947692871094 51.59981155395508 131.9726409912109 59.91350936889648 131.9726409912109 68.48631286621094 C 131.9726409912109 77.05912017822266 130.2947692871094 85.37283325195312 126.9856185913086 93.196533203125 C 125.3949661254883 96.95726776123047 123.4259033203125 100.5848999023438 121.1331405639648 103.9786376953125 C 118.8612899780273 107.341423034668 116.2520523071289 110.503791809082 113.3779220581055 113.3779220581055 C 110.503791809082 116.2520523071289 107.341423034668 118.8612899780273 103.9786376953125 121.1331405639648 C 100.5848999023438 123.4259033203125 96.95726776123047 125.3949661254883 93.196533203125 126.9856185913086 C 85.37283325195312 130.2947692871094 77.05912017822266 131.9726409912109 68.48631286621094 131.9726409912109 Z" stroke="none"/>
        <path d="M 68.48631286621094 10.00000762939453 C 36.23686981201172 10.00000762939453 10.00000762939453 36.23686981201172 10.00000762939453 68.48631286621094 C 10.00000762939453 100.7357559204102 36.23686981201172 126.9726181030273 68.48631286621094 126.9726181030273 C 100.7357559204102 126.9726181030273 126.9726181030273 100.7357559204102 126.9726181030273 68.48631286621094 C 126.9726181030273 36.23686981201172 100.7357559204102 10.00000762939453 68.48631286621094 10.00000762939453 M 68.48631286621094 0 C 106.3102569580078 0 136.9726257324219 30.66236877441406 136.9726257324219 68.48631286621094 C 136.9726257324219 106.3102569580078 106.3102569580078 136.9726257324219 68.48631286621094 136.9726257324219 C 30.66236877441406 136.9726257324219 0 106.3102569580078 0 68.48631286621094 C 0 30.66236877441406 30.66236877441406 0 68.48631286621094 0 Z" stroke="none" fill="#8c6df2"/>
      </g>
    </g>
    <g id="villancicos" transform="translate(-4370.212 -10261.624)">
      <g id="Grupo_166403" data-name="Grupo 166403" transform="translate(10.499 0)">
        <path id="Trazado_226251" data-name="Trazado 226251" d="M124.2,213.732h-4.413a1.551,1.551,0,0,0-1.549,1.549v1.086a3.028,3.028,0,0,0,3.025,3.024h1.463a3.028,3.028,0,0,0,3.025-3.024v-1.086A1.551,1.551,0,0,0,124.2,213.732Zm-.385,2.635a1.091,1.091,0,0,1-1.09,1.09h-1.463a1.091,1.091,0,0,1-1.09-1.09v-.7h3.642Z" transform="translate(-104.345 -186.164)" fill="#8c6df2"/>
        <path id="Trazado_226252" data-name="Trazado 226252" d="M129.793,177.7l1.132.941a.967.967,0,0,0,1.237-1.488l-.433-.36.6-.815a.967.967,0,0,0-1.562-1.142l-1.132,1.549a.967.967,0,0,0,.163,1.315Z" transform="translate(-114.103 -151.94)" fill="#8c6df2"/>
        <path id="Trazado_226253" data-name="Trazado 226253" d="M93.262,166.173a1.466,1.466,0,0,1,1.043.433.967.967,0,0,0,1.368-1.368,3.409,3.409,0,0,0-4.822,0,.967.967,0,0,0,1.368,1.368A1.467,1.467,0,0,1,93.262,166.173Z" transform="translate(-80.24 -143.054)" fill="#8c6df2"/>
        <path id="Trazado_226254" data-name="Trazado 226254" d="M164.023,166.606a1.474,1.474,0,0,1,2.086,0,.967.967,0,0,0,1.368-1.368,3.409,3.409,0,0,0-4.822,0,.967.967,0,0,0,1.368,1.368Z" transform="translate(-142.782 -143.055)" fill="#8c6df2"/>
        <path id="Trazado_226255" data-name="Trazado 226255" d="M338.652,165.228h-5.5a1.694,1.694,0,0,0-1.692,1.692v1.352a3.533,3.533,0,0,0,3.529,3.529h1.822a3.533,3.533,0,0,0,3.53-3.529V166.92A1.694,1.694,0,0,0,338.652,165.228Zm-.242,3.044a1.6,1.6,0,0,1-1.595,1.595h-1.822a1.6,1.6,0,0,1-1.595-1.595v-1.11h5.012Z" transform="translate(-290.064 -143.917)" fill="#8c6df2"/>
        <path id="Trazado_226256" data-name="Trazado 226256" d="M350.062,125.668l1.133,1.132a.967.967,0,0,0,1.368-1.368l-.6-.6.738-1.214a.967.967,0,1,0-1.653-1l-1.133,1.863A.967.967,0,0,0,350.062,125.668Z" transform="translate(-306.018 -106.398)" fill="#8c6df2"/>
        <path id="Trazado_226257" data-name="Trazado 226257" d="M314.642,111.411a.967.967,0,0,0,1.368-1.368,3.414,3.414,0,0,0-4.822,0,.967.967,0,0,0,1.368,1.368A1.476,1.476,0,0,1,314.642,111.411Z" transform="translate(-272.157 -94.981)" fill="#8c6df2"/>
        <path id="Trazado_226258" data-name="Trazado 226258" d="M382.991,110.042a.967.967,0,0,0,1.368,1.368,1.477,1.477,0,0,1,2.086,0,.967.967,0,0,0,1.368-1.368,3.414,3.414,0,0,0-4.823,0Z" transform="translate(-334.699 -94.981)" fill="#8c6df2"/>
        <path id="Trazado_226259" data-name="Trazado 226259" d="M72.862,42.629a.967.967,0,0,0,.967-.967V37.1a4.627,4.627,0,0,0-4.622-4.622H64.261V31.344A3.492,3.492,0,0,0,63.355,29,8.95,8.95,0,0,0,66.7,24.35h1a3.809,3.809,0,0,0,3.8-3.8V18.82a3.8,3.8,0,0,0-1.433-2.972v-8.3A5.843,5.843,0,0,0,64.237,1.71H60.463A5.818,5.818,0,0,0,56.339,0H44.705a2.1,2.1,0,0,0-2.1,2.1V15.851a3.817,3.817,0,0,0-1.252,1.81A12.21,12.21,0,0,0,29.2,6.524H27.075a12.092,12.092,0,0,0-5.193,1.167V4.179a1.315,1.315,0,0,0-1.45-1.308l-5.318.549a1.312,1.312,0,0,0-1.18,1.308V8.347a2.684,2.684,0,1,0,1.935,2.576V5.287l4.079-.421v2.86a2.68,2.68,0,0,0-2.934,4.132,12.1,12.1,0,0,0-2.107,6.834v3.34a3.806,3.806,0,0,0-1.924,3.305v1.725a3.806,3.806,0,0,0,1.924,3.305v6.8a6.3,6.3,0,0,0-4.246,5.948V58.5a3.164,3.164,0,0,0,3.16,3.16H34.385L41.38,65.8a1.7,1.7,0,0,0,1.731,0L50.1,61.665H70.669a3.164,3.164,0,0,0,3.16-3.16V46.176a.967.967,0,1,0-1.935,0V58.5a1.227,1.227,0,0,1-1.226,1.226H56.143V54.271H67.731A.967.967,0,0,0,68.7,53.3V46.188a2.685,2.685,0,0,0,1.52-2.415V37.65a1.315,1.315,0,0,0-1.45-1.308l-5.318.549A1.312,1.312,0,0,0,62.27,38.2v3.619A2.684,2.684,0,1,0,64.2,44.394V38.758l4.079-.421V41.2a2.683,2.683,0,0,0-1.52,5.147v5.992H55.1V45.283a1.7,1.7,0,0,0-2.464-1.518L42.245,49l-1.464-.738V37.1a2.691,2.691,0,0,1,2.687-2.688h5.346a3.511,3.511,0,0,0,3.108,1.885h8.83a3.511,3.511,0,0,0,3.108-1.885h5.346A2.691,2.691,0,0,1,71.895,37.1v4.564a.968.968,0,0,0,.968.967ZM13.184,11.673a.75.75,0,1,1,.75-.75A.751.751,0,0,1,13.184,11.673ZM61.519,45.144a.75.75,0,1,1,.75-.75A.751.751,0,0,1,61.519,45.144Zm6.014-2.121a.75.75,0,1,1-.75.75A.751.751,0,0,1,67.533,43.023Zm2.039-24.2v1.725a1.872,1.872,0,0,1-1.87,1.87h-.636c.017-.221.026-.443.026-.668v-4.8h.61A1.872,1.872,0,0,1,69.572,18.82ZM64.237,3.645a3.906,3.906,0,0,1,3.9,3.9v7.5a3.814,3.814,0,0,0-.437-.026h-.61v-.732a4.935,4.935,0,0,0-4.916-4.919V5.836a5.8,5.8,0,0,0-.429-2.192ZM44.538,2.1a.168.168,0,0,1,.168-.168H56.339a3.906,3.906,0,0,1,3.9,3.9V9.363H50.524a4.935,4.935,0,0,0-4.94,4.92v.732h-.61a3.815,3.815,0,0,0-.437.028V2.1ZM43.1,18.82a1.872,1.872,0,0,1,1.87-1.87h.61v4.8c0,.225.009.447.026.668h-.636a1.872,1.872,0,0,1-1.87-1.87V18.82ZM19.2,9.552a.75.75,0,1,1-.75.75A.751.751,0,0,1,19.2,9.552Zm-2.356,9.14a10.164,10.164,0,0,1,1.79-5.767A2.681,2.681,0,0,0,21.882,10.3V9.879a10.165,10.165,0,0,1,5.193-1.42H29.2A10.27,10.27,0,0,1,39.462,18.717v2.815h-.557V20.1a4.95,4.95,0,0,0-4.294-4.9,3.116,3.116,0,0,0-1.263.095L19.7,19.161a3.173,3.173,0,0,0-2.225,2.372h-.632ZM35.406,33.636a10.829,10.829,0,0,0,2.177-2.769h1.88V34.8a4.589,4.589,0,0,0-.607,2.027H36.075V35.693A3.486,3.486,0,0,0,35.406,33.636ZM19.333,25.7V22.2a1.231,1.231,0,0,1,.892-1.179l13.65-3.861h0a1.232,1.232,0,0,1,.336-.048,1.15,1.15,0,0,1,.149.01A3.01,3.01,0,0,1,36.971,20.1v5.6a8.819,8.819,0,1,1-17.638,0ZM20.9,33.636a3.486,3.486,0,0,0-.669,2.057v1.131H16.951l-.109,0v-5.96h1.88A10.825,10.825,0,0,0,20.9,33.636Zm-5.98-8.3a1.872,1.872,0,0,1,1.87-1.87h.61V25.7a10.709,10.709,0,0,0,.5,3.227H16.788a1.872,1.872,0,0,1-1.87-1.87V25.337ZM29.39,45.283v7.053H17.727V44.811a.967.967,0,1,0-1.935,0V53.3a.967.967,0,0,0,.967.967H28.347V59.73H13.821A1.227,1.227,0,0,1,12.6,58.5V43.114a4.361,4.361,0,0,1,4.356-4.356h3.678a3.511,3.511,0,0,0,3.108,1.885h3.207a.967.967,0,1,0,0-1.935H23.737a1.575,1.575,0,0,1-1.574-1.573V35.693a1.563,1.563,0,0,1,.274-.885,10.717,10.717,0,0,0,11.428,0,1.563,1.563,0,0,1,.274.885v1.442a1.575,1.575,0,0,1-1.574,1.573H31.459a.967.967,0,1,0,0,1.935h1.108a3.511,3.511,0,0,0,3.108-1.885h3.172v8.53l-6.993-3.524a1.7,1.7,0,0,0-2.464,1.518Zm3.742,13.161a1.287,1.287,0,0,1-1.286,1.286H30.282V54.271h1.564a1.287,1.287,0,0,1,1.286,1.286Zm21.076-4.173V59.73H52.644a1.287,1.287,0,0,1-1.286-1.286V55.557a1.287,1.287,0,0,1,1.286-1.286h1.564ZM41.278,50.68v2.976a.967.967,0,0,0,1.935,0V50.68l9.953-5.015v6.671h-.521a3.224,3.224,0,0,0-3.221,3.221v2.887a3.2,3.2,0,0,0,.247,1.23l-6.459,3.82V58.171a.967.967,0,0,0-1.935,0v5.323l-6.456-3.819a3.2,3.2,0,0,0,.245-1.231V55.557a3.224,3.224,0,0,0-3.221-3.221h-.521V45.665Zm.108-23.618a1.872,1.872,0,0,1-1.87,1.87H38.41a10.71,10.71,0,0,0,.5-3.227V23.467h.61a1.872,1.872,0,0,1,1.87,1.87Zm7.029,4.282v1.131H43.469a4.59,4.59,0,0,0-2.072.492v-2.6a3.806,3.806,0,0,0,1.924-3.305V25.337a3.779,3.779,0,0,0-.331-1.547,3.782,3.782,0,0,0,1.985.56h1A8.95,8.95,0,0,0,49.321,29,3.491,3.491,0,0,0,48.415,31.344Zm13.911,1.442a1.575,1.575,0,0,1-1.574,1.573h-8.83a1.575,1.575,0,0,1-1.574-1.573V31.344a1.573,1.573,0,0,1,.77-1.351,8.861,8.861,0,0,0,3.376.666H58.18a8.86,8.86,0,0,0,3.376-.666,1.573,1.573,0,0,1,.77,1.351v1.442ZM58.18,28.725H54.5a6.985,6.985,0,0,1-6.977-6.977V14.283a3,3,0,0,1,3-2.985H62.152a3,3,0,0,1,3,2.985v7.464A6.985,6.985,0,0,1,58.18,28.725Z" transform="translate(-10.499 0)" fill="#8c6df2"/>
      </g>
    </g>
  </g>
</svg>
