<svg xmlns="http://www.w3.org/2000/svg" width="136.973" height="136.973" viewBox="0 0 136.973 136.973">
  <g id="Grupo_171023" data-name="Grupo 171023" transform="translate(4747.292 9579.091)">
    <g id="Grupo_156131" data-name="Grupo 156131" transform="translate(-4747.292 -9579.091)">
      <g id="Trazado_137458" data-name="Trazado 137458" transform="translate(0 0)" fill="#fff">
        <path d="M 68.48631286621094 131.9726409912109 C 59.91350936889648 131.9726409912109 51.59981155395508 130.2947692871094 43.77611541748047 126.9856185913086 C 40.01535797119141 125.3949661254883 36.38774871826172 123.4259033203125 32.9940071105957 121.1331405639648 C 29.6312255859375 118.8612899780273 26.46885681152344 116.2520523071289 23.5947265625 113.3779220581055 C 20.72059631347656 110.503791809082 18.11135673522949 107.341423034668 15.83950805664062 103.9786376953125 C 13.5467472076416 100.5848999023438 11.57768249511719 96.95726776123047 9.987030029296875 93.196533203125 C 6.677877902984619 85.37283325195312 5.000008583068848 77.05912017822266 5.000008583068848 68.48631286621094 C 5.000008583068848 59.91350936889648 6.677877902984619 51.59981155395508 9.987030029296875 43.77611541748047 C 11.57768249511719 40.01535797119141 13.5467472076416 36.38774871826172 15.83950805664062 32.9940071105957 C 18.11135673522949 29.6312255859375 20.72059631347656 26.46885681152344 23.5947265625 23.5947265625 C 26.46885681152344 20.72059631347656 29.6312255859375 18.11135673522949 32.9940071105957 15.83950805664062 C 36.38774871826172 13.5467472076416 40.01535797119141 11.57768249511719 43.77611541748047 9.987030029296875 C 51.59981155395508 6.677877902984619 59.91350936889648 5.000008583068848 68.48631286621094 5.000008583068848 C 77.05912017822266 5.000008583068848 85.37283325195312 6.677877902984619 93.196533203125 9.987030029296875 C 96.95726776123047 11.57768249511719 100.5848999023438 13.5467472076416 103.9786376953125 15.83950805664062 C 107.341423034668 18.11135673522949 110.503791809082 20.72059631347656 113.3779220581055 23.5947265625 C 116.2520523071289 26.46885681152344 118.8612899780273 29.6312255859375 121.1331405639648 32.9940071105957 C 123.4259033203125 36.38774871826172 125.3949661254883 40.01535797119141 126.9856185913086 43.77611541748047 C 130.2947692871094 51.59981155395508 131.9726409912109 59.91350936889648 131.9726409912109 68.48631286621094 C 131.9726409912109 77.05912017822266 130.2947692871094 85.37283325195312 126.9856185913086 93.196533203125 C 125.3949661254883 96.95726776123047 123.4259033203125 100.5848999023438 121.1331405639648 103.9786376953125 C 118.8612899780273 107.341423034668 116.2520523071289 110.503791809082 113.3779220581055 113.3779220581055 C 110.503791809082 116.2520523071289 107.341423034668 118.8612899780273 103.9786376953125 121.1331405639648 C 100.5848999023438 123.4259033203125 96.95726776123047 125.3949661254883 93.196533203125 126.9856185913086 C 85.37283325195312 130.2947692871094 77.05912017822266 131.9726409912109 68.48631286621094 131.9726409912109 Z" stroke="none"/>
        <path d="M 68.48631286621094 10.00000762939453 C 36.23686981201172 10.00000762939453 10.00000762939453 36.23686981201172 10.00000762939453 68.48631286621094 C 10.00000762939453 100.7357559204102 36.23686981201172 126.9726181030273 68.48631286621094 126.9726181030273 C 100.7357559204102 126.9726181030273 126.9726181030273 100.7357559204102 126.9726181030273 68.48631286621094 C 126.9726181030273 36.23686981201172 100.7357559204102 10.00000762939453 68.48631286621094 10.00000762939453 M 68.48631286621094 0 C 106.3102569580078 0 136.9726257324219 30.66236877441406 136.9726257324219 68.48631286621094 C 136.9726257324219 106.3102569580078 106.3102569580078 136.9726257324219 68.48631286621094 136.9726257324219 C 30.66236877441406 136.9726257324219 0 106.3102569580078 0 68.48631286621094 C 0 30.66236877441406 30.66236877441406 0 68.48631286621094 0 Z" stroke="none" fill="#8c6df2"/>
      </g>
    </g>
    <g id="social" transform="translate(-4711.049 -9545.362)">
      <path id="Trazado_226290" data-name="Trazado 226290" d="M20.245,43.385c-1.378-.561-1.45-1.021-8.141-6.852a3.789,3.789,0,0,0-4.4-.482l-.511-6.639A3.718,3.718,0,0,0,3.5,26,2.5,2.5,0,0,0,1,28.5V41c0,3.282,11.2,15.289,11.98,17.6V62a1,1,0,0,0,2,0V58.53C14.98,56.338,3.062,43.35,3,41V28.5a.5.5,0,0,1,.5-.5,1.708,1.708,0,0,1,1.693,1.567l.739,9.545a3.4,3.4,0,0,0,.591,1.825l7.77,7.77a1,1,0,1,0,1.414-1.414L8.05,39.636a1.454,1.454,0,0,1,.675-1.88,1.832,1.832,0,0,1,2.05.271c6.35,5.5,6.83,6.44,8.713,7.21C24.041,47.1,26,51.77,26,53c0,3.059-.994,4.02-.994,6.119V62a1,1,0,0,0,2,0V59.119c0-1.689.994-2.775.994-6.119C28,50.75,25.336,45.464,20.245,43.385Z" transform="translate(0 2.759)" fill="#8c6df2"/>
      <path id="Trazado_226291" data-name="Trazado 226291" d="M60.5,26a3.719,3.719,0,0,0-3.687,3.413L56.3,36.049a3.791,3.791,0,0,0-4.4.483c-6.7,5.841-6.764,6.291-8.14,6.853C38.664,45.464,36,50.75,36,53c0,3.339.994,4.459.994,6.119V62a1,1,0,0,0,2,0V59.119c0-2.09-.994-3.061-.994-6.119,0-1.23,1.959-5.9,6.512-7.763,1.857-.759,2.1-1.476,8.713-7.21,1.324-1.177,3.421.039,2.724,1.61l-7.656,7.656a1,1,0,1,0,1.414,1.414l7.771-7.77a3.024,3.024,0,0,0,.578-1.607l.751-9.762C58.93,28,61,27.547,61,28.5V41c-.032,1.226-4.324,6.7-6.889,9.97-4.068,5.188-5.091,6.619-5.091,7.561V62a1,1,0,0,0,2,0V58.6c.266-.79,2.7-3.9,4.666-6.4C60.237,46.4,63,42.749,63,41V28.5A2.5,2.5,0,0,0,60.5,26Z" transform="translate(1.472 2.759)" fill="#8c6df2"/>
      <path id="Trazado_226292" data-name="Trazado 226292" d="M32,10a4.277,4.277,0,0,0,4-4.5A4.277,4.277,0,0,0,32,1a4.277,4.277,0,0,0-4,4.5A4.277,4.277,0,0,0,32,10Zm0-7a2.3,2.3,0,0,1,2,2.5A2.3,2.3,0,0,1,32,8a2.3,2.3,0,0,1-2-2.5A2.3,2.3,0,0,1,32,3Z" transform="translate(0.736)" fill="#8c6df2"/>
      <path id="Trazado_226293" data-name="Trazado 226293" d="M38,40c0-.831-.217-5.093-.449-9.416,1.3.814,4.449.76,4.449-2.575,0-3.853-1.951-11.224-2.548-12.6-.95-2.2-3.6-3.4-7.452-3.4s-6.5,1.209-7.452,3.4c-.6,1.376-2.548,8.747-2.548,12.6,0,3.41,3.211,3.35,4.449,2.575C26.217,34.907,26,39.169,26,40c0,2.784,1.78,3,2.326,3,2.7,0,3.037-1.8,3.47-4.089l.2-1.252.2,1.252C32.637,41.2,32.979,43,35.674,43,36.22,43,38,42.784,38,40Zm-2.326,1c-.941,0-1.039,0-1.506-2.462l-1.161-7.6a.91.91,0,0,0-.382-.616.947.947,0,0,0-.67-.234,1,1,0,0,0-.962.85L29.9,38.177l-.068.361C29.365,41,29.267,41,28.326,41c-.294,0-.326-.7-.326-1,0-1.693.988-19.14,1-19.316a1,1,0,1,0-2-.148,65.279,65.279,0,0,1-.967,7.108C25.508,29.53,24,29.382,24,28.009c0-3.546,1.9-10.7,2.384-11.811.6-1.4,2.651-2.2,5.616-2.2s5.012.8,5.616,2.2C38.1,17.313,40,24.463,40,28.009c0,1.61-1.562,1.331-2.037-.365A65.277,65.277,0,0,1,37,20.536a1,1,0,0,0-2,.148c.011.176,1,17.623,1,19.316C36,40.3,35.968,41,35.674,41Z" transform="translate(0.736 0.98)" fill="#8c6df2"/>
      <path id="Trazado_226294" data-name="Trazado 226294" d="M45,9a3.885,3.885,0,0,0,3.75-4,3.758,3.758,0,1,0-7.5,0A3.885,3.885,0,0,0,45,9Zm0-6a1.89,1.89,0,0,1,1.75,2,1.766,1.766,0,1,1-3.5,0A1.89,1.89,0,0,1,45,3Z" transform="translate(1.087)" fill="#8c6df2"/>
      <path id="Trazado_226295" data-name="Trazado 226295" d="M19,9a3.885,3.885,0,0,0,3.75-4A3.885,3.885,0,0,0,19,1a3.885,3.885,0,0,0-3.75,4A3.885,3.885,0,0,0,19,9Zm0-6a1.89,1.89,0,0,1,1.75,2A1.89,1.89,0,0,1,19,7a1.89,1.89,0,0,1-1.75-2A1.89,1.89,0,0,1,19,3Z" transform="translate(0.385)" fill="#8c6df2"/>
      <path id="Trazado_226296" data-name="Trazado 226296" d="M40.688,13.179C41.36,12.43,42.932,12,45,12c2.587,0,4.318.654,4.651,1.819C51.831,21.44,52,23.119,52,23.452c0,1.191-.922,1.18-1.438-.663-.419-1.5-1.013-5.133-1.02-5.17a1,1,0,0,0-1.984.225c.306,4.794.886,14.179.886,15.378,0,.521-.107.748-.178.778-.769,0-.831,0-1.23-2.1L46,26.019a1.021,1.021,0,0,0-2,0l-.974,5.562-.061.321c-.4,2.1-.461,2.1-1.264,2.107a.92.92,0,0,1-.13-.476,1,1,0,0,0-1.99.2c.209,2.1,1.7,2.269,2.154,2.269,2.488,0,2.815-1.727,3.2-3.726L45,31.9l.071.379c.38,2,.707,3.726,3.2,3.726,1.053,0,2.178-.73,2.178-2.778,0-.734-.189-4.081-.393-7.479a2.762,2.762,0,0,0,1.7.479c1.04,0,2.254-.725,2.254-2.77,0-1.128-.816-4.554-2.446-10.253C50.965,11.136,48.637,10,45,10c-1.892,0-4.435.32-5.8,1.844a1,1,0,1,0,1.489,1.335Z" transform="translate(1.472)" fill="#8c6df2"/>
      <path id="Trazado_226297" data-name="Trazado 226297" d="M12.254,26.222a2.762,2.762,0,0,0,1.7-.479c-.2,3.4-.393,6.745-.393,7.479,0,2.048,1.125,2.778,2.178,2.778,2.518,0,2.806-1.706,3.261-4.1.458,2.41.739,4.1,3.266,4.1.452,0,1.945-.164,2.154-2.269a1,1,0,1,0-1.99-.2c-.037.371-.128.488-.164.467-.769,0-.831,0-1.23-2.1L20,26.019a1.021,1.021,0,0,0-2,0l-.974,5.562c-.513,2.377-.4,2.418-1.325,2.428a1.434,1.434,0,0,1-.144-.787c0-1.2.58-10.584.886-15.378a1,1,0,0,0-1.984-.225c-.007.037-.6,3.672-1.02,5.17C12.913,24.664,12,24.631,12,23.452c0-.333.169-2.012,2.369-9.7C14.682,12.654,16.413,12,19,12c2.068,0,3.64.43,4.312,1.179A1,1,0,1,0,24.8,11.844C23.435,10.32,20.892,10,19,10c-3.637,0-5.965,1.136-6.575,3.27C10.816,18.9,10,22.324,10,23.452,10,25.5,11.214,26.222,12.254,26.222Z" fill="#8c6df2"/>
    </g>
  </g>
</svg>
