<svg xmlns="http://www.w3.org/2000/svg" width="191.936" height="191.936" viewBox="0 0 191.936 191.936">
  <g id="Grupo_167871" data-name="Grupo 167871" transform="translate(249 6945)">
    <circle id="Elipse_5760" data-name="Elipse 5760" cx="95.968" cy="95.968" r="95.968" transform="translate(-249 -6945)" fill="#5038a1"/>
    <g id="Grupo_167859" data-name="Grupo 167859" transform="translate(-216.568 -7322.015)">
      <path id="Trazado_226687" data-name="Trazado 226687" d="M26.609,496.293a1.841,1.841,0,1,0,3.682,0v-39.92h.35a10.447,10.447,0,0,0,10.434-10.435V435.38a10.447,10.447,0,0,0-10.434-10.435h-.35v-5.738a5.531,5.531,0,0,1,5.524-5.524h6.96v5.524a4.3,4.3,0,0,0,4.3,4.3H79.479a4.3,4.3,0,0,0,4.3-4.3v-5.524h7.033a5.53,5.53,0,0,1,5.524,5.524v6.474a1.841,1.841,0,0,0,3.683,0v-6.474A9.217,9.217,0,0,0,90.808,410H35.816a9.217,9.217,0,0,0-9.206,9.206v5.738H11A10.447,10.447,0,0,0,.568,435.38v10.558A10.447,10.447,0,0,0,11,456.373h2.255l5.388,7.255a2.087,2.087,0,0,0,3.762-1.244v-6.01h4.2Zm53.483-82.611v5.524a.615.615,0,0,1-.614.614H47.072a.614.614,0,0,1-.614-.614v-5.524ZM20.566,452.69a1.841,1.841,0,0,0-1.841,1.842v3.027l-3.064-4.125a1.843,1.843,0,0,0-1.478-.744H11a6.76,6.76,0,0,1-6.751-6.752V435.38A6.76,6.76,0,0,1,11,428.627h19.64a6.76,6.76,0,0,1,6.751,6.753v10.558a6.76,6.76,0,0,1-6.751,6.752Z" fill="#fedc72"/>
      <path id="Trazado_226688" data-name="Trazado 226688" d="M132.594,657.1H109.811a1.841,1.841,0,1,0,0,3.683h22.783a1.841,1.841,0,0,0,0-3.683Z" transform="translate(-57.89 -133.191)" fill="#fedc72"/>
      <path id="Trazado_226689" data-name="Trazado 226689" d="M146.175,497.969H130.463V458.9a1.841,1.841,0,0,0-3.683,0v39.067h-.246A10.446,10.446,0,0,0,116.1,508.4v10.558A10.446,10.446,0,0,0,126.535,529.4h.246v12.148h-8.322V534.5a15.878,15.878,0,0,0-15.86-15.86H99.289v-3.493a18.368,18.368,0,0,0,11.931-11.962,4.558,4.558,0,0,0,.987.109c3.427,0,5.988-4.276,5.988-8.1a6.2,6.2,0,0,0-3.5-5.9,22.022,22.022,0,0,0,.332-9.224,16.161,16.161,0,0,0-5.743-10.226,1.841,1.841,0,0,0-2.252,2.913c2.3,1.781,3.655,4.251,4.379,8.01a18.73,18.73,0,0,1-.5,8.426,4.895,4.895,0,0,0-2.073,2.814c-2.445-4.108-6.89-5.779-11.207-7.4-3.651-1.373-7.1-2.67-9.338-5.333a4.086,4.086,0,0,0-4.556-1.573c-2.807.894-4.644,4.828-4.839,7.2l-.025.3q-.308,3.711-.566,5.866a4.365,4.365,0,0,0-1.686-1.876,18.729,18.729,0,0,1-.5-8.426c.7-3.619,1.965-6.023,4.11-7.794,2.834-2.34,7.389-3.527,13.538-3.527a34.682,34.682,0,0,1,6.837.607,1.841,1.841,0,1,0,.733-3.609,38.343,38.343,0,0,0-7.57-.681c-7.126,0-12.322,1.43-15.883,4.37a16.327,16.327,0,0,0-5.381,9.936,22.025,22.025,0,0,0,.332,9.225,6.2,6.2,0,0,0-3.5,5.9c0,3.823,2.56,8.1,5.988,8.1a4.557,4.557,0,0,0,.987-.109,18.369,18.369,0,0,0,11.942,11.965v3.49H84.923a15.878,15.878,0,0,0-15.86,15.86v7.041H60.74V529.7a1.841,1.841,0,1,0-3.682,0v22.159a9.217,9.217,0,0,0,9.206,9.206h54.993a9.217,9.217,0,0,0,9.206-9.206V529.4h4.307v6.01a2.086,2.086,0,0,0,3.762,1.244l5.388-7.254h2.255a10.446,10.446,0,0,0,10.434-10.435V508.4A10.446,10.446,0,0,0,146.175,497.969ZM91.925,522.327h3.682v9.308a1.841,1.841,0,0,1-3.682,0Zm20.283-22.711a.918.918,0,0,1-.244-.036,18.461,18.461,0,0,0,.094-1.865v-2.728s0-.009,0-.014a5.222,5.222,0,0,1,.6-2.5c.922.183,1.858.969,1.858,2.724C114.513,497.527,112.947,499.616,112.208,499.616Zm-36.894,0c-.739,0-2.305-2.09-2.305-4.416,0-1.754.936-2.54,1.857-2.723a5.147,5.147,0,0,1,.6,2.5c0,.006,0,.013,0,.02v2.722a18.454,18.454,0,0,0,.095,1.865A.914.914,0,0,1,75.314,499.616Zm3.832-1.9v-.764a2.826,2.826,0,0,0,1.876-1.307c.591-.965.959-3.427,1.515-10.132l.025-.3c.122-1.475,1.4-3.718,2.288-4,.18-.059.493.285.62.435,2.86,3.4,6.927,4.93,10.86,6.41,4.575,1.72,8.527,3.206,10.01,7.26a2.6,2.6,0,0,0,1.418,1.507,2.848,2.848,0,0,0,.618.188v.705a14.622,14.622,0,0,1-14.6,14.605h-.02A14.622,14.622,0,0,1,79.146,497.716ZM93.751,516h.02q.929,0,1.837-.092v2.733H91.924v-2.732Q92.826,516,93.751,516ZM72.745,534.5a12.191,12.191,0,0,1,12.178-12.178h3.32v9.308a5.524,5.524,0,0,0,11.048,0v-9.308H102.6A12.191,12.191,0,0,1,114.776,534.5v7H72.745Zm48.512,22.876H66.264a5.531,5.531,0,0,1-5.524-5.524v-6.629h66.04v6.629A5.53,5.53,0,0,1,121.257,557.381Zm31.67-38.419a6.76,6.76,0,0,1-6.751,6.753h-3.181a1.84,1.84,0,0,0-1.478.744l-3.064,4.124v-3.026a1.841,1.841,0,0,0-1.841-1.842H126.535a6.76,6.76,0,0,1-6.751-6.753V508.4a6.76,6.76,0,0,1,6.751-6.753h19.641a6.76,6.76,0,0,1,6.751,6.753Z" transform="translate(-30.449 -25.366)" fill="#fedc72"/>
      <path id="Trazado_226690" data-name="Trazado 226690" d="M44.238,465.464,37.2,461.227a2.979,2.979,0,0,0-3-.041,3.011,3.011,0,0,0-1.524,2.619v8.473A3.011,3.011,0,0,0,34.2,474.9a2.978,2.978,0,0,0,3-.042l7.037-4.236a3.013,3.013,0,0,0,0-5.155Zm-7.876,5.6v-6.042l5.018,3.021Z" transform="translate(-17.308 -27.383)" fill="#fedc72"/>
      <path id="Trazado_226691" data-name="Trazado 226691" d="M226.431,565.772H211.209a1.841,1.841,0,0,0,0,3.682h15.221a1.841,1.841,0,0,0,0-3.682Z" transform="translate(-112.545 -83.963)" fill="#fedc72"/>
      <path id="Trazado_226692" data-name="Trazado 226692" d="M226.431,581.748H211.209a1.841,1.841,0,0,0,0,3.682h15.221a1.841,1.841,0,0,0,0-3.682Z" transform="translate(-112.545 -92.574)" fill="#fedc72"/>
    </g>
  </g>
</svg>
