<svg xmlns="http://www.w3.org/2000/svg" width="610" height="537.888" viewBox="0 0 610 537.888">
  <g id="Grupo_168169" data-name="Grupo 168169" transform="translate(-43.227 -38.635)">
    <g id="Background_Complete" data-name="Background Complete" transform="translate(43.961 91.11)">
      <g id="Grupo_167882" data-name="Grupo 167882" transform="translate(467.983 327.954)">
        <g id="Grupo_167881" data-name="Grupo 167881">
          <g id="Grupo_167880" data-name="Grupo 167880">
            <path id="Trazado_226707" data-name="Trazado 226707" d="M416.884,348.486c9.23-3.78,15.85-13.207,16-24.382.182-14.638-10.793-26.651-24.521-26.831s-25,11.541-25.183,26.178c-.143,11.279,6.363,20.931,15.625,24.882-38.295,5.436-36.912,47.019-36.912,47.019l90.437,1.186S454.749,354.534,416.884,348.486Z" transform="translate(-361.887 -297.272)" fill="#e0e0e0"/>
          </g>
        </g>
      </g>
      <g id="Grupo_167887" data-name="Grupo 167887" transform="translate(0 267.104)">
        <g id="Grupo_167884" data-name="Grupo 167884" transform="translate(16.025)">
          <g id="Grupo_167883" data-name="Grupo 167883">
            <path id="Trazado_226708" data-name="Trazado 226708" d="M54.621,286.764,60,285.624l8.274-18.85L66,256.035s8.208-2.273,10.208,12,2.3,10.465,2.3,10.465,17.67-3.674,19.461-2.451c1.3.888,5.5,18.324,7.7,27.8,1.108,4.769-.885,9.845-5.1,11.92a7.85,7.85,0,0,1-1.846.657c-4.4.934-27.663,2.121-27.663,2.121l-9.293,1.97Z" transform="translate(-54.621 -255.903)" fill="#e0e0e0"/>
          </g>
        </g>
        <g id="Grupo_167886" data-name="Grupo 167886" transform="translate(0 29.263)">
          <g id="Grupo_167885" data-name="Grupo 167885">
            <path id="Trazado_226709" data-name="Trazado 226709" d="M43.726,277.711,54.832,313.8l9.213-1.952L56.405,275.8Z" transform="translate(-43.726 -275.798)" fill="#e0e0e0"/>
          </g>
        </g>
      </g>
      <g id="Grupo_167900" data-name="Grupo 167900" transform="translate(147.864 95.218)">
        <g id="Grupo_167890" data-name="Grupo 167890">
          <g id="Grupo_167889" data-name="Grupo 167889">
            <g id="Grupo_167888" data-name="Grupo 167888">
              <path id="Trazado_226710" data-name="Trazado 226710" d="M213.086,139.045h-63.8a5.03,5.03,0,0,0-5.03,5.029v42.278a5.03,5.03,0,0,0,5.03,5.029h33.6l15.971,15.971V191.381h14.232a3.729,3.729,0,0,0,3.729-3.729V142.774A3.729,3.729,0,0,0,213.086,139.045Z" transform="translate(-144.252 -139.045)" fill="#ebebeb"/>
            </g>
          </g>
        </g>
        <g id="Grupo_167893" data-name="Grupo 167893" transform="translate(47.665 23.3)">
          <g id="Grupo_167892" data-name="Grupo 167892">
            <g id="Grupo_167891" data-name="Grupo 167891">
              <circle id="Elipse_6512" data-name="Elipse 6512" cx="3.754" cy="3.754" r="3.754" fill="#fafafa"/>
            </g>
          </g>
        </g>
        <g id="Grupo_167896" data-name="Grupo 167896" transform="translate(32.814 23.301)">
          <g id="Grupo_167895" data-name="Grupo 167895">
            <g id="Grupo_167894" data-name="Grupo 167894">
              <path id="Trazado_226711" data-name="Trazado 226711" d="M166.561,158.64a3.755,3.755,0,1,0,3.755-3.754A3.755,3.755,0,0,0,166.561,158.64Z" transform="translate(-166.561 -154.886)" fill="#fafafa"/>
            </g>
          </g>
        </g>
        <g id="Grupo_167899" data-name="Grupo 167899" transform="translate(17.966 23.3)">
          <g id="Grupo_167898" data-name="Grupo 167898">
            <g id="Grupo_167897" data-name="Grupo 167897">
              <circle id="Elipse_6513" data-name="Elipse 6513" cx="3.754" cy="3.754" r="3.754" fill="#fafafa"/>
            </g>
          </g>
        </g>
      </g>
      <g id="Grupo_167902" data-name="Grupo 167902" transform="translate(570.297)">
        <g id="Grupo_167901" data-name="Grupo 167901">
          <path id="Trazado_226712" data-name="Trazado 226712" d="M457.291,79.576a6.523,6.523,0,0,0-12.865.384,6.523,6.523,0,0,0-12.867-.271,8.8,8.8,0,0,0,1.58,6.353,26.168,26.168,0,0,0,4.6,4.861c2.343,2.084,4.507,4.043,6.849,6.129,2.323-2.106,4.3-4.083,6.623-6.188a26.107,26.107,0,0,0,4.557-4.9A8.8,8.8,0,0,0,457.291,79.576Z" transform="translate(-431.446 -74.31)" fill="#e0e0e0"/>
        </g>
      </g>
    </g>
    <g id="Character" transform="translate(132.845 96.995)">
      <g id="Grupo_167911" data-name="Grupo 167911" transform="translate(112.981 393.376)">
        <g id="Grupo_167903" data-name="Grupo 167903">
          <path id="Trazado_226713" data-name="Trazado 226713" d="M354.425,431.9l-23.037-84.867L197.769,345.75c-7.078,25.794-12.622,55.416-16.8,86.152Z" transform="translate(-180.965 -345.75)" fill="#eab556"/>
        </g>
        <g id="Grupo_167905" data-name="Grupo 167905" transform="translate(86.369 80.5)">
          <g id="Grupo_167904" data-name="Grupo 167904">
            <path id="Trazado_226714" data-name="Trazado 226714" d="M244.328,403.722a2.734,2.734,0,0,1-1.574,2.017c-.034.016-.075.018-.11.032H243.9a3.215,3.215,0,0,0,.969-1.977,2.987,2.987,0,0,0-.535-2.043c-.3-.4-.549-.537-.578-.5A4.021,4.021,0,0,1,244.328,403.722Z" transform="translate(-238.29 -400.119)" fill="#fafafa"/>
            <path id="Trazado_226715" data-name="Trazado 226715" d="M240.69,406.131h1.444a2.5,2.5,0,0,1-.94-.574,2.669,2.669,0,0,1-.541-2.955,2.736,2.736,0,0,1,2.017-1.572,4.026,4.026,0,0,1,2.476.577c.032-.029-.1-.276-.5-.578a2.987,2.987,0,0,0-2.043-.535,3.24,3.24,0,0,0-2.584,1.811,3.337,3.337,0,0,0,.64,3.795C240.665,406.11,240.679,406.119,240.69,406.131Z" transform="translate(-239.684 -400.478)" fill="#fafafa"/>
          </g>
        </g>
        <g id="Grupo_167906" data-name="Grupo 167906" transform="translate(73.575 58.494)">
          <circle id="Elipse_6514" data-name="Elipse 6514" cx="2.985" cy="2.985" r="2.985" fill="#fafafa"/>
        </g>
        <g id="Grupo_167907" data-name="Grupo 167907" transform="translate(132.403 78.642)">
          <circle id="Elipse_6515" data-name="Elipse 6515" cx="2.985" cy="2.985" r="2.985" fill="#fafafa"/>
        </g>
        <g id="Grupo_167909" data-name="Grupo 167909" transform="translate(23.462 77.019)">
          <g id="Grupo_167908" data-name="Grupo 167908">
            <path id="Trazado_226716" data-name="Trazado 226716" d="M222.09,407.043c1.355-1.977,2.546-3.714,3.5-5.1l1.653-2.49a4.721,4.721,0,0,0,.53-.909,4.6,4.6,0,0,0-.677.806l-1.787,2.4-3.824,5.3Z" transform="translate(-185.348 -397.91)" fill="#fafafa"/>
            <path id="Trazado_226717" data-name="Trazado 226717" d="M197.4,407.208l7.022-7.991c1.64,2.437,3.446,5.123,5.375,7.991h.863c-2.146-3.133-4.149-6.056-5.945-8.678l-.234-.34-.262.312-7.3,8.706Z" transform="translate(-196.916 -398.075)" fill="#fafafa"/>
            <path id="Trazado_226718" data-name="Trazado 226718" d="M210.158,407.245l1.4-1.877q2.3-3.087,4.473-6l5.841,7.875h.806c-1.949-2.682-4.077-5.607-6.345-8.724l-.3-.409-.3.406-4.786,6.391c-.588.788-1.166,1.562-1.742,2.336Z" transform="translate(-191.128 -398.112)" fill="#fafafa"/>
          </g>
        </g>
        <g id="Grupo_167910" data-name="Grupo 167910" transform="translate(0.014 83.953)" opacity="0.2">
          <path id="Trazado_226719" data-name="Trazado 226719" d="M354.422,405.025l-.6-2.2H181.247l-.273,2.2Z" transform="translate(-180.975 -402.826)"/>
        </g>
      </g>
      <g id="Grupo_167912" data-name="Grupo 167912" transform="translate(364.94 78.218)">
        <path id="Trazado_226720" data-name="Trazado 226720" d="M379.018,382.693l-26.757,17.428V131.488h26.757Z" transform="translate(-352.261 -131.488)" fill="#f5f5f5"/>
      </g>
      <g id="Grupo_167913" data-name="Grupo 167913" transform="translate(363.743 171.593)">
        <path id="Trazado_226721" data-name="Trazado 226721" d="M352.494,337.092c12.275-37.7,6.784-79.7,20.312-117.082,1.3-3.595,2.8-7.271,2.42-11.02a16.7,16.7,0,0,0-4.127-8.718c-2.4-2.89-6.006-5.572-10.126-5.281a9.769,9.769,0,0,0-7.846,5.592c-1.361,2.84-1.461,5.994-1.521,9.065-.225,11.424-.163,22.852-.1,34.278q.23,43.119.46,86.236" transform="translate(-351.447 -194.969)" fill="#e0e0e0"/>
      </g>
      <g id="Grupo_167914" data-name="Grupo 167914" transform="translate(364.691 129.207)">
        <path id="Trazado_226722" data-name="Trazado 226722" d="M352.092,183.76v-9.946l26.757-7.661v11.464Z" transform="translate(-352.092 -166.153)" fill="#e0e0e0"/>
      </g>
      <g id="Grupo_167915" data-name="Grupo 167915" transform="translate(1.204 144.332)">
        <path id="Trazado_226723" data-name="Trazado 226723" d="M144.147,220.2s-1.924-14.937-1.05-20.218c.93-5.617,10.308-17.521,10.308-17.521-.129-.519-1.684-1.814-6.475,0s-6.475,5.179-11.008,8.416l-23.271-14.437-7.678,24.42,19.766,31.121Z" transform="translate(-104.973 -176.436)" fill="#ffad9d"/>
      </g>
      <g id="Grupo_167916" data-name="Grupo 167916" transform="translate(105.668 130.959)">
        <path id="Trazado_226724" data-name="Trazado 226724" d="M213.507,167.344c-12.014,11.776-.471,30.076-8.172,41.9-4.667,7.166-14.663,10.63-16.814,18.908-1.063,4.1.138,8.39.769,12.576s.478,9-2.568,11.941c-1.414,1.365-3.285,2.145-4.869,3.31-4.7,3.452-6.29,9.893-5.763,15.7s2.789,11.292,4.374,16.9a74.552,74.552,0,0,1-2.815,48.3,18.212,18.212,0,0,0,14.363-6.888q-.216,5.838-.435,11.677c5.176.318,10.179-2.465,13.635-6.331s5.589-8.721,7.4-13.582a144.468,144.468,0,0,0,7.831-68.807" transform="translate(-175.993 -167.344)" fill="#263238"/>
      </g>
      <g id="Grupo_167917" data-name="Grupo 167917" transform="translate(210.107 97.329)">
        <path id="Trazado_226725" data-name="Trazado 226725" d="M279.244,144.481a50.031,50.031,0,0,1,8.074,34.71c-.96,6.838-3.324,13.95-.972,20.443,2.024,5.588,7.4,10.154,7.106,16.09-.337,6.766-7.966,11.341-8.655,18.082-.953,9.342,11.591,15.617,11.447,25.005-.075,4.838-3.536,8.837-5.934,13.04s-3.479,10.268.285,13.307l-43.6-3.2,7.768-136.483Z" transform="translate(-246.997 -144.481)" fill="#263238"/>
      </g>
      <g id="Grupo_168066" data-name="Grupo 168066" transform="translate(11.439 21.496)">
        <g id="Grupo_167946" data-name="Grupo 167946" transform="translate(272.686)">
          <g id="Grupo_167919" data-name="Grupo 167919" transform="translate(42.482 148.192)">
            <g id="Grupo_167918" data-name="Grupo 167918">
              <path id="Trazado_226726" data-name="Trazado 226726" d="M369.661,237.583l-.478-.013,1.927-6.428,6.154-24.563a4.511,4.511,0,0,0-2.89-5.353l-4.429-.15-15.172-7.1a4.729,4.729,0,0,0-6.394,3.67c-.555,4.514-3.624,16.643-6.893,12.394-.076-.1-.157-.181-.235-.278-4.592-6.323-10.312-9.733-12.666-9.639a2.642,2.642,0,0,0-1.608,4.536,2.833,2.833,0,0,0,.866.75c.153.082.335.231.5.335a39.209,39.209,0,0,1,5.46,5.991,20.792,20.792,0,0,1,3.343,6.394c.81,2.549,1.412,4.782,1.865,6.675l-1.178,12.538" transform="translate(-326.2 -193.674)" fill="#ffad9d"/>
            </g>
          </g>
          <g id="Grupo_167945" data-name="Grupo 167945">
            <g id="Grupo_167928" data-name="Grupo 167928" transform="translate(5.661)">
              <g id="Grupo_167921" data-name="Grupo 167921" transform="translate(39.803)">
                <g id="Grupo_167920" data-name="Grupo 167920">
                  <path id="Trazado_226727" data-name="Trazado 226727" d="M328.227,173.762s17.73-3.4,43.2-26.536S409.446,92.756,412.476,93s16.456-5.536,40.1,50,13.359,67.989,8.347,67.745-38.8-10.7-60.135-8.887S351.8,213.98,351.8,213.98Z" transform="translate(-328.227 -92.925)" fill="#826ded"/>
                </g>
              </g>
              <g id="Grupo_167923" data-name="Grupo 167923" transform="translate(0 70.689)">
                <g id="Grupo_167922" data-name="Grupo 167922">
                  <path id="Trazado_226728" data-name="Trazado 226728" d="M302.693,179.953l5.688,11.6,2.548,5.2a14.92,14.92,0,0,0,19.254,7.156l38.138-12.086-20.569-50.833-38.3,19.036A14.925,14.925,0,0,0,302.693,179.953Z" transform="translate(-301.167 -140.984)" fill="#263238"/>
                </g>
              </g>
              <g id="Grupo_167925" data-name="Grupo 167925" transform="translate(22.78 120.954)">
                <g id="Grupo_167924" data-name="Grupo 167924">
                  <path id="Trazado_226729" data-name="Trazado 226729" d="M316.654,182.776,328.023,206.7l6.065-1.5,38.393,33.083,11.594-21.19s-22.942-10.663-27-19.066.958-10.142.958-10.142L347.45,175.157Z" transform="translate(-316.654 -175.157)" fill="#263238"/>
                </g>
              </g>
              <g id="Grupo_167927" data-name="Grupo 167927" transform="translate(124.405 1.32)">
                <g id="Grupo_167926" data-name="Grupo 167926">
                  <path id="Trazado_226730" data-name="Trazado 226730" d="M423.43,143.517c12.57,30.078,17.4,56.7,10.795,59.464S412.067,183.6,399.5,153.52s-17.4-56.7-10.795-59.464S410.86,113.439,423.43,143.517Z" transform="translate(-385.744 -93.823)" fill="#263238"/>
                </g>
              </g>
            </g>
            <g id="Grupo_167930" data-name="Grupo 167930" transform="translate(0 110.931)">
              <g id="Grupo_167929" data-name="Grupo 167929">
                <path id="Trazado_226731" data-name="Trazado 226731" d="M300.8,183.49l10.327-2.924-5.992-12.223-7.812,4.554Z" transform="translate(-297.318 -168.343)" fill="#826ded"/>
              </g>
            </g>
            <g id="Grupo_167932" data-name="Grupo 167932" transform="translate(31.617 125.317)">
              <g id="Grupo_167931" data-name="Grupo 167931">
                <path id="Trazado_226732" data-name="Trazado 226732" d="M350.059,178.123l-28.006,16.763-3.241-6.821Z" transform="translate(-318.813 -178.123)" fill="#826ded"/>
              </g>
            </g>
            <g id="Grupo_167934" data-name="Grupo 167934" transform="translate(6.877 110.931)">
              <g id="Grupo_167933" data-name="Grupo 167933">
                <path id="Trazado_226733" data-name="Trazado 226733" d="M302.929,168.343l5.992,12.223-2.122.6-4.805-12.28Z" transform="translate(-301.994 -168.343)" fill="#826ded"/>
              </g>
            </g>
            <g id="Grupo_167936" data-name="Grupo 167936" transform="translate(14.782 104.434)">
              <g id="Grupo_167935" data-name="Grupo 167935">
                <path id="Trazado_226734" data-name="Trazado 226734" d="M307.371,173.4c.141.335,5.307-1.506,11.535-4.111s11.17-4.991,11.029-5.326-5.3,1.506-11.535,4.113S307.233,173.066,307.371,173.4Z" transform="translate(-307.368 -163.925)" fill="#826ded"/>
              </g>
            </g>
            <g id="Grupo_167938" data-name="Grupo 167938" transform="translate(11.838 97.295)">
              <g id="Grupo_167937" data-name="Grupo 167937">
                <path id="Trazado_226735" data-name="Trazado 226735" d="M305.37,168.424c.151.332,4.829-1.486,10.448-4.057s10.054-4.926,9.9-5.257-4.828,1.487-10.449,4.061S305.219,168.095,305.37,168.424Z" transform="translate(-305.366 -159.072)" fill="#826ded"/>
              </g>
            </g>
            <g id="Grupo_167940" data-name="Grupo 167940" transform="translate(18.542 113.053)">
              <g id="Grupo_167939" data-name="Grupo 167939">
                <path id="Trazado_226736" data-name="Trazado 226736" d="M309.925,178.278c.049.176,1.272-.069,3.23-.615.977-.271,2.136-.618,3.418-1.021,1.275-.422,2.6-1.047,4.026-1.643,5.673-2.44,10.021-4.864,9.89-5.17-.156-.36-4.783,1.543-10.405,3.96-1.409.591-2.72,1.249-3.951,1.722s-2.345.89-3.271,1.269C311.01,177.542,309.877,178.1,309.925,178.278Z" transform="translate(-309.924 -169.785)" fill="#826ded"/>
              </g>
            </g>
            <g id="Grupo_167942" data-name="Grupo 167942" transform="translate(140.594 41.682)">
              <g id="Grupo_167941" data-name="Grupo 167941">
                <path id="Trazado_226737" data-name="Trazado 226737" d="M392.9,123.215s15.583-9.061,23.374,11.866-8.416,23.873-8.416,23.873A137.862,137.862,0,0,1,392.9,123.215Z" transform="translate(-392.902 -121.263)" fill="#826ded"/>
              </g>
            </g>
            <g id="Grupo_167944" data-name="Grupo 167944" transform="translate(124.984 18.515)">
              <g id="Grupo_167943" data-name="Grupo 167943">
                <path id="Trazado_226738" data-name="Trazado 226738" d="M382.313,105.513a22.871,22.871,0,0,0,.487,3.97c.413,2.542.994,6.231,1.849,10.764.584,2.239,1.222,4.682,1.908,7.3q.521,1.968,1.075,4.066.278,1.048.565,2.125c.209.713.488,1.415.734,2.137,1.022,2.879,2.095,5.9,3.207,9.025q.417,1.174.844,2.367c.276.8.675,1.555,1.01,2.343q1.059,2.345,2.143,4.757t2.15,4.757c.369.774.672,1.574,1.089,2.311l1.215,2.2,4.647,8.378c.378.662.719,1.336,1.116,1.964l1.222,1.834q1.207,1.8,2.34,3.5l4.217,6.268c2.827,3.632,5.2,6.5,6.835,8.49a23.338,23.338,0,0,0,2.655,3,23.388,23.388,0,0,0-2.252-3.31l-6.5-8.745c-1.241-1.934-2.6-4.048-4.049-6.313l-2.265-3.507q-.585-.9-1.186-1.831c-.385-.628-.718-1.3-1.087-1.964-1.45-2.667-2.971-5.461-4.548-8.359q-.594-1.088-1.2-2.19c-.409-.733-.708-1.528-1.072-2.3q-1.05-2.33-2.128-4.725t-2.134-4.722c-.335-.783-.735-1.533-1.012-2.324s-.568-1.571-.849-2.346c-1.13-3.1-2.218-6.088-3.257-8.939-.253-.715-.538-1.408-.755-2.114q-.3-1.066-.588-2.1-.583-2.072-1.133-4.023l-2.053-7.221c-.938-4.444-1.7-8.062-2.247-10.64A23.642,23.642,0,0,0,382.313,105.513Z" transform="translate(-382.289 -105.513)" fill="#263238"/>
              </g>
            </g>
          </g>
        </g>
        <g id="Grupo_168001" data-name="Grupo 168001" transform="translate(0 165.518)">
          <g id="Grupo_167948" data-name="Grupo 167948" transform="translate(254.678 21.313)">
            <g id="Grupo_167947" data-name="Grupo 167947">
              <path id="Trazado_226739" data-name="Trazado 226739" d="M351.867,219.944,344.189,288.1l-38.32-38.185s-20.507,42.643-20.793,44.379c-.191,1.166,21.508,22.6,37.629,34.987,8.728,6.7,20.506,17.065,31.374,15.324,18.127-2.905,28.89-14.881,30.467-33.173l6.941-90.435Z" transform="translate(-285.075 -219.944)" fill="#eab556"/>
            </g>
          </g>
          <g id="Grupo_167952" data-name="Grupo 167952" transform="translate(92.789 17.221)">
            <g id="Grupo_167951" data-name="Grupo 167951">
              <g id="Grupo_167950" data-name="Grupo 167950">
                <g id="Grupo_167949" data-name="Grupo 167949">
                  <path id="Trazado_226740" data-name="Trazado 226740" d="M203.11,284.526l-28.1-18.62c7.685-43.194,70.08-47.523,70.08-47.523l47.509-.843s35.21-4.788,56.987,19.685c22.536,25.327,39.5,45.267,39.5,45.267l-30.836,33.747-30.227-23.726a41.319,41.319,0,0,1,7.424,22.808c.022,14.063-10.479,27.51-10.479,27.51l-2.631,24.023,11.514,46.557-134.584.357c9.177-14.543,15.739-27.129,23.911-48.632l-12.573-45.282Z" transform="translate(-175.014 -217.162)" fill="#eab556"/>
                </g>
              </g>
            </g>
          </g>
          <g id="Grupo_167953" data-name="Grupo 167953">
            <path id="Trazado_226741" data-name="Trazado 226741" d="M234.856,236.767l-68.169,36.066-24.666-67.379-30.09,14.31,21.285,85.768c4.232,17.048,22.287,27.3,38.767,21.216q.832-.307,1.655-.662L247.5,294.113Z" transform="translate(-111.931 -205.454)" fill="#eab556"/>
          </g>
          <g id="Grupo_167955" data-name="Grupo 167955" transform="translate(157.866 84.2)">
            <g id="Grupo_167954" data-name="Grupo 167954">
              <path id="Trazado_226742" data-name="Trazado 226742" d="M229.692,262.773a15.937,15.937,0,0,0-4.339,1.3,9.869,9.869,0,0,0,0,17.513,15.87,15.87,0,0,0,4.339,1.3,3.331,3.331,0,0,1-1.255.065,9.385,9.385,0,0,1-3.326-.875,10.021,10.021,0,0,1-3.935-3.273,10.24,10.24,0,0,1,0-11.938,10.029,10.029,0,0,1,3.935-3.271,9.353,9.353,0,0,1,3.326-.875A3.357,3.357,0,0,1,229.692,262.773Z" transform="translate(-219.257 -262.698)" fill="#fafafa"/>
            </g>
          </g>
          <g id="Grupo_167957" data-name="Grupo 167957" transform="translate(216.239 101.183)">
            <g id="Grupo_167956" data-name="Grupo 167956">
              <path id="Trazado_226743" data-name="Trazado 226743" d="M258.952,280.762a15.831,15.831,0,0,0,2.631,3.685,9.869,9.869,0,0,0,16.567-5.678,15.835,15.835,0,0,0-.181-4.524,3.31,3.31,0,0,1,.468,1.166,9.351,9.351,0,0,1,.25,3.429,10.021,10.021,0,0,1-1.82,4.783,10.235,10.235,0,0,1-11.294,3.87,10.043,10.043,0,0,1-4.371-2.661,9.375,9.375,0,0,1-1.9-2.862A3.331,3.331,0,0,1,258.952,280.762Z" transform="translate(-258.943 -274.244)" fill="#fafafa"/>
            </g>
          </g>
          <g id="Grupo_167959" data-name="Grupo 167959" transform="translate(181.861 168.551)">
            <g id="Grupo_167958" data-name="Grupo 167958">
              <path id="Trazado_226744" data-name="Trazado 226744" d="M235.572,335.928a15.936,15.936,0,0,0,4.223,1.637,9.87,9.87,0,0,0,10.739-13.834,15.925,15.925,0,0,0-2.633-3.683,3.321,3.321,0,0,1,1.03.718,9.363,9.363,0,0,1,2.09,2.73,10.023,10.023,0,0,1,1.1,5,10.237,10.237,0,0,1-7.321,9.43,10.036,10.036,0,0,1-5.114.172,9.349,9.349,0,0,1-3.162-1.349C235.86,336.281,235.545,335.962,235.572,335.928Z" transform="translate(-235.57 -320.045)" fill="#fafafa"/>
            </g>
          </g>
          <g id="Grupo_167961" data-name="Grupo 167961" transform="translate(323.286 50.563)">
            <g id="Grupo_167960" data-name="Grupo 167960">
              <path id="Trazado_226745" data-name="Trazado 226745" d="M331.721,255.713a15.821,15.821,0,0,0,4.221,1.637,9.87,9.87,0,0,0,10.739-13.832,15.867,15.867,0,0,0-2.633-3.685,3.29,3.29,0,0,1,1.031.719,9.392,9.392,0,0,1,2.09,2.73,10.033,10.033,0,0,1,1.1,5,10.241,10.241,0,0,1-7.321,9.431,10.04,10.04,0,0,1-5.116.171,9.353,9.353,0,0,1-3.162-1.347C332.009,256.066,331.693,255.747,331.721,255.713Z" transform="translate(-331.719 -239.83)" fill="#fafafa"/>
            </g>
          </g>
          <g id="Grupo_167963" data-name="Grupo 167963" transform="translate(315.846 125.489)">
            <g id="Grupo_167962" data-name="Grupo 167962">
              <path id="Trazado_226746" data-name="Trazado 226746" d="M346.867,300.526a15.9,15.9,0,0,0-1.583-4.242,9.87,9.87,0,0,0-17.473,1.174,15.918,15.918,0,0,0-1,4.416,3.347,3.347,0,0,1-.147-1.247,9.352,9.352,0,0,1,.65-3.376,10.019,10.019,0,0,1,3-4.146,10.238,10.238,0,0,1,11.911-.8,10.018,10.018,0,0,1,3.529,3.707,9.379,9.379,0,0,1,1.1,3.258A3.284,3.284,0,0,1,346.867,300.526Z" transform="translate(-326.661 -290.769)" fill="#fafafa"/>
            </g>
          </g>
          <g id="Grupo_167965" data-name="Grupo 167965" transform="translate(232.068 38.189)">
            <g id="Grupo_167964" data-name="Grupo 167964">
              <path id="Trazado_226747" data-name="Trazado 226747" d="M269.708,242a15.888,15.888,0,0,0,3.386,3.007,9.869,9.869,0,0,0,14.89-9.217,15.962,15.962,0,0,0-1.181-4.371,3.347,3.347,0,0,1,.715,1.034,9.389,9.389,0,0,1,1.006,3.286,10.03,10.03,0,0,1-.712,5.069,10.24,10.24,0,0,1-10.151,6.284,10.022,10.022,0,0,1-4.853-1.624,9.349,9.349,0,0,1-2.495-2.367A3.352,3.352,0,0,1,269.708,242Z" transform="translate(-269.704 -231.417)" fill="#fafafa"/>
            </g>
          </g>
          <g id="Grupo_167967" data-name="Grupo 167967" transform="translate(98.449 74.884)">
            <g id="Grupo_167966" data-name="Grupo 167966">
              <path id="Trazado_226748" data-name="Trazado 226748" d="M178.866,266.947a15.935,15.935,0,0,0,3.386,3.007,9.869,9.869,0,0,0,14.89-9.218,15.876,15.876,0,0,0-1.181-4.37,3.35,3.35,0,0,1,.715,1.033,9.369,9.369,0,0,1,1.006,3.287,10.032,10.032,0,0,1-.712,5.069,10.236,10.236,0,0,1-10.151,6.284,10.037,10.037,0,0,1-4.853-1.624,9.4,9.4,0,0,1-2.495-2.367A3.349,3.349,0,0,1,178.866,266.947Z" transform="translate(-178.862 -256.364)" fill="#fafafa"/>
            </g>
          </g>
          <g id="Grupo_167969" data-name="Grupo 167969" transform="translate(27.831 71.995)">
            <g id="Grupo_167968" data-name="Grupo 167968">
              <path id="Trazado_226749" data-name="Trazado 226749" d="M147.3,270.583a15.981,15.981,0,0,0,1.436-4.3,9.869,9.869,0,0,0-14.324-10.074,15.887,15.887,0,0,0-3.557,2.8,3.344,3.344,0,0,1,.669-1.063,9.381,9.381,0,0,1,2.628-2.217,10.019,10.019,0,0,1,4.941-1.336,10.234,10.234,0,0,1,9.764,6.868,10.022,10.022,0,0,1,.413,5.1,9.371,9.371,0,0,1-1.2,3.223A3.372,3.372,0,0,1,147.3,270.583Z" transform="translate(-130.852 -254.4)" fill="#fafafa"/>
            </g>
          </g>
          <g id="Grupo_167971" data-name="Grupo 167971" transform="translate(190.818 96.275)">
            <g id="Grupo_167970" data-name="Grupo 167970">
              <path id="Trazado_226750" data-name="Trazado 226750" d="M247.122,272.035a4.03,4.03,0,0,0-2.476-.577,2.736,2.736,0,0,0-2.017,1.572,2.643,2.643,0,0,0,3.495,3.5,2.732,2.732,0,0,0,1.572-2.018,4.024,4.024,0,0,0-.575-2.474c.029-.032.275.1.577.5a2.969,2.969,0,0,1,.535,2.043,3.235,3.235,0,0,1-1.811,2.584,3.318,3.318,0,0,1-4.433-4.435,3.24,3.24,0,0,1,2.584-1.811,2.987,2.987,0,0,1,2.043.535C247.019,271.758,247.153,272.006,247.122,272.035Z" transform="translate(-241.66 -270.907)" fill="#fafafa"/>
            </g>
          </g>
          <g id="Grupo_167973" data-name="Grupo 167973" transform="translate(238.022 73.248)">
            <g id="Grupo_167972" data-name="Grupo 167972">
              <path id="Trazado_226751" data-name="Trazado 226751" d="M279.214,256.379a4.015,4.015,0,0,0-2.476-.575,2.729,2.729,0,0,0-2.017,1.572,2.643,2.643,0,0,0,3.495,3.495,2.735,2.735,0,0,0,1.574-2.017,4.026,4.026,0,0,0-.577-2.475c.029-.031.277.1.578.5a2.98,2.98,0,0,1,.534,2.043,3.234,3.234,0,0,1-1.809,2.584,3.319,3.319,0,0,1-4.435-4.433,3.233,3.233,0,0,1,2.584-1.811,2.971,2.971,0,0,1,2.043.535C279.111,256.1,279.246,256.349,279.214,256.379Z" transform="translate(-273.752 -255.252)" fill="#fafafa"/>
            </g>
          </g>
          <g id="Grupo_167975" data-name="Grupo 167975" transform="translate(340.533 34.953)">
            <g id="Grupo_167974" data-name="Grupo 167974">
              <path id="Trazado_226752" data-name="Trazado 226752" d="M348.907,230.344a4.024,4.024,0,0,0-2.474-.575,2.731,2.731,0,0,0-2.018,1.572,2.643,2.643,0,0,0,3.5,3.495,2.733,2.733,0,0,0,1.572-2.017,4.03,4.03,0,0,0-.577-2.476c.029-.031.277.1.578.5a2.987,2.987,0,0,1,.535,2.043,3.233,3.233,0,0,1-1.811,2.584,3.319,3.319,0,0,1-4.435-4.433,3.233,3.233,0,0,1,2.584-1.811,2.967,2.967,0,0,1,2.043.535C348.8,230.069,348.939,230.314,348.907,230.344Z" transform="translate(-343.445 -229.217)" fill="#fafafa"/>
            </g>
          </g>
          <g id="Grupo_167977" data-name="Grupo 167977" transform="translate(224.876 145.73)">
            <g id="Grupo_167976" data-name="Grupo 167976">
              <path id="Trazado_226753" data-name="Trazado 226753" d="M270.277,305.656a4.024,4.024,0,0,0-2.476-.575,2.734,2.734,0,0,0-2.018,1.572,2.644,2.644,0,0,0,3.5,3.495,2.729,2.729,0,0,0,1.572-2.017,4.027,4.027,0,0,0-.575-2.476c.028-.032.275.1.577.5a2.972,2.972,0,0,1,.535,2.043,3.233,3.233,0,0,1-1.811,2.584,3.318,3.318,0,0,1-4.433-4.435,3.234,3.234,0,0,1,2.584-1.809,2.979,2.979,0,0,1,2.043.534C270.174,305.379,270.308,305.626,270.277,305.656Z" transform="translate(-264.814 -304.529)" fill="#fafafa"/>
            </g>
          </g>
          <g id="Grupo_167979" data-name="Grupo 167979" transform="translate(65.534 96.275)">
            <g id="Grupo_167978" data-name="Grupo 167978">
              <path id="Trazado_226754" data-name="Trazado 226754" d="M161.947,272.035a4.021,4.021,0,0,0-2.475-.577,2.736,2.736,0,0,0-2.017,1.572,2.644,2.644,0,0,0,3.5,3.5,2.735,2.735,0,0,0,1.572-2.018,4.018,4.018,0,0,0-.577-2.474c.029-.032.277.1.578.5a2.984,2.984,0,0,1,.535,2.043,3.238,3.238,0,0,1-1.811,2.584,3.319,3.319,0,0,1-4.435-4.435,3.24,3.24,0,0,1,2.584-1.811,2.987,2.987,0,0,1,2.043.535C161.844,271.758,161.979,272.006,161.947,272.035Z" transform="translate(-156.485 -270.907)" fill="#fafafa"/>
            </g>
          </g>
          <g id="Grupo_167981" data-name="Grupo 167981" transform="translate(151.739 165.58)">
            <g id="Grupo_167980" data-name="Grupo 167980">
              <path id="Trazado_226755" data-name="Trazado 226755" d="M221.6,318.084c0,.072-.55.071-1.474.338a6.168,6.168,0,0,0-3.224,2.268,5.853,5.853,0,1,0,9.4,0,6.166,6.166,0,0,0-3.226-2.268c-.922-.268-1.475-.266-1.472-.338a3.273,3.273,0,0,1,1.546.049,6.158,6.158,0,0,1,3.583,2.228,6.431,6.431,0,0,1,1.009,6.132,6.512,6.512,0,0,1-12.276,0,6.428,6.428,0,0,1,1.009-6.131,6.161,6.161,0,0,1,3.583-2.23A3.275,3.275,0,0,1,221.6,318.084Z" transform="translate(-215.092 -318.024)" fill="#fafafa"/>
            </g>
          </g>
          <g id="Grupo_167983" data-name="Grupo 167983" transform="translate(290.901 84.216)">
            <g id="Grupo_167982" data-name="Grupo 167982">
              <path id="Trazado_226756" data-name="Trazado 226756" d="M316.211,262.768c0,.072-.55.071-1.474.338a6.18,6.18,0,0,0-3.226,2.268,5.854,5.854,0,1,0,9.4,0,6.166,6.166,0,0,0-3.226-2.268c-.922-.268-1.475-.266-1.472-.338a3.264,3.264,0,0,1,1.546.05,6.142,6.142,0,0,1,3.583,2.228,6.427,6.427,0,0,1,1.009,6.131,6.511,6.511,0,0,1-12.276,0,6.428,6.428,0,0,1,1.009-6.131,6.15,6.15,0,0,1,3.583-2.228A3.266,3.266,0,0,1,316.211,262.768Z" transform="translate(-309.702 -262.708)" fill="#fafafa"/>
            </g>
          </g>
          <g id="Grupo_167984" data-name="Grupo 167984" transform="translate(147.277 120.293)">
            <path id="Trazado_226757" data-name="Trazado 226757" d="M212.933,288.11a2.985,2.985,0,1,1,0,4.222A2.986,2.986,0,0,1,212.933,288.11Z" transform="translate(-212.058 -287.236)" fill="#fafafa"/>
          </g>
          <g id="Grupo_167985" data-name="Grupo 167985" transform="translate(35.212 96.528)">
            <circle id="Elipse_6516" data-name="Elipse 6516" cx="2.985" cy="2.985" r="2.985" fill="#fafafa"/>
          </g>
          <g id="Grupo_167986" data-name="Grupo 167986" transform="translate(342.515 76.485)">
            <circle id="Elipse_6517" data-name="Elipse 6517" cx="2.985" cy="2.985" r="2.985" fill="#fafafa"/>
          </g>
          <g id="Grupo_167987" data-name="Grupo 167987" transform="translate(231.54 30.447)">
            <path id="Trazado_226758" data-name="Trazado 226758" d="M270.219,227.028a2.985,2.985,0,1,1,0,4.221A2.984,2.984,0,0,1,270.219,227.028Z" transform="translate(-269.345 -226.153)" fill="#fafafa"/>
          </g>
          <g id="Grupo_167988" data-name="Grupo 167988" transform="translate(163.17 199.891)">
            <path id="Trazado_226759" data-name="Trazado 226759" d="M223.737,342.225a2.985,2.985,0,1,1,0,4.221A2.986,2.986,0,0,1,223.737,342.225Z" transform="translate(-222.863 -341.351)" fill="#fafafa"/>
          </g>
          <g id="Grupo_167990" data-name="Grupo 167990" transform="translate(164.47 133.358)">
            <g id="Grupo_167989" data-name="Grupo 167989">
              <path id="Trazado_226760" data-name="Trazado 226760" d="M269.085,296.748a4.67,4.67,0,0,1-.53.909l-1.653,2.492c-1.527,2.228-3.614,5.273-6.137,8.95l-.238.349-.254-.343c-2.593-3.5-5.663-7.635-9-12.135l.6,0-4.773,6.4c-1.481,1.978-2.929,3.913-4.326,5.778l-.318.424-.3-.438-8.214-12.211.5.028c-3.158,3.592-5.785,6.582-7.708,8.769-.885.978-1.608,1.775-2.173,2.4a5.31,5.31,0,0,1-.813.8,5.278,5.278,0,0,1,.671-.925l2.045-2.511,7.5-8.945.262-.312.234.34c2.445,3.568,5.264,7.682,8.318,12.141l-.612-.013,4.316-5.786,4.786-6.39.3-.406.3.409,8.889,12.217-.493.006,6.351-8.8,1.787-2.4A4.679,4.679,0,0,1,269.085,296.748Z" transform="translate(-223.747 -296.118)" fill="#fafafa"/>
            </g>
          </g>
          <g id="Grupo_167992" data-name="Grupo 167992" transform="translate(198.075 184.112)">
            <g id="Grupo_167991" data-name="Grupo 167991">
              <path id="Trazado_226761" data-name="Trazado 226761" d="M287.932,330.624a4.572,4.572,0,0,1-.307,1.006c-.271.734-.615,1.664-1.037,2.8l-3.92,10.118-.153.394-.325-.275-11.545-9.748.585-.135c-1.021,2.355-2.086,4.808-3.177,7.324-.988,2.265-1.955,4.48-2.887,6.616l-.212.485-.387-.359c-3.964-3.673-7.624-7.063-10.795-10l.488-.085c-2.25,4.22-4.121,7.734-5.491,10.3L247.2,351.9a5.251,5.251,0,0,1-.608.969,5.334,5.334,0,0,1,.441-1.055c.368-.758.837-1.725,1.414-2.912l5.254-10.427.182-.365.306.279c3.2,2.911,6.885,6.27,10.882,9.909l-.6.127,2.874-6.621,3.193-7.318.2-.466.382.331c4.246,3.654,8.153,7.015,11.452,9.855l-.478.118,4.166-10.021c.484-1.116.878-2.025,1.189-2.743A4.7,4.7,0,0,1,287.932,330.624Z" transform="translate(-246.594 -330.624)" fill="#fafafa"/>
            </g>
          </g>
          <g id="Grupo_167994" data-name="Grupo 167994" transform="translate(263.297 53.792)">
            <g id="Grupo_167993" data-name="Grupo 167993">
              <path id="Trazado_226762" data-name="Trazado 226762" d="M291.634,242.027a4.675,4.675,0,0,1,.906.534l2.486,1.662,8.927,6.172.347.24-.344.253-12.17,8.955.006-.6,6.381,4.8,5.76,4.349.424.319-.44.293c-4.5,3-8.644,5.767-12.244,8.166l.031-.494,8.74,7.741c.974.89,1.768,1.614,2.39,2.181a5.153,5.153,0,0,1,.8.816,5.262,5.262,0,0,1-.922-.675l-2.5-2.053-8.915-7.538-.312-.263.341-.232,12.173-8.272-.016.612-5.769-4.338-6.372-4.811-.4-.306.409-.3L303.6,250.4l0,.493-8.775-6.387-2.389-1.794A4.594,4.594,0,0,1,291.634,242.027Z" transform="translate(-290.935 -242.025)" fill="#fafafa"/>
            </g>
          </g>
          <g id="Grupo_167996" data-name="Grupo 167996" transform="translate(300.576 100.553)">
            <g id="Grupo_167995" data-name="Grupo 167995">
              <path id="Trazado_226763" data-name="Trazado 226763" d="M316.283,295.216a4.639,4.639,0,0,1,.328-1c.285-.728.649-1.65,1.093-2.783,1.028-2.5,2.431-5.913,4.127-10.037l.16-.39.321.282,11.344,9.98-.59.124c1.071-2.334,2.184-4.766,3.327-7.259,1.034-2.245,2.046-4.438,3.021-6.554l.221-.481.381.366c3.888,3.754,7.477,7.218,10.589,10.221l-.49.077c2.334-4.174,4.277-7.649,5.7-10.19q.991-1.712,1.621-2.8a5.125,5.125,0,0,1,.628-.956,5.385,5.385,0,0,1-.463,1.044c-.382.75-.872,1.708-1.472,2.883l-5.464,10.318-.191.36-.3-.284L339.5,278.008l.6-.115c-.971,2.12-1.978,4.316-3.008,6.562-1.147,2.49-2.267,4.919-3.342,7.25l-.213.462-.377-.338c-4.172-3.739-8.008-7.18-11.248-10.086l.48-.107c-1.795,4.082-3.28,7.46-4.369,9.934l-1.244,2.717A4.679,4.679,0,0,1,316.283,295.216Z" transform="translate(-316.279 -273.816)" fill="#fafafa"/>
            </g>
          </g>
          <g id="Grupo_167998" data-name="Grupo 167998" transform="translate(67.456 57.728)">
            <g id="Grupo_167997" data-name="Grupo 167997">
              <path id="Trazado_226764" data-name="Trazado 226764" d="M157.8,266.1a4.669,4.669,0,0,1,.328-1c.287-.727.649-1.65,1.094-2.781,1.027-2.5,2.43-5.913,4.126-10.037l.16-.39.321.281,11.344,9.98-.588.124,3.326-7.257c1.034-2.245,2.046-4.439,3.021-6.554l.222-.482.379.368c3.889,3.752,7.477,7.216,10.589,10.221l-.49.076,5.7-10.19,1.622-2.8a5.294,5.294,0,0,1,.627-.955,5.382,5.382,0,0,1-.463,1.044c-.382.75-.872,1.708-1.472,2.883l-5.464,10.318-.191.36-.3-.284-10.676-10.13.6-.115c-.972,2.118-1.978,4.314-3.009,6.562-1.147,2.49-2.267,4.919-3.342,7.25l-.212.462-.377-.338c-4.171-3.74-8.009-7.179-11.249-10.086l.481-.109c-1.8,4.082-3.282,7.462-4.369,9.934-.507,1.106-.919,2.008-1.246,2.718A4.692,4.692,0,0,1,157.8,266.1Z" transform="translate(-157.791 -244.701)" fill="#fafafa"/>
            </g>
          </g>
          <g id="Grupo_168000" data-name="Grupo 168000" transform="translate(173.272 53.717)">
            <g id="Grupo_167999" data-name="Grupo 167999">
              <path id="Trazado_226765" data-name="Trazado 226765" d="M229.731,249.77a4.694,4.694,0,0,1,.869-.593l2.561-1.542,9.386-5.45.365-.212.082.419c.841,4.271,1.839,9.327,2.921,14.824l-.543-.26,7.059-3.733c2.187-1.15,4.324-2.275,6.388-3.36l.468-.247.079.522c.8,5.345,1.536,10.279,2.175,14.556l-.435-.238,10.726-4.613,2.993-1.236a5.171,5.171,0,0,1,1.078-.375,5.255,5.255,0,0,1-1,.547l-2.923,1.39-10.617,4.857-.372.171-.065-.409c-.677-4.271-1.456-9.2-2.3-14.535l.547.275-6.381,3.373-7.066,3.717-.45.237-.093-.5c-1.031-5.507-1.98-10.571-2.783-14.85l.447.206c-3.908,2.146-7.146,3.921-9.514,5.222l-2.642,1.4A4.613,4.613,0,0,1,229.731,249.77Z" transform="translate(-229.731 -241.974)" fill="#fafafa"/>
            </g>
          </g>
        </g>
        <g id="Grupo_168052" data-name="Grupo 168052" transform="translate(164.923 73.146)">
          <g id="Grupo_168035" data-name="Grupo 168035">
            <g id="Grupo_168034" data-name="Grupo 168034">
              <g id="Grupo_168033" data-name="Grupo 168033">
                <g id="Grupo_168032" data-name="Grupo 168032">
                  <g id="Grupo_168002" data-name="Grupo 168002">
                    <path id="Trazado_226766" data-name="Trazado 226766" d="M268.668,261.539c.3-13.219.866-27.406.866-27.406s20.112-2.537,20.979-23.065c.66-15.628.937-40.2,1.033-51.037a7.315,7.315,0,0,0-5.175-7.057l-33.484-10.32-28.156,20.787-.677,97.422c-.085,12.381,8,20.026,20.385,20.026h0C256.559,280.889,268.39,273.655,268.668,261.539Z" transform="translate(-224.055 -142.654)" fill="#ffad9d"/>
                  </g>
                  <g id="Grupo_168003" data-name="Grupo 168003" transform="translate(18.846 82.762)">
                    <path id="Trazado_226767" data-name="Trazado 226767" d="M263.5,207.638a48.979,48.979,0,0,1-26.634-8.718s6.26,14.953,26.285,13.757Z" transform="translate(-236.867 -198.92)" fill="#e88b79"/>
                  </g>
                  <g id="Grupo_168004" data-name="Grupo 168004" transform="translate(33.413 60.794)">
                    <path id="Trazado_226768" data-name="Trazado 226768" d="M257.021,190.754a2.413,2.413,0,0,0-2.451-3.407,3.8,3.8,0,0,0-3.846-3.36,4.3,4.3,0,0,0-3.888,3.495,4.957,4.957,0,0,0,2.193,4.864,5.869,5.869,0,0,0,5.413.4,4.277,4.277,0,0,0,2.73-3.226" transform="translate(-246.77 -183.985)" fill="#e88b79"/>
                  </g>
                  <g id="Grupo_168031" data-name="Grupo 168031" transform="translate(23.111 23.944)">
                    <g id="Grupo_168030" data-name="Grupo 168030">
                      <g id="Grupo_168023" data-name="Grupo 168023" transform="translate(11.936 7.604)">
                        <g id="Grupo_168022" data-name="Grupo 168022">
                          <g id="Grupo_168021" data-name="Grupo 168021">
                            <g id="Grupo_168012" data-name="Grupo 168012" transform="translate(17.077)">
                              <g id="Grupo_168007" data-name="Grupo 168007" transform="translate(2.086 2.776)">
                                <g id="Grupo_168006" data-name="Grupo 168006">
                                  <g id="Grupo_168005" data-name="Grupo 168005">
                                    <path id="Trazado_226769" data-name="Trazado 226769" d="M266.532,168.537a2.817,2.817,0,0,1-2.717,2.842,2.694,2.694,0,0,1-2.9-2.54,2.819,2.819,0,0,1,2.714-2.845A2.7,2.7,0,0,1,266.532,168.537Z" transform="translate(-260.91 -165.989)" fill="#263238"/>
                                  </g>
                                </g>
                              </g>
                              <g id="Grupo_168011" data-name="Grupo 168011">
                                <g id="Grupo_168010" data-name="Grupo 168010">
                                  <g id="Grupo_168009" data-name="Grupo 168009">
                                    <g id="Grupo_168008" data-name="Grupo 168008">
                                      <path id="Trazado_226770" data-name="Trazado 226770" d="M270.627,167.063c-.349.368-2.483-1.212-5.516-1.2-3.029-.035-5.253,1.524-5.582,1.153-.162-.165.194-.828,1.164-1.534a7.738,7.738,0,0,1,4.469-1.377,7.433,7.433,0,0,1,4.391,1.416C270.484,166.235,270.8,166.9,270.627,167.063Z" transform="translate(-259.491 -164.102)" fill="#263238"/>
                                    </g>
                                  </g>
                                </g>
                              </g>
                            </g>
                            <g id="Grupo_168016" data-name="Grupo 168016" transform="translate(7.995 0.75)">
                              <g id="Grupo_168015" data-name="Grupo 168015">
                                <g id="Grupo_168014" data-name="Grupo 168014">
                                  <g id="Grupo_168013" data-name="Grupo 168013">
                                    <path id="Trazado_226771" data-name="Trazado 226771" d="M254.737,189.873c-.015-.172,1.871-.5,4.925-.888.774-.079,1.506-.234,1.637-.762a3.941,3.941,0,0,0-.516-2.295q-1.092-2.811-2.29-5.9c-3.18-8.393-5.481-15.294-5.142-15.419s3.192,6.576,6.372,14.969q1.147,3.1,2.193,5.931a4.489,4.489,0,0,1,.4,3.039,1.944,1.944,0,0,1-1.274,1.131,5.2,5.2,0,0,1-1.315.182C256.655,190.032,254.748,190.045,254.737,189.873Z" transform="translate(-253.317 -164.612)" fill="#263238"/>
                                  </g>
                                </g>
                              </g>
                            </g>
                            <g id="Grupo_168020" data-name="Grupo 168020" transform="translate(0 28.109)">
                              <g id="Grupo_168019" data-name="Grupo 168019">
                                <g id="Grupo_168018" data-name="Grupo 168018">
                                  <g id="Grupo_168017" data-name="Grupo 168017">
                                    <path id="Trazado_226772" data-name="Trazado 226772" d="M248.374,183.212c.493-.028.5,3.262,3.315,5.6s6.32,1.974,6.345,2.433c.047.207-.781.64-2.261.68a8.191,8.191,0,0,1-5.3-1.844,7.133,7.133,0,0,1-2.57-4.7C247.781,184.008,248.148,183.193,248.374,183.212Z" transform="translate(-247.881 -183.212)" fill="#263238"/>
                                  </g>
                                </g>
                              </g>
                            </g>
                          </g>
                        </g>
                      </g>
                      <g id="Grupo_168026" data-name="Grupo 168026" transform="translate(0 6.376)">
                        <g id="Grupo_168025" data-name="Grupo 168025">
                          <g id="Grupo_168024" data-name="Grupo 168024">
                            <path id="Trazado_226773" data-name="Trazado 226773" d="M251.652,165.947c-.318.8-2.865.212-5.928.4-3.064.121-5.586.968-5.931.2-.151-.366.334-1.106,1.384-1.825a8.969,8.969,0,0,1,4.5-1.447,8.524,8.524,0,0,1,4.538.987C251.283,164.876,251.792,165.566,251.652,165.947Z" transform="translate(-239.767 -163.267)" fill="#263238"/>
                          </g>
                        </g>
                      </g>
                      <g id="Grupo_168029" data-name="Grupo 168029" transform="translate(28.297)">
                        <g id="Grupo_168028" data-name="Grupo 168028">
                          <g id="Grupo_168027" data-name="Grupo 168027">
                            <path id="Trazado_226774" data-name="Trazado 226774" d="M271.524,162.074c-.647.688-3.18-.026-6.226-.059-3.043-.122-5.625.462-6.217-.259-.26-.349.146-1.038,1.272-1.69a10.011,10.011,0,0,1,5.061-1.13,9.854,9.854,0,0,1,4.966,1.384C271.456,161.029,271.809,161.738,271.524,162.074Z" transform="translate(-259.004 -158.933)" fill="#263238"/>
                          </g>
                        </g>
                      </g>
                    </g>
                  </g>
                </g>
              </g>
            </g>
          </g>
          <g id="Grupo_168037" data-name="Grupo 168037" transform="translate(23.533 35.935)">
            <g id="Grupo_168036" data-name="Grupo 168036">
              <path id="Trazado_226775" data-name="Trazado 226775" d="M250.648,170.05c-.107.065-.46-.54-1.325-1.147a6.028,6.028,0,0,0-3.861-1.037,8.809,8.809,0,0,0-3.868,1.386c-.921.572-1.45,1.013-1.531.931-.069-.066.331-.653,1.218-1.374A7.69,7.69,0,0,1,245.4,167.1a5.779,5.779,0,0,1,4.26,1.378C250.537,169.283,250.727,170.024,250.648,170.05Z" transform="translate(-240.054 -167.085)" fill="#263238"/>
            </g>
          </g>
          <g id="Grupo_168039" data-name="Grupo 168039" transform="translate(22.192 44.783)">
            <g id="Grupo_168038" data-name="Grupo 168038">
              <path id="Trazado_226776" data-name="Trazado 226776" d="M240.72,174.155c-.11.181-.549.113-.977-.15s-.687-.624-.577-.8.549-.112.977.151S240.831,173.975,240.72,174.155Z" transform="translate(-239.142 -173.1)" fill="#e88b79"/>
            </g>
          </g>
          <g id="Grupo_168041" data-name="Grupo 168041" transform="translate(28.731 44.537)">
            <g id="Grupo_168040" data-name="Grupo 168040">
              <path id="Trazado_226777" data-name="Trazado 226777" d="M243.866,174.607c-.209-.029-.327-.428-.26-.89s.287-.812.5-.783.327.428.26.89S244.077,174.636,243.866,174.607Z" transform="translate(-243.587 -172.933)" fill="#e88b79"/>
            </g>
          </g>
          <g id="Grupo_168043" data-name="Grupo 168043" transform="translate(25.989 53.599)">
            <g id="Grupo_168042" data-name="Grupo 168042">
              <path id="Trazado_226778" data-name="Trazado 226778" d="M241.885,180.427c-.193-.088-.216-.453-.051-.815s.456-.587.649-.5.215.452.05.815S242.076,180.513,241.885,180.427Z" transform="translate(-241.723 -179.094)" fill="#e88b79"/>
            </g>
          </g>
          <g id="Grupo_168045" data-name="Grupo 168045" transform="translate(58.718 44.538)">
            <g id="Grupo_168044" data-name="Grupo 168044">
              <path id="Trazado_226779" data-name="Trazado 226779" d="M265.09,173.771c-.118.176-.453.159-.75-.04s-.443-.5-.325-.677.453-.157.75.04S265.208,173.6,265.09,173.771Z" transform="translate(-263.974 -172.934)" fill="#e88b79"/>
            </g>
          </g>
          <g id="Grupo_168047" data-name="Grupo 168047" transform="translate(63.041 43.424)">
            <g id="Grupo_168046" data-name="Grupo 168046">
              <path id="Trazado_226780" data-name="Trazado 226780" d="M267.029,173.638c-.182-.106-.146-.513.082-.909s.563-.634.747-.528.146.513-.082.91S267.213,173.744,267.029,173.638Z" transform="translate(-266.913 -172.176)" fill="#e88b79"/>
            </g>
          </g>
          <g id="Grupo_168049" data-name="Grupo 168049" transform="translate(60.68 51.468)">
            <g id="Grupo_168048" data-name="Grupo 168048">
              <path id="Trazado_226781" data-name="Trazado 226781" d="M265.545,179.8c-.207-.035-.3-.546-.2-1.138s.349-1.047.557-1.012.3.546.2,1.138S265.754,179.831,265.545,179.8Z" transform="translate(-265.308 -177.645)" fill="#e88b79"/>
            </g>
          </g>
          <g id="Grupo_168051" data-name="Grupo 168051" transform="translate(59.83 60.009)">
            <g id="Grupo_168050" data-name="Grupo 168050">
              <path id="Trazado_226782" data-name="Trazado 226782" d="M264.731,209.241c.026-.057.63.237,1.775.565a13.163,13.163,0,0,0,4.964.432,13.626,13.626,0,0,0,6.754-2.761,13.135,13.135,0,0,0,4.785-7.424,15.241,15.241,0,0,0-.59-8.884,11.675,11.675,0,0,0-4.489-5.685,11.2,11.2,0,0,0-4.651-1.724c-1.178-.15-1.847-.074-1.853-.143,0-.026.162-.065.48-.112a7.91,7.91,0,0,1,1.4-.043,10.677,10.677,0,0,1,4.91,1.562,11.975,11.975,0,0,1,4.858,5.885,15.652,15.652,0,0,1,.68,9.323,13.644,13.644,0,0,1-5.1,7.806,13.8,13.8,0,0,1-7.132,2.737,12.282,12.282,0,0,1-5.105-.687A5.152,5.152,0,0,1,264.731,209.241Z" transform="translate(-264.731 -183.452)" fill="#eab556"/>
            </g>
          </g>
        </g>
        <g id="Grupo_168054" data-name="Grupo 168054" transform="translate(147.277 295.53)" opacity="0.2">
          <g id="Grupo_168053" data-name="Grupo 168053">
            <path id="Trazado_226783" data-name="Trazado 226783" d="M261.4,293.866c.407.2-.556,3.474-4.107,7.587a30.432,30.432,0,0,1-7.29,6.073,31,31,0,0,1-22.675,3.81,30.411,30.411,0,0,1-8.875-3.357c-4.7-2.726-6.681-5.51-6.359-5.828.39-.453,2.948,1.5,7.552,3.4a33.275,33.275,0,0,0,35.727-6C259.1,296.252,260.882,293.566,261.4,293.866Z" transform="translate(-212.058 -293.843)"/>
          </g>
        </g>
        <g id="Grupo_168055" data-name="Grupo 168055" transform="translate(122.911 259.654)" opacity="0.2">
          <path id="Trazado_226784" data-name="Trazado 226784" d="M195.493,269.453s25.657,59.9,24.293,67.751-19.339,33.35-19.339,33.35l13.091-30.042C205.875,314.905,199.52,290.824,195.493,269.453Z" transform="translate(-195.493 -269.453)"/>
        </g>
        <g id="Grupo_168057" data-name="Grupo 168057" transform="translate(313.416 255.263)">
          <g id="Grupo_168056" data-name="Grupo 168056">
            <path id="Trazado_226785" data-name="Trazado 226785" d="M330.7,283.144c-.179.088-2.03-3.436-3.6-8.077s-2.261-8.559-2.064-8.6c.218-.05,1.222,3.761,2.789,8.353S330.906,283.051,330.7,283.144Z" transform="translate(-325.008 -266.468)" fill="#263238"/>
          </g>
        </g>
        <g id="Grupo_168059" data-name="Grupo 168059" transform="translate(313.4 254.089)">
          <g id="Grupo_168058" data-name="Grupo 168058">
            <path id="Trazado_226786" data-name="Trazado 226786" d="M333.878,279.379c-.157.128-2.593-2.64-5.053-6.453s-3.993-7.165-3.813-7.254,2.011,3.067,4.457,6.838S334.05,279.242,333.878,279.379Z" transform="translate(-324.998 -265.669)" fill="#263238"/>
          </g>
        </g>
        <g id="Grupo_168061" data-name="Grupo 168061" transform="translate(179.781 321.68)">
          <g id="Grupo_168060" data-name="Grupo 168060">
            <path id="Trazado_226787" data-name="Trazado 226787" d="M282.9,311.625a13.572,13.572,0,0,1-1.861,1.406l-5.22,3.611c-4.526,3.108-10.574,7.262-17.26,11.851l-17.2,11.942-5.226,3.6a13.662,13.662,0,0,1-1.975,1.241,13.717,13.717,0,0,1,1.8-1.483c1.188-.915,2.926-2.214,5.086-3.8,4.323-3.173,10.348-7.482,17.082-12.132s12.9-8.755,17.395-11.672c2.249-1.458,4.079-2.623,5.356-3.41A13.639,13.639,0,0,1,282.9,311.625Z" transform="translate(-234.156 -311.622)" fill="#263238"/>
          </g>
        </g>
        <g id="Grupo_168063" data-name="Grupo 168063" transform="translate(47.694 232.688)">
          <g id="Grupo_168062" data-name="Grupo 168062">
            <path id="Trazado_226788" data-name="Trazado 226788" d="M144.38,266.907c-.193-.059.8-3.8,2.659-8.18s3.841-7.7,4.017-7.606c.2.1-1.478,3.554-3.311,7.9S144.59,266.975,144.38,266.907Z" transform="translate(-144.356 -251.12)" fill="#263238"/>
          </g>
        </g>
        <g id="Grupo_168065" data-name="Grupo 168065" transform="translate(52.459 232.457)">
          <g id="Grupo_168064" data-name="Grupo 168064">
            <path id="Trazado_226789" data-name="Trazado 226789" d="M147.71,273.524a13.465,13.465,0,0,1-.084-3.343c.065-2.061.259-4.907.633-8.033s.859-5.938,1.283-7.956a13.378,13.378,0,0,1,.872-3.229,15.883,15.883,0,0,1-.338,3.321c-.287,2.036-.682,4.844-1.056,7.955s-.65,5.932-.853,7.977A15.645,15.645,0,0,1,147.71,273.524Z" transform="translate(-147.595 -250.963)" fill="#263238"/>
          </g>
        </g>
      </g>
      <g id="Grupo_168067" data-name="Grupo 168067" transform="translate(125.461 76.407)">
        <path id="Trazado_226790" data-name="Trazado 226790" d="M269.014,136.458c6.119,10.521,4.023,25.129-4.808,33.5-4.458,4.227-10.477,7.122-13.247,12.606-2.915,5.769-1.369,12.734.738,18.845s4.764,12.4,3.876,18.8c-1.1,7.95-7.474,14.363-8.83,22.275-2.595,15.136,13.7,28.5,11.8,43.736-.831,6.679-5.053,12.354-8.708,18.005s-6.985,12.222-5.728,18.833c.6,3.143,3.273,5.928,2.977,9.114-1.2,12.876-19.414,14.61-22.046,12.354,3.332-6.34-.6-16.189-.993-16.68a13.676,13.676,0,0,1-11.817,10.8,33.214,33.214,0,0,0-1.155-14.663,14.591,14.591,0,0,1-10.173,6.872,88.572,88.572,0,0,0-6.188-53.151c-2.63-5.807-5.984-11.817-5.126-18.135,1.111-8.175,8.78-13.728,12.407-21.138,4.082-8.34,2.708-18.174,1.592-27.39s-1.672-19.341,3.621-26.967c3.227-4.648,8.349-7.872,10.955-12.9,2.423-4.669,2.32-10.211,3.8-15.261,2.677-9.148,9.384-19.472,18.392-22.589s22.993-6.134,28.663,3.123" transform="translate(-189.45 -130.257)" fill="#263238"/>
      </g>
      <g id="Grupo_168068" data-name="Grupo 168068" transform="translate(136.604 219.432)">
        <path id="Trazado_226791" data-name="Trazado 226791" d="M201.066,265.817c-2.214,6.36-4.457,12.939-3.974,19.657s4.42,13.665,10.893,15.524c2.462.707,5.347.763,7.087,2.645a6.133,6.133,0,0,1,.947,5.984,18.105,18.105,0,0,1-3.29,5.392,23.487,23.487,0,0,0,9.851-8.727,16.107,16.107,0,0,1-4.076,14.615c4.964.193,9.289-3.227,12.8-6.746,8-8.028,14.734-18.625,13.734-29.917-1-11.242-9.467-21.016-9.433-32.3.012-4.333,1.3-8.572,1.521-12.9s-.944-9.162-4.563-11.548" transform="translate(-197.025 -227.493)" fill="#263238"/>
      </g>
      <g id="Grupo_168069" data-name="Grupo 168069" transform="translate(190.789 76.405)">
        <path id="Trazado_226792" data-name="Trazado 226792" d="M246.057,137.283c4.149-5.189,11.208-7.635,17.813-6.9s12.682,4.4,17.085,9.376a43.207,43.207,0,0,1,8.937,17.618,15.622,15.622,0,0,1,.69,5.848,6.37,6.37,0,0,1-2.958,4.88,6.548,6.548,0,0,1-5.881-.143,19.36,19.36,0,0,1-4.816-3.715,9.153,9.153,0,0,1-17.714.672,13.178,13.178,0,0,1-25.088-2.487c-1.021-5.12,1.083-10.393,4.033-14.7s6.751-7.972,9.774-12.228" transform="translate(-233.864 -130.256)" fill="#263238"/>
      </g>
      <g id="Grupo_168071" data-name="Grupo 168071" transform="translate(127.26 83.35)">
        <g id="Grupo_168070" data-name="Grupo 168070">
          <path id="Trazado_226793" data-name="Trazado 226793" d="M190.675,271.379a17.907,17.907,0,0,0,1.1-1.455A11.1,11.1,0,0,0,193.324,265a36.387,36.387,0,0,0-.494-8.258,26.173,26.173,0,0,1-.181-5.233,14.064,14.064,0,0,1,1.736-5.631c2.027-3.673,5.564-6.671,9.42-9.511,1.927-1.436,3.933-2.9,5.816-4.6a21.244,21.244,0,0,0,4.85-6.012,17.524,17.524,0,0,0,1.749-7.865,44.576,44.576,0,0,0-.972-8.512c-.552-2.874-1.23-5.813-1.524-8.867a24.2,24.2,0,0,1,.6-9.3,14.169,14.169,0,0,1,2.08-4.274,16.47,16.47,0,0,1,3.311-3.312,58.2,58.2,0,0,1,7.81-4.508,23.387,23.387,0,0,0,6.9-4.923,13.014,13.014,0,0,0,3.084-7.329c.337-2.643.24-5.279.312-7.849a26.045,26.045,0,0,1,1.087-7.43A24.56,24.56,0,0,1,246.2,140.4a22.015,22.015,0,0,1,9.82-5.029,17.286,17.286,0,0,1,8.328.243,11.721,11.721,0,0,1,4.611,2.542,7.246,7.246,0,0,1,.946,1,2.084,2.084,0,0,1,.282.372c-.043.04-.41-.488-1.33-1.253a12.024,12.024,0,0,0-4.592-2.371,17.177,17.177,0,0,0-8.156-.11,21.708,21.708,0,0,0-9.552,5.016,24.1,24.1,0,0,0-7.044,10.971,25.449,25.449,0,0,0-1.021,7.26,78.083,78.083,0,0,1-.285,7.922,13.72,13.72,0,0,1-3.234,7.722,23.981,23.981,0,0,1-7.093,5.1,58.126,58.126,0,0,0-7.7,4.454,15.759,15.759,0,0,0-3.151,3.152,13.372,13.372,0,0,0-1.967,4.046,23.547,23.547,0,0,0-.581,9.009c.287,3,.953,5.9,1.5,8.8a45.123,45.123,0,0,1,.968,8.659,18.244,18.244,0,0,1-1.852,8.18,21.884,21.884,0,0,1-5.029,6.19c-1.927,1.724-3.955,3.183-5.888,4.605-3.858,2.805-7.338,5.732-9.324,9.265a13.566,13.566,0,0,0-1.724,5.411,26.1,26.1,0,0,0,.122,5.142,35.6,35.6,0,0,1,.365,8.336,10.9,10.9,0,0,1-1.715,4.978A5.9,5.9,0,0,1,190.675,271.379Z" transform="translate(-190.673 -134.977)" fill="#455a64"/>
        </g>
      </g>
      <g id="Grupo_168073" data-name="Grupo 168073" transform="translate(154.337 98.28)">
        <g id="Grupo_168072" data-name="Grupo 168072">
          <path id="Trazado_226794" data-name="Trazado 226794" d="M217.2,300.357a10.079,10.079,0,0,1-.563-1.74,12.106,12.106,0,0,1,.181-5.232,51.163,51.163,0,0,1,2.815-7.8c1.162-2.952,2.618-6.507,2.045-10.489a15.6,15.6,0,0,0-2.287-5.784c-1.149-1.871-2.573-3.677-4.021-5.581a33.041,33.041,0,0,1-3.983-6.3A25.785,25.785,0,0,1,212.8,233.4c3.132-5.111,8.131-8.815,12.478-13.138a31.723,31.723,0,0,0,5.563-7.124,17.972,17.972,0,0,0,1.628-4.074,17.575,17.575,0,0,0,.488-4.282c-.154-5.778-2.461-11.082-3.227-16.456a19.374,19.374,0,0,1,.359-7.924,18.95,18.95,0,0,1,3.515-6.6,49.708,49.708,0,0,1,10.042-8.759,67.481,67.481,0,0,0,8.581-6.744,25.212,25.212,0,0,0,5.022-6.456,16.757,16.757,0,0,0,1.824-6.715,11.486,11.486,0,0,1-.051,1.827,14.875,14.875,0,0,1-1.506,5.022,25.029,25.029,0,0,1-4.988,6.629,66.472,66.472,0,0,1-8.565,6.876A49.62,49.62,0,0,0,234.1,174.2a18.367,18.367,0,0,0-3.362,6.39,18.714,18.714,0,0,0-.309,7.64c.758,5.256,3.1,10.555,3.279,16.549a18.245,18.245,0,0,1-.5,4.479,18.809,18.809,0,0,1-1.692,4.251,32.368,32.368,0,0,1-5.692,7.3c-4.41,4.376-9.346,8.043-12.382,12.992a25.14,25.14,0,0,0-1.439,23.351,32.626,32.626,0,0,0,3.879,6.2c1.431,1.9,2.858,3.736,4.018,5.656a16.088,16.088,0,0,1,2.318,6.009c.559,4.189-.988,7.788-2.184,10.733a53.336,53.336,0,0,0-2.921,7.706,12.463,12.463,0,0,0-.319,5.135C217.021,299.746,217.239,300.343,217.2,300.357Z" transform="translate(-209.081 -145.128)" fill="#455a64"/>
        </g>
      </g>
      <g id="Grupo_168075" data-name="Grupo 168075" transform="translate(211.037 84.281)">
        <g id="Grupo_168074" data-name="Grupo 168074">
          <path id="Trazado_226795" data-name="Trazado 226795" d="M276.042,159.375c-.131.018-.413-2.421-1.146-6.284a33.892,33.892,0,0,0-1.933-6.579,18.685,18.685,0,0,0-4.725-6.768,14,14,0,0,0-7.465-3.286,26.944,26.944,0,0,0-6.834.063c-3.895.5-6.284,1.077-6.312.94a7.272,7.272,0,0,1,1.643-.516,46.864,46.864,0,0,1,4.6-.96,25.591,25.591,0,0,1,7-.227,14.406,14.406,0,0,1,7.877,3.41,18.789,18.789,0,0,1,4.872,7.074,31.5,31.5,0,0,1,1.815,6.753c.316,1.961.465,3.557.557,4.658A7.4,7.4,0,0,1,276.042,159.375Z" transform="translate(-247.629 -135.61)" fill="#455a64"/>
        </g>
      </g>
      <g id="Grupo_168077" data-name="Grupo 168077" transform="translate(208.526 86.923)">
        <g id="Grupo_168076" data-name="Grupo 168076">
          <path id="Trazado_226796" data-name="Trazado 226796" d="M257.572,162.838a38.721,38.721,0,0,1,.322-4.661A29.441,29.441,0,0,0,257,147.148a15.447,15.447,0,0,0-2.845-5.306,12.632,12.632,0,0,0-3.836-3.064,15.089,15.089,0,0,0-4.4-1.278,3.043,3.043,0,0,1,1.268-.081,9.8,9.8,0,0,1,3.362.871,12.43,12.43,0,0,1,4.136,3.09,15.408,15.408,0,0,1,3.04,5.535,26.939,26.939,0,0,1,.7,11.314c-.179,1.44-.379,2.595-.537,3.387A3.99,3.99,0,0,1,257.572,162.838Z" transform="translate(-245.922 -137.406)" fill="#455a64"/>
        </g>
      </g>
      <g id="Grupo_168078" data-name="Grupo 168078" transform="translate(8.882 0.338)">
        <path id="Trazado_226797" data-name="Trazado 226797" d="M492.759,133.2V78.541H110.193V557.487H492.759V393.761L466,411.382v62.15H138.327V132.617H466v28.312C473.948,155.715,485.578,143.1,492.759,133.2Z" transform="translate(-110.193 -78.541)" fill="#f5f5f5"/>
      </g>
      <g id="Grupo_168095" data-name="Grupo 168095" transform="translate(36.752 15.037)">
        <g id="Grupo_168085" data-name="Grupo 168085" transform="translate(0 1.764)">
          <g id="Grupo_168084" data-name="Grupo 168084">
            <g id="Grupo_168080" data-name="Grupo 168080" transform="translate(2.474 2.462)">
              <g id="Grupo_168079" data-name="Grupo 168079">
                <path id="Trazado_226798" data-name="Trazado 226798" d="M138.79,99.288a4.085,4.085,0,0,0,2.427-3.785,3.84,3.84,0,1,0-7.663-.021A4.08,4.08,0,0,0,136,99.294a6.13,6.13,0,0,0-5.18,4.467,8.671,8.671,0,0,0,5.323,2.855l2.361.007a8.688,8.688,0,0,0,5.392-2.9A6.033,6.033,0,0,0,138.79,99.288Z" transform="translate(-130.822 -91.407)" fill="#455a64"/>
              </g>
            </g>
            <g id="Grupo_168083" data-name="Grupo 168083">
              <g id="Grupo_168082" data-name="Grupo 168082">
                <g id="Grupo_168081" data-name="Grupo 168081">
                  <path id="Trazado_226799" data-name="Trazado 226799" d="M138.152,107.5c0-.074.778-.044,2.1-.4a8.692,8.692,0,0,0,4.636-3.2,8.493,8.493,0,0,0,1.14-7.994,8.322,8.322,0,0,0-2.946-3.885,8.366,8.366,0,0,0-9.912.019,8.332,8.332,0,0,0-2.932,3.9,8.5,8.5,0,0,0,1.172,7.991,8.7,8.7,0,0,0,4.65,3.177c1.321.354,2.1.321,2.1.394a1.726,1.726,0,0,1-.559.041,6.875,6.875,0,0,1-1.6-.182,8.673,8.673,0,0,1-4.961-3.142,8.835,8.835,0,0,1-1.727-3.754,8.988,8.988,0,0,1,.35-4.735,8.882,8.882,0,0,1,3.121-4.216,8.97,8.97,0,0,1,10.691-.021,8.933,8.933,0,0,1,1.8,12.7,8.685,8.685,0,0,1-4.95,3.162,6.78,6.78,0,0,1-1.6.188A1.772,1.772,0,0,1,138.152,107.5Z" transform="translate(-129.14 -89.733)" fill="#455a64"/>
                </g>
              </g>
            </g>
          </g>
        </g>
        <g id="Grupo_168092" data-name="Grupo 168092" transform="translate(323.947)">
          <g id="Grupo_168087" data-name="Grupo 168087">
            <g id="Grupo_168086" data-name="Grupo 168086">
              <path id="Trazado_226800" data-name="Trazado 226800" d="M353.2,90.418a1.909,1.909,0,1,1-1.933-1.884A1.908,1.908,0,0,1,353.2,90.418Z" transform="translate(-349.378 -88.534)" fill="#455a64"/>
            </g>
          </g>
          <g id="Grupo_168089" data-name="Grupo 168089" transform="translate(0.088 6.865)">
            <g id="Grupo_168088" data-name="Grupo 168088">
              <path id="Trazado_226801" data-name="Trazado 226801" d="M353.254,95.084a1.908,1.908,0,1,1-1.931-1.883A1.909,1.909,0,0,1,353.254,95.084Z" transform="translate(-349.438 -93.201)" fill="#455a64"/>
            </g>
          </g>
          <g id="Grupo_168091" data-name="Grupo 168091" transform="translate(0.175 13.728)">
            <g id="Grupo_168090" data-name="Grupo 168090">
              <path id="Trazado_226802" data-name="Trazado 226802" d="M353.314,99.751a1.909,1.909,0,1,1-1.933-1.884A1.908,1.908,0,0,1,353.314,99.751Z" transform="translate(-349.497 -97.867)" fill="#455a64"/>
            </g>
          </g>
        </g>
        <g id="Grupo_168094" data-name="Grupo 168094" transform="translate(27.724 10.601)">
          <g id="Grupo_168093" data-name="Grupo 168093">
            <path id="Trazado_226803" data-name="Trazado 226803" d="M316.419,96.125c0,.212-37.707.382-84.211.382-46.52,0-84.219-.171-84.219-.382s37.7-.384,84.219-.384C278.712,95.741,316.419,95.913,316.419,96.125Z" transform="translate(-147.989 -95.741)" fill="#263238"/>
          </g>
        </g>
      </g>
      <g id="Grupo_168106" data-name="Grupo 168106" transform="translate(39.925 411.712)">
        <g id="Grupo_168097" data-name="Grupo 168097" transform="translate(36.805 4.008)">
          <g id="Grupo_168096" data-name="Grupo 168096">
            <path id="Trazado_226804" data-name="Trazado 226804" d="M176.073,382.662l-3.877-1.725a9.8,9.8,0,1,1,2.979-2.148Zm-9.078-20.982a10.026,10.026,0,1,0,.179,20.051A10.337,10.337,0,0,0,172,380.2l.162-.09,2.856,1.272-.649-2.808.129-.141a10.015,10.015,0,0,0-7.5-16.758Z" transform="translate(-156.32 -360.941)" fill="#263238"/>
          </g>
        </g>
        <g id="Grupo_168099" data-name="Grupo 168099" transform="translate(68.683 5.444)">
          <g id="Grupo_168098" data-name="Grupo 168098">
            <path id="Trazado_226805" data-name="Trazado 226805" d="M190.779,380.517l-4.449-10.836-8.337-7.583,20.2-.181Zm-10.9-17.7,7.1,6.5,3.79,9.23,6.334-15.889Z" transform="translate(-177.992 -361.917)" fill="#263238"/>
          </g>
        </g>
        <g id="Grupo_168101" data-name="Grupo 168101" transform="translate(77.128 5.507)">
          <g id="Grupo_168100" data-name="Grupo 168100">
            <rect id="Rectngulo_46224" data-name="Rectngulo 46224" width="13.141" height="0.738" transform="matrix(0.838, -0.546, 0.546, 0.838, 0, 7.177)" fill="#263238"/>
          </g>
        </g>
        <g id="Grupo_168103" data-name="Grupo 168103" transform="translate(307.305)">
          <g id="Grupo_168102" data-name="Grupo 168102">
            <path id="Trazado_226806" data-name="Trazado 226806" d="M356.733,382.6l-8.434-8.284-7.863,8.009-.215-23.965,16.295-.146Zm-8.443-9.327.265.257,7.425,7.3-.2-21.868-14.819.132.191,21.447Z" transform="translate(-340.221 -358.216)" fill="#263238"/>
          </g>
        </g>
        <g id="Grupo_168105" data-name="Grupo 168105" transform="translate(0 2.912)">
          <g id="Grupo_168104" data-name="Grupo 168104">
            <path id="Trazado_226807" data-name="Trazado 226807" d="M156.05,365.212a6.248,6.248,0,0,0-12.322.424,6.249,6.249,0,0,0-12.328-.2,8.432,8.432,0,0,0,1.542,6.078,25.027,25.027,0,0,0,4.427,4.638c2.252,1.986,4.333,3.854,6.585,5.839,2.217-2.025,4.1-3.929,6.318-5.956a25.033,25.033,0,0,0,4.345-4.714A8.441,8.441,0,0,0,156.05,365.212Z" transform="translate(-131.298 -360.196)" fill="#eab556"/>
          </g>
        </g>
      </g>
      <g id="Grupo_168107" data-name="Grupo 168107" transform="translate(8.882 154.591)">
        <path id="Trazado_226808" data-name="Trazado 226808" d="M110.193,210.079c1.622,1.161,2.324,1.87,3.917,3.068s3.8,1.942,5.576,1.027c1.887-.975,2.508-3.44,2.227-5.545s-1.233-4.066-1.656-6.148a3.1,3.1,0,0,0,3.607-1.049,5.071,5.071,0,0,0,.812-3.864,15.046,15.046,0,0,0-1.324-3.824c.481.778,1.8.487,2.258-.307a3.666,3.666,0,0,0,.074-2.676,11.145,11.145,0,0,0-3.148-5.9c-1.711-1.483-4.407-2.011-6.266-.719-1.489,1.033-4.18,2.549-4.619,4.307-1.552,6.212-1.021,15.361-1.458,21.747" transform="translate(-110.193 -183.41)" fill="#e0e0e0"/>
      </g>
      <g id="Grupo_168108" data-name="Grupo 168108" transform="translate(350.673 165.155)">
        <path id="Trazado_226809" data-name="Trazado 226809" d="M352.072,190.853a3.418,3.418,0,0,1,1.9,4.344c-1.219,3.3-3.19,8.486-4.664,11.625a8.7,8.7,0,0,1-1.811,2.8,2.8,2.8,0,0,1-4.926-1.981,8.946,8.946,0,0,1,.659-3.452c1.04-3.087,2.833-7.708,4.367-11.466a3.417,3.417,0,0,1,4.472-1.867Z" transform="translate(-342.562 -190.593)" fill="#ffad9d"/>
      </g>
      <g id="Grupo_168109" data-name="Grupo 168109" transform="translate(355.49 171.246)">
        <path id="Trazado_226810" data-name="Trazado 226810" d="M355.348,194.994a3.417,3.417,0,0,1,1.9,4.344c-1.219,3.3-3.189,8.484-4.664,11.625a8.692,8.692,0,0,1-1.809,2.8,2.8,2.8,0,0,1-4.928-1.981,8.948,8.948,0,0,1,.66-3.452c1.04-3.089,2.833-7.708,4.367-11.466a3.416,3.416,0,0,1,4.472-1.867Z" transform="translate(-345.837 -194.734)" fill="#ffad9d"/>
      </g>
      <g id="Grupo_168110" data-name="Grupo 168110" transform="translate(361.304 175.145)">
        <path id="Trazado_226811" data-name="Trazado 226811" d="M358.025,197.61a2.959,2.959,0,0,1,1.647,3.761c-1.056,2.859-2.762,7.347-4.039,10.065a7.517,7.517,0,0,1-1.568,2.424,2.426,2.426,0,0,1-4.266-1.717,7.742,7.742,0,0,1,.572-2.989c.9-2.674,2.452-6.675,3.78-9.929a2.959,2.959,0,0,1,3.873-1.617Z" transform="translate(-349.789 -197.385)" fill="#ffad9d"/>
      </g>
      <g id="Grupo_168111" data-name="Grupo 168111" transform="translate(367.116 176.444)">
        <path id="Trazado_226812" data-name="Trazado 226812" d="M362.015,198.495a2.971,2.971,0,0,1,1.655,3.777c-1.061,2.874-2.774,7.382-4.057,10.114a7.569,7.569,0,0,1-1.575,2.434,2.438,2.438,0,0,1-4.286-1.724,7.794,7.794,0,0,1,.574-3c.9-2.686,2.465-6.7,3.8-9.976a2.972,2.972,0,0,1,3.891-1.622Z" transform="translate(-353.741 -198.267)" fill="#ffad9d"/>
      </g>
      <g id="Grupo_168113" data-name="Grupo 168113" transform="translate(355.91 172.268)">
        <g id="Grupo_168112" data-name="Grupo 168112">
          <path id="Trazado_226813" data-name="Trazado 226813" d="M346.146,207.474c-.194-.085.827-2.849,2.28-6.175s2.787-5.954,2.982-5.869-.827,2.849-2.28,6.175S346.34,207.558,346.146,207.474Z" transform="translate(-346.122 -195.429)" fill="#e88b79"/>
        </g>
      </g>
      <g id="Grupo_168115" data-name="Grupo 168115" transform="translate(361.173 175.562)">
        <g id="Grupo_168114" data-name="Grupo 168114">
          <path id="Trazado_226814" data-name="Trazado 226814" d="M349.722,211.477c-.2-.079.925-3.236,2.5-7.052s3.018-6.841,3.211-6.756-.928,3.242-2.5,7.053S349.918,211.555,349.722,211.477Z" transform="translate(-349.7 -197.668)" fill="#e88b79"/>
        </g>
      </g>
      <g id="Grupo_168117" data-name="Grupo 168117" transform="translate(366.679 177.887)">
        <g id="Grupo_168116" data-name="Grupo 168116">
          <path id="Trazado_226815" data-name="Trazado 226815" d="M353.464,211.4c-.194-.1,1.024-2.781,2.414-6.126s2.445-6.094,2.652-6.028-.532,2.945-1.945,6.322S353.643,211.5,353.464,211.4Z" transform="translate(-353.443 -199.248)" fill="#e88b79"/>
        </g>
      </g>
      <g id="Grupo_168119" data-name="Grupo 168119" transform="translate(8.5)">
        <g id="Grupo_168118" data-name="Grupo 168118">
          <path id="Trazado_226816" data-name="Trazado 226816" d="M109.934,557.839H493.194v-.246c-.056-105.339-.1-192.183-.134-252.7-.037-30.251-.065-53.92-.085-70.034-.019-8.05-.035-14.21-.046-18.367s-.047-6.285-.047-6.285-.032,2.136-.047,6.285-.026,10.317-.047,18.367c-.019,16.114-.049,39.783-.084,70.034-.032,60.457-.078,147.191-.134,252.389L110.7,557.214c0-30.323,0-61.338,0-92.77-.016-140.086-.031-272-.044-385.458l382.093-.2c.028,17.895.05,31.514.065,40.67q.024,6.875.035,10.368c.012,2.317.035,3.488.035,3.488s.024-1.171.035-3.488.019-5.785.034-10.368c.015-9.18.037-22.843.066-40.806v-.135h-.135c-69.262-.035-206.651-.109-382.566-.2h-.338v.338c-.013,113.531-.028,245.571-.044,385.795,0,31.561,0,62.707,0,93.149Z" transform="translate(-109.933 -78.311)" fill="#263238"/>
        </g>
      </g>
      <g id="Grupo_168131" data-name="Grupo 168131" transform="translate(0 142.159)">
        <g id="Grupo_168124" data-name="Grupo 168124">
          <g id="Grupo_168120" data-name="Grupo 168120" transform="translate(0.748 23.372)">
            <path id="Trazado_226817" data-name="Trazado 226817" d="M104.975,192.4a3.04,3.04,0,0,1,4.252-1.09c2.487,1.569,5.185,3.242,7.524,4.75a7.938,7.938,0,0,1,2.7,2.342,2.413,2.413,0,0,1-.455,3.187c-1.01.708-2.43.371-3.574-.085-.362-.146-6.219-3.679-9.467-5.645a2.577,2.577,0,0,1-.978-3.458Z" transform="translate(-104.663 -190.848)" fill="#ffad9d"/>
          </g>
          <g id="Grupo_168121" data-name="Grupo 168121" transform="translate(0 15.004)">
            <path id="Trazado_226818" data-name="Trazado 226818" d="M104.52,186.983a3.329,3.329,0,0,1,4.88-1.218c2.837,1.995,5.916,4.121,8.586,6.034a9.566,9.566,0,0,1,3.073,2.948,3.082,3.082,0,0,1-.543,3.893c-1.162.84-2.787.387-4.094-.2-.415-.188-7.1-4.683-10.807-7.185a3.319,3.319,0,0,1-1.1-4.267Z" transform="translate(-104.154 -185.16)" fill="#ffad9d"/>
          </g>
          <g id="Grupo_168122" data-name="Grupo 168122" transform="translate(1.203 8.187)">
            <path id="Trazado_226819" data-name="Trazado 226819" d="M105.359,182.308a3.328,3.328,0,0,1,4.9-1.152c2.809,2.031,5.86,4.2,8.5,6.147a9.574,9.574,0,0,1,3.033,2.989,3.083,3.083,0,0,1-.594,3.886c-1.174.824-2.793.349-4.091-.26-.413-.193-7.037-4.777-10.711-7.328a3.319,3.319,0,0,1-1.038-4.282Z" transform="translate(-104.972 -180.525)" fill="#ffad9d"/>
          </g>
          <g id="Grupo_168123" data-name="Grupo 168123" transform="translate(1.853)">
            <path id="Trazado_226820" data-name="Trazado 226820" d="M105.82,177.054a3.68,3.68,0,0,1,5.482-1.39c3.2,2.308,6.669,4.77,9.68,6.984a10.981,10.981,0,0,1,3.467,3.41c.775,1.453.709,3.526-.593,4.489s-3.133.437-4.605-.249c-.466-.218-8-5.423-12.182-8.319a3.9,3.9,0,0,1-1.249-4.925Z" transform="translate(-105.414 -174.959)" fill="#ffad9d"/>
          </g>
        </g>
        <g id="Grupo_168126" data-name="Grupo 168126" transform="translate(5.195 8.178)">
          <g id="Grupo_168125" data-name="Grupo 168125">
            <path id="Trazado_226821" data-name="Trazado 226821" d="M119.2,188.58c-.122.174-2.8-1.489-5.975-3.711s-5.659-4.164-5.536-4.338,2.8,1.487,5.975,3.711S119.322,188.406,119.2,188.58Z" transform="translate(-107.686 -180.519)" fill="#e88b79"/>
          </g>
        </g>
        <g id="Grupo_168128" data-name="Grupo 168128" transform="translate(3.862 15.113)">
          <g id="Grupo_168127" data-name="Grupo 168127">
            <path id="Trazado_226822" data-name="Trazado 226822" d="M117.754,192.5c-.116.177-2.667-1.3-5.7-3.305s-5.391-3.768-5.275-3.945,2.667,1.3,5.7,3.307S117.87,192.321,117.754,192.5Z" transform="translate(-106.78 -185.233)" fill="#e88b79"/>
          </g>
        </g>
        <g id="Grupo_168130" data-name="Grupo 168130" transform="translate(3.999 22.841)">
          <g id="Grupo_168129" data-name="Grupo 168129">
            <path id="Trazado_226823" data-name="Trazado 226823" d="M117.847,197.752c-.118.177-2.668-1.3-5.7-3.305s-5.389-3.768-5.273-3.945,2.667,1.3,5.7,3.307S117.963,197.575,117.847,197.752Z" transform="translate(-106.873 -190.487)" fill="#e88b79"/>
          </g>
        </g>
      </g>
      <g id="Grupo_168133" data-name="Grupo 168133" transform="translate(36.632 54.057)">
        <g id="Grupo_168132" data-name="Grupo 168132">
          <path id="Trazado_226824" data-name="Trazado 226824" d="M457.118,143.731s-.021-.613-.031-1.822-.018-3.021-.031-5.4c-.013-4.775-.032-11.85-.059-21.091l.121.121-327.675.237.356-.357c.009,62.022.018,130.1.026,201.3,0,48.237-.009,95.041-.012,139.613l-.371-.371,327.675.163-.207.207c.041-28.624.075-51.133.1-66.5.024-7.671.041-13.556.054-17.535q.018-2.968.028-4.5c.009-1.008.028-1.521.028-1.521s.019.513.028,1.521.016,2.52.028,4.5c.013,3.979.031,9.864.054,17.535.022,15.365.056,37.874.1,66.5v.209h-.209l-327.675.163h-.371v-.372c0-44.573-.009-91.377-.013-139.613.01-71.2.019-139.28.026-201.3v-.357h.357l327.675.237h.121v.119c-.026,9.242-.046,16.317-.059,21.091q-.02,3.565-.031,5.4C457.139,143.118,457.118,143.731,457.118,143.731Z" transform="translate(-129.059 -115.062)" fill="#263238"/>
        </g>
      </g>
      <g id="Grupo_168135" data-name="Grupo 168135" transform="translate(364.309 138.672)">
        <g id="Grupo_168134" data-name="Grupo 168134">
          <path id="Trazado_226825" data-name="Trazado 226825" d="M352.214,205.423c-.212,0-.382-7.352-.382-16.417s.171-16.418.382-16.418.382,7.349.382,16.418S352.426,205.423,352.214,205.423Z" transform="translate(-351.832 -172.588)" fill="#263238"/>
        </g>
      </g>
    </g>
    <g id="Icons" transform="translate(83.797 38.635)">
      <g id="Grupo_168138" data-name="Grupo 168138" transform="translate(353.97)">
        <g id="Grupo_168137" data-name="Grupo 168137">
          <g id="Grupo_168136" data-name="Grupo 168136">
            <path id="Trazado_226826" data-name="Trazado 226826" d="M328.965,54.937a8.436,8.436,0,0,0,5.094-7.76,7.928,7.928,0,1,0-15.822-.207,8.423,8.423,0,0,0,4.975,7.919C311.02,56.62,311.46,69.857,311.46,69.857l28.788.377S341.019,56.863,328.965,54.937Z" transform="translate(-311.458 -38.635)" fill="#455a64"/>
          </g>
        </g>
      </g>
      <g id="Grupo_168143" data-name="Grupo 168143" transform="translate(535.619 347.297)">
        <g id="Grupo_168140" data-name="Grupo 168140" transform="translate(7.827)">
          <g id="Grupo_168139" data-name="Grupo 168139">
            <path id="Trazado_226827" data-name="Trazado 226827" d="M440.274,288.521h2.734l5.966-8.315v-5.458s4.226-.26,3.729,6.887.041,5.328.041,5.328,8.974.034,9.718.813c.543.566.788,9.48.883,14.315a5.234,5.234,0,0,1-3.71,5.272,3.9,3.9,0,0,1-.965.129c-2.239,0-13.674-1.82-13.674-1.82h-4.723Z" transform="translate(-440.274 -274.746)" fill="#455a64"/>
          </g>
        </g>
        <g id="Grupo_168142" data-name="Grupo 168142" transform="translate(0 12.276)">
          <g id="Grupo_168141" data-name="Grupo 168141">
            <path id="Trazado_226828" data-name="Trazado 226828" d="M434.952,283.092l1.682,18.7h4.683V283.469Z" transform="translate(-434.952 -283.092)" fill="#455a64"/>
          </g>
        </g>
      </g>
      <g id="Grupo_168145" data-name="Grupo 168145" transform="translate(0 30.78)">
        <g id="Grupo_168144" data-name="Grupo 168144">
          <path id="Trazado_226829" data-name="Trazado 226829" d="M108.41,67.222a9.489,9.489,0,0,0-18.716.557,9.49,9.49,0,0,0-18.72-.393,12.8,12.8,0,0,0,2.3,9.242A37.991,37.991,0,0,0,79.965,83.7c3.407,3.032,6.554,5.882,9.961,8.915,3.38-3.062,6.256-5.939,9.636-9a38.1,38.1,0,0,0,6.631-7.131A12.813,12.813,0,0,0,108.41,67.222Z" transform="translate(-70.809 -59.56)" fill="#455a64"/>
        </g>
      </g>
    </g>
    <g id="Speech_Bubbles" data-name="Speech Bubbles" transform="translate(43.227 155.112)">
      <g id="Grupo_168154" data-name="Grupo 168154" transform="translate(500.596 136.399)">
        <g id="Grupo_168148" data-name="Grupo 168148" transform="translate(10.692 17.888)">
          <g id="Grupo_168147" data-name="Grupo 168147">
            <g id="Grupo_168146" data-name="Grupo 168146">
              <path id="Trazado_226830" data-name="Trazado 226830" d="M422.759,229.434a1.737,1.737,0,0,1,.137.5,8.057,8.057,0,0,1,.113,1.491,11.349,11.349,0,0,1-1.625,5.388,28.632,28.632,0,0,1-5.775,6.515L407.478,251l-.222.21-.234-.207c-2.484-2.211-5.15-4.58-7.947-7.071-2.748-2.471-5.978-5.113-7.512-9.071a9.024,9.024,0,0,1,.2-7.571,8.779,8.779,0,0,1,5.757-4.383,7.959,7.959,0,0,1,6.609,1.561,8.487,8.487,0,0,1,3.243,5.391h-.633a8.569,8.569,0,0,1,5.938-6.763,7.807,7.807,0,0,1,6.865,1.249,8.159,8.159,0,0,1,2.826,3.539,5.024,5.024,0,0,1,.394,1.552c-.051.012-.141-.543-.571-1.475a8.3,8.3,0,0,0-2.861-3.315,7.444,7.444,0,0,0-6.5-1.053,8.04,8.04,0,0,0-5.46,6.354l-.309,2.131-.324-2.128a7.848,7.848,0,0,0-3.032-4.932,7.258,7.258,0,0,0-6.028-1.4,8.069,8.069,0,0,0-5.25,4.024,8.288,8.288,0,0,0-.15,6.941c1.427,3.708,4.539,6.3,7.293,8.789l7.906,7.115-.457,0,8.209-7.587a29.11,29.11,0,0,0,5.806-6.3,11.628,11.628,0,0,0,1.761-5.189C422.875,230.128,422.7,229.441,422.759,229.434Z" transform="translate(-390.829 -222.715)" fill="#263238"/>
            </g>
          </g>
        </g>
        <g id="Grupo_168152" data-name="Grupo 168152">
          <g id="Grupo_168151" data-name="Grupo 168151">
            <g id="Grupo_168150" data-name="Grupo 168150">
              <g id="Grupo_168149" data-name="Grupo 168149">
                <path id="Trazado_226831" data-name="Trazado 226831" d="M383.844,210.907s.019.368.029,1.059c.007.715.018,1.728.031,3.048.016,2.69.04,6.609.071,11.638.035,10.079.087,24.6.15,42.5l-.281-.282,37.4-.056h.338v.34c.006,5.611.012,11.608.018,17.773l-.607-.252,17.761-17.786.109-.109h.156l40.991-.01h12.576l-.382.382c.01-20.588.021-40.2.029-58.243l.353.352-78.246-.172-22.424-.1-5.979-.043-1.55-.021c-.35-.007-.538-.021-.538-.021s.16-.015.5-.021l1.511-.021,5.909-.043,22.343-.1c19.241-.043,46.457-.1,78.478-.172h.352v.353c.009,18.045.019,37.655.029,58.243l0,.381H480.005l-40.991-.01.263-.109-17.786,17.761-.609.608v-.859c.006-6.165.012-12.161.018-17.773l.338.338-37.4-.057h-.284l0-.281c.063-17.969.115-32.551.151-42.671.031-5,.054-8.9.071-11.576q.02-1.944.031-2.995C383.823,211.237,383.844,210.907,383.844,210.907Z" transform="translate(-383.56 -210.554)" fill="#263238"/>
              </g>
            </g>
          </g>
        </g>
        <g id="Grupo_168153" data-name="Grupo 168153" transform="translate(49.975 21.335)">
          <path id="Trazado_226832" data-name="Trazado 226832" d="M427.8,233.02h-4.589v4.467h-1.086V233.02h-4.589v-1.038h4.589v-4.492h1.086v4.492H427.8Z" transform="translate(-417.536 -223.915)" fill="#263238"/>
          <path id="Trazado_226833" data-name="Trazado 226833" d="M430.941,225.141v16.905h-1.233V226.252H425.58v-1.111Z" transform="translate(-413.748 -225.02)" fill="#263238"/>
          <path id="Trazado_226834" data-name="Trazado 226834" d="M432.131,233.633c0-5.289,2.73-8.574,6.616-8.574s6.619,3.285,6.619,8.574-2.73,8.572-6.619,8.572S432.131,238.921,432.131,233.633Zm12,0c0-4.71-2.2-7.438-5.388-7.438s-5.385,2.729-5.385,7.438,2.2,7.438,5.385,7.438S444.135,238.341,444.135,233.633Z" transform="translate(-410.663 -225.059)" fill="#263238"/>
          <path id="Trazado_226835" data-name="Trazado 226835" d="M442.933,233.633c0-5.289,2.729-8.574,6.616-8.574s6.618,3.285,6.618,8.574-2.728,8.572-6.618,8.572S442.933,238.921,442.933,233.633Zm12,0c0-4.71-2.2-7.438-5.385-7.438s-5.385,2.729-5.385,7.438,2.2,7.438,5.385,7.438S454.934,238.341,454.934,233.633Z" transform="translate(-405.577 -225.059)" fill="#263238"/>
        </g>
      </g>
      <g id="Grupo_168168" data-name="Grupo 168168">
        <g id="Grupo_168157" data-name="Grupo 168157">
          <g id="Grupo_168156" data-name="Grupo 168156">
            <g id="Grupo_168155" data-name="Grupo 168155">
              <path id="Trazado_226836" data-name="Trazado 226836" d="M43.227,117.822H162.149v63.7H103.565L84.126,200.959V181.52h-40.9Z" transform="translate(-43.227 -117.822)" fill="#4b3b9c"/>
            </g>
          </g>
        </g>
        <g id="Grupo_168167" data-name="Grupo 168167" transform="translate(12.418 15.898)">
          <g id="Grupo_168164" data-name="Grupo 168164">
            <g id="Grupo_168160" data-name="Grupo 168160" transform="translate(7.718)">
              <g id="Grupo_168159" data-name="Grupo 168159">
                <g id="Grupo_168158" data-name="Grupo 168158">
                  <path id="Trazado_226837" data-name="Trazado 226837" d="M56.933,142.83a10.969,10.969,0,0,1,.126,1.224c.062.856.146,1.98.249,3.379.193,2.971.462,7.1.788,12.135l-.3-.272,4.613-.269h.021l.029,0c3.927.362,8.315.856,12.954,1.034a2.842,2.842,0,0,0,.815-.081,3.432,3.432,0,0,0,.781-.2,4.042,4.042,0,0,0,1.365-.91,5.014,5.014,0,0,0,1.4-3.045,10.368,10.368,0,0,0-.054-1.806q-.073-.938-.146-1.889-.159-1.9-.322-3.833c-.137-1.484-.281-2.954-.46-4.392-.093-.718-.19-1.437-.334-2.112a4.47,4.47,0,0,0-.125-.472c-.029-.053-.013-.046-.028-.078-.044,0-.054-.021-.109-.043a5.776,5.776,0,0,0-.969-.165,73.863,73.863,0,0,0-8.171-.006l.332-.275a1.215,1.215,0,0,1-.056.171l-.059.113a.535.535,0,0,1-.109.115.349.349,0,0,1-.271.078.432.432,0,0,1-.188-.063.288.288,0,0,1-.051-.046.685.685,0,0,1-.075-.1.441.441,0,0,1-.057-.129,1.391,1.391,0,0,1-.043-.166c-.035-.191-.047-.357-.065-.53l-.044-.99q0-.973-.01-1.925a31.246,31.246,0,0,0-.054-3.642,6.689,6.689,0,0,0-1.03-3.114,3.052,3.052,0,0,0-2.509-1.3l.26-.309c.087,1.934.166,3.7.24,5.333l0,.085-.044.066L59.7,142.755l-.035.053H59.61l-1.983.034a5.149,5.149,0,0,1-.694-.013,2.939,2.939,0,0,1,.619-.084l2.045-.177-.094.056c1.172-1.883,2.952-4.744,5.289-8.5l-.04.15c-.1-1.63-.2-3.4-.319-5.329l-.016-.29.278-.019a3.633,3.633,0,0,1,3.083,1.516,7.261,7.261,0,0,1,1.183,3.411,31.363,31.363,0,0,1,.09,3.721q.011.94.024,1.9l.049.953c.016.153.029.313.056.444a.36.36,0,0,0,.018.072c.013,0,.013.026-.11.047-.081,0-.174.169-.162.124.007.049-.049-.1-.119-.094a1.519,1.519,0,0,0-.14-.087h0l.019-.063.085-.266.249-.009a72.446,72.446,0,0,1,8.28-.026,6.291,6.291,0,0,1,1.134.2,1.99,1.99,0,0,1,.371.193,1.2,1.2,0,0,1,.237.381,5.016,5.016,0,0,1,.154.569c.159.734.256,1.453.35,2.183.185,1.456.331,2.93.466,4.42q.163,1.939.322,3.843.071.951.143,1.892a11.051,11.051,0,0,1,.049,1.936,5.746,5.746,0,0,1-1.627,3.5,4.773,4.773,0,0,1-1.615,1.066,4.074,4.074,0,0,1-.938.241,3.433,3.433,0,0,1-.937.085c-4.736-.2-9.07-.731-13.017-1.136h.05l-4.614.213-.291.013-.012-.285c-.2-5.113-.371-9.309-.491-12.328-.041-1.375-.075-2.48-.1-3.321A7.423,7.423,0,0,1,56.933,142.83Z" transform="translate(-56.917 -128.631)" fill="#fff"/>
                </g>
              </g>
            </g>
            <g id="Grupo_168163" data-name="Grupo 168163" transform="translate(0 12.916)">
              <g id="Grupo_168162" data-name="Grupo 168162">
                <g id="Grupo_168161" data-name="Grupo 168161">
                  <path id="Trazado_226838" data-name="Trazado 226838" d="M51.682,137.63a9.742,9.742,0,0,1,1.574-.1c1.061-.04,2.652-.094,4.663-.113l.24,0,.018.247c.3,4.239.669,10.418,1.028,17.286l.032.607.019.382-.382.019-4.575.229-.341.018-.047-.337c-.74-5.3-1.314-9.92-1.7-13.162-.172-1.494-.316-2.751-.434-3.776a6.735,6.735,0,0,1-.094-1.3,11.414,11.414,0,0,1,.3,1.456q.267,1.564.656,3.84c.54,3.245,1.264,7.71,2.014,12.832l-.39-.321,4.573-.249-.362.4-.032-.608c-.359-6.868-.634-13.051-.78-17.3l.256.244c-1.883-.047-3.41-.122-4.492-.177A15.4,15.4,0,0,1,51.682,137.63Z" transform="translate(-51.669 -137.412)" fill="#fff"/>
                </g>
              </g>
            </g>
          </g>
          <g id="Grupo_168166" data-name="Grupo 168166" transform="translate(41.927 7.046)">
            <g id="Grupo_168165" data-name="Grupo 168165">
              <path id="Trazado_226839" data-name="Trazado 226839" d="M91.4,142.129H86.383v4.886H85.194v-4.886h-5.02v-1.137h5.02v-4.913h1.188v4.913H91.4Z" transform="translate(-80.174 -132.169)" fill="#fff"/>
              <path id="Trazado_226840" data-name="Trazado 226840" d="M94.835,133.511V152H93.49V134.726H88.971v-1.215Z" transform="translate(-76.031 -133.379)" fill="#fff"/>
              <path id="Trazado_226841" data-name="Trazado 226841" d="M96.135,142.8c0-5.786,2.986-9.378,7.238-9.378s7.238,3.592,7.238,9.378-2.984,9.377-7.238,9.377S96.135,148.585,96.135,142.8Zm13.129,0c0-5.153-2.4-8.137-5.891-8.137s-5.891,2.984-5.891,8.137,2.4,8.136,5.891,8.136S109.264,147.951,109.264,142.8Z" transform="translate(-72.658 -133.421)" fill="#fff"/>
              <path id="Trazado_226842" data-name="Trazado 226842" d="M107.949,142.8c0-5.786,2.986-9.378,7.238-9.378s7.238,3.592,7.238,9.378-2.984,9.377-7.238,9.377S107.949,148.585,107.949,142.8Zm13.129,0c0-5.153-2.4-8.137-5.891-8.137s-5.891,2.984-5.891,8.137,2.4,8.136,5.891,8.136S121.078,147.951,121.078,142.8Z" transform="translate(-67.095 -133.421)" fill="#fff"/>
            </g>
          </g>
        </g>
      </g>
    </g>
  </g>
</svg>
