<svg xmlns="http://www.w3.org/2000/svg" width="191.936" height="191.936" viewBox="0 0 191.936 191.936">
  <g id="Grupo_167870" data-name="Grupo 167870" transform="translate(249 6574)">
    <circle id="Elipse_5760" data-name="Elipse 5760" cx="95.968" cy="95.968" r="95.968" transform="translate(-249 -6574)" fill="#5038a1"/>
    <g id="dispositivo-de-juego" transform="translate(-216.001 -6535.384)">
      <path id="Trazado_226693" data-name="Trazado 226693" d="M215.85,81.129c-6,0-11.134,2.584-13.385,6.74a1.85,1.85,0,0,0,3.254,1.763c1.581-2.917,5.558-4.8,10.132-4.8s8.552,1.886,10.133,4.8a1.85,1.85,0,1,0,3.254-1.763C226.984,83.712,221.855,81.129,215.85,81.129Zm0,0" transform="translate(-152.328 -60.73)" fill="#fedc72"/>
      <path id="Trazado_226694" data-name="Trazado 226694" d="M208.025,51.406a1.85,1.85,0,1,0,3.254-1.763c-3.689-6.809-12.172-11.037-22.138-11.037S170.693,42.835,167,49.643a1.85,1.85,0,1,0,3.254,1.763c3.041-5.613,10.277-9.1,18.883-9.1S204.984,45.792,208.025,51.406Zm0,0" transform="translate(-125.619 -28.701)" fill="#fedc72"/>
      <path id="Trazado_226695" data-name="Trazado 226695" d="M130.162,18.594a1.85,1.85,0,0,0,2.509-.744C137.237,9.431,148.027,4.2,160.831,4.2s23.594,5.23,28.16,13.649a1.85,1.85,0,1,0,3.253-1.764C187.03,6.472,174.994.5,160.831.5s-26.2,5.972-31.414,15.585a1.851,1.851,0,0,0,.744,2.508Zm0,0" transform="translate(-97.309 0)" fill="#fedc72"/>
      <path id="Trazado_226696" data-name="Trazado 226696" d="M386.684,199.812A4.816,4.816,0,1,0,381.867,195,4.818,4.818,0,0,0,386.684,199.812Zm0-5.932A1.113,1.113,0,0,1,387.792,195a1.112,1.112,0,1,1-1.109-1.115Zm0,0" transform="translate(-287.625 -142.869)" fill="#fedc72"/>
      <path id="Trazado_226697" data-name="Trazado 226697" d="M386.684,251.859a4.817,4.817,0,1,0,4.81,4.817A4.823,4.823,0,0,0,386.684,251.859Zm0,5.933a1.116,1.116,0,1,1,1.109-1.115A1.117,1.117,0,0,1,386.684,257.792Zm0,0" transform="translate(-287.625 -189.326)" fill="#fedc72"/>
      <path id="Trazado_226698" data-name="Trazado 226698" d="M360.632,225.836a4.816,4.816,0,1,0-4.816,4.817A4.822,4.822,0,0,0,360.632,225.836Zm-4.816,1.116a1.116,1.116,0,1,1,1.116-1.116A1.117,1.117,0,0,1,355.816,226.952Zm0,0" transform="translate(-264.375 -166.097)" fill="#fedc72"/>
      <path id="Trazado_226699" data-name="Trazado 226699" d="M417.525,221.02a4.817,4.817,0,1,0,4.816,4.816A4.822,4.822,0,0,0,417.525,221.02Zm0,5.933a1.116,1.116,0,1,1,1.115-1.116A1.118,1.118,0,0,1,417.525,226.953Zm0,0" transform="translate(-310.854 -166.098)" fill="#fedc72"/>
      <path id="Trazado_226700" data-name="Trazado 226700" d="M159.307,269.238a8.769,8.769,0,1,0,8.769,8.769A8.779,8.779,0,0,0,159.307,269.238Zm0,13.838a5.068,5.068,0,1,1,5.069-5.069A5.074,5.074,0,0,1,159.307,283.076Zm0,0" transform="translate(-113.386 -202.416)" fill="#fedc72"/>
      <path id="Trazado_226701" data-name="Trazado 226701" d="M125.509,178.675,116.6,141.884c-1.282-5.292-3.828-9.325-7.568-11.989a17.272,17.272,0,0,0-2.447-1.453v-.758a6.989,6.989,0,0,0-6.978-6.984H95.457a6.992,6.992,0,0,0-6.985,6.984v1.069a9.2,9.2,0,0,0-3.38,2.9H67.244a1.85,1.85,0,1,0,0,3.7h17.17v3.781a3.789,3.789,0,0,1-3.781,3.789H45.726a3.793,3.793,0,0,1-3.788-3.789v-3.781H58.7a1.85,1.85,0,0,0,0-3.7H41.261a9.19,9.19,0,0,0-3.373-2.9v-1.072A6.993,6.993,0,0,0,30.9,120.7h-4.14a6.993,6.993,0,0,0-6.985,6.985v.757a17.431,17.431,0,0,0-2.441,1.45c-3.742,2.663-6.29,6.7-7.573,11.992L.85,178.674c-1.312,5.413-1.1,9.992.627,13.611a12.373,12.373,0,0,0,7.751,6.6c7.555,2.323,16.4-1.554,18.931-8.3l4.281-11.4c.55-1.467.987-1.653.992-1.655.05-.012.386.032,1.022.5,6,5.444,15.814,5.209,22.28-.433H69.626a17.87,17.87,0,0,0,10.785,4.373,15.665,15.665,0,0,0,11.494-3.94c.717-.524,1.017-.5,1.02-.5s.44.187.994,1.654l4.274,11.4c2.032,5.41,8.128,8.975,14.359,8.974a15.563,15.563,0,0,0,4.582-.678,12.371,12.371,0,0,0,7.748-6.6c1.728-3.618,1.939-8.2.627-13.607ZM95.456,124.4H99.6a3.283,3.283,0,0,1,3.223,2.7,20.684,20.684,0,0,0-4.815-.576h-.076a21.909,21.909,0,0,0-5.737.762A3.289,3.289,0,0,1,95.456,124.4Zm-68.695,0H30.9a3.288,3.288,0,0,1,3.257,2.884,21.9,21.9,0,0,0-5.737-.763h-.064a20.679,20.679,0,0,0-4.827.576,3.288,3.288,0,0,1,3.229-2.7Zm89.285,70.949c-5.124,1.577-12.367-.68-14.387-6.06l-4.276-11.407c-.831-2.2-1.952-3.476-3.427-3.9a4.875,4.875,0,0,0-4.341,1.142c-.048.037-.1.076-.14.117-4.761,4.379-12.772,4.006-17.857-.832a1.849,1.849,0,0,0-1.275-.51H56.016a1.849,1.849,0,0,0-1.275.51c-5.088,4.84-13.1,5.214-17.856.833a1.839,1.839,0,0,0-.142-.118,4.878,4.878,0,0,0-4.348-1.141c-1.477.43-2.6,1.708-3.421,3.907l-4.281,11.4c-2.018,5.38-9.256,7.637-14.378,6.062-5.737-1.765-7.876-7.525-5.869-15.805l8.912-36.79c1.61-6.643,5.185-9.839,8.743-11.325a1.808,1.808,0,0,0,.424-.171,16.69,16.69,0,0,1,5.845-1.037,17.386,17.386,0,0,1,6.886,1.349c.03.013.06.028.092.04a5.794,5.794,0,0,1,2.889,2.185v5.34a7.5,7.5,0,0,0,7.489,7.489H80.632a7.494,7.494,0,0,0,7.482-7.489V133.8a5.729,5.729,0,0,1,2.828-2.161,1.867,1.867,0,0,0,.261-.115,17.342,17.342,0,0,1,6.727-1.3H98a16.68,16.68,0,0,1,5.838,1.039,1.845,1.845,0,0,0,.418.168c3.559,1.486,7.136,4.681,8.746,11.325l8.912,36.791c2.008,8.278-.13,14.038-5.865,15.8Zm0,0" transform="translate(0 -90.535)" fill="#fedc72"/>
      <path id="Trazado_226702" data-name="Trazado 226702" d="M305.034,269.238a8.769,8.769,0,1,0,8.769,8.769A8.778,8.778,0,0,0,305.034,269.238Zm0,13.838a5.068,5.068,0,1,1,5.068-5.069A5.074,5.074,0,0,1,305.034,283.076Zm0,0" transform="translate(-223.149 -202.416)" fill="#fedc72"/>
      <path id="Trazado_226703" data-name="Trazado 226703" d="M78.84,201.947h-.563v-.563a5.677,5.677,0,1,0-11.354,0v.563H66.36a5.677,5.677,0,0,0,0,11.354h.563v.563a5.677,5.677,0,1,0,11.354,0V213.3h.563a5.677,5.677,0,1,0,0-11.354Zm0,7.653H76.427a1.851,1.851,0,0,0-1.851,1.85v2.414a1.976,1.976,0,1,1-3.952,0V211.45a1.851,1.851,0,0,0-1.851-1.85H66.361a1.976,1.976,0,1,1,0-3.952h2.413a1.851,1.851,0,0,0,1.851-1.851v-2.413a1.976,1.976,0,1,1,3.952,0V203.8a1.851,1.851,0,0,0,1.851,1.851H78.84a1.976,1.976,0,1,1,0,3.952Zm0,0" transform="translate(-45.707 -147.032)" fill="#fedc72"/>
      <path id="Trazado_226704" data-name="Trazado 226704" d="M222.482,248.742H219.8a1.85,1.85,0,0,0,0,3.7h2.687a1.85,1.85,0,0,0,0-3.7Zm0,0" transform="translate(-164.157 -186.978)" fill="#fedc72"/>
      <path id="Trazado_226705" data-name="Trazado 226705" d="M272.689,248.742H270a1.85,1.85,0,1,0,0,3.7h2.693a1.85,1.85,0,0,0,0-3.7Zm0,0" transform="translate(-201.968 -186.978)" fill="#fedc72"/>
      <path id="Trazado_226706" data-name="Trazado 226706" d="M250.486,288.031H247.8a1.85,1.85,0,1,0,0,3.7h2.686a1.85,1.85,0,1,0,0-3.7Zm0,0" transform="translate(-185.25 -216.571)" fill="#fedc72"/>
    </g>
  </g>
</svg>
