<svg xmlns="http://www.w3.org/2000/svg" width="136.973" height="136.973" viewBox="0 0 136.973 136.973">
  <g id="Grupo_170651" data-name="Grupo 170651" transform="translate(-735.1 -3533.017)">
    <g id="Grupo_159900" data-name="Grupo 159900" transform="translate(735.1 3533.017)">
      <g id="Trazado_137458" data-name="Trazado 137458" transform="translate(0 0)" fill="#fff">
        <path d="M 68.48631286621094 131.9726409912109 C 59.91350936889648 131.9726409912109 51.59981155395508 130.2947692871094 43.77611541748047 126.9856185913086 C 40.01535797119141 125.3949661254883 36.38774871826172 123.4259033203125 32.9940071105957 121.1331405639648 C 29.6312255859375 118.8612899780273 26.46885681152344 116.2520523071289 23.5947265625 113.3779220581055 C 20.72059631347656 110.503791809082 18.11135673522949 107.341423034668 15.83950805664062 103.9786376953125 C 13.5467472076416 100.5848999023438 11.57768249511719 96.95726776123047 9.987030029296875 93.196533203125 C 6.677877902984619 85.37283325195312 5.000008583068848 77.05912017822266 5.000008583068848 68.48631286621094 C 5.000008583068848 59.91350936889648 6.677877902984619 51.59981155395508 9.987030029296875 43.77611541748047 C 11.57768249511719 40.01535797119141 13.5467472076416 36.38774871826172 15.83950805664062 32.9940071105957 C 18.11135673522949 29.6312255859375 20.72059631347656 26.46885681152344 23.5947265625 23.5947265625 C 26.46885681152344 20.72059631347656 29.6312255859375 18.11135673522949 32.9940071105957 15.83950805664062 C 36.38774871826172 13.5467472076416 40.01535797119141 11.57768249511719 43.77611541748047 9.987030029296875 C 51.59981155395508 6.677877902984619 59.91350936889648 5.000008583068848 68.48631286621094 5.000008583068848 C 77.05912017822266 5.000008583068848 85.37283325195312 6.677877902984619 93.196533203125 9.987030029296875 C 96.95726776123047 11.57768249511719 100.5848999023438 13.5467472076416 103.9786376953125 15.83950805664062 C 107.341423034668 18.11135673522949 110.503791809082 20.72059631347656 113.3779220581055 23.5947265625 C 116.2520523071289 26.46885681152344 118.8612899780273 29.6312255859375 121.1331405639648 32.9940071105957 C 123.4259033203125 36.38774871826172 125.3949661254883 40.01535797119141 126.9856185913086 43.77611541748047 C 130.2947692871094 51.59981155395508 131.9726409912109 59.91350936889648 131.9726409912109 68.48631286621094 C 131.9726409912109 77.05912017822266 130.2947692871094 85.37283325195312 126.9856185913086 93.196533203125 C 125.3949661254883 96.95726776123047 123.4259033203125 100.5848999023438 121.1331405639648 103.9786376953125 C 118.8612899780273 107.341423034668 116.2520523071289 110.503791809082 113.3779220581055 113.3779220581055 C 110.503791809082 116.2520523071289 107.341423034668 118.8612899780273 103.9786376953125 121.1331405639648 C 100.5848999023438 123.4259033203125 96.95726776123047 125.3949661254883 93.196533203125 126.9856185913086 C 85.37283325195312 130.2947692871094 77.05912017822266 131.9726409912109 68.48631286621094 131.9726409912109 Z" stroke="none"/>
        <path d="M 68.48631286621094 10.00000762939453 C 36.23686981201172 10.00000762939453 10.00000762939453 36.23686981201172 10.00000762939453 68.48631286621094 C 10.00000762939453 100.7357559204102 36.23686981201172 126.9726181030273 68.48631286621094 126.9726181030273 C 100.7357559204102 126.9726181030273 126.9726181030273 100.7357559204102 126.9726181030273 68.48631286621094 C 126.9726181030273 36.23686981201172 100.7357559204102 10.00000762939453 68.48631286621094 10.00000762939453 M 68.48631286621094 0 C 106.3102569580078 0 136.9726257324219 30.66236877441406 136.9726257324219 68.48631286621094 C 136.9726257324219 106.3102569580078 106.3102569580078 136.9726257324219 68.48631286621094 136.9726257324219 C 30.66236877441406 136.9726257324219 0 106.3102569580078 0 68.48631286621094 C 0 30.66236877441406 30.66236877441406 0 68.48631286621094 0 Z" stroke="none" fill="#8c6df2"/>
      </g>
    </g>
    <g id="Grupo_170648" data-name="Grupo 170648" transform="translate(758.886 3222.31)">
      <path id="Trazado_227377" data-name="Trazado 227377" d="M84.765,420.511l-3.418-.732a1.31,1.31,0,1,0-.548,2.562l3.418.732a3.3,3.3,0,0,1,2.565,2.815H82.138a3.013,3.013,0,0,0-3.009,3.009v1.655a3.012,3.012,0,0,0,3.009,3.009h4.671V434.6H74a11.644,11.644,0,0,0-15.888,4.531H28.371A11.644,11.644,0,0,0,12.482,434.6H2.62v-3.686a1.31,1.31,0,0,0-2.62,0v9.719a5.834,5.834,0,0,0,5.178,5.8l1.485.168a11.656,11.656,0,0,0,22.87.778H56.946a11.656,11.656,0,0,0,22.877-.824l2.973-.448a7.8,7.8,0,0,0,6.632-7.709V426.279A5.928,5.928,0,0,0,84.765,420.511Zm-2.627,10.431a.39.39,0,0,1-.389-.389V428.9a.39.39,0,0,1,.389-.389h4.671v2.433ZM57.048,441.751a11.638,11.638,0,0,0-.4,3.008H29.827a11.615,11.615,0,0,0-.4-3.008ZM2.62,440.633V437.22H9.3a11.6,11.6,0,0,0-2.753,6.731l-1.074-.122A3.215,3.215,0,0,1,2.62,440.633ZM18.173,453.8a9.035,9.035,0,1,1,9.035-9.034A9.045,9.045,0,0,1,18.173,453.8Zm50.132,0a9.035,9.035,0,1,1,9.034-9.034A9.045,9.045,0,0,1,68.305,453.8Zm14.1-10.287-2.479.374a11.6,11.6,0,0,0-2.749-6.669h9.631V438.4A5.145,5.145,0,0,1,82.406,443.515Z" transform="translate(0 -49.497)" fill="#8c6df2"/>
      <path id="Trazado_227378" data-name="Trazado 227378" d="M1.31,377.487a1.31,1.31,0,0,0,1.31-1.31v-2.051A3.224,3.224,0,0,1,3,372.6L8.45,362.485l.02-.037,1.05-1.95a12.2,12.2,0,0,1,2.858-3.528c.034-.025.067-.052.1-.081a12.183,12.183,0,0,1,7.786-2.807H52.312a3.269,3.269,0,0,1,2.644,1.354L64.8,369.07a1.308,1.308,0,0,0,.788.514l10.089,2.161a1.31,1.31,0,1,0,.548-2.562l-9.6-2.055L57.081,353.9a5.9,5.9,0,0,0-4.769-2.44H20.261a14.8,14.8,0,0,0-9.134,3.148h-9.1a1.31,1.31,0,0,0-1.31,1.31v2.152a5.09,5.09,0,0,0,4.422,5.039L.7,371.358a5.848,5.848,0,0,0-.7,2.769v2.051A1.31,1.31,0,0,0,1.31,377.487ZM5.8,360.534a2.466,2.466,0,0,1-2.463-2.463v-.842H8.528a14.9,14.9,0,0,0-1.315,2.026l-.688,1.278Z" fill="#8c6df2"/>
      <path id="Trazado_227379" data-name="Trazado 227379" d="M166.245,381.784a2.989,2.989,0,0,0-.239-3.123l-4.985-6.906a3.006,3.006,0,0,0-2.434-1.247h-8.993a1.31,1.31,0,0,0-1.31,1.31v10.291a1.31,1.31,0,0,0,1.31,1.31h13.98A2.989,2.989,0,0,0,166.245,381.784ZM150.9,373.127h7.683a.38.38,0,0,1,.309.159l4.987,6.908a.381.381,0,0,1-.309.6H150.9Z" transform="translate(-107.481 -13.804)" fill="#8c6df2"/>
      <path id="Trazado_227380" data-name="Trazado 227380" d="M83.883,382.108V371.817a1.31,1.31,0,0,0-1.31-1.31H68.923a3,3,0,0,0-2.622,1.54h0l-3.846,6.91a3,3,0,0,0,2.622,4.46h17.5A1.31,1.31,0,0,0,83.883,382.108Zm-2.62-1.31H65.077a.381.381,0,0,1-.333-.566l3.846-6.91a.381.381,0,0,1,.333-.2h12.34Z" transform="translate(-44.992 -13.804)" fill="#8c6df2"/>
      <path id="Trazado_227381" data-name="Trazado 227381" d="M231.927,488.172a6.19,6.19,0,1,0,6.19,6.191A6.2,6.2,0,0,0,231.927,488.172Zm0,9.761a3.57,3.57,0,1,1,3.571-3.57A3.574,3.574,0,0,1,231.927,497.933Z" transform="translate(-163.622 -99.092)" fill="#8c6df2"/>
      <path id="Trazado_227382" data-name="Trazado 227382" d="M49.737,488.172a6.19,6.19,0,1,0,6.19,6.191A6.2,6.2,0,0,0,49.737,488.172Zm0,9.761a3.57,3.57,0,1,1,3.571-3.57A3.574,3.574,0,0,1,49.737,497.933Z" transform="translate(-31.564 -99.092)" fill="#8c6df2"/>
      <path id="Trazado_227383" data-name="Trazado 227383" d="M149.593,423.694a1.31,1.31,0,0,0,0,2.62h4.7a1.31,1.31,0,0,0,0-2.62Z" transform="translate(-107.481 -52.356)" fill="#8c6df2"/>
      <path id="Trazado_227384" data-name="Trazado 227384" d="M75.473,423.694a1.31,1.31,0,0,0,0,2.62h4.7a1.31,1.31,0,0,0,0-2.62Z" transform="translate(-53.756 -52.356)" fill="#8c6df2"/>
    </g>
  </g>
</svg>
