<svg xmlns="http://www.w3.org/2000/svg" width="399.418" height="318.333" viewBox="0 0 399.418 318.333">
  <g id="Grupo_171032" data-name="Grupo 171032" transform="translate(-1020.514 -1421)">
    <rect id="Rectángulo_44551" data-name="Rectángulo 44551" width="399.418" height="318.334" rx="21" transform="translate(1020.514 1421)" fill="#8c6df2"/>
    <g id="Grupo_166440" data-name="Grupo 166440" transform="translate(1097.514 1458)">
      <g id="Grupo_166439" data-name="Grupo 166439">
        <g id="filled_outline" data-name="filled outline">
          <path id="Trazado_226327" data-name="Trazado 226327" d="M500.07,114.023,457.258,71.13V243.015h57.295V148.85A49.112,49.112,0,0,0,500.07,114.023Z" transform="translate(-273.095 -42.482)" fill="#ffb782"/>
          <path id="Trazado_226328" data-name="Trazado 226328" d="M43.619,175.285,11.256,91.266a16.368,16.368,0,0,1,9.392-21.158L173.409,11.266a16.368,16.368,0,0,1,21.158,9.392l32.363,84.019a16.368,16.368,0,0,1-9.392,21.158L64.782,184.678A16.375,16.375,0,0,1,43.619,175.285Z" transform="translate(-6.066 -6.072)" fill="#fedc72"/>
          <path id="Trazado_226329" data-name="Trazado 226329" d="M225.374,111.368l-183.164,71,12.2,31.66L237.578,143.06Z" transform="translate(-25.21 -66.514)" fill="#fedc72"/>
          <path id="Trazado_226330" data-name="Trazado 226330" d="M10.161,116.566V26.531a16.371,16.371,0,0,1,16.37-16.37h163.7a16.371,16.371,0,0,1,16.37,16.37v90.035a16.371,16.371,0,0,1-16.37,16.37H26.531A16.37,16.37,0,0,1,10.161,116.566Z" transform="translate(-6.069 -6.069)" fill="#fdb74d"/>
          <path id="Trazado_226331" data-name="Trazado 226331" d="M249.4,10.161H232.009L109.234,132.936H249.4a16.371,16.371,0,0,0,16.37-16.37V26.531A16.371,16.371,0,0,0,249.4,10.161Z" transform="translate(-65.24 -6.069)" fill="#fdb74d"/>
          <rect id="Rectángulo_46081" data-name="Rectángulo 46081" width="16.37" height="8.185" transform="translate(20.462 69.573)" fill="#5eb3d1"/>
          <rect id="Rectángulo_46082" data-name="Rectángulo 46082" width="16.37" height="8.185" transform="translate(20.462 94.128)" fill="#5eb3d1"/>
          <rect id="Rectángulo_46083" data-name="Rectángulo 46083" width="16.37" height="8.185" transform="translate(94.128 94.128)" fill="#5eb3d1"/>
          <rect id="Rectángulo_46084" data-name="Rectángulo 46084" width="16.37" height="8.185" transform="translate(45.017 69.573)" fill="#5eb3d1"/>
          <rect id="Rectángulo_46085" data-name="Rectángulo 46085" width="16.37" height="8.185" transform="translate(69.573 69.573)" fill="#5eb3d1"/>
          <rect id="Rectángulo_46086" data-name="Rectángulo 46086" width="16.37" height="8.185" transform="translate(94.128 69.573)" fill="#5eb3d1"/>
          <rect id="Rectángulo_46087" data-name="Rectángulo 46087" width="8.185" height="12.278" transform="translate(171.885 20.462)" fill="#5eb3d1"/>
          <rect id="Rectángulo_46088" data-name="Rectángulo 46088" width="8.185" height="12.278" transform="translate(155.515 20.462)" fill="#5eb3d1"/>
          <rect id="Rectángulo_46089" data-name="Rectángulo 46089" width="8.185" height="12.278" transform="translate(139.145 20.462)" fill="#5eb3d1"/>
          <rect id="Rectángulo_46090" data-name="Rectángulo 46090" width="8.185" height="12.278" transform="translate(122.775 20.462)" fill="#5eb3d1"/>
          <rect id="Rectángulo_46091" data-name="Rectángulo 46091" width="73.665" height="40.925" transform="translate(167.793 200.533)" fill="#fdb74d"/>
          <path id="Trazado_226332" data-name="Trazado 226332" d="M341.91,186.052a17.741,17.741,0,0,0-25.619,24.535l33.538,36.587a55.194,55.194,0,0,0,1.117,56.628l2.975,4.76h53.2v-57.3Z" transform="translate(-186.129 -108.029)" fill="#ffb782"/>
          <rect id="Rectángulo_46092" data-name="Rectángulo 46092" width="8.185" height="8.185" transform="translate(180.07 212.81)" fill="#6b962a"/>
          <path id="Trazado_226333" data-name="Trazado 226333" d="M50.806,77V57.355a6.546,6.546,0,0,1,6.548-6.548H77a6.546,6.546,0,0,1,6.548,6.548V77A6.546,6.546,0,0,1,77,83.547H57.354A6.547,6.547,0,0,1,50.806,77Z" transform="translate(-30.344 -30.344)" fill="#fdb62f"/>
          <rect id="Rectángulo_46093" data-name="Rectángulo 46093" width="12.278" height="8.185" transform="translate(20.462 32.74)" fill="#fd7b2f"/>
          <rect id="Rectángulo_46094" data-name="Rectángulo 46094" width="12.278" height="8.185" transform="translate(40.925 32.74)" fill="#fd7b2f"/>
          <path id="Trazado_226334" data-name="Trazado 226334" d="M508.278,319.309a4.082,4.082,0,0,1-2.893-1.2l-16.37-16.37a4.093,4.093,0,0,1,5.787-5.787l16.37,16.37a4.092,4.092,0,0,1-2.893,6.986Z" transform="translate(-291.375 -176.071)" fill="#f2a46f"/>
          <path id="Trazado_226335" data-name="Trazado 226335" d="M204.625,43.356V20.462A20.486,20.486,0,0,0,184.163,0H20.462A20.485,20.485,0,0,0,0,20.462V110.5a20.418,20.418,0,0,0,18.351,20.25l15.384,39.935a20.46,20.46,0,0,0,26.45,11.737l96.067-37a59.146,59.146,0,0,0,5.1,52.527L163.7,201.7v39.755a4.094,4.094,0,0,0,4.092,4.092h73.665a4.094,4.094,0,0,0,4.092-4.092V106.368a53.548,53.548,0,0,0-15.678-37.721Zm0,24.473,12.421,32.245A12.277,12.277,0,0,1,210,115.94l-7.1,2.742a20.408,20.408,0,0,0,1.727-8.185V67.829ZM8.185,110.5V20.462A12.277,12.277,0,0,1,20.463,8.185h163.7a12.277,12.277,0,0,1,12.278,12.278V46.474H196.4l.037.094V110.5a12.324,12.324,0,0,1-.278,2.12L158.675,75.126a21.834,21.834,0,0,0-31.512,30.194l15.981,17.455H20.462A12.277,12.277,0,0,1,8.185,110.5ZM60.614,130.96l-29.1,11.205L27.207,130.96Zm-3.372,43.822a12.277,12.277,0,0,1-15.871-7.043h0l-6.9-17.954L83.319,130.96v-.024h67.326l5.32,5.8Zm180.123,62.583h-65.48v-32.74h65.48Zm0-40.925h-67.3l-1.776-2.836a51.037,51.037,0,0,1-1.035-52.413,4.091,4.091,0,0,0-.536-4.8L133.178,99.808a13.648,13.648,0,0,1,19.709-18.875l65.214,65.2,5.787-5.787L208.746,125.2l4.2-1.637a20.459,20.459,0,0,0,11.733-26.438L210.825,61.158l13.26,13.284a45.316,45.316,0,0,1,13.28,31.926V196.44Z" fill="#5038a1"/>
          <path id="Trazado_226336" data-name="Trazado 226336" d="M70.93,81.571a10.64,10.64,0,0,0,10.64-10.64h0V51.286a10.64,10.64,0,0,0-10.64-10.64H51.286a10.64,10.64,0,0,0-10.64,10.64h0V70.93a10.64,10.64,0,0,0,10.64,10.64H70.93Zm-22.1-10.64V65.2h8.185V57.016H48.831V51.286a2.458,2.458,0,0,1,2.456-2.456H70.93a2.458,2.458,0,0,1,2.456,2.456h0v5.729H65.2V65.2h8.185v5.73a2.458,2.458,0,0,1-2.456,2.456H51.286a2.458,2.458,0,0,1-2.456-2.456Z" transform="translate(-24.276 -24.276)" fill="#5038a1"/>
          <rect id="Rectángulo_46095" data-name="Rectángulo 46095" width="16.37" height="8.185" transform="translate(20.462 69.573)" fill="#5038a1"/>
          <rect id="Rectángulo_46096" data-name="Rectángulo 46096" width="16.37" height="8.185" transform="translate(20.462 94.128)" fill="#5038a1"/>
          <rect id="Rectángulo_46097" data-name="Rectángulo 46097" width="16.37" height="8.185" transform="translate(94.128 94.128)" fill="#5038a1"/>
          <rect id="Rectángulo_46098" data-name="Rectángulo 46098" width="16.37" height="8.185" transform="translate(45.017 69.573)" fill="#5038a1"/>
          <rect id="Rectángulo_46099" data-name="Rectángulo 46099" width="16.37" height="8.185" transform="translate(69.573 69.573)" fill="#5038a1"/>
          <rect id="Rectángulo_46100" data-name="Rectángulo 46100" width="16.37" height="8.185" transform="translate(94.128 69.573)" fill="#5038a1"/>
          <rect id="Rectángulo_46101" data-name="Rectángulo 46101" width="8.185" height="12.278" transform="translate(171.885 20.462)" fill="#5038a1"/>
          <rect id="Rectángulo_46102" data-name="Rectángulo 46102" width="8.185" height="12.278" transform="translate(155.515 20.462)" fill="#5038a1"/>
          <rect id="Rectángulo_46103" data-name="Rectángulo 46103" width="8.185" height="12.278" transform="translate(139.145 20.462)" fill="#5038a1"/>
          <rect id="Rectángulo_46104" data-name="Rectángulo 46104" width="8.185" height="12.278" transform="translate(122.775 20.462)" fill="#5038a1"/>
          <rect id="Rectángulo_46105" data-name="Rectángulo 46105" width="8.185" height="8.185" transform="translate(180.07 212.81)" fill="#5038a1"/>
        </g>
      </g>
    </g>
  </g>
</svg>
