<svg xmlns="http://www.w3.org/2000/svg" xmlns:xlink="http://www.w3.org/1999/xlink" width="193.391" height="205.05" viewBox="0 0 193.391 205.05">
  <defs>
    <linearGradient id="linear-gradient" x1="-0.046" y1="1.064" x2="0.97" y2="0.047" gradientUnits="objectBoundingBox">
      <stop offset="0" stop-color="#09005d"/>
      <stop offset="1" stop-color="#1a0f91"/>
    </linearGradient>
    <linearGradient id="linear-gradient-2" x1="1.215" y1="-0.856" x2="-1.802" y2="2.804" xlink:href="#linear-gradient"/>
    <linearGradient id="linear-gradient-3" x1="0.173" y1="18.56" x2="-0.905" y2="24.699" xlink:href="#linear-gradient"/>
    <linearGradient id="linear-gradient-4" x1="0.231" y1="18.129" x2="-0.214" y2="23.99" xlink:href="#linear-gradient"/>
    <linearGradient id="linear-gradient-5" x1="43.97" y1="-0.484" x2="41.135" y2="6.012" xlink:href="#linear-gradient"/>
    <linearGradient id="linear-gradient-6" x1="170.869" y1="0.5" x2="171.869" y2="0.5" gradientUnits="objectBoundingBox">
      <stop offset="0" stop-color="#ff928e"/>
      <stop offset="1" stop-color="#feb3b1"/>
    </linearGradient>
    <linearGradient id="linear-gradient-7" x1="1.016" y1="0.086" x2="-0.352" y2="1.233" gradientUnits="objectBoundingBox">
      <stop offset="0" stop-color="#4f52ff"/>
      <stop offset="1" stop-color="#4042e2"/>
    </linearGradient>
    <linearGradient id="linear-gradient-8" x1="109.586" y1="-2.223" x2="102.568" y2="5.384" xlink:href="#linear-gradient"/>
    <linearGradient id="linear-gradient-9" x1="197.899" y1="0.5" x2="198.899" y2="0.5" xlink:href="#linear-gradient-6"/>
    <linearGradient id="linear-gradient-10" x1="0.63" y1="0.057" x2="-0.333" y2="1.183" xlink:href="#linear-gradient-7"/>
    <linearGradient id="linear-gradient-11" x1="-23.78" y1="-0.492" x2="-23.435" y2="0.348" xlink:href="#linear-gradient-6"/>
    <linearGradient id="linear-gradient-12" x1="4.139" y1="-0.073" x2="-0.383" y2="0.658" xlink:href="#linear-gradient-6"/>
    <linearGradient id="linear-gradient-13" x1="-178.534" y1="1.716" x2="-180.41" y2="-0.451" xlink:href="#linear-gradient-6"/>
    <linearGradient id="linear-gradient-14" x1="26.429" y1="0.5" x2="27.429" y2="0.5" xlink:href="#linear-gradient-6"/>
    <linearGradient id="linear-gradient-15" x1="0" y1="0.5" x2="1" y2="0.5" xlink:href="#linear-gradient-7"/>
    <linearGradient id="linear-gradient-17" x1="84.832" y1="0.5" x2="85.832" y2="0.5" xlink:href="#linear-gradient-6"/>
    <linearGradient id="linear-gradient-18" x1="0.731" y1="-0.568" x2="0.394" y2="1.087" xlink:href="#linear-gradient-6"/>
    <linearGradient id="linear-gradient-19" x1="-20.043" y1="8.565" x2="-21.45" y2="9.903" xlink:href="#linear-gradient-6"/>
    <linearGradient id="linear-gradient-20" x1="0.9" y1="0.158" x2="-0.137" y2="1.312" xlink:href="#linear-gradient-7"/>
    <linearGradient id="linear-gradient-21" x1="-57.645" y1="26.99" x2="-54.661" y2="24.524" xlink:href="#linear-gradient-6"/>
  </defs>
  <g id="Grupo_171026" data-name="Grupo 171026" transform="translate(-277.68 -408.059)">
    <path id="Trazado_225851" data-name="Trazado 225851" d="M73.447,0c40.3-.209,72.756,40.735,72.494,91.45s-33.145,92-73.445,92.206S-.261,142.923,0,92.207,33.147.21,73.447,0Z" transform="translate(277.68 586.909) rotate(-86)" fill="#8c6df2" opacity="0.25"/>
    <g id="Grupo_166243" data-name="Grupo 166243" transform="translate(278.693 397)">
      <g id="Grupo_166242" data-name="Grupo 166242" transform="translate(0 11.059)">
        <g id="Grupo_166219" data-name="Grupo 166219" transform="translate(24.483 0)">
          <path id="Trazado_225782" data-name="Trazado 225782" d="M865.421,761.407l100.8,1.718a10.444,10.444,0,0,1,10.26,10.089l4.951,146.261a7.7,7.7,0,0,1-7.689,7.962l-115.56.131a7.31,7.31,0,0,1-7.318-7.435l2.506-147.076A11.855,11.855,0,0,1,865.421,761.407Z" transform="translate(-850.859 -740.13)" fill="url(#linear-gradient)"/>
          <path id="Trazado_225783" data-name="Trazado 225783" d="M924.088,2744.709h-.007l-12.923-.388a7.931,7.931,0,0,1-7.663-8.032l.333-19.516a.234.234,0,0,1,.235-.231h0a.234.234,0,0,1,.231.238l-.333,19.517a7.461,7.461,0,0,0,7.208,7.555l12.924.387a.235.235,0,0,1-.007.469Z" transform="translate(-899.838 -2559.508)" fill="#91b3fa"/>
          <path id="Trazado_225784" data-name="Trazado 225784" d="M910.016,2587.59h0a.235.235,0,0,1-.231-.239l.054-3.16a.237.237,0,0,1,.239-.23.234.234,0,0,1,.231.238l-.054,3.161A.235.235,0,0,1,910.016,2587.59Z" transform="translate(-905.69 -2436.132)" fill="#91b3fa"/>
          <g id="Grupo_166217" data-name="Grupo 166217" transform="translate(9.208 20.058)">
            <path id="Trazado_225785" data-name="Trazado 225785" d="M989.156,743.909c13.733,2.1,60.967,8.681,100.152,6.343a3.184,3.184,0,0,1,3.377,3.061l5.3,146.919a3.664,3.664,0,0,1-3.508,3.794c-16.476.694-84.323,3.3-108.457.36a2.9,2.9,0,0,1-2.548-2.917l1.72-154.193A3.444,3.444,0,0,1,989.156,743.909Z" transform="translate(-983.472 -743.868)" fill="#91b3fa"/>
            <path id="Trazado_225786" data-name="Trazado 225786" d="M1012.321,799.126c13.215,2.022,58.671,8.354,96.38,6.1a3.064,3.064,0,0,1,3.25,2.946l5.1,141.386a3.526,3.526,0,0,1-3.375,3.651c-15.855.668-81.148,3.18-104.373.346a2.794,2.794,0,0,1-2.452-2.807l1.655-148.387A3.314,3.314,0,0,1,1012.321,799.126Z" transform="translate(-1005.228 -795.253)" fill="#bdd0fb"/>
            <g id="Grupo_166210" data-name="Grupo 166210" transform="translate(15.967 18.195)" opacity="0.6">
              <path id="Trazado_225787" data-name="Trazado 225787" d="M1299.692,1010.077a.869.869,0,0,0,.892-.921l-.008-.16a1.029,1.029,0,0,0-.984-.961l-85.639-2.135c-.516-.013-.681.312-.366.721l.977,1.271a2.212,2.212,0,0,0,1.51.76Z" transform="translate(-1213.428 -1005.901)" fill="#fff"/>
            </g>
            <g id="Grupo_166211" data-name="Grupo 166211" transform="translate(15.871 23.84)" opacity="0.6">
              <path id="Trazado_225788" data-name="Trazado 225788" d="M1212.568,1087.209c-.516-.013-.681.311-.366.72l.977,1.271a2.211,2.211,0,0,0,1.51.76l83.617,1.425a.869.869,0,0,0,.892-.921l-.008-.16a1.029,1.029,0,0,0-.984-.961Z" transform="translate(-1212.042 -1087.209)" fill="#fff"/>
            </g>
            <path id="Trazado_225789" data-name="Trazado 225789" d="M1209.553,1620.991h-.031l-11.346.065a3.075,3.075,0,0,1-3.179-2.57l-1.143-9.5a2.094,2.094,0,0,1,.471-1.584,2.515,2.515,0,0,1,1.741-.893h0c.956-.08,2.272-.213,3.72-.358,3.153-.317,6.727-.677,8.829-.736h.046a3.191,3.191,0,0,1,3.191,2.194c.626,2.18.637,6.318.593,10.728A2.831,2.831,0,0,1,1209.553,1620.991Zm-13.41-13.561a1.587,1.587,0,0,0-1.1.555,1.176,1.176,0,0,0-.269.888l1.143,9.5a2.154,2.154,0,0,0,2.255,1.755l11.346-.065h.022a1.906,1.906,0,0,0,1.981-1.74c.044-4.338.035-8.4-.557-10.464a2.292,2.292,0,0,0-2.322-1.523c-2.068.057-5.78.431-8.762.731-1.454.146-2.776.279-3.736.36Z" transform="translate(-1179.232 -1545.589)" fill="#fff"/>
            <path id="Trazado_225790" data-name="Trazado 225790" d="M1225.479,1636.249c2.38-.2,7.552-.805,10.008-.873a2.2,2.2,0,0,1,2.221,1.485c.5,1.746.492,5.241.459,8.467a1.888,1.888,0,0,1-1.968,1.757l-9.067.052a2.1,2.1,0,0,1-2.171-1.728l-.913-7.594A1.472,1.472,0,0,1,1225.479,1636.249Z" transform="translate(-1207.334 -1573.471)" fill="#fff" opacity="0.6"/>
            <g id="Grupo_166212" data-name="Grupo 166212" transform="translate(39.416 65.372)" opacity="0.6">
              <path id="Trazado_225791" data-name="Trazado 225791" d="M1551.847,1685.331a.668.668,0,0,0-.685.9l1.076,3.839a1.288,1.288,0,0,0,1.192.889l57.1-.876a.916.916,0,0,0,.9-.952l-.087-2.355a1,1,0,0,0-.974-.946Z" transform="translate(-1551.128 -1685.331)" fill="#fff"/>
            </g>
            <path id="Trazado_225792" data-name="Trazado 225792" d="M1219.11,1254.145h-.031l-11.345.065a3.075,3.075,0,0,1-3.179-2.57l-1.144-9.5a2.1,2.1,0,0,1,.471-1.583,2.516,2.516,0,0,1,1.741-.893h0c.956-.08,2.272-.213,3.72-.358,3.153-.317,6.727-.678,8.829-.736h.047a3.191,3.191,0,0,1,3.191,2.194c.625,2.179.637,6.318.592,10.728A2.831,2.831,0,0,1,1219.11,1254.145Zm-13.409-13.561a1.585,1.585,0,0,0-1.1.554,1.176,1.176,0,0,0-.269.888l1.143,9.5a2.154,2.154,0,0,0,2.254,1.755l11.346-.065h.023a1.906,1.906,0,0,0,1.981-1.74c.044-4.338.035-8.4-.556-10.464a2.292,2.292,0,0,0-2.322-1.523c-2.068.058-5.78.431-8.762.731-1.454.146-2.776.28-3.735.36Z" transform="translate(-1188.125 -1204.215)" fill="#fff"/>
            <path id="Trazado_225793" data-name="Trazado 225793" d="M1235.036,1269.4c2.381-.2,7.552-.8,10.008-.873a2.2,2.2,0,0,1,2.221,1.485c.5,1.745.492,5.241.459,8.467a1.888,1.888,0,0,1-1.969,1.757l-9.067.052a2.1,2.1,0,0,1-2.171-1.728l-.914-7.593A1.473,1.473,0,0,1,1235.036,1269.4Z" transform="translate(-1216.227 -1232.098)" fill="#fff" opacity="0.6"/>
            <g id="Grupo_166213" data-name="Grupo 166213" transform="translate(40.08 39.899)" opacity="0.6">
              <path id="Trazado_225794" data-name="Trazado 225794" d="M1561.4,1318.485a.669.669,0,0,0-.685.9l1.076,3.838a1.288,1.288,0,0,0,1.192.89l57.1-.876a.917.917,0,0,0,.9-.952l-.088-2.355a1,1,0,0,0-.973-.946Z" transform="translate(-1560.686 -1318.485)" fill="#fff"/>
            </g>
            <path id="Trazado_225795" data-name="Trazado 225795" d="M1214.924,1971.135h-.031l-11.346.065a3.076,3.076,0,0,1-3.179-2.569l-1.143-9.5a2.1,2.1,0,0,1,.471-1.584,2.517,2.517,0,0,1,1.742-.893h0c.956-.08,2.272-.213,3.721-.358,3.153-.318,6.727-.677,8.829-.736h.046a3.191,3.191,0,0,1,3.191,2.195c.626,2.179.637,6.318.592,10.728A2.83,2.83,0,0,1,1214.924,1971.135Zm-13.41-13.561a1.587,1.587,0,0,0-1.1.555,1.178,1.178,0,0,0-.269.889l1.143,9.5a2.155,2.155,0,0,0,2.255,1.755l11.346-.065h.022a1.906,1.906,0,0,0,1.981-1.74c.044-4.338.035-8.4-.557-10.463a2.3,2.3,0,0,0-2.322-1.523c-2.068.057-5.78.431-8.763.731-1.454.147-2.776.28-3.736.36Z" transform="translate(-1184.23 -1871.421)" fill="#fff"/>
            <path id="Trazado_225796" data-name="Trazado 225796" d="M1230.849,1986.4c2.38-.2,7.552-.8,10.008-.873a2.2,2.2,0,0,1,2.221,1.485c.5,1.746.492,5.241.459,8.468a1.888,1.888,0,0,1-1.968,1.757l-9.067.052a2.094,2.094,0,0,1-2.171-1.728l-.914-7.594A1.473,1.473,0,0,1,1230.849,1986.4Z" transform="translate(-1212.331 -1899.306)" fill="#fff" opacity="0.6"/>
            <g id="Grupo_166214" data-name="Grupo 166214" transform="translate(39.789 89.685)" opacity="0.6">
              <path id="Trazado_225797" data-name="Trazado 225797" d="M1557.218,2035.479a.669.669,0,0,0-.685.9l1.076,3.838a1.288,1.288,0,0,0,1.192.89l57.1-.876a.917.917,0,0,0,.9-.952l-.087-2.355a1,1,0,0,0-.974-.946Z" transform="translate(-1556.499 -2035.479)" fill="#fff"/>
            </g>
            <path id="Trazado_225798" data-name="Trazado 225798" d="M1204.793,2307.611h-.03l-11.346.065a3.075,3.075,0,0,1-3.179-2.57l-1.144-9.5a2.1,2.1,0,0,1,.471-1.583,2.519,2.519,0,0,1,1.741-.893h0c.955-.08,2.27-.212,3.717-.358,3-.3,6.73-.677,8.833-.736a3.237,3.237,0,0,1,3.237,2.193c.625,2.18.637,6.319.592,10.728A2.832,2.832,0,0,1,1204.793,2307.611Zm-13.409-13.561a1.584,1.584,0,0,0-1.1.554,1.179,1.179,0,0,0-.269.888l1.144,9.5a2.153,2.153,0,0,0,2.254,1.754l11.346-.065a1.949,1.949,0,0,0,2-1.74c.044-4.339.034-8.4-.557-10.463a2.318,2.318,0,0,0-2.322-1.522c-2.069.057-5.782.43-8.766.731-1.453.146-2.773.279-3.732.36Z" transform="translate(-1174.803 -2184.534)" fill="#fff"/>
            <path id="Trazado_225799" data-name="Trazado 225799" d="M1220.719,2322.857c2.38-.2,7.552-.8,10.008-.873a2.2,2.2,0,0,1,2.221,1.485c.5,1.746.492,5.241.459,8.467a1.888,1.888,0,0,1-1.969,1.757l-9.067.052a2.1,2.1,0,0,1-2.171-1.728l-.913-7.594A1.473,1.473,0,0,1,1220.719,2322.857Z" transform="translate(-1202.905 -2212.404)" fill="#fff" opacity="0.6"/>
            <g id="Grupo_166215" data-name="Grupo 166215" transform="translate(39.086 113.048)" opacity="0.6">
              <path id="Trazado_225800" data-name="Trazado 225800" d="M1547.089,2371.939a.668.668,0,0,0-.685.9l1.076,3.839a1.287,1.287,0,0,0,1.191.889l57.1-.875a.918.918,0,0,0,.9-.953l-.087-2.355a.994.994,0,0,0-.974-.946Z" transform="translate(-1546.37 -2371.939)" fill="#fff"/>
            </g>
            <path id="Trazado_225801" data-name="Trazado 225801" d="M1191.555,2654.636h-.031l-11.346.065a3.076,3.076,0,0,1-3.179-2.569l-1.143-9.5a2.1,2.1,0,0,1,.47-1.583,2.52,2.52,0,0,1,1.741-.893h0c.956-.08,2.272-.212,3.721-.358,3.153-.317,6.727-.677,8.829-.735a3.226,3.226,0,0,1,3.237,2.193c.626,2.18.637,6.318.593,10.728A2.831,2.831,0,0,1,1191.555,2654.636Zm-13.41-13.561a1.589,1.589,0,0,0-1.1.555,1.176,1.176,0,0,0-.269.888l1.143,9.5a2.156,2.156,0,0,0,2.255,1.755l11.346-.065h.022a1.906,1.906,0,0,0,1.981-1.74c.044-4.338.035-8.4-.556-10.464a2.333,2.333,0,0,0-2.322-1.522c-2.069.057-5.78.432-8.763.731-1.454.146-2.776.28-3.736.36Z" transform="translate(-1162.484 -2507.463)" fill="#fff"/>
            <path id="Trazado_225802" data-name="Trazado 225802" d="M1207.479,2669.873c2.38-.2,7.552-.8,10.008-.873a2.2,2.2,0,0,1,2.221,1.485c.5,1.745.492,5.241.459,8.467a1.888,1.888,0,0,1-1.968,1.757l-9.067.052a2.1,2.1,0,0,1-2.171-1.729l-.913-7.594A1.473,1.473,0,0,1,1207.479,2669.873Z" transform="translate(-1190.584 -2535.324)" fill="#fff" opacity="0.6"/>
            <g id="Grupo_166216" data-name="Grupo 166216" transform="translate(38.166 137.143)" opacity="0.6">
              <path id="Trazado_225803" data-name="Trazado 225803" d="M1533.849,2718.956a.668.668,0,0,0-.685.9l1.075,3.839a1.288,1.288,0,0,0,1.192.889l57.1-.875a.917.917,0,0,0,.9-.952l-.088-2.355a1,1,0,0,0-.973-.946Z" transform="translate(-1533.13 -2718.956)" fill="#fff"/>
            </g>
          </g>
          <path id="Trazado_225804" data-name="Trazado 225804" d="M1717.081,457.318c-3.6-2.595-6.765-2.6-9-1.979a4.446,4.446,0,0,0-3.237,4.62l.782,10.507,11.419,1.21S1724.137,462.407,1717.081,457.318Zm-5.174,8.377a2.852,2.852,0,1,1,2.9-2.8A2.852,2.852,0,0,1,1711.908,465.7Z" transform="translate(-1645.531 -455)" fill="url(#linear-gradient-2)"/>
          <g id="Grupo_166218" data-name="Grupo 166218" transform="translate(60.398 1.263)">
            <path id="Trazado_225805" data-name="Trazado 225805" d="M1721.4,483.257a.567.567,0,0,1-.361-.487l-.124-1.673a.566.566,0,1,1,1.13-.084l.124,1.673a.567.567,0,0,1-.769.571Zm-.244-3.279a.566.566,0,0,1-.361-.487l-.095-1.27a4.534,4.534,0,0,1,3.3-4.7,8.843,8.843,0,0,1,4.324-.1.567.567,0,0,1-.247,1.106,7.717,7.717,0,0,0-3.775.09,3.4,3.4,0,0,0-2.468,3.526l.094,1.271a.567.567,0,0,1-.768.57Z" transform="translate(-1720.684 -473.195)" fill="#91b3fa"/>
          </g>
          <path id="Trazado_225806" data-name="Trazado 225806" d="M1489.819,658.44l.09-5.274a3.219,3.219,0,0,1,3.383-3.16l36.341,1.865a3.131,3.131,0,0,1,2.967,2.992l.218,5.073Z" transform="translate(-1445.452 -636.461)" fill="url(#linear-gradient-3)"/>
          <path id="Trazado_225807" data-name="Trazado 225807" d="M1662.648,673.954h0l-1.564-.027a.235.235,0,0,1,0-.469h0l1.563.027a.235.235,0,0,1,0,.469Z" transform="translate(-1604.607 -658.289)" fill="#91b3fa"/>
          <path id="Trazado_225808" data-name="Trazado 225808" d="M1510.844,672.769a.567.567,0,0,1-.363-.538l.036-2.133a3.281,3.281,0,0,1,3.336-3.225l5.75.1a.567.567,0,0,1-.02,1.133l-5.749-.1a2.15,2.15,0,0,0-2.184,2.111l-.036,2.134a.566.566,0,0,1-.77.519Z" transform="translate(-1464.68 -652.16)" fill="#91b3fa"/>
          <path id="Trazado_225809" data-name="Trazado 225809" d="M1276.966,740.924l63.587,1.082a4.7,4.7,0,0,1,4.565,3.977l.048.312a4.037,4.037,0,0,1-4.058,4.657l-65.237-1.112a2.624,2.624,0,0,1-2.574-2.795l.19-2.917A3.427,3.427,0,0,1,1276.966,740.924Z" transform="translate(-1243.961 -721.07)" fill="url(#linear-gradient-4)"/>
        </g>
        <g id="Grupo_166241" data-name="Grupo 166241" transform="translate(0 72.419)">
          <path id="Trazado_225828" data-name="Trazado 225828" d="M864.255,3152.774s-.423,2.4-.631,4.771a1.634,1.634,0,0,0,1.564,1.771c3.161.132,9.921.388,12.347.28a.532.532,0,0,0,.468-.729,1.2,1.2,0,0,0-.609-.642l-11.167-5.132Z" transform="translate(-838.248 -3037.869)" fill="url(#linear-gradient-5)"/>
          <path id="Trazado_225829" data-name="Trazado 225829" d="M867.8,3126.55l.34,2.868s1.956.91,3.292-.115l-.81-3.2Z" transform="translate(-842.142 -3013.054)" fill="url(#linear-gradient-6)"/>
          <path id="Trazado_225830" data-name="Trazado 225830" d="M752.625,2356c-.147.749-.789,37.372,3.126,53.784a.557.557,0,0,1-.327.648,9.672,9.672,0,0,1-3.188.648.959.959,0,0,1-.952-.689c-1.119-3.807-6.481-22.886-7.18-41.111-.782-20.365,0-.693,0-.693l.458-12.588Z" transform="translate(-726.71 -2296.419)" fill="url(#linear-gradient-7)"/>
          <path id="Trazado_225831" data-name="Trazado 225831" d="M669.74,3170.787a17.232,17.232,0,0,0-1.327,4.426,1,1,0,0,0,.878,1.2c1.043.1,2.65.234,3.937.225a1,1,0,0,0,.985-1.11,8.393,8.393,0,0,0-1.959-4.6Z" transform="translate(-656.58 -3054.632)" fill="url(#linear-gradient-8)"/>
          <path id="Trazado_225832" data-name="Trazado 225832" d="M679.268,3115.406l.8,4.336a2.8,2.8,0,0,0,2.341.161l-.379-4.667Z" transform="translate(-666.699 -3002.939)" fill="url(#linear-gradient-9)"/>
          <path id="Trazado_225833" data-name="Trazado 225833" d="M631.818,2345.041c-3.2,19.324.695,47.758,2.009,53.324a.869.869,0,0,0,.7.659,5.828,5.828,0,0,0,2.5-.1.8.8,0,0,0,.572-.732c.176-4.5-.141-32.122,2.842-43.038a2.481,2.481,0,0,1,.956-1.368l5.79-4.116.444-6.654Z" transform="translate(-621.398 -2284.337)" fill="url(#linear-gradient-10)"/>
          <g id="Grupo_166237" data-name="Grupo 166237" transform="translate(9.225 9.232)">
            <path id="Trazado_225834" data-name="Trazado 225834" d="M652.716,1823.9a90.192,90.192,0,0,0-20.182,2.519c-2.86,16.689-.5,35.937-.5,35.937,7.428,1.948,15.808-1.191,15.808-1.191,1.235-6.975,7-26.606,7-26.606a31.606,31.606,0,0,0,11.73-3.723,20.569,20.569,0,0,1-4.066-8.5A32.2,32.2,0,0,1,652.716,1823.9Z" transform="translate(-631.118 -1809.042)" fill="#fedc72"/>
            <path id="Trazado_225835" data-name="Trazado 225835" d="M1101.623,1631.641a1.836,1.836,0,0,0-2.135-.6c-1.412,5.965-8.816,10.8-16.422,13.164a20.575,20.575,0,0,0,4.066,8.505C1099.755,1645.613,1101.623,1631.641,1101.623,1631.641Z" transform="translate(-1051.684 -1630.914)" fill="url(#linear-gradient-11)"/>
          </g>
          <g id="Grupo_166238" data-name="Grupo 166238" transform="translate(57.029 0)">
            <path id="Trazado_225836" data-name="Trazado 225836" d="M1321.474,1508.206c.1.313-1.043.791-1.716-.491-.023-.615-.4-3.248-.03-3.748a49.066,49.066,0,0,1,5.748-6.009.9.9,0,0,1,.113,1.254l-1.839,1.916a8.887,8.887,0,0,1,1.074,2.123,2.575,2.575,0,0,1-.257,1.9c-.323.582-.763,1.338-1.18,1.93A2.545,2.545,0,0,1,1321.474,1508.206Z" transform="translate(-1319.567 -1497.957)" fill="url(#linear-gradient-12)"/>
            <path id="Trazado_225837" data-name="Trazado 225837" d="M1338.687,1561.516l-1.676,1.421-.526,1.415,1.495,1.658a19.286,19.286,0,0,1,.876-3.415C1339.228,1561.988,1339.035,1561.694,1338.687,1561.516Z" transform="translate(-1335.309 -1557.103)" fill="url(#linear-gradient-13)"/>
          </g>
          <path id="Trazado_225838" data-name="Trazado 225838" d="M515.317,1890.5l-3.68-9.291s-8.962,6.089-10.436,13.81a21.222,21.222,0,0,1,7.791,2.088C509.655,1893.458,515.317,1890.5,515.317,1890.5Z" transform="translate(-500.997 -1854.594)" fill="#fedc72"/>
          <path id="Trazado_225839" data-name="Trazado 225839" d="M520.411,2084.318s-10.062,5.687-13.457.831a3.815,3.815,0,0,1-.7-2.966,21.2,21.2,0,0,0-7.791-2.088,10.656,10.656,0,0,0,1.158,7.3c5.947,10.879,22.122-.6,22.122-.6Z" transform="translate(-498.259 -2039.674)" fill="url(#linear-gradient-14)"/>
          <g id="Grupo_166239" data-name="Grupo 166239" transform="translate(20.922 29.204)">
            <path id="Trazado_225840" data-name="Trazado 225840" d="M799.587,1966.148l5.492-19.178a.56.56,0,0,1,.473-.4c.995-.115,3.878-.442,7.207-.723a81.834,81.834,0,0,1,11.449-.38.561.561,0,0,1,.459.807c-1.582,3.2-8.091,16.223-11.35,20.489a.563.563,0,0,1-.453.222l-12.742-.119A.561.561,0,0,1,799.587,1966.148Z" transform="translate(-799.565 -1943.513)" fill="#7d97f4"/>
            <path id="Trazado_225841" data-name="Trazado 225841" d="M991.3,1919.215l3.982-.663a.286.286,0,0,1,.318.371l-.394,1.194a.286.286,0,0,1-.234.194l-3.832.512a.286.286,0,0,1-.316-.348l.244-1.043A.285.285,0,0,1,991.3,1919.215Z" transform="translate(-977.542 -1918.548)" fill="url(#linear-gradient-15)"/>
            <path id="Trazado_225842" data-name="Trazado 225842" d="M954.745,1938.575l.328-1.709a.4.4,0,0,1,.348-.318l8.042-.816a.4.4,0,0,1,.424.486l-.511,2.129a.4.4,0,0,1-.364.3l-7.858.4A.4.4,0,0,1,954.745,1938.575Z" transform="translate(-943.963 -1934.537)" fill="url(#linear-gradient-15)"/>
            <path id="Trazado_225843" data-name="Trazado 225843" d="M811.89,2090.161s-.765-3.146-.456-4.262.906-2.551,2.9-2.232a29.206,29.206,0,0,1,4.344,1.159,1.141,1.141,0,0,1-1.633.984l.939.727s-.134,1.164-1.414.542l.874.964a1.018,1.018,0,0,1-1.491.343C815.011,2087.772,814.559,2090.539,811.89,2090.161Z" transform="translate(-810.541 -2072.16)" fill="url(#linear-gradient-17)"/>
          </g>
          <path id="Trazado_225844" data-name="Trazado 225844" d="M761.03,1732.739l-3.053,8.829a.318.318,0,0,0,.145.383,7.176,7.176,0,0,0,7.444-.5,1.5,1.5,0,0,0,.69-1.07l.989-7.642Z" transform="translate(-739.926 -1716.437)" fill="url(#linear-gradient-18)"/>
          <g id="Grupo_166240" data-name="Grupo 166240" transform="translate(18.633 3.916)">
            <path id="Trazado_225845" data-name="Trazado 225845" d="M820.355,1609.671c.068.139,1.22,10.294,1.22,10.294l-5.813.534-2.521-9.463S819.212,1607.349,820.355,1609.671Z" transform="translate(-810.003 -1605.116)" fill="url(#linear-gradient-19)"/>
            <path id="Trazado_225846" data-name="Trazado 225846" d="M771.735,1561.947l.937,5.085a.713.713,0,0,0,.061.187c.179.364.886,1.573,2.078.774a6.5,6.5,0,0,1,2.91-1.385.722.722,0,0,1,.73.641,31.207,31.207,0,0,1,.2,4.843.721.721,0,0,1-.7.675,23.292,23.292,0,0,1-5.407-.4.723.723,0,0,1-.536-.509c-.348-1.248-1.42-5.036-1.882-6.045-.434-.947-1.833-1.144-2.427-1.185a.709.709,0,0,1-.5-.255,1.872,1.872,0,0,1,.354-2.985.723.723,0,0,0,.147-1.031,1.876,1.876,0,0,1,.2-2.791,2.646,2.646,0,0,1,3.238-.253.723.723,0,0,0,.909-.181.571.571,0,0,1,.625-.18.712.712,0,0,0,.864-.6,2.157,2.157,0,0,1,2-1.962c2.561-.373,3.71,2.226,3.582,4.01s-2.928,2.03-4.493,1.661c-1.19-.281-2.273.771-2.724,1.291A.716.716,0,0,0,771.735,1561.947Z" transform="translate(-766.606 -1554.35)" fill="url(#linear-gradient-20)"/>
            <path id="Trazado_225847" data-name="Trazado 225847" d="M780.222,1698.513s.09-3.117-1.158-3.468-2.649.5-1.658,2.413C778.64,1699.839,780.222,1698.513,780.222,1698.513Z" transform="translate(-776.345 -1685.203)" fill="url(#linear-gradient-21)"/>
          </g>
        </g>
      </g>
      <path id="Trazado_138100" data-name="Trazado 138100" d="M189.647,15.543a119.466,119.466,0,0,1-11.429,7.494A100.929,100.929,0,0,1,165.3,29.273a84.88,84.88,0,0,1-14.693,4.385,65.952,65.952,0,0,1-8.11,1.1c-.7.04-1.4.092-2.108.1-.354.009-.708.024-1.064.028h-1.071c-.719,0-1.411-.022-2.122-.033-.7-.033-1.411-.055-2.112-.106a80.491,80.491,0,0,1-16.2-2.9c-5.106-1.411-9.883-3.108-14.478-4.733-2.3-.816-4.557-1.61-6.781-2.348-1.114-.373-2.215-.723-3.311-1.065-.546-.164-1.093-.335-1.635-.49l-1.681-.485c-4.682-1.347-9.258-2.6-13.762-3.6-2.25-.5-4.479-.943-6.669-1.3q-1.642-.266-3.252-.468t-3.173-.312a43.126,43.126,0,0,0-11.218.436q-1.2.231-2.29.544c-.365.1-.717.216-1.065.331l-.512.18c-.154.061-.308.117-.459.181a16.443,16.443,0,0,0-3.316,1.8c-.245.176-.485.355-.712.542l-.885.7c-.306.24-.579.492-.871.732s-.537.5-.808.741a18.734,18.734,0,0,0-2.581,3.04A13.94,13.94,0,0,0,36.762,29.4a12.4,12.4,0,0,0-.715,3.249,17.518,17.518,0,0,0,.913,6.98,30.482,30.482,0,0,0,3.7,7.364,37.989,37.989,0,0,0,2.713,3.582c.491.576,1,1.139,1.507,1.668.254.263.512.517.759.747.123.114.246.226.355.316a1.91,1.91,0,0,0,.152.118c.019.011.046.033.054.03l.009,0s.011.008,0-.013l-.054-.085C52.218,60.724,48.672,70.1,38.236,74.3s-23.809,1.635-29.87-5.729l-.172-.232-.11-.158-.176-.265-.3-.475c-.19-.306-.36-.593-.525-.879-.329-.57-.63-1.122-.921-1.671-.576-1.094-1.1-2.173-1.581-3.254A58.141,58.141,0,0,1,2.128,55.1,45.983,45.983,0,0,1,0,41.408,35.161,35.161,0,0,1,3,27.075a36.312,36.312,0,0,1,4.053-6.9A40.726,40.726,0,0,1,12.8,13.957a51.053,51.053,0,0,1,7.055-5.213c.635-.379,1.264-.765,1.908-1.129s1.29-.723,1.948-1.061l.988-.5c.336-.17.635-.324,1.038-.519.759-.373,1.537-.726,2.328-1.064A53.977,53.977,0,0,1,38.177,1.3c.442-.1.89-.179,1.337-.265s.869-.153,1.3-.224C41.688.67,42.56.545,43.433.445c1.745-.2,3.489-.338,5.212-.4a71.541,71.541,0,0,1,10,.353,83.523,83.523,0,0,1,9.131,1.477,117.656,117.656,0,0,1,15.9,4.744c4.888,1.814,9.445,3.787,13.831,5.742l1.711.766c.587.263,1.153.532,1.728.8,1.13.538,2.246,1.078,3.327,1.623,2.175,1.088,4.257,2.185,6.312,3.251,4.1,2.135,8.06,4.188,12.138,5.926a60.724,60.724,0,0,0,12.7,3.985c.552.109,1.11.192,1.669.288l.842.117.422.059c.14.018.278.028.417.042l.836.082c.28.024.563.038.845.058.564.046,1.137.056,1.709.08s1.152.016,1.732.017c.581-.017,1.163-.011,1.748-.046l.878-.04c.293-.015.586-.04.88-.06.587-.038,1.174-.1,1.761-.159s1.173-.14,1.762-.209,1.172-.171,1.76-.257c.581-.106,1.166-.205,1.747-.318s1.163-.228,1.738-.36q1.735-.378,3.432-.856c.567-.156,1.134-.315,1.692-.488l.841-.256.829-.275a69.227,69.227,0,0,0,12.454-5.511A54.492,54.492,0,0,0,185.7,13.183a3.352,3.352,0,0,1,3.618-.354c1.146.6,1.384,1.744.532,2.544a2.134,2.134,0,0,1-.192.16Z" transform="translate(186.839 40.878) rotate(113)" fill="#fdb74d"/>
      <g id="Grupo_171025" data-name="Grupo 171025" transform="translate(73.279 37.206)">
        <g id="Grupo_166229" data-name="Grupo 166229" transform="translate(0 18.746)">
          <path id="Trazado_225850" data-name="Trazado 225850" d="M8.393,0A8.489,8.489,0,0,1,15.92,4.676a8.092,8.092,0,0,1,.866,3.717A8.393,8.393,0,1,1,8.393,0Z" transform="translate(0 11.869) rotate(-45)" fill="#5038a1"/>
          <circle id="Elipse_6473" data-name="Elipse 6473" cx="8.114" cy="8.114" r="8.114" transform="translate(0.395 11.869) rotate(-45)" fill="#8c6df2"/>
          <path id="Trazado_225820" data-name="Trazado 225820" d="M1625.026,1165.806a.234.234,0,0,1-.209-.34,7.691,7.691,0,0,1,6.9-4.249,7.773,7.773,0,0,1,1.393.125.235.235,0,0,1-.084.462,7.333,7.333,0,0,0-1.309-.118,7.226,7.226,0,0,0-6.481,3.991A.235.235,0,0,1,1625.026,1165.806Z" transform="translate(-1619.847 -1157.072)" fill="#fff" opacity="0.78"/>
          <ellipse id="Elipse_6474" data-name="Elipse 6474" cx="6.867" cy="6.867" rx="6.867" ry="6.867" transform="matrix(0.23, -0.973, 0.973, 0.23, 3.785, 17.152)" fill="#fff" opacity="0.78"/>
          <g id="Grupo_166228" data-name="Grupo 166228" transform="translate(9.021 7.186)">
            <path id="Trazado_225821" data-name="Trazado 225821" d="M1685.862,1214.979v-.747a6.093,6.093,0,0,1-2.1-.454.432.432,0,0,1-.239-.51l.19-.7a.436.436,0,0,1,.591-.285,5.058,5.058,0,0,0,1.935.408c.75,0,1.31-.254,1.31-.776,0-.471-.432-.75-1.475-1.03-1.487-.407-2.556-1.055-2.556-2.365,0-1.183.865-2.086,2.365-2.327v-.747a.435.435,0,0,1,.435-.435h.439a.435.435,0,0,1,.435.435v.671a5.543,5.543,0,0,1,1.661.3.433.433,0,0,1,.271.523l-.174.644a.434.434,0,0,1-.573.293,4.537,4.537,0,0,0-1.63-.3c-.89,0-1.144.369-1.144.7,0,.407.534.687,1.691,1.042,1.653.5,2.339,1.182,2.339,2.416a2.547,2.547,0,0,1-2.466,2.4v.836a.435.435,0,0,1-.435.436h-.439A.435.435,0,0,1,1685.862,1214.979Z" transform="translate(-1683.511 -1205.014)" fill="#8c6df2"/>
          </g>
        </g>
        <g id="Grupo_166231" data-name="Grupo 166231" transform="translate(15.097 0)">
          <circle id="Elipse_6475" data-name="Elipse 6475" cx="14.61" cy="14.61" r="14.61" transform="translate(0 20.662) rotate(-45)" fill="#5038a1"/>
          <circle id="Elipse_6476" data-name="Elipse 6476" cx="14.125" cy="14.125" r="14.125" transform="translate(0.687 20.662) rotate(-45)" fill="#8c6df2"/>
          <path id="Trazado_225822" data-name="Trazado 225822" d="M1897.7,945.612a.235.235,0,0,1-.209-.34,13.218,13.218,0,0,1,11.856-7.3,13.378,13.378,0,0,1,2.395.215.235.235,0,0,1-.084.461,12.923,12.923,0,0,0-2.31-.208,12.752,12.752,0,0,0-11.437,7.042A.234.234,0,0,1,1897.7,945.612Z" transform="translate(-1888.688 -930.583)" fill="#fff" opacity="0.78"/>
          <circle id="Elipse_6477" data-name="Elipse 6477" cx="11.955" cy="11.955" r="11.955" transform="translate(4.063 20.97) rotate(-45)" fill="#fff" opacity="0.78"/>
          <g id="Grupo_166230" data-name="Grupo 166230" transform="translate(15.704 12.509)">
            <path id="Trazado_225823" data-name="Trazado 225823" d="M2001.277,1029.058v-1.3a10.593,10.593,0,0,1-3.649-.791.752.752,0,0,1-.416-.889l.331-1.212a.758.758,0,0,1,1.03-.5,8.8,8.8,0,0,0,3.369.709c1.306,0,2.28-.443,2.28-1.35,0-.819-.753-1.306-2.568-1.793-2.59-.708-4.449-1.837-4.449-4.117,0-2.059,1.505-3.63,4.117-4.051v-1.3a.758.758,0,0,1,.758-.758h.764a.758.758,0,0,1,.758.758v1.168a9.675,9.675,0,0,1,2.893.519.755.755,0,0,1,.471.91l-.3,1.121a.756.756,0,0,1-1,.51,7.888,7.888,0,0,0-2.837-.515c-1.549,0-1.992.642-1.992,1.218,0,.708.93,1.2,2.944,1.815,2.877.863,4.073,2.058,4.073,4.205,0,1.97-1.461,3.741-4.294,4.183v1.456a.757.757,0,0,1-.758.758h-.763A.758.758,0,0,1,2001.277,1029.058Z" transform="translate(-1997.184 -1011.71)" fill="#8c6df2"/>
          </g>
        </g>
        <g id="Grupo_166233" data-name="Grupo 166233" transform="translate(24.574 32.034)">
          <path id="Trazado_225849" data-name="Trazado 225849" d="M15.034,0A15.034,15.034,0,1,1,0,15.034,15.034,15.034,0,0,1,15.034,0Z" transform="translate(0 21.261) rotate(-45)" fill="#5038a1"/>
          <circle id="Elipse_6479" data-name="Elipse 6479" cx="14.534" cy="14.534" r="14.534" transform="translate(0.707 21.261) rotate(-45)" fill="#8c6df2"/>
          <path id="Trazado_225824" data-name="Trazado 225824" d="M2037.955,1410.343a.235.235,0,0,1-.209-.34,13.6,13.6,0,0,1,12.195-7.508,13.784,13.784,0,0,1,2.462.222.235.235,0,0,1-.084.462,13.308,13.308,0,0,0-2.378-.214,13.128,13.128,0,0,0-11.776,7.25A.234.234,0,0,1,2037.955,1410.343Z" transform="translate(-2028.679 -1394.885)" fill="#fff" opacity="0.78"/>
          <circle id="Elipse_6480" data-name="Elipse 6480" cx="12.301" cy="12.301" r="12.301" transform="translate(4.181 21.578) rotate(-45)" fill="#fff" opacity="0.78"/>
          <g id="Grupo_166232" data-name="Grupo 166232" transform="translate(16.16 12.872)">
            <path id="Trazado_225825" data-name="Trazado 225825" d="M2144.44,1496.126v-1.338a10.912,10.912,0,0,1-3.755-.814.772.772,0,0,1-.427-.914l.34-1.247a.78.78,0,0,1,1.059-.511,9.061,9.061,0,0,0,3.467.73c1.344,0,2.346-.456,2.346-1.39,0-.842-.775-1.344-2.642-1.845-2.665-.729-4.578-1.891-4.578-4.236,0-2.118,1.549-3.735,4.236-4.167v-1.339a.78.78,0,0,1,.78-.78h.786a.78.78,0,0,1,.78.78v1.2a9.949,9.949,0,0,1,2.976.534.775.775,0,0,1,.485.937l-.312,1.153a.778.778,0,0,1-1.027.525,8.119,8.119,0,0,0-2.919-.53c-1.594,0-2.05.661-2.05,1.253,0,.729.957,1.23,3.03,1.868,2.961.888,4.19,2.118,4.19,4.327,0,2.027-1.5,3.849-4.418,4.3v1.5a.78.78,0,0,1-.78.78h-.787A.78.78,0,0,1,2144.44,1496.126Z" transform="translate(-2140.229 -1478.275)" fill="#8c6df2"/>
          </g>
        </g>
        <g id="Grupo_166235" data-name="Grupo 166235" transform="translate(51.886 19.58)">
          <path id="Trazado_225848" data-name="Trazado 225848" d="M11.015,0A11.015,11.015,0,1,1,0,11.015,11.015,11.015,0,0,1,11.015,0Z" transform="translate(0.8 22.617) rotate(-82.027)" fill="#5038a1"/>
          <ellipse id="Elipse_6482" data-name="Elipse 6482" cx="10.649" cy="10.649" rx="10.649" ry="10.649" transform="translate(0 20.42) rotate(-73.488)" fill="#8c6df2"/>
          <path id="Trazado_225826" data-name="Trazado 225826" d="M2361.85,1165.089a.231.231,0,0,1-.106-.025.235.235,0,0,1-.1-.315,10.021,10.021,0,0,1,8.99-5.535,10.156,10.156,0,0,1,1.816.163.235.235,0,0,1-.085.461,9.706,9.706,0,0,0-1.731-.156,9.556,9.556,0,0,0-8.572,5.277A.234.234,0,0,1,2361.85,1165.089Z" transform="translate(-2357.395 -1156.042)" fill="#fff" opacity="0.78"/>
          <circle id="Elipse_6483" data-name="Elipse 6483" cx="9.013" cy="9.013" r="9.013" transform="translate(0.722 13.468) rotate(-45)" fill="#fff" opacity="0.78"/>
          <g id="Grupo_166234" data-name="Grupo 166234" transform="translate(9.499 7.09)">
            <path id="Trazado_225827" data-name="Trazado 225827" d="M2440.709,1228.717v-.98a8.012,8.012,0,0,1-2.752-.6.567.567,0,0,1-.313-.67l.249-.914a.571.571,0,0,1,.776-.374,6.639,6.639,0,0,0,2.54.535c.985,0,1.719-.334,1.719-1.018,0-.617-.567-.984-1.936-1.352-1.952-.534-3.354-1.385-3.354-3.1,0-1.552,1.135-2.737,3.1-3.054v-.98a.572.572,0,0,1,.572-.572h.575a.572.572,0,0,1,.572.572v.88a7.288,7.288,0,0,1,2.181.391.567.567,0,0,1,.355.687l-.228.844a.57.57,0,0,1-.753.385,5.944,5.944,0,0,0-2.139-.388c-1.168,0-1.5.484-1.5.918,0,.534.7.9,2.22,1.369,2.169.651,3.07,1.552,3.07,3.171,0,1.485-1.1,2.82-3.238,3.154v1.1a.571.571,0,0,1-.571.571h-.576A.572.572,0,0,1,2440.709,1228.717Z" transform="translate(-2437.624 -1215.638)" fill="#8c6df2"/>
          </g>
        </g>
      </g>
    </g>
  </g>
</svg>
