<svg xmlns="http://www.w3.org/2000/svg" width="136.973" height="136.973" viewBox="0 0 136.973 136.973">
  <g id="Grupo_171022" data-name="Grupo 171022" transform="translate(4045.292 9940.091)">
    <g id="Grupo_156133" data-name="Grupo 156133" transform="translate(-4045.292 -9940.091)">
      <g id="Trazado_137458" data-name="Trazado 137458" transform="translate(0 0)" fill="#fff">
        <path d="M 68.48631286621094 131.9726409912109 C 59.91350936889648 131.9726409912109 51.59981155395508 130.2947692871094 43.77611541748047 126.9856185913086 C 40.01535797119141 125.3949661254883 36.38774871826172 123.4259033203125 32.9940071105957 121.1331405639648 C 29.6312255859375 118.8612899780273 26.46885681152344 116.2520523071289 23.5947265625 113.3779220581055 C 20.72059631347656 110.503791809082 18.11135673522949 107.341423034668 15.83950805664062 103.9786376953125 C 13.5467472076416 100.5848999023438 11.57768249511719 96.95726776123047 9.987030029296875 93.196533203125 C 6.677877902984619 85.37283325195312 5.000008583068848 77.05912017822266 5.000008583068848 68.48631286621094 C 5.000008583068848 59.91350936889648 6.677877902984619 51.59981155395508 9.987030029296875 43.77611541748047 C 11.57768249511719 40.01535797119141 13.5467472076416 36.38774871826172 15.83950805664062 32.9940071105957 C 18.11135673522949 29.6312255859375 20.72059631347656 26.46885681152344 23.5947265625 23.5947265625 C 26.46885681152344 20.72059631347656 29.6312255859375 18.11135673522949 32.9940071105957 15.83950805664062 C 36.38774871826172 13.5467472076416 40.01535797119141 11.57768249511719 43.77611541748047 9.987030029296875 C 51.59981155395508 6.677877902984619 59.91350936889648 5.000008583068848 68.48631286621094 5.000008583068848 C 77.05912017822266 5.000008583068848 85.37283325195312 6.677877902984619 93.196533203125 9.987030029296875 C 96.95726776123047 11.57768249511719 100.5848999023438 13.5467472076416 103.9786376953125 15.83950805664062 C 107.341423034668 18.11135673522949 110.503791809082 20.72059631347656 113.3779220581055 23.5947265625 C 116.2520523071289 26.46885681152344 118.8612899780273 29.6312255859375 121.1331405639648 32.9940071105957 C 123.4259033203125 36.38774871826172 125.3949661254883 40.01535797119141 126.9856185913086 43.77611541748047 C 130.2947692871094 51.59981155395508 131.9726409912109 59.91350936889648 131.9726409912109 68.48631286621094 C 131.9726409912109 77.05912017822266 130.2947692871094 85.37283325195312 126.9856185913086 93.196533203125 C 125.3949661254883 96.95726776123047 123.4259033203125 100.5848999023438 121.1331405639648 103.9786376953125 C 118.8612899780273 107.341423034668 116.2520523071289 110.503791809082 113.3779220581055 113.3779220581055 C 110.503791809082 116.2520523071289 107.341423034668 118.8612899780273 103.9786376953125 121.1331405639648 C 100.5848999023438 123.4259033203125 96.95726776123047 125.3949661254883 93.196533203125 126.9856185913086 C 85.37283325195312 130.2947692871094 77.05912017822266 131.9726409912109 68.48631286621094 131.9726409912109 Z" stroke="none"/>
        <path d="M 68.48631286621094 10.00000762939453 C 36.23686981201172 10.00000762939453 10.00000762939453 36.23686981201172 10.00000762939453 68.48631286621094 C 10.00000762939453 100.7357559204102 36.23686981201172 126.9726181030273 68.48631286621094 126.9726181030273 C 100.7357559204102 126.9726181030273 126.9726181030273 100.7357559204102 126.9726181030273 68.48631286621094 C 126.9726181030273 36.23686981201172 100.7357559204102 10.00000762939453 68.48631286621094 10.00000762939453 M 68.48631286621094 0 C 106.3102569580078 0 136.9726257324219 30.66236877441406 136.9726257324219 68.48631286621094 C 136.9726257324219 106.3102569580078 106.3102569580078 136.9726257324219 68.48631286621094 136.9726257324219 C 30.66236877441406 136.9726257324219 0 106.3102569580078 0 68.48631286621094 C 0 30.66236877441406 30.66236877441406 0 68.48631286621094 0 Z" stroke="none" fill="#8c6df2"/>
      </g>
    </g>
    <g id="Contract-Human_Resource-Sign-Document-Pen" data-name="Contract-Human Resource-Sign-Document-Pen" transform="translate(-4011.413 -9911.311)">
      <path id="Trazado_226283" data-name="Trazado 226283" d="M39.213,36.543l-3.846-1.709v-3.28a8.89,8.89,0,0,0,3.406-4.7h.364a3.771,3.771,0,1,0,0-7.541V16.8a8.8,8.8,0,1,0-17.6,0v2.514a3.771,3.771,0,1,0,0,7.541h.364a8.89,8.89,0,0,0,3.406,4.7v3.28l-3.859,1.709A12.581,12.581,0,0,0,14,48.031v1.445a1.257,1.257,0,0,0,1.257,1.257H45.422a1.257,1.257,0,0,0,1.257-1.257V48.031a12.569,12.569,0,0,0-7.467-11.488Zm-.075-14.718a1.257,1.257,0,1,1,0,2.514Zm-17.6,2.514a1.257,1.257,0,0,1,0-2.514ZM36.372,38.027l-.578,2.891L33.72,39.246l.98-1.961ZM24.055,16.8a6.284,6.284,0,1,1,12.569,0v.088a9.7,9.7,0,0,0-1.257-.088,13.024,13.024,0,0,0-5.518,1.357,10.837,10.837,0,0,1-4.537,1.156,6.312,6.312,0,0,1-1.257-.113Zm0,7.541v-2.6a9.7,9.7,0,0,0,1.257.088,13.024,13.024,0,0,0,5.518-1.357,10.837,10.837,0,0,1,4.537-1.156,6.312,6.312,0,0,1,1.257.113v4.914a6.284,6.284,0,0,1-12.569,0Zm8.8,8.434v2.577l-2.514,5.027-2.514-5.027V32.773A8.851,8.851,0,0,0,32.853,32.773Zm-6.875,4.512.98,1.961-2.074,1.672-.578-2.891ZM44.165,48.22H16.514v-.189a10.055,10.055,0,0,1,5.442-8.911l.867,4.324a1.257,1.257,0,0,0,.8.93,1.224,1.224,0,0,0,.427.075,1.257,1.257,0,0,0,.779-.277l3.28-2.627,1.106,2.212a1.257,1.257,0,0,0,2.237,0l1.106-2.212,3.28,2.627a1.257,1.257,0,0,0,.779.277,1.224,1.224,0,0,0,.427-.075,1.257,1.257,0,0,0,.8-.93l.867-4.324a10.055,10.055,0,0,1,5.442,8.911Z" transform="translate(2.312 1.541)" fill="#8c6df2"/>
      <path id="Trazado_226284" data-name="Trazado 226284" d="M57.788,68.614A6.292,6.292,0,0,1,51.5,74.9H13.8a6.292,6.292,0,0,1-6.284-6.284V10.8A6.292,6.292,0,0,1,13.8,4.514H42.706v8.8a1.257,1.257,0,0,0,2.145.889l2.882-2.882L50.616,14.2a1.257,1.257,0,0,0,2.145-.889V4.639A6.3,6.3,0,0,1,57.788,10.8V35.935H60.3V10.8A8.808,8.808,0,0,0,51.5,2H13.8A8.808,8.808,0,0,0,5,10.8V68.614a8.808,8.808,0,0,0,8.8,8.8H51.5a8.808,8.808,0,0,0,8.8-8.8V63.587H57.788ZM48.622,8.653a1.257,1.257,0,0,0-1.777,0L45.22,10.278V4.514h5.027v5.764Z" transform="translate(0)" fill="#8c6df2"/>
      <path id="Trazado_226285" data-name="Trazado 226285" d="M29,52H41.569v2.514H29Z" transform="translate(6.165 12.843)" fill="#8c6df2"/>
      <path id="Trazado_226286" data-name="Trazado 226286" d="M62.82,29.07a4.909,4.909,0,0,0-2.338-3.042,5.017,5.017,0,0,0-6.862,1.835L41.679,48.539a1.3,1.3,0,0,0-.176.553L41,57.513a1.257,1.257,0,0,0,1.948,1.119l7.038-4.638a1.155,1.155,0,0,0,.39-.427l11.94-20.675a4.956,4.956,0,0,0,.5-3.821ZM43.665,55.15l.226-3.871,3.016,1.734Zm5.166-3.921-4.349-2.514,8.8-15.246,4.349,2.514ZM60.143,31.634l-1.257,2.174-4.349-2.514,1.257-2.174a2.514,2.514,0,0,1,4.6.6,2.475,2.475,0,0,1-.251,1.91Z" transform="translate(9.247 5.998)" fill="#8c6df2"/>
      <path id="Trazado_226287" data-name="Trazado 226287" d="M14,44h2.514v2.514H14Z" transform="translate(2.312 10.788)" fill="#8c6df2"/>
      <path id="Trazado_226288" data-name="Trazado 226288" d="M18,44H30.569v2.514H18Z" transform="translate(3.339 10.788)" fill="#8c6df2"/>
      <path id="Trazado_226289" data-name="Trazado 226289" d="M14,48H31.6v2.514H14Z" transform="translate(2.312 11.816)" fill="#8c6df2"/>
    </g>
  </g>
</svg>
