<svg xmlns="http://www.w3.org/2000/svg" width="109" height="109" viewBox="0 0 109 109">
  <g id="Grupo_147582" data-name="Grupo 147582" transform="translate(-167.667 -6737)">
    <g id="Grupo_138785" data-name="Grupo 138785" transform="translate(-91 5275)">
      <path id="Trazado_128427" data-name="Trazado 128427" d="M54.5,0A54.5,54.5,0,1,1,0,54.5,54.5,54.5,0,0,1,54.5,0Z" transform="translate(258.667 1462)" fill="#5038a1"/>
    </g>
    <g id="lavado-de-autos" transform="translate(183.76 6750.837)">
      <path id="Trazado_227356" data-name="Trazado 227356" d="M14.782,27.347a72.649,72.649,0,0,0-7.417-.7c-1.089-.067-2.524.5-2.772,3.245a6.358,6.358,0,0,0,.2,2.052,3.566,3.566,0,0,0,2.971,2.711l10.613,1.494a.962.962,0,0,0,.16.013A1.2,1.2,0,0,0,19.6,34.4C16.108,27.756,15.213,27.48,14.782,27.347ZM8.1,32.271a1.179,1.179,0,0,1-.97-.9,4.079,4.079,0,0,1-.138-1.265,2.535,2.535,0,0,1,.242-1.055h.034c2.742.172,5.825.42,6.661.568a29.057,29.057,0,0,1,2.415,3.818Z" transform="translate(2.689 9.436)" fill="#fff"/>
      <path id="Trazado_227357" data-name="Trazado 227357" d="M46.342,26.643a72.647,72.647,0,0,0-7.417.7c-.431.133-1.328.409-4.823,7.055a1.2,1.2,0,0,0,1.065,1.764.962.962,0,0,0,.16-.013l10.613-1.494a3.566,3.566,0,0,0,2.971-2.711,6.388,6.388,0,0,0,.2-2.052C48.864,27.143,47.421,26.577,46.342,26.643Zm.239,4.728a1.178,1.178,0,0,1-.97.9l-8.243,1.161a29.332,29.332,0,0,1,2.413-3.818c.85-.149,3.936-.4,6.677-.568a2.2,2.2,0,0,1,.261,1.06,4.074,4.074,0,0,1-.138,1.265Z" transform="translate(20.419 9.436)" fill="#fff"/>
      <path id="Trazado_227358" data-name="Trazado 227358" d="M46.99,27.972a1.206,1.206,0,0,0-1.09-.51c-.111.01-11.156.962-15.553.962s-15.444-.962-15.553-.962A1.2,1.2,0,0,0,13.6,29.171l3.167,6.72a1.207,1.207,0,0,0,1.018.688L30.34,37.3l12.572-.718a1.2,1.2,0,0,0,1.018-.688l3.167-6.72A1.2,1.2,0,0,0,46.99,27.972Zm-4.935,6.253L30.343,34.9l-11.7-.677-1.974-4.188c3.462.282,10.324.8,13.683.8s10.223-.52,13.687-.8Z" transform="translate(8.065 9.931)" fill="#fff"/>
      <path id="Trazado_227362" data-name="Trazado 227362" d="M49.839,42.371a1.2,1.2,0,0,0-1.2,1.2v4.993a.425.425,0,0,1-.425.425H41.965a.425.425,0,0,1-.425-.425V46.508a1.2,1.2,0,0,0-2.405,0v2.059a2.833,2.833,0,0,0,2.83,2.83h6.253a2.833,2.833,0,0,0,2.83-2.83V43.574a1.2,1.2,0,0,0-1.209-1.2Z" transform="translate(23.54 18.93)" fill="#fff"/>
      <path id="Trazado_227363" data-name="Trazado 227363" d="M12.092,45.3a1.2,1.2,0,0,0-1.2,1.2v2.059a.425.425,0,0,1-.423.425H4.212a.425.425,0,0,1-.423-.425V43.574a1.2,1.2,0,0,0-2.405,0v4.993A2.832,2.832,0,0,0,4.209,51.4h6.253a2.832,2.832,0,0,0,2.828-2.83V46.508A1.2,1.2,0,0,0,12.092,45.3Z" transform="translate(0.761 18.93)" fill="#fff"/>
      <path id="Trazado_227364" data-name="Trazado 227364" d="M74.371,23.6,70.362,22.9a2.62,2.62,0,0,0-2.886,1.55l-.216.481-2.841-6.7a9.755,9.755,0,0,0-7.485-5.875A119.854,119.854,0,0,0,38.408,11a119.852,119.852,0,0,0-18.526,1.358A9.755,9.755,0,0,0,12.4,18.232L9.547,24.94l-.2-.471A2.628,2.628,0,0,0,6.459,22.9L2.45,23.6A2.784,2.784,0,0,0,.122,26.342v.787a2.8,2.8,0,0,0,2.184,2.726l3.806.859L4.426,33.288a13.61,13.61,0,0,0-2.237,7.488V54.453c0,5.161,3.595,8.5,9.162,8.5H65.465c5.567,0,9.162-3.335,9.162-8.5V40.769a13.61,13.61,0,0,0-2.237-7.488L70.7,30.716,74.5,29.86a2.8,2.8,0,0,0,2.2-2.726v-.787A2.782,2.782,0,0,0,74.371,23.6ZM2.824,27.5a.38.38,0,0,1-.3-.372v-.787a.374.374,0,0,1,.321-.375l4.026-.7a.237.237,0,0,1,.268.16l.983,2.222-.6.914Zm69.4,23.216H7.642a1.2,1.2,0,0,0,0,2.405h64.58v1.331c0,3.813-2.525,6.093-6.757,6.093H11.351c-4.231,0-6.757-2.278-6.757-6.093V40.769A11.224,11.224,0,0,1,6.436,34.6l3.79-5.782H62.691a1.2,1.2,0,1,0,0-2.405H11.54l3.072-7.235a7.356,7.356,0,0,1,5.647-4.438,117.087,117.087,0,0,1,18.149-1.334,117.087,117.087,0,0,1,18.149,1.329A7.356,7.356,0,0,1,62.2,19.178l3.515,8.285a1.073,1.073,0,0,0,.1.189l4.56,6.954a11.224,11.224,0,0,1,1.842,6.17Zm2.065-23.588a.383.383,0,0,1-.306.375L69.3,28.562l-.6-.914.989-2.245a.242.242,0,0,1,.261-.138l4.018.7a.374.374,0,0,1,.321.375Z" transform="translate(0 0)" fill="#fff"/>
    </g>
  </g>
</svg>
