<svg xmlns="http://www.w3.org/2000/svg" width="136.973" height="136.973" viewBox="0 0 136.973 136.973">
  <g id="Grupo_170652" data-name="Grupo 170652" transform="translate(-1086.1 -3533.017)">
    <g id="Grupo_159901" data-name="Grupo 159901" transform="translate(1086.1 3533.017)">
      <g id="Trazado_137458" data-name="Trazado 137458" transform="translate(0 0)" fill="#fff">
        <path d="M 68.48631286621094 131.9726409912109 C 59.91350936889648 131.9726409912109 51.59981155395508 130.2947692871094 43.77611541748047 126.9856185913086 C 40.01535797119141 125.3949661254883 36.38774871826172 123.4259033203125 32.9940071105957 121.1331405639648 C 29.6312255859375 118.8612899780273 26.46885681152344 116.2520523071289 23.5947265625 113.3779220581055 C 20.72059631347656 110.503791809082 18.11135673522949 107.341423034668 15.83950805664062 103.9786376953125 C 13.5467472076416 100.5848999023438 11.57768249511719 96.95726776123047 9.987030029296875 93.196533203125 C 6.677877902984619 85.37283325195312 5.000008583068848 77.05912017822266 5.000008583068848 68.48631286621094 C 5.000008583068848 59.91350936889648 6.677877902984619 51.59981155395508 9.987030029296875 43.77611541748047 C 11.57768249511719 40.01535797119141 13.5467472076416 36.38774871826172 15.83950805664062 32.9940071105957 C 18.11135673522949 29.6312255859375 20.72059631347656 26.46885681152344 23.5947265625 23.5947265625 C 26.46885681152344 20.72059631347656 29.6312255859375 18.11135673522949 32.9940071105957 15.83950805664062 C 36.38774871826172 13.5467472076416 40.01535797119141 11.57768249511719 43.77611541748047 9.987030029296875 C 51.59981155395508 6.677877902984619 59.91350936889648 5.000008583068848 68.48631286621094 5.000008583068848 C 77.05912017822266 5.000008583068848 85.37283325195312 6.677877902984619 93.196533203125 9.987030029296875 C 96.95726776123047 11.57768249511719 100.5848999023438 13.5467472076416 103.9786376953125 15.83950805664062 C 107.341423034668 18.11135673522949 110.503791809082 20.72059631347656 113.3779220581055 23.5947265625 C 116.2520523071289 26.46885681152344 118.8612899780273 29.6312255859375 121.1331405639648 32.9940071105957 C 123.4259033203125 36.38774871826172 125.3949661254883 40.01535797119141 126.9856185913086 43.77611541748047 C 130.2947692871094 51.59981155395508 131.9726409912109 59.91350936889648 131.9726409912109 68.48631286621094 C 131.9726409912109 77.05912017822266 130.2947692871094 85.37283325195312 126.9856185913086 93.196533203125 C 125.3949661254883 96.95726776123047 123.4259033203125 100.5848999023438 121.1331405639648 103.9786376953125 C 118.8612899780273 107.341423034668 116.2520523071289 110.503791809082 113.3779220581055 113.3779220581055 C 110.503791809082 116.2520523071289 107.341423034668 118.8612899780273 103.9786376953125 121.1331405639648 C 100.5848999023438 123.4259033203125 96.95726776123047 125.3949661254883 93.196533203125 126.9856185913086 C 85.37283325195312 130.2947692871094 77.05912017822266 131.9726409912109 68.48631286621094 131.9726409912109 Z" stroke="none"/>
        <path d="M 68.48631286621094 10.00000762939453 C 36.23686981201172 10.00000762939453 10.00000762939453 36.23686981201172 10.00000762939453 68.48631286621094 C 10.00000762939453 100.7357559204102 36.23686981201172 126.9726181030273 68.48631286621094 126.9726181030273 C 100.7357559204102 126.9726181030273 126.9726181030273 100.7357559204102 126.9726181030273 68.48631286621094 C 126.9726181030273 36.23686981201172 100.7357559204102 10.00000762939453 68.48631286621094 10.00000762939453 M 68.48631286621094 0 C 106.3102569580078 0 136.9726257324219 30.66236877441406 136.9726257324219 68.48631286621094 C 136.9726257324219 106.3102569580078 106.3102569580078 136.9726257324219 68.48631286621094 136.9726257324219 C 30.66236877441406 136.9726257324219 0 106.3102569580078 0 68.48631286621094 C 0 30.66236877441406 30.66236877441406 0 68.48631286621094 0 Z" stroke="none" fill="#8c6df2"/>
      </g>
    </g>
    <g id="Grupo_170649" data-name="Grupo 170649" transform="translate(1088.212 3122.702)">
      <path id="Trazado_227385" data-name="Trazado 227385" d="M100.19,470.207l-8.326-8.1v-7.113a1.132,1.132,0,0,0-2.264,0v4.912l-6.091-5.925v-6.947H89.6v2.678a1.132,1.132,0,0,0,2.264,0v-2.678h.2a2.226,2.226,0,0,0,2.223-2.223v-3.579a2.226,2.226,0,0,0-2.223-2.223H81.046a2.226,2.226,0,0,0-2.223,2.223v3.579a2.225,2.225,0,0,0,2.223,2.223h.2v4.745L69.357,440.214a4.235,4.235,0,0,0-5.937,0L32.588,470.206a4.257,4.257,0,0,0,2.91,7.308h.06a4.228,4.228,0,0,0,2.967-1.206l.642-.625V508.25a2.225,2.225,0,0,0-2.193,2.221v3.579a2.226,2.226,0,0,0,2.223,2.223H93.581A2.226,2.226,0,0,0,95.8,514.05v-3.579a2.225,2.225,0,0,0-2.193-2.221V475.684l.642.625h0a4.257,4.257,0,0,0,5.937-6.1Zm-19.1-28.934H92.024v3.5H81.086ZM93.54,514.01h-54.3v-3.5h54.3Zm-46.073-31H62.7v25.238H47.467Zm43.88,25.238H64.968V477.227a1.978,1.978,0,0,0-1.976-1.976H57.727a1.132,1.132,0,1,0,0,2.264H62.7v3.231H47.467v-3.231h4.978a1.132,1.132,0,0,0,0-2.264H47.179a1.978,1.978,0,0,0-1.975,1.976v31.021H41.43V473.482L66.389,449.2l24.959,24.278Zm7.3-33.6a2,2,0,0,1-2.819.039L67.178,446.814a1.132,1.132,0,0,0-1.578,0L36.946,474.687a1.993,1.993,0,0,1-2.78-2.858L65,441.837a1.983,1.983,0,0,1,2.78,0l30.833,29.992a1.993,1.993,0,0,1,.039,2.819Z" transform="translate(0 0)" fill="#8c6df2"/>
      <path id="Trazado_227386" data-name="Trazado 227386" d="M148.4,582.894h15.814a1.978,1.978,0,0,0,1.976-1.976V555.287a1.978,1.978,0,0,0-1.976-1.976H148.4a1.978,1.978,0,0,0-1.976,1.976v25.631A1.978,1.978,0,0,0,148.4,582.894Zm15.526-21.824v8.649h-6.487v-8.649Zm-8.75,8.649h-6.487v-8.649h6.487Zm-6.487,2.264h6.487v8.648h-6.487Zm8.751,8.648v-8.648h6.487v8.648Zm6.487-25.055v3.231H148.691v-3.231Z" transform="translate(-78.618 -78.06)" fill="#8c6df2"/>
      <path id="Trazado_227387" data-name="Trazado 227387" d="M107.351,601.845a3.4,3.4,0,1,0,3.4,3.4A3.4,3.4,0,0,0,107.351,601.845Zm0,4.531a1.134,1.134,0,1,1,1.134-1.134A1.135,1.135,0,0,1,107.351,606.376Z" transform="translate(-49.614 -111.202)" fill="#8c6df2"/>
    </g>
  </g>
</svg>
