<svg xmlns="http://www.w3.org/2000/svg" width="136.973" height="136.973" viewBox="0 0 136.973 136.973">
  <g id="Grupo_170654" data-name="Grupo 170654" transform="translate(-735.1 -3912.017)">
    <g id="Grupo_159909" data-name="Grupo 159909" transform="translate(735.1 3912.017)">
      <g id="Trazado_137458" data-name="Trazado 137458" transform="translate(0 0)" fill="#fff">
        <path d="M 68.48631286621094 131.9726409912109 C 59.91350936889648 131.9726409912109 51.59981155395508 130.2947692871094 43.77611541748047 126.9856185913086 C 40.01535797119141 125.3949661254883 36.38774871826172 123.4259033203125 32.9940071105957 121.1331405639648 C 29.6312255859375 118.8612899780273 26.46885681152344 116.2520523071289 23.5947265625 113.3779220581055 C 20.72059631347656 110.503791809082 18.11135673522949 107.341423034668 15.83950805664062 103.9786376953125 C 13.5467472076416 100.5848999023438 11.57768249511719 96.95726776123047 9.987030029296875 93.196533203125 C 6.677877902984619 85.37283325195312 5.000008583068848 77.05912017822266 5.000008583068848 68.48631286621094 C 5.000008583068848 59.91350936889648 6.677877902984619 51.59981155395508 9.987030029296875 43.77611541748047 C 11.57768249511719 40.01535797119141 13.5467472076416 36.38774871826172 15.83950805664062 32.9940071105957 C 18.11135673522949 29.6312255859375 20.72059631347656 26.46885681152344 23.5947265625 23.5947265625 C 26.46885681152344 20.72059631347656 29.6312255859375 18.11135673522949 32.9940071105957 15.83950805664062 C 36.38774871826172 13.5467472076416 40.01535797119141 11.57768249511719 43.77611541748047 9.987030029296875 C 51.59981155395508 6.677877902984619 59.91350936889648 5.000008583068848 68.48631286621094 5.000008583068848 C 77.05912017822266 5.000008583068848 85.37283325195312 6.677877902984619 93.196533203125 9.987030029296875 C 96.95726776123047 11.57768249511719 100.5848999023438 13.5467472076416 103.9786376953125 15.83950805664062 C 107.341423034668 18.11135673522949 110.503791809082 20.72059631347656 113.3779220581055 23.5947265625 C 116.2520523071289 26.46885681152344 118.8612899780273 29.6312255859375 121.1331405639648 32.9940071105957 C 123.4259033203125 36.38774871826172 125.3949661254883 40.01535797119141 126.9856185913086 43.77611541748047 C 130.2947692871094 51.59981155395508 131.9726409912109 59.91350936889648 131.9726409912109 68.48631286621094 C 131.9726409912109 77.05912017822266 130.2947692871094 85.37283325195312 126.9856185913086 93.196533203125 C 125.3949661254883 96.95726776123047 123.4259033203125 100.5848999023438 121.1331405639648 103.9786376953125 C 118.8612899780273 107.341423034668 116.2520523071289 110.503791809082 113.3779220581055 113.3779220581055 C 110.503791809082 116.2520523071289 107.341423034668 118.8612899780273 103.9786376953125 121.1331405639648 C 100.5848999023438 123.4259033203125 96.95726776123047 125.3949661254883 93.196533203125 126.9856185913086 C 85.37283325195312 130.2947692871094 77.05912017822266 131.9726409912109 68.48631286621094 131.9726409912109 Z" stroke="none"/>
        <path d="M 68.48631286621094 10.00000762939453 C 36.23686981201172 10.00000762939453 10.00000762939453 36.23686981201172 10.00000762939453 68.48631286621094 C 10.00000762939453 100.7357559204102 36.23686981201172 126.9726181030273 68.48631286621094 126.9726181030273 C 100.7357559204102 126.9726181030273 126.9726181030273 100.7357559204102 126.9726181030273 68.48631286621094 C 126.9726181030273 36.23686981201172 100.7357559204102 10.00000762939453 68.48631286621094 10.00000762939453 M 68.48631286621094 0 C 106.3102569580078 0 136.9726257324219 30.66236877441406 136.9726257324219 68.48631286621094 C 136.9726257324219 106.3102569580078 106.3102569580078 136.9726257324219 68.48631286621094 136.9726257324219 C 30.66236877441406 136.9726257324219 0 106.3102569580078 0 68.48631286621094 C 0 30.66236877441406 30.66236877441406 0 68.48631286621094 0 Z" stroke="none" fill="#8c6df2"/>
      </g>
    </g>
    <g id="juego-de-cartas" transform="translate(766.323 3941.725)">
      <path id="Trazado_227388" data-name="Trazado 227388" d="M144,400h2.424v2.424H144Z" transform="translate(-122.187 -339.41)" fill="#8c6df2"/>
      <path id="Trazado_227389" data-name="Trazado 227389" d="M416,24h2.424v2.424H416Z" transform="translate(-352.986 -20.365)" fill="#8c6df2"/>
      <path id="Trazado_227390" data-name="Trazado 227390" d="M32,144h2.424v2.424H32Z" transform="translate(-27.153 -122.187)" fill="#8c6df2"/>
      <path id="Trazado_227391" data-name="Trazado 227391" d="M8.483,212.241a4.241,4.241,0,1,0-4.241,4.241,4.241,4.241,0,0,0,4.241-4.241Zm-4.241,1.818a1.818,1.818,0,1,1,1.818-1.818A1.818,1.818,0,0,1,4.241,214.059Z" transform="translate(0 -176.493)" fill="#8c6df2"/>
      <path id="Trazado_227392" data-name="Trazado 227392" d="M380.241,360a4.241,4.241,0,1,0,4.241,4.241A4.241,4.241,0,0,0,380.241,360Zm0,6.059a1.818,1.818,0,1,1,1.818-1.818A1.818,1.818,0,0,1,380.241,366.059Z" transform="translate(-319.045 -305.469)" fill="#8c6df2"/>
      <path id="Trazado_227393" data-name="Trazado 227393" d="M429.914,200.079l-3.605-1.972-1.972-3.605a1.212,1.212,0,0,0-2.126,0l-1.972,3.605-3.605,1.972a1.212,1.212,0,0,0,0,2.126l3.605,1.972,1.972,3.605a1.212,1.212,0,0,0,2.126,0l1.972-3.605,3.605-1.972a1.212,1.212,0,0,0,0-2.126Zm-5.08,2.142a1.212,1.212,0,0,0-.482.482l-1.079,1.973-1.079-1.973a1.211,1.211,0,0,0-.482-.482l-1.973-1.079,1.973-1.079a1.212,1.212,0,0,0,.482-.482l1.079-1.973,1.079,1.973a1.213,1.213,0,0,0,.482.482l1.973,1.079Z" transform="translate(-352.989 -164.504)" fill="#8c6df2"/>
      <path id="Trazado_227394" data-name="Trazado 227394" d="M53.914,310.209l-3.605-1.972-1.972-3.605a1.212,1.212,0,0,0-2.126,0l-1.972,3.605-3.605,1.972a1.212,1.212,0,0,0,0,2.126l3.605,1.972,1.972,3.605a1.212,1.212,0,0,0,2.126,0l1.972-3.605,3.605-1.972a1.212,1.212,0,0,0,0-2.126Zm-5.08,2.142a1.213,1.213,0,0,0-.482.482l-1.079,1.973-1.079-1.973a1.213,1.213,0,0,0-.482-.482l-1.973-1.079,1.973-1.079a1.213,1.213,0,0,0,.482-.482l1.079-1.973,1.079,1.973a1.213,1.213,0,0,0,.482.482l1.973,1.079Z" transform="translate(-33.944 -257.952)" fill="#8c6df2"/>
      <path id="Trazado_227395" data-name="Trazado 227395" d="M77.935,47.878a7.3,7.3,0,0,0-2.128-9.664l-.067-.046,14.7-21.735a1.212,1.212,0,0,0-.389-1.724L69.452,2.59a1.212,1.212,0,0,0-1.617.364l-1.422,2.09V1.212A1.212,1.212,0,0,0,65.2,0H43.389a1.212,1.212,0,0,0-1.212,1.212V1.6L24.762,8.569a1.212,1.212,0,0,0-.648,1.638L41.079,46.561a1.211,1.211,0,0,0,1.564.606l2.764-1.151,2.919,3.9.024.031a5.026,5.026,0,0,1,1.1,3.128V77.556h2.424V60.431a11.492,11.492,0,0,1,2.777-7.008c2.265-2.481,5.816-3.738,10.553-3.738a1.212,1.212,0,0,0,.946-.454L71,43.171a1.212,1.212,0,0,0-.4-1.841,12.236,12.236,0,0,1-3.132-2.462,8.481,8.481,0,0,1-2.369-5.126l9.337,6.464a4.867,4.867,0,0,1,1.441,6.405L66.63,59.9a1.212,1.212,0,0,0-.217.692V77.556h2.424V60.97l9.048-13.015q.026-.038.05-.077ZM44.6,2.424H63.99V8.609l-4.913,7.225-3.361-3.361a1.212,1.212,0,0,0-1.714,0l-4.284,4.284a1.212,1.212,0,0,0,0,1.714L54,22.756a1.212,1.212,0,0,0,.242.186L47.234,33.249a1.212,1.212,0,0,0,.342,1.7l5.9,3.831H44.6ZM54.858,20.185l-2.571-2.571,2.571-2.571,2.571,2.571ZM26.852,10.344l15.325-6.13V39.99A1.212,1.212,0,0,0,43.389,41.2H50.66l-7.877,3.282ZM64.615,47.267c-5.158.106-9.111,1.626-11.755,4.522a12.1,12.1,0,0,0-.989,1.238,7.459,7.459,0,0,0-1.615-4.575l-2.541-3.4,9.4-3.915,8.164,5.3Zm1.057-6.761a15.154,15.154,0,0,0,2.573,2.224L66.8,44.538,49.935,33.588,69.2,5.255l18.51,10.888L73.747,36.788,64.68,30.511a1.212,1.212,0,0,0-1.885.8,10.659,10.659,0,0,0,2.877,9.2Z" transform="translate(-20.365)" fill="#8c6df2"/>
      <path id="Trazado_227396" data-name="Trazado 227396" d="M297.5,144.2h6.059a1.212,1.212,0,0,0,1.212-1.212v-6.059a1.212,1.212,0,0,0-1.212-1.212H297.5a1.212,1.212,0,0,0-1.212,1.212v6.059A1.212,1.212,0,0,0,297.5,144.2Zm1.212-6.059h3.635v3.635h-3.635Z" transform="translate(-251.404 -115.158)" fill="#8c6df2"/>
      <path id="Trazado_227397" data-name="Trazado 227397" d="M76.847,72H73.212A1.212,1.212,0,0,0,72,73.212v3.635a1.212,1.212,0,0,0,1.212,1.212h3.635a1.212,1.212,0,0,0,1.212-1.212V73.212A1.212,1.212,0,0,0,76.847,72Zm-1.212,3.635H74.424V74.424h1.212Z" transform="translate(-61.094 -61.094)" fill="#8c6df2"/>
      <path id="Trazado_227398" data-name="Trazado 227398" d="M171.782,29.622a1.208,1.208,0,0,0,.857-.355L175.21,26.7a1.212,1.212,0,0,0,0-1.714l-2.571-2.571a1.212,1.212,0,0,0-1.714,0l-2.571,2.571a1.212,1.212,0,0,0,0,1.714l2.571,2.571A1.208,1.208,0,0,0,171.782,29.622Zm0-4.639.857.857-.857.857-.857-.857Z" transform="translate(-142.552 -18.716)" fill="#8c6df2"/>
      <path id="Trazado_227399" data-name="Trazado 227399" d="M313.212,70.059h3.635a1.212,1.212,0,0,0,1.212-1.212V65.212A1.212,1.212,0,0,0,316.847,64h-3.635A1.212,1.212,0,0,0,312,65.212v3.635A1.212,1.212,0,0,0,313.212,70.059Zm1.212-3.635h1.212v1.212h-1.212Z" transform="translate(-264.739 -54.306)" fill="#8c6df2"/>
    </g>
  </g>
</svg>
