<svg xmlns="http://www.w3.org/2000/svg" width="400.754" height="318.333" viewBox="0 0 400.754 318.333">
  <g id="Grupo_171030" data-name="Grupo 171030" transform="translate(-179.514 -1421)">
    <rect id="Rectángulo_44549" data-name="Rectángulo 44549" width="400.754" height="318.334" rx="21" transform="translate(179.514 1421)" fill="#5038a1"/>
    <g id="Grupo_166405" data-name="Grupo 166405" transform="translate(248.499 1438.974)">
      <g id="Grupo_166423" data-name="Grupo 166423" transform="translate(3.867 23.886)">
        <g id="Grupo_166405-2" data-name="Grupo 166405" transform="translate(0 154.131)">
          <path id="Trazado_226298" data-name="Trazado 226298" d="M166.449,408.05H74.471A58.6,58.6,0,0,1,19.28,369.156L7.962,337.465A7.824,7.824,0,0,1,15.33,327.01H225.589a7.824,7.824,0,0,1,7.368,10.455l-11.318,31.69A58.6,58.6,0,0,1,166.449,408.05Z" transform="translate(-7.499 -327.01)" fill="#fedc72"/>
        </g>
        <g id="Grupo_166406" data-name="Grupo 166406" transform="translate(143.512 154.131)">
          <path id="Trazado_226299" data-name="Trazado 226299" d="M368.3,337.463l-11.322,31.693a58.6,58.6,0,0,1-55.187,38.893H286.35a58.6,58.6,0,0,0,55.187-38.893l11.322-31.693a7.825,7.825,0,0,0-7.37-10.453h15.44A7.825,7.825,0,0,1,368.3,337.463Z" transform="translate(-286.35 -327.01)" fill="#fdb74d"/>
        </g>
        <g id="Grupo_166417" data-name="Grupo 166417" transform="translate(10.228 18.796)">
          <g id="Grupo_166408" data-name="Grupo 166408" transform="translate(38.756)">
            <g id="Grupo_166407" data-name="Grupo 166407">
              <path id="Trazado_226300" data-name="Trazado 226300" d="M167.809,111.373S159.4,70.46,142.5,80.73c0,0-14.914-24.409-31.758-14.177s-2.059,34.718-2.059,34.718C91.77,111.542,124.2,137.86,124.2,137.86c-16.573,7.814,27.843,45.839,27.843,45.839l43.607-26.487S182.383,100.268,167.809,111.373Z" transform="translate(-102.678 -64.048)" fill="#fedc72"/>
            </g>
          </g>
          <g id="Grupo_166410" data-name="Grupo 166410" transform="translate(47.784 0.002)">
            <g id="Grupo_166409" data-name="Grupo 166409">
              <path id="Trazado_226301" data-name="Trazado 226301" d="M204.166,157.213,160.559,183.7s-2.548-2.182-6.2-5.615l34.369-20.874s-11.148-47.847-24.233-47.271a4.635,4.635,0,0,1-4.778-3.336c-2.607-9.6-9.577-30.13-20.948-27.257a5.352,5.352,0,0,1-5.536-1.945c-2.621-3.41-7.264-8.6-13.012-11.4,16.443-8.754,30.792,14.724,30.792,14.724,16.906-10.267,25.311,30.643,25.311,30.643C190.9,100.272,204.166,157.213,204.166,157.213Z" transform="translate(-120.22 -64.051)" fill="#fdb74d"/>
            </g>
          </g>
          <g id="Grupo_166411" data-name="Grupo 166411" transform="translate(0 107.334)">
            <path id="Trazado_226302" data-name="Trazado 226302" d="M68.2,300.6H41.368a13.994,13.994,0,0,1-13.995-13.995h0a14,14,0,0,1,18.543-13.235L68.2,281.031Z" transform="translate(-27.373 -272.603)" fill="#fedc72"/>
          </g>
          <g id="Grupo_166412" data-name="Grupo 166412" transform="translate(6.761 107.333)">
            <path id="Trazado_226303" data-name="Trazado 226303" d="M74.575,281.03V300.6H59.135V285.388a6.105,6.105,0,0,0-4.121-5.774l-14.5-4.986a13.9,13.9,0,0,1,7.21-2.028,14.042,14.042,0,0,1,4.57.772Z" transform="translate(-40.51 -272.6)" fill="#fdb74d"/>
          </g>
          <g id="Grupo_166413" data-name="Grupo 166413" transform="translate(105.13 58.48)">
            <path id="Trazado_226304" data-name="Trazado 226304" d="M324.47,187.037c-21.6-21.059-42.657,0-42.657,0s-21.059-21.059-42.657,0c-22.583,22.019,12.959,67.5,12.959,67.5h59.4S347.053,209.055,324.47,187.037Z" transform="translate(-231.645 -177.677)" fill="#fedc72"/>
          </g>
          <g id="Grupo_166414" data-name="Grupo 166414" transform="translate(169.459 58.481)">
            <path id="Trazado_226305" data-name="Trazado 226305" d="M372.177,254.533h-15.44s35.542-45.475,12.959-67.5a32.851,32.851,0,0,0-13.057-8.188c7.854-2.321,18.111-1.935,28.5,8.188C407.72,209.058,372.177,254.533,372.177,254.533Z" transform="translate(-356.64 -177.679)" fill="#fdb74d"/>
          </g>
          <g id="Grupo_166415" data-name="Grupo 166415" transform="translate(40.825 93.918)">
            <path id="Trazado_226306" data-name="Trazado 226306" d="M229.707,287.951H106.7V268.379a21.836,21.836,0,0,1,26.675-21.293l77.835,17.688a23.768,23.768,0,0,1,18.5,23.177Z" transform="translate(-106.697 -246.534)" fill="#fdb74d"/>
          </g>
          <g id="Grupo_166416" data-name="Grupo 166416" transform="translate(55.288 93.919)">
            <path id="Trazado_226307" data-name="Trazado 226307" d="M243.346,287.953h-15.44a23.772,23.772,0,0,0-18.5-23.18L134.8,247.82a21.643,21.643,0,0,1,12.213-.731l77.831,17.684A23.772,23.772,0,0,1,243.346,287.953Z" transform="translate(-134.8 -246.536)" fill="#f4a742"/>
          </g>
        </g>
        <g id="Grupo_166422" data-name="Grupo 166422" transform="translate(164.2 0)">
          <g id="Grupo_166418" data-name="Grupo 166418">
            <path id="Trazado_226308" data-name="Trazado 226308" d="M408.25,119.11H336.43a9.882,9.882,0,0,1-9.882-9.882V37.408a9.882,9.882,0,0,1,9.882-9.882h71.819a9.882,9.882,0,0,1,9.882,9.882v71.819A9.882,9.882,0,0,1,408.25,119.11Z" transform="translate(-326.548 -27.526)" fill="#fedc72"/>
          </g>
          <g id="Grupo_166419" data-name="Grupo 166419" transform="translate(66.263 0.002)">
            <path id="Trazado_226309" data-name="Trazado 226309" d="M480.621,37.411v71.82a9.884,9.884,0,0,1-9.881,9.881H455.3a9.884,9.884,0,0,0,9.881-9.881V37.411A9.881,9.881,0,0,0,455.3,27.53h15.44A9.881,9.881,0,0,1,480.621,37.411Z" transform="translate(-455.3 -27.53)" fill="#fdb74d"/>
          </g>
          <g id="Grupo_166421" data-name="Grupo 166421" transform="translate(18.329 25.318)">
            <g id="Grupo_166420" data-name="Grupo 166420">
              <path id="Trazado_226310" data-name="Trazado 226310" d="M383.126,117.668a6.963,6.963,0,0,1-4.94-2.046l-13.978-13.978a6.985,6.985,0,0,1,9.879-9.879l9.038,9.038,22.037-22.037a6.985,6.985,0,0,1,9.879,9.879l-26.976,26.976A6.959,6.959,0,0,1,383.126,117.668Z" transform="translate(-362.162 -76.72)" fill="#f2fbff"/>
            </g>
          </g>
        </g>
      </g>
      <g id="Grupo_166437" data-name="Grupo 166437" transform="translate(0.015 20.026)">
        <g id="Grupo_166424" data-name="Grupo 166424" transform="translate(0 154.131)">
          <path id="Trazado_226311" data-name="Trazado 226311" d="M162.817,408.269H70.838a62.6,62.6,0,0,1-58.826-41.456L.694,335.123a11.684,11.684,0,0,1,11-15.614H54.919a3.86,3.86,0,0,1,0,7.72H11.7a3.964,3.964,0,0,0-3.733,5.3l11.318,31.69a54.861,54.861,0,0,0,51.556,36.332h91.978a54.862,54.862,0,0,0,51.556-36.332l11.318-31.69a3.964,3.964,0,0,0-3.733-5.3H72.921a3.86,3.86,0,0,1,0-7.72H221.957a11.684,11.684,0,0,1,11,15.614l-11.318,31.69A62.6,62.6,0,0,1,162.817,408.269Z" transform="translate(-0.015 -319.509)" fill="#8c6df2"/>
        </g>
        <g id="Grupo_166432" data-name="Grupo 166432" transform="translate(10.22 18.765)">
          <g id="Grupo_166425" data-name="Grupo 166425" transform="translate(40.825 93.95)">
            <path id="Trazado_226312" data-name="Trazado 226312" d="M226.068,288.172a3.86,3.86,0,0,1-3.86-3.86,19.806,19.806,0,0,0-15.5-19.413l-77.835-17.688a17.977,17.977,0,0,0-21.959,17.529v19.572a3.86,3.86,0,1,1-7.72,0V264.74a25.7,25.7,0,0,1,31.389-25.057l77.835,17.688a27.487,27.487,0,0,1,21.506,26.941A3.86,3.86,0,0,1,226.068,288.172Z" transform="translate(-99.197 -239.036)" fill="#8c6df2"/>
          </g>
          <g id="Grupo_166426" data-name="Grupo 166426" transform="translate(0 107.355)">
            <path id="Trazado_226313" data-name="Trazado 226313" d="M64.558,300.814H37.727a17.875,17.875,0,0,1-17.854-17.854A17.854,17.854,0,0,1,43.53,266.074l22.282,7.658a3.86,3.86,0,0,1,2.606,3.65v19.572A3.86,3.86,0,0,1,64.558,300.814Zm-26.862-28a10.16,10.16,0,0,0-10.1,10.146,10.146,10.146,0,0,0,10.135,10.135H60.7V280.137l-19.676-6.763A10.225,10.225,0,0,0,37.7,272.813Z" transform="translate(-19.873 -265.083)" fill="#8c6df2"/>
          </g>
          <g id="Grupo_166427" data-name="Grupo 166427" transform="translate(125.6 72.819)">
            <path id="Trazado_226314" data-name="Trazado 226314" d="M327.176,268.246h-59.4a3.86,3.86,0,1,1,0-7.72h57.458c5.189-7.145,26.434-38.391,15.5-56.708a3.86,3.86,0,1,1,6.629-3.956c15.037,25.2-15.832,65.21-17.154,66.9A3.859,3.859,0,0,1,327.176,268.246Z" transform="translate(-263.92 -197.979)" fill="#8c6df2"/>
          </g>
          <g id="Grupo_166428" data-name="Grupo 166428" transform="translate(105.163 58.498)">
            <path id="Trazado_226315" data-name="Trazado 226315" d="M231.2,223.146a3.861,3.861,0,0,1-3.652-2.611c-5.831-17.042-4-30.845,5.306-39.916a40.157,40.157,0,0,1,9.6-7.052c20.338-10.448,37.721,6.342,38.451,7.062l-2.705,2.754-2.73,2.729,0-.005c-.548-.54-14.059-13.6-29.485-5.673a32.481,32.481,0,0,0-7.74,5.712c-7.117,6.939-8.258,17.669-3.392,31.89a3.863,3.863,0,0,1-3.652,5.111Z" transform="translate(-224.209 -170.152)" fill="#8c6df2"/>
          </g>
          <g id="Grupo_166431" data-name="Grupo 166431" transform="translate(38.745)">
            <g id="Grupo_166429" data-name="Grupo 166429">
              <path id="Trazado_226316" data-name="Trazado 226316" d="M123.647,158.175a3.854,3.854,0,0,1-3.1-1.557c-6.091-8.192-8.461-14.536-7.245-19.393a9.373,9.373,0,0,1,1.355-3.023c-6.454-5.842-19.074-18.716-18.339-29.493a12.4,12.4,0,0,1,3.783-8.155,52.41,52.41,0,0,1-4.133-11.661c-2.459-11.439.694-20.19,9.116-25.306s17.642-3.88,26.66,3.574a52.416,52.416,0,0,1,8.443,9.041,12.4,12.4,0,0,1,8.98.4c9.9,4.317,15.509,21.448,17.718,29.869a9.391,9.391,0,0,1,3.438.223c5.256,1.326,9.952,6.9,14.778,17.543a3.86,3.86,0,1,1-7.031,3.188c-5.138-11.331-8.674-13-9.634-13.245-.284-.072-.874-.221-1.937.589a3.86,3.86,0,0,1-6.12-2.294c-1.977-9.587-7.607-25.883-14.3-28.8-1.115-.486-2.717-.848-5.228.678a3.862,3.862,0,0,1-5.3-1.287c-.127-.206-13.12-20.991-26.462-12.888-13.4,8.139-.886,29.212-.758,29.424a3.86,3.86,0,0,1-1.3,5.295c-2.512,1.525-2.93,3.114-3.013,4.327-.5,7.28,11.368,19.79,18.966,25.964a3.861,3.861,0,0,1-.787,6.488c-1.193.563-1.338,1.139-1.408,1.417-.216.861-.424,4.338,5.951,12.912a3.86,3.86,0,0,1-3.094,6.163Z" transform="translate(-95.156 -56.488)" fill="#8c6df2"/>
            </g>
            <g id="Grupo_166430" data-name="Grupo 166430" transform="translate(16.542 16.487)">
              <path id="Trazado_226317" data-name="Trazado 226317" d="M184.167,183.527a3.858,3.858,0,0,1-3.3-1.857l-53-87.284a3.86,3.86,0,1,1,6.6-4.007l53,87.284a3.861,3.861,0,0,1-3.3,5.863Z" transform="translate(-127.298 -88.523)" fill="#8c6df2"/>
            </g>
          </g>
        </g>
        <g id="Grupo_166436" data-name="Grupo 166436" transform="translate(164.192)">
          <g id="Grupo_166433" data-name="Grupo 166433">
            <path id="Trazado_226318" data-name="Trazado 226318" d="M404.61,119.33H332.79a13.758,13.758,0,0,1-13.742-13.742V33.768A13.758,13.758,0,0,1,332.79,20.026h71.819a13.758,13.758,0,0,1,13.742,13.742v71.819A13.741,13.741,0,0,1,404.61,119.33ZM332.79,27.746a6.029,6.029,0,0,0-6.023,6.023v71.819a6.029,6.029,0,0,0,6.023,6.023H404.61a6.022,6.022,0,0,0,6.022-6.023V33.768a6.029,6.029,0,0,0-6.023-6.023Z" transform="translate(-319.048 -20.026)" fill="#8c6df2"/>
          </g>
          <g id="Grupo_166435" data-name="Grupo 166435" transform="translate(18.329 25.318)">
            <g id="Grupo_166434" data-name="Grupo 166434">
              <path id="Trazado_226319" data-name="Trazado 226319" d="M379.485,117.887a10.776,10.776,0,0,1-7.669-3.176l-13.978-13.978A10.845,10.845,0,1,1,373.177,85.4l6.308,6.309L398.792,72.4A10.845,10.845,0,1,1,414.13,87.735L387.154,114.71A10.77,10.77,0,0,1,379.485,117.887ZM365.507,89.939a3.126,3.126,0,0,0-2.21,5.336l13.978,13.978a3.124,3.124,0,0,0,4.419,0l26.977-26.977a3.126,3.126,0,1,0-4.42-4.42L382.214,99.892a3.86,3.86,0,0,1-5.459,0l-9.038-9.038A3.1,3.1,0,0,0,365.507,89.939Z" transform="translate(-354.662 -69.22)" fill="#8c6df2"/>
            </g>
          </g>
        </g>
      </g>
    </g>
  </g>
</svg>
