<svg xmlns="http://www.w3.org/2000/svg" width="136.973" height="136.973" viewBox="0 0 136.973 136.973">
  <g id="Grupo_170653" data-name="Grupo 170653" transform="translate(-384.1 -3912.017)">
    <g id="Grupo_159908" data-name="Grupo 159908" transform="translate(384.1 3912.017)">
      <g id="Trazado_137458" data-name="Trazado 137458" transform="translate(0 0)" fill="#fff">
        <path d="M 68.48631286621094 131.9726409912109 C 59.91350936889648 131.9726409912109 51.59981155395508 130.2947692871094 43.77611541748047 126.9856185913086 C 40.01535797119141 125.3949661254883 36.38774871826172 123.4259033203125 32.9940071105957 121.1331405639648 C 29.6312255859375 118.8612899780273 26.46885681152344 116.2520523071289 23.5947265625 113.3779220581055 C 20.72059631347656 110.503791809082 18.11135673522949 107.341423034668 15.83950805664062 103.9786376953125 C 13.5467472076416 100.5848999023438 11.57768249511719 96.95726776123047 9.987030029296875 93.196533203125 C 6.677877902984619 85.37283325195312 5.000008583068848 77.05912017822266 5.000008583068848 68.48631286621094 C 5.000008583068848 59.91350936889648 6.677877902984619 51.59981155395508 9.987030029296875 43.77611541748047 C 11.57768249511719 40.01535797119141 13.5467472076416 36.38774871826172 15.83950805664062 32.9940071105957 C 18.11135673522949 29.6312255859375 20.72059631347656 26.46885681152344 23.5947265625 23.5947265625 C 26.46885681152344 20.72059631347656 29.6312255859375 18.11135673522949 32.9940071105957 15.83950805664062 C 36.38774871826172 13.5467472076416 40.01535797119141 11.57768249511719 43.77611541748047 9.987030029296875 C 51.59981155395508 6.677877902984619 59.91350936889648 5.000008583068848 68.48631286621094 5.000008583068848 C 77.05912017822266 5.000008583068848 85.37283325195312 6.677877902984619 93.196533203125 9.987030029296875 C 96.95726776123047 11.57768249511719 100.5848999023438 13.5467472076416 103.9786376953125 15.83950805664062 C 107.341423034668 18.11135673522949 110.503791809082 20.72059631347656 113.3779220581055 23.5947265625 C 116.2520523071289 26.46885681152344 118.8612899780273 29.6312255859375 121.1331405639648 32.9940071105957 C 123.4259033203125 36.38774871826172 125.3949661254883 40.01535797119141 126.9856185913086 43.77611541748047 C 130.2947692871094 51.59981155395508 131.9726409912109 59.91350936889648 131.9726409912109 68.48631286621094 C 131.9726409912109 77.05912017822266 130.2947692871094 85.37283325195312 126.9856185913086 93.196533203125 C 125.3949661254883 96.95726776123047 123.4259033203125 100.5848999023438 121.1331405639648 103.9786376953125 C 118.8612899780273 107.341423034668 116.2520523071289 110.503791809082 113.3779220581055 113.3779220581055 C 110.503791809082 116.2520523071289 107.341423034668 118.8612899780273 103.9786376953125 121.1331405639648 C 100.5848999023438 123.4259033203125 96.95726776123047 125.3949661254883 93.196533203125 126.9856185913086 C 85.37283325195312 130.2947692871094 77.05912017822266 131.9726409912109 68.48631286621094 131.9726409912109 Z" stroke="none"/>
        <path d="M 68.48631286621094 10.00000762939453 C 36.23686981201172 10.00000762939453 10.00000762939453 36.23686981201172 10.00000762939453 68.48631286621094 C 10.00000762939453 100.7357559204102 36.23686981201172 126.9726181030273 68.48631286621094 126.9726181030273 C 100.7357559204102 126.9726181030273 126.9726181030273 100.7357559204102 126.9726181030273 68.48631286621094 C 126.9726181030273 36.23686981201172 100.7357559204102 10.00000762939453 68.48631286621094 10.00000762939453 M 68.48631286621094 0 C 106.3102569580078 0 136.9726257324219 30.66236877441406 136.9726257324219 68.48631286621094 C 136.9726257324219 106.3102569580078 106.3102569580078 136.9726257324219 68.48631286621094 136.9726257324219 C 30.66236877441406 136.9726257324219 0 106.3102569580078 0 68.48631286621094 C 0 30.66236877441406 30.66236877441406 0 68.48631286621094 0 Z" stroke="none" fill="#8c6df2"/>
      </g>
    </g>
    <g id="calles" transform="translate(415.271 3942.42)">
      <g id="Page-1_34_" transform="translate(0 0.003)">
        <g id="_x30_35---City-Route" transform="translate(0 0)">
          <path id="Shape_359_" d="M248.681,235.243a1.21,1.21,0,0,0,1.21-1.21v-2.42a1.21,1.21,0,0,0-2.42,0v2.42A1.21,1.21,0,0,0,248.681,235.243Z" transform="translate(-212.386 -197.739)" fill="#8c6df2"/>
          <path id="Shape_358_" d="M247.471,286.443a1.21,1.21,0,1,0,2.42,0v-3.629a1.21,1.21,0,1,0-2.42,0Z" transform="translate(-212.386 -241.68)" fill="#8c6df2"/>
          <path id="Shape_357_" d="M247.471,347.386a1.21,1.21,0,0,0,2.42,0v-4.839a1.21,1.21,0,1,0-2.42,0Z" transform="translate(-212.386 -292.944)" fill="#8c6df2"/>
          <path id="Shape_356_" d="M247.471,425.4a1.21,1.21,0,0,0,2.42,0v-6.049a1.21,1.21,0,1,0-2.42,0Z" transform="translate(-212.386 -358.856)" fill="#8c6df2"/>
          <path id="Shape_355_" d="M73.11,301.091a1.21,1.21,0,0,0,0-2.42H69.481a1.21,1.21,0,0,0,0,2.42Z" transform="translate(-58.592 -256.327)" fill="#8c6df2"/>
          <path id="Shape_354_" d="M13.377,301.091a1.21,1.21,0,0,0,0-2.42H9.748a1.21,1.21,0,0,0,0,2.42Z" transform="translate(-7.327 -256.327)" fill="#8c6df2"/>
          <path id="Shape_353_" d="M129.214,301.091h3.629a1.21,1.21,0,1,0,0-2.42h-3.629a1.21,1.21,0,1,0,0,2.42Z" transform="translate(-109.856 -256.327)" fill="#8c6df2"/>
          <path id="Shape_352_" d="M346.177,301.091a1.21,1.21,0,0,0,0-2.42h-3.629a1.21,1.21,0,1,0,0,2.42Z" transform="translate(-292.944 -256.327)" fill="#8c6df2"/>
          <path id="Shape_351_" d="M405.91,301.091a1.21,1.21,0,0,0,0-2.42h-3.629a1.21,1.21,0,0,0,0,2.42Z" transform="translate(-344.209 -256.327)" fill="#8c6df2"/>
          <path id="Shape_350_" d="M465.643,301.091a1.21,1.21,0,0,0,0-2.42h-3.629a1.21,1.21,0,0,0,0,2.42Z" transform="translate(-395.473 -256.327)" fill="#8c6df2"/>
          <path id="Shape_349_" d="M38.976,143.8a2.42,2.42,0,0,0,2.42-2.42v-2.42a2.42,2.42,0,0,0-2.42-2.42h-2.42a2.42,2.42,0,0,0-2.42,2.42v2.42a2.42,2.42,0,0,0,2.42,2.42Zm-2.42-4.839h2.42v2.42h-2.42Z" transform="translate(-29.297 -117.179)" fill="#8c6df2"/>
          <path id="Shape_348_" d="M104.824,143.8h2.42a2.42,2.42,0,0,0,2.42-2.42v-2.42a2.42,2.42,0,0,0-2.42-2.42h-2.42a2.42,2.42,0,0,0-2.42,2.42v2.42A2.42,2.42,0,0,0,104.824,143.8Zm0-4.839h2.42v2.42h-2.42Z" transform="translate(-87.886 -117.179)" fill="#8c6df2"/>
          <path id="Shape_347_" d="M363.242,136.537h-2.42a2.42,2.42,0,0,0-2.42,2.42v2.42a2.42,2.42,0,0,0,2.42,2.42h2.42a2.42,2.42,0,0,0,2.42-2.42v-2.42A2.42,2.42,0,0,0,363.242,136.537Zm-2.42,4.839v-2.42h2.42v2.42Z" transform="translate(-307.59 -117.18)" fill="#8c6df2"/>
          <path id="Shape_346_" d="M431.509,136.537h-2.42a2.42,2.42,0,0,0-2.42,2.42v2.42a2.42,2.42,0,0,0,2.42,2.42h2.42a2.42,2.42,0,0,0,2.42-2.42v-2.42A2.42,2.42,0,0,0,431.509,136.537Zm-2.42,4.839v-2.42h2.42v2.42Z" transform="translate(-366.178 -117.18)" fill="#8c6df2"/>
          <path id="Shape_345_" d="M36.557,75.529h2.42a2.42,2.42,0,0,0,2.42-2.42V70.69a2.42,2.42,0,0,0-2.42-2.42h-2.42a2.42,2.42,0,0,0-2.42,2.42v2.42A2.42,2.42,0,0,0,36.557,75.529Zm0-4.839h2.42v2.42h-2.42Z" transform="translate(-29.297 -58.591)" fill="#8c6df2"/>
          <path id="Shape_344_" d="M104.824,75.529h2.42a2.42,2.42,0,0,0,2.42-2.42V70.69a2.42,2.42,0,0,0-2.42-2.42h-2.42a2.42,2.42,0,0,0-2.42,2.42v2.42A2.42,2.42,0,0,0,104.824,75.529Zm0-4.839h2.42v2.42h-2.42Z" transform="translate(-87.886 -58.591)" fill="#8c6df2"/>
          <path id="Shape_343_" d="M363.242,68.27h-2.42a2.42,2.42,0,0,0-2.42,2.42v2.42a2.42,2.42,0,0,0,2.42,2.42h2.42a2.42,2.42,0,0,0,2.42-2.42V70.69A2.42,2.42,0,0,0,363.242,68.27Zm-2.42,4.839V70.69h2.42v2.42Z" transform="translate(-307.59 -58.591)" fill="#8c6df2"/>
          <path id="Shape_342_" d="M431.509,68.27h-2.42a2.42,2.42,0,0,0-2.42,2.42v2.42a2.42,2.42,0,0,0,2.42,2.42h2.42a2.42,2.42,0,0,0,2.42-2.42V70.69A2.42,2.42,0,0,0,431.509,68.27Zm-2.42,4.839V70.69h2.42v2.42Z" transform="translate(-366.178 -58.591)" fill="#8c6df2"/>
          <path id="Shape_341_" d="M72.055,5.046,65.1.409A2.411,2.411,0,0,0,63.762,0H42.348a1.21,1.21,0,0,0-1.21,1.21V27.829H31.459V1.213A1.21,1.21,0,0,0,30.25,0H8.836A2.419,2.419,0,0,0,7.493.41L.542,5.046A1.209,1.209,0,0,0,0,6.052V37.508a1.21,1.21,0,0,0,1.21,1.21h24.2a1.21,1.21,0,0,0,1.05-.6l4.491-7.864H41.646l4.491,7.864a1.21,1.21,0,0,0,1.05.6h24.2a1.21,1.21,0,0,0,1.21-1.21V6.052a1.21,1.21,0,0,0-.538-1.007Zm-4.664-.2h-19.7l-2.42-2.42H63.762ZM26.62,6.553l2.42-2.42V28.717l-2.42,4.234ZM8.836,2.423H27.329l-2.42,2.42H5.206ZM2.424,7.262H24.2V36.3H16.942V30.249a2.42,2.42,0,0,0-2.42-2.42H12.1a2.42,2.42,0,0,0-2.42,2.42V36.3H2.424V7.262ZM12.1,36.3V30.249h2.42V36.3ZM43.558,4.133l2.42,2.42v26.4l-2.42-4.234ZM58.075,36.3V30.249H60.5V36.3Zm4.839,0V30.249a2.42,2.42,0,0,0-2.42-2.42h-2.42a2.42,2.42,0,0,0-2.42,2.42V36.3H48.4V7.262H70.173V36.3Z" transform="translate(-0.003 -0.003)" fill="#8c6df2"/>
          <path id="Shape_340_" d="M446.09,376.681a1.21,1.21,0,0,0-1.21-1.21h-8.469a1.21,1.21,0,0,0-1.021,1.86l8.469,13.308a1.21,1.21,0,1,0,2.042-1.3l-7.287-11.448h6.266A1.21,1.21,0,0,0,446.09,376.681Z" transform="translate(-373.5 -322.239)" fill="#8c6df2"/>
          <path id="Shape_339_" d="M71.383,341.337H54.1a1.21,1.21,0,0,0-1.05,1.815l11.413,19.962H8.139l11.413-19.962a1.21,1.21,0,0,0-1.05-1.815H1.214a1.21,1.21,0,0,0,0,2.42h15.2L6.037,361.912a2.42,2.42,0,0,0,2.1,3.621h56.32a2.42,2.42,0,0,0,2.1-3.62L56.181,343.757h15.2a1.21,1.21,0,1,0,0-2.42Z" transform="translate(-0.003 -292.944)" fill="#8c6df2"/>
          <path id="Shape_338_" d="M10.739,376.1a1.21,1.21,0,0,0-1.06-.628H1.21a1.21,1.21,0,1,0,0,2.42H7.475L.189,389.338a1.21,1.21,0,0,0,2.042,1.3L10.7,377.33a1.21,1.21,0,0,0,.039-1.232Z" transform="translate(0 -322.238)" fill="#8c6df2"/>
        </g>
      </g>
    </g>
  </g>
</svg>
