<svg xmlns="http://www.w3.org/2000/svg" width="136.973" height="136.973" viewBox="0 0 136.973 136.973">
  <g id="Grupo_171014" data-name="Grupo 171014" transform="translate(-385.221 -1033.661)">
    <g id="Grupo_89571" data-name="Grupo 89571" transform="translate(385.221 1033.661)">
      <g id="Trazado_137458" data-name="Trazado 137458" transform="translate(0 0)" fill="#fff">
        <path d="M 68.48631286621094 131.9726409912109 C 59.91350936889648 131.9726409912109 51.59981155395508 130.2947692871094 43.77611541748047 126.9856185913086 C 40.01535797119141 125.3949661254883 36.38774871826172 123.4259033203125 32.9940071105957 121.1331405639648 C 29.6312255859375 118.8612899780273 26.46885681152344 116.2520523071289 23.5947265625 113.3779220581055 C 20.72059631347656 110.503791809082 18.11135673522949 107.341423034668 15.83950805664062 103.9786376953125 C 13.5467472076416 100.5848999023438 11.57768249511719 96.95726776123047 9.987030029296875 93.196533203125 C 6.677877902984619 85.37283325195312 5.000008583068848 77.05912017822266 5.000008583068848 68.48631286621094 C 5.000008583068848 59.91350936889648 6.677877902984619 51.59981155395508 9.987030029296875 43.77611541748047 C 11.57768249511719 40.01535797119141 13.5467472076416 36.38774871826172 15.83950805664062 32.9940071105957 C 18.11135673522949 29.6312255859375 20.72059631347656 26.46885681152344 23.5947265625 23.5947265625 C 26.46885681152344 20.72059631347656 29.6312255859375 18.11135673522949 32.9940071105957 15.83950805664062 C 36.38774871826172 13.5467472076416 40.01535797119141 11.57768249511719 43.77611541748047 9.987030029296875 C 51.59981155395508 6.677877902984619 59.91350936889648 5.000008583068848 68.48631286621094 5.000008583068848 C 77.05912017822266 5.000008583068848 85.37283325195312 6.677877902984619 93.196533203125 9.987030029296875 C 96.95726776123047 11.57768249511719 100.5848999023438 13.5467472076416 103.9786376953125 15.83950805664062 C 107.341423034668 18.11135673522949 110.503791809082 20.72059631347656 113.3779220581055 23.5947265625 C 116.2520523071289 26.46885681152344 118.8612899780273 29.6312255859375 121.1331405639648 32.9940071105957 C 123.4259033203125 36.38774871826172 125.3949661254883 40.01535797119141 126.9856185913086 43.77611541748047 C 130.2947692871094 51.59981155395508 131.9726409912109 59.91350936889648 131.9726409912109 68.48631286621094 C 131.9726409912109 77.05912017822266 130.2947692871094 85.37283325195312 126.9856185913086 93.196533203125 C 125.3949661254883 96.95726776123047 123.4259033203125 100.5848999023438 121.1331405639648 103.9786376953125 C 118.8612899780273 107.341423034668 116.2520523071289 110.503791809082 113.3779220581055 113.3779220581055 C 110.503791809082 116.2520523071289 107.341423034668 118.8612899780273 103.9786376953125 121.1331405639648 C 100.5848999023438 123.4259033203125 96.95726776123047 125.3949661254883 93.196533203125 126.9856185913086 C 85.37283325195312 130.2947692871094 77.05912017822266 131.9726409912109 68.48631286621094 131.9726409912109 Z" stroke="none"/>
        <path d="M 68.48631286621094 10.00000762939453 C 36.23686981201172 10.00000762939453 10.00000762939453 36.23686981201172 10.00000762939453 68.48631286621094 C 10.00000762939453 100.7357559204102 36.23686981201172 126.9726181030273 68.48631286621094 126.9726181030273 C 100.7357559204102 126.9726181030273 126.9726181030273 100.7357559204102 126.9726181030273 68.48631286621094 C 126.9726181030273 36.23686981201172 100.7357559204102 10.00000762939453 68.48631286621094 10.00000762939453 M 68.48631286621094 0 C 106.3102569580078 0 136.9726257324219 30.66236877441406 136.9726257324219 68.48631286621094 C 136.9726257324219 106.3102569580078 106.3102569580078 136.9726257324219 68.48631286621094 136.9726257324219 C 30.66236877441406 136.9726257324219 0 106.3102569580078 0 68.48631286621094 C 0 30.66236877441406 30.66236877441406 0 68.48631286621094 0 Z" stroke="none" fill="#8c6df2"/>
      </g>
    </g>
    <g id="sistema-de-sonido" transform="translate(411.467 1070.281)">
      <g id="Grupo_166400" data-name="Grupo 166400" transform="translate(11.862)">
        <g id="Grupo_166389" data-name="Grupo 166389" transform="translate(0)">
          <path id="Trazado_226196" data-name="Trazado 226196" d="M48.664.5H18.251a5.9,5.9,0,0,0-5.889,5.9V58.22a5.893,5.893,0,0,0,5.889,5.889H48.664a5.9,5.9,0,0,0,5.9-5.889V6.4A5.907,5.907,0,0,0,48.664.5Zm3.913,57.708a3.91,3.91,0,0,1-3.913,3.9H18.251a3.908,3.908,0,0,1-3.9-3.9V6.4a3.91,3.91,0,0,1,3.9-3.913H48.664a3.918,3.918,0,0,1,3.913,3.9Z" transform="translate(-12.3 -0.438)" fill="#8c6df2"/>
          <path id="Trazado_226197" data-name="Trazado 226197" d="M48.226,63.733H17.813a5.958,5.958,0,0,1-5.951-5.951V5.963A5.964,5.964,0,0,1,17.813,0H48.226a5.97,5.97,0,0,1,5.963,5.963V57.782A5.964,5.964,0,0,1,48.226,63.733ZM17.813.124a5.839,5.839,0,0,0-5.827,5.839V57.782a5.833,5.833,0,0,0,5.827,5.827H48.226a5.839,5.839,0,0,0,5.839-5.827V5.963A5.846,5.846,0,0,0,48.226.124ZM48.226,61.733H17.813A3.968,3.968,0,0,1,13.85,57.77V5.963a3.974,3.974,0,0,1,3.963-3.976H48.226A3.974,3.974,0,0,1,52.2,5.951V57.77A3.974,3.974,0,0,1,48.226,61.733ZM17.813,2.112a3.85,3.85,0,0,0-3.839,3.851V57.77a3.843,3.843,0,0,0,3.839,3.839H48.226a3.849,3.849,0,0,0,3.851-3.839V5.951a3.849,3.849,0,0,0-3.851-3.839Z" transform="translate(-11.862)" fill="#8c6df2"/>
        </g>
        <g id="Grupo_166390" data-name="Grupo 166390" transform="translate(8.398 30.227)">
          <path id="Trazado_226198" data-name="Trazado 226198" d="M92.659,243.8a12.7,12.7,0,1,0,12.7,12.7A12.712,12.712,0,0,0,92.659,243.8Zm0,23.406A10.709,10.709,0,1,1,103.368,256.5,10.726,10.726,0,0,1,92.659,267.206Z" transform="translate(-79.9 -243.738)" fill="#8c6df2"/>
          <path id="Trazado_226199" data-name="Trazado 226199" d="M92.221,268.818a12.759,12.759,0,1,1,12.759-12.759A12.773,12.773,0,0,1,92.221,268.818Zm0-25.394a12.635,12.635,0,1,0,12.635,12.635A12.649,12.649,0,0,0,92.221,243.424Zm0,23.406a10.771,10.771,0,1,1,10.771-10.771A10.784,10.784,0,0,1,92.221,266.83Zm0-21.418a10.647,10.647,0,1,0,10.647,10.647A10.659,10.659,0,0,0,92.221,245.412Z" transform="translate(-79.462 -243.3)" fill="#8c6df2"/>
        </g>
        <g id="Grupo_166391" data-name="Grupo 166391" transform="translate(12.026 33.854)">
          <path id="Trazado_226200" data-name="Trazado 226200" d="M118.231,273a9.069,9.069,0,1,0,9.069,9.069A9.08,9.08,0,0,0,118.231,273Zm0,16.138a7.081,7.081,0,1,1,7.081-7.081A7.094,7.094,0,0,1,118.231,289.138Z" transform="translate(-109.1 -272.938)" fill="#8c6df2"/>
          <path id="Trazado_226201" data-name="Trazado 226201" d="M117.793,290.763a9.131,9.131,0,1,1,9.131-9.131A9.142,9.142,0,0,1,117.793,290.763Zm0-18.138a9.007,9.007,0,1,0,9.007,9.007A9.017,9.017,0,0,0,117.793,272.624Zm0,16.138a7.144,7.144,0,1,1,7.144-7.144A7.152,7.152,0,0,1,117.793,288.762Zm0-14.163a7.019,7.019,0,1,0,7.019,7.019A7.027,7.027,0,0,0,117.793,274.6Z" transform="translate(-108.662 -272.5)" fill="#8c6df2"/>
        </g>
        <g id="Grupo_166392" data-name="Grupo 166392" transform="translate(11.653 7.988)">
          <path id="Trazado_226202" data-name="Trazado 226202" d="M115.6,83.684a9.442,9.442,0,1,0-9.442-9.442A9.454,9.454,0,0,0,115.6,83.684Zm0-16.9a7.454,7.454,0,1,1-7.454,7.454A7.46,7.46,0,0,1,115.6,66.788Z" transform="translate(-106.1 -64.738)" fill="#8c6df2"/>
          <path id="Trazado_226203" data-name="Trazado 226203" d="M115.166,83.308a9.5,9.5,0,1,1,9.5-9.5A9.515,9.515,0,0,1,115.166,83.308Zm0-18.884a9.38,9.38,0,1,0,9.38,9.38A9.39,9.39,0,0,0,115.166,64.424Zm0,16.9a7.516,7.516,0,1,1,7.516-7.516A7.525,7.525,0,0,1,115.166,81.32Zm0-14.908a7.392,7.392,0,1,0,7.392,7.392A7.4,7.4,0,0,0,115.166,66.412Z" transform="translate(-105.662 -64.3)" fill="#8c6df2"/>
        </g>
        <g id="Grupo_166393" data-name="Grupo 166393" transform="translate(15.293 11.628)">
          <path id="Trazado_226204" data-name="Trazado 226204" d="M141.264,105.7a5.8,5.8,0,1,0-5.8-5.8A5.808,5.808,0,0,0,141.264,105.7Zm0-9.628A3.82,3.82,0,1,1,137.45,99.9,3.815,3.815,0,0,1,141.264,96.075Z" transform="translate(-135.4 -94.038)" fill="#8c6df2"/>
          <path id="Trazado_226205" data-name="Trazado 226205" d="M140.826,105.328a5.864,5.864,0,1,1,5.864-5.864A5.871,5.871,0,0,1,140.826,105.328Zm0-11.6a5.74,5.74,0,1,0,5.74,5.74A5.746,5.746,0,0,0,140.826,93.724Zm0,9.616a3.882,3.882,0,1,1,3.876-3.889A3.881,3.881,0,0,1,140.826,103.34Zm0-7.641a3.758,3.758,0,1,0,3.752,3.752A3.762,3.762,0,0,0,140.826,95.7Z" transform="translate(-134.962 -93.6)" fill="#8c6df2"/>
        </g>
        <g id="Grupo_166394" data-name="Grupo 166394" transform="translate(31.879 4.448)">
          <path id="Trazado_226206" data-name="Trazado 226206" d="M271.732,36.3a2.77,2.77,0,1,0,2.77,2.77A2.773,2.773,0,0,0,271.732,36.3Zm0,3.553a.783.783,0,1,1,.783-.783A.779.779,0,0,1,271.732,39.853Z" transform="translate(-268.9 -36.238)" fill="#8c6df2"/>
          <path id="Trazado_226207" data-name="Trazado 226207" d="M271.294,41.465a2.833,2.833,0,1,1,2.833-2.833A2.836,2.836,0,0,1,271.294,41.465Zm0-5.541A2.708,2.708,0,1,0,274,38.633,2.712,2.712,0,0,0,271.294,35.924Zm0,3.553a.845.845,0,1,1,.845-.845A.846.846,0,0,1,271.294,39.477Zm0-1.565a.721.721,0,1,0,.721.721A.722.722,0,0,0,271.294,37.912Z" transform="translate(-268.461 -35.8)" fill="#8c6df2"/>
        </g>
        <g id="Grupo_166395" data-name="Grupo 166395" transform="translate(4.771 4.448)">
          <path id="Trazado_226208" data-name="Trazado 226208" d="M53.532,41.841a2.77,2.77,0,1,0-2.77-2.77A2.773,2.773,0,0,0,53.532,41.841Zm0-3.553a.783.783,0,1,1-.783.783A.787.787,0,0,1,53.532,38.288Z" transform="translate(-50.7 -36.238)" fill="#8c6df2"/>
          <path id="Trazado_226209" data-name="Trazado 226209" d="M53.095,41.465a2.833,2.833,0,1,1,2.833-2.833A2.836,2.836,0,0,1,53.095,41.465Zm0-5.541A2.708,2.708,0,1,0,55.8,38.633,2.711,2.711,0,0,0,53.095,35.924Zm0,3.553a.845.845,0,1,1,.845-.845A.846.846,0,0,1,53.095,39.477Zm0-1.565a.721.721,0,1,0,.721.721A.721.721,0,0,0,53.095,37.912Z" transform="translate(-50.262 -35.8)" fill="#8c6df2"/>
        </g>
        <g id="Grupo_166396" data-name="Grupo 166396" transform="translate(31.879 53.62)">
          <path id="Trazado_226210" data-name="Trazado 226210" d="M271.732,432.1a2.77,2.77,0,1,0,2.77,2.77A2.773,2.773,0,0,0,271.732,432.1Zm0,3.553a.783.783,0,1,1,.783-.783A.779.779,0,0,1,271.732,435.653Z" transform="translate(-268.9 -432.038)" fill="#8c6df2"/>
          <path id="Trazado_226211" data-name="Trazado 226211" d="M271.294,437.265a2.833,2.833,0,1,1,2.833-2.832,2.836,2.836,0,0,1-2.833,2.832Zm0-5.541A2.708,2.708,0,1,0,274,434.433,2.712,2.712,0,0,0,271.294,431.724Zm0,3.553a.845.845,0,1,1,.845-.845A.846.846,0,0,1,271.294,435.277Zm0-1.565a.721.721,0,1,0,.721.721A.722.722,0,0,0,271.294,433.712Z" transform="translate(-268.461 -431.6)" fill="#8c6df2"/>
        </g>
        <g id="Grupo_166397" data-name="Grupo 166397" transform="translate(4.771 53.62)">
          <path id="Trazado_226212" data-name="Trazado 226212" d="M53.532,432.1a2.77,2.77,0,1,0,2.77,2.77A2.773,2.773,0,0,0,53.532,432.1Zm0,3.553a.783.783,0,1,1,.783-.783A.779.779,0,0,1,53.532,435.653Z" transform="translate(-50.7 -432.038)" fill="#8c6df2"/>
          <path id="Trazado_226213" data-name="Trazado 226213" d="M53.095,437.265a2.833,2.833,0,1,1,2.833-2.832,2.836,2.836,0,0,1-2.833,2.832Zm0-5.541a2.708,2.708,0,1,0,2.708,2.708A2.711,2.711,0,0,0,53.095,431.724Zm0,3.553a.845.845,0,1,1,.845-.845A.846.846,0,0,1,53.095,435.277Zm0-1.565a.721.721,0,1,0,.721.721A.722.722,0,0,0,53.095,433.712Z" transform="translate(-50.262 -431.6)" fill="#8c6df2"/>
        </g>
        <g id="Grupo_166398" data-name="Grupo 166398" transform="translate(45.52 8.153)">
          <path id="Trazado_226214" data-name="Trazado 226214" d="M383.023,85.292a4.273,4.273,0,0,0,4.274-4.274v-12.7c.273.236.634.634.932.944,1.068,1.168,2.534,2.758,4.535,3.044a1,1,0,0,0,.286-1.975c-1.292-.186-2.435-1.429-3.354-2.423-1.031-1.118-2.087-2.261-3.342-1.553a1.992,1.992,0,0,0-1.031,1.764v9.293a4.207,4.207,0,0,0-2.286-.658,4.268,4.268,0,0,0-.012,8.535Zm0-6.56a2.286,2.286,0,1,1-2.286,2.286A2.288,2.288,0,0,1,383.023,78.732Z" transform="translate(-378.7 -66.076)" fill="#8c6df2"/>
          <path id="Trazado_226215" data-name="Trazado 226215" d="M382.585,84.9a4.33,4.33,0,1,1,2.236-8.05V67.671a2.054,2.054,0,0,1,1.063-1.818c1.3-.733,2.376.435,3.418,1.565l.015.016c.909.982,2.039,2.205,3.3,2.387a1.06,1.06,0,0,1-.3,2.1c-2.035-.291-3.5-1.893-4.572-3.063l-.216-.227c-.208-.22-.422-.447-.608-.62V80.566A4.341,4.341,0,0,1,382.585,84.9Zm.012-8.535a4.205,4.205,0,1,0,4.2,4.2V67.734l.1.089c.212.183.47.456.72.721l.216.227c1.059,1.157,2.508,2.741,4.5,3.025a.936.936,0,1,0,.267-1.852c-1.306-.188-2.454-1.429-3.375-2.426l-.015-.016c-1.009-1.094-2.053-2.226-3.266-1.541a1.932,1.932,0,0,0-1,1.71v9.407l-.1-.061a4.157,4.157,0,0,0-2.252-.649Zm-.012,6.547a2.348,2.348,0,1,1,2.348-2.348A2.351,2.351,0,0,1,382.585,82.914Zm0-4.572a2.224,2.224,0,1,0,2.224,2.224A2.226,2.226,0,0,0,382.585,78.343Z" transform="translate(-378.262 -65.624)" fill="#8c6df2"/>
        </g>
        <g id="Grupo_166399" data-name="Grupo 166399" transform="translate(45.508 36.007)">
          <path id="Trazado_226216" data-name="Trazado 226216" d="M392.949,294.534c-1.292-.186-2.435-1.429-3.354-2.423-1.031-1.118-2.087-2.261-3.342-1.553a1.992,1.992,0,0,0-1.031,1.764v9.293a4.208,4.208,0,0,0-2.286-.658,4.274,4.274,0,1,0,4.274,4.274V292.521c.273.236.634.634.932.944,1.068,1.168,2.534,2.758,4.535,3.044a1,1,0,1,0,.273-1.975ZM382.936,307.5a2.286,2.286,0,1,1,2.286-2.286A2.288,2.288,0,0,1,382.936,307.5Z" transform="translate(-378.6 -290.276)" fill="#8c6df2"/>
          <path id="Trazado_226217" data-name="Trazado 226217" d="M382.5,309.117a4.336,4.336,0,1,1,0-8.672,4.293,4.293,0,0,1,2.224.609v-9.181a2.054,2.054,0,0,1,1.063-1.818c1.3-.733,2.376.435,3.418,1.565l.015.016c.909.982,2.039,2.2,3.3,2.387a1.059,1.059,0,1,1-.29,2.1c-2.035-.291-3.5-1.893-4.572-3.063l-.216-.227c-.208-.22-.422-.447-.608-.619v12.57A4.341,4.341,0,0,1,382.5,309.117Zm0-8.547a4.212,4.212,0,1,0,4.211,4.212V291.936l.1.089c.212.183.47.456.72.721l.216.228c1.059,1.157,2.508,2.741,4.5,3.025a.935.935,0,1,0,.256-1.852h0c-1.307-.189-2.454-1.429-3.376-2.425l-.015-.016c-1.009-1.095-2.053-2.225-3.266-1.541a1.932,1.932,0,0,0-1,1.71v9.407l-.1-.061A4.155,4.155,0,0,0,382.5,300.569Zm0,6.547a2.348,2.348,0,1,1,2.348-2.348A2.351,2.351,0,0,1,382.5,307.116Zm0-4.572a2.224,2.224,0,1,0,2.224,2.224A2.226,2.226,0,0,0,382.5,302.545Z" transform="translate(-378.162 -289.826)" fill="#8c6df2"/>
        </g>
      </g>
    </g>
  </g>
</svg>
