<svg xmlns="http://www.w3.org/2000/svg" width="136.973" height="136.973" viewBox="0 0 136.973 136.973">
  <g id="Grupo_171016" data-name="Grupo 171016" transform="translate(-1087.221 -1033.661)">
    <g id="Grupo_89571" data-name="Grupo 89571" transform="translate(1087.221 1033.661)">
      <g id="Trazado_137458" data-name="Trazado 137458" transform="translate(0 0)" fill="#fff">
        <path d="M 68.48631286621094 131.9726409912109 C 59.91350936889648 131.9726409912109 51.59981155395508 130.2947692871094 43.77611541748047 126.9856185913086 C 40.01535797119141 125.3949661254883 36.38774871826172 123.4259033203125 32.9940071105957 121.1331405639648 C 29.6312255859375 118.8612899780273 26.46885681152344 116.2520523071289 23.5947265625 113.3779220581055 C 20.72059631347656 110.503791809082 18.11135673522949 107.341423034668 15.83950805664062 103.9786376953125 C 13.5467472076416 100.5848999023438 11.57768249511719 96.95726776123047 9.987030029296875 93.196533203125 C 6.677877902984619 85.37283325195312 5.000008583068848 77.05912017822266 5.000008583068848 68.48631286621094 C 5.000008583068848 59.91350936889648 6.677877902984619 51.59981155395508 9.987030029296875 43.77611541748047 C 11.57768249511719 40.01535797119141 13.5467472076416 36.38774871826172 15.83950805664062 32.9940071105957 C 18.11135673522949 29.6312255859375 20.72059631347656 26.46885681152344 23.5947265625 23.5947265625 C 26.46885681152344 20.72059631347656 29.6312255859375 18.11135673522949 32.9940071105957 15.83950805664062 C 36.38774871826172 13.5467472076416 40.01535797119141 11.57768249511719 43.77611541748047 9.987030029296875 C 51.59981155395508 6.677877902984619 59.91350936889648 5.000008583068848 68.48631286621094 5.000008583068848 C 77.05912017822266 5.000008583068848 85.37283325195312 6.677877902984619 93.196533203125 9.987030029296875 C 96.95726776123047 11.57768249511719 100.5848999023438 13.5467472076416 103.9786376953125 15.83950805664062 C 107.341423034668 18.11135673522949 110.503791809082 20.72059631347656 113.3779220581055 23.5947265625 C 116.2520523071289 26.46885681152344 118.8612899780273 29.6312255859375 121.1331405639648 32.9940071105957 C 123.4259033203125 36.38774871826172 125.3949661254883 40.01535797119141 126.9856185913086 43.77611541748047 C 130.2947692871094 51.59981155395508 131.9726409912109 59.91350936889648 131.9726409912109 68.48631286621094 C 131.9726409912109 77.05912017822266 130.2947692871094 85.37283325195312 126.9856185913086 93.196533203125 C 125.3949661254883 96.95726776123047 123.4259033203125 100.5848999023438 121.1331405639648 103.9786376953125 C 118.8612899780273 107.341423034668 116.2520523071289 110.503791809082 113.3779220581055 113.3779220581055 C 110.503791809082 116.2520523071289 107.341423034668 118.8612899780273 103.9786376953125 121.1331405639648 C 100.5848999023438 123.4259033203125 96.95726776123047 125.3949661254883 93.196533203125 126.9856185913086 C 85.37283325195312 130.2947692871094 77.05912017822266 131.9726409912109 68.48631286621094 131.9726409912109 Z" stroke="none"/>
        <path d="M 68.48631286621094 10.00000762939453 C 36.23686981201172 10.00000762939453 10.00000762939453 36.23686981201172 10.00000762939453 68.48631286621094 C 10.00000762939453 100.7357559204102 36.23686981201172 126.9726181030273 68.48631286621094 126.9726181030273 C 100.7357559204102 126.9726181030273 126.9726181030273 100.7357559204102 126.9726181030273 68.48631286621094 C 126.9726181030273 36.23686981201172 100.7357559204102 10.00000762939453 68.48631286621094 10.00000762939453 M 68.48631286621094 0 C 106.3102569580078 0 136.9726257324219 30.66236877441406 136.9726257324219 68.48631286621094 C 136.9726257324219 106.3102569580078 106.3102569580078 136.9726257324219 68.48631286621094 136.9726257324219 C 30.66236877441406 136.9726257324219 0 106.3102569580078 0 68.48631286621094 C 0 30.66236877441406 30.66236877441406 0 68.48631286621094 0 Z" stroke="none" fill="#8c6df2"/>
      </g>
    </g>
    <g id="surface1" transform="translate(1121.67 1068.646)">
      <path id="Trazado_226234" data-name="Trazado 226234" d="M403.443,91.085a1,1,0,0,0,1.373.327l5.408-3.326a1,1,0,1,0-1.046-1.7l-5.408,3.326A1,1,0,0,0,403.443,91.085Zm0,0" transform="translate(-349.65 -74.767)" fill="#8c6df2"/>
      <path id="Trazado_226235" data-name="Trazado 226235" d="M446.421,167.457l-7.928-.77a1,1,0,1,0-.193,1.986l7.927.77c.033,0,.066,0,.1,0a1,1,0,0,0,.1-1.991Zm0,0" transform="translate(-379.217 -144.511)" fill="#8c6df2"/>
      <path id="Trazado_226236" data-name="Trazado 226236" d="M369.828,9.351a1,1,0,0,0,1.291-.568l2.887-7.423a1,1,0,0,0-1.859-.723L369.26,8.06A1,1,0,0,0,369.828,9.351Zm0,0" transform="translate(-320.083 0)" fill="#8c6df2"/>
      <path id="Trazado_226237" data-name="Trazado 226237" d="M42.7,21.8a2.316,2.316,0,0,0-3.184-.754l-1.193.736a2.314,2.314,0,0,0-.754,3.184l.686,1.112L22.566,45.5l-3.313,2.044a1,1,0,0,0,1.048,1.7l2.609-1.61,5.084,8.24a4.076,4.076,0,0,0-2.133.446l-.035.018c-.089.047-.178.1-.265.15l-2.983,1.85a5.352,5.352,0,0,0-1.761,1.8l-.736,1.11-.541.815-.014,0-.024-.011c-.042-.019-.084-.04-.124-.062l-.026-.014a1.494,1.494,0,0,1-.128-.086l-.026-.02c-.037-.029-.074-.06-.109-.094l-.013-.012a1.53,1.53,0,0,1-.107-.116l-.021-.027a1.512,1.512,0,0,1-.094-.132L14.544,54.5a1.45,1.45,0,0,1,.472-2l1.291-.8a1,1,0,0,0-1.048-1.7l-1.291.8a3.447,3.447,0,0,0-1.509,3.863l-.96.592a2.74,2.74,0,0,0-.892,3.766l2.435,3.946a2.719,2.719,0,0,0,1.7,1.226,2.763,2.763,0,0,0,.636.075,2.716,2.716,0,0,0,1.431-.409l.961-.593a3.445,3.445,0,0,0,.656.47l-2.77,4.172L15,68.362a1.2,1.2,0,0,0-1.321.152l-1.719,1.447a1.213,1.213,0,0,0-1.337.021c-.019.014-.038.027-.057.042L.892,77.662A2.331,2.331,0,0,0,0,79.5v3.108a2.347,2.347,0,0,0,2.344,2.344h15.83A2.332,2.332,0,0,0,20,84.077l1.312-1.633a1.21,1.21,0,0,0,.293-.926l1.766-1.487a1.2,1.2,0,0,0,.366-.539l4.071.835a.979.979,0,0,0,.182.02c.119,0,.238,0,.356,0a5.3,5.3,0,0,0,2.931-.707l4.1-2.443c.069,0,.137.007.205.007a3.235,3.235,0,0,0,1.693-.48l3.295-2.014a3.254,3.254,0,0,0-.224-5.682,3.288,3.288,0,0,0-2.113-4.718,3.281,3.281,0,0,0-2.3-3.859,3.283,3.283,0,0,0-.374-2.545,3.336,3.336,0,0,0-.435-.563l19.767-4.3.686,1.112a2.315,2.315,0,0,0,3.184.754l1.194-.736a2.314,2.314,0,0,0,.754-3.185ZM15.761,62.169a.742.742,0,0,1-1.021-.242l-2.435-3.946a.743.743,0,0,1,.242-1.021l.846-.522,3.214,5.208Zm2.684,20.659a.346.346,0,0,1-.272.13H2.344A.349.349,0,0,1,2,82.609V79.5a.347.347,0,0,1,.132-.274L11.2,72.063l8.18,9.6Zm2.029-2.965L13.3,71.444l1.063-.894,7.122,8.464Zm9.779-1.93a3.635,3.635,0,0,1-2.134.421l-5.111-1.048a1,1,0,0,0-.361-.008l-6.274-7.455.568-.388h0l.028-.021c.021-.016.043-.032.062-.049l.028-.027c.02-.019.039-.038.057-.058l.022-.024c.022-.027.044-.055.063-.083l.006-.007,0-.007,0-.008L22.5,61.221c.011-.017.022-.035.033-.053a3.263,3.263,0,0,1,1.1-1.134l2.983-1.85c.055-.034.111-.065.168-.094.025-.013.051-.024.077-.036s.06-.027.09-.039.07-.027.105-.039l.056-.018c.044-.013.088-.026.132-.037h0a2.119,2.119,0,0,1,.486-.059h.01c.048,0,.1,0,.142.005l.046,0c.042,0,.084.008.125.014l.074.014a1.928,1.928,0,0,1,.188.045l.072.02c.032.011.062.023.094.035s.049.019.073.029.061.028.092.043l.067.035c.03.016.06.033.09.051l.06.038c.03.02.059.04.088.061s.034.027.051.041.059.047.087.072a1.912,1.912,0,0,1,.353.424l.073.12,1.064,1.735,1.335,2.178.339.554a.873.873,0,0,1,.079.164.931.931,0,0,1,.028.54,1.026,1.026,0,0,1-.469.637l-.6.367h0a1.053,1.053,0,0,1-.127.065l-.028.012a1.036,1.036,0,0,1-.131.044l-.016,0a1.045,1.045,0,0,1-.125.022l-.024,0a1.151,1.151,0,0,1-.134,0l-.025,0a1.027,1.027,0,0,1-.134-.017h0a.977.977,0,0,1-.138-.04l-.012,0a.936.936,0,0,1-.258-.149h0a.963.963,0,0,1-.107-.1l-.008-.01a.873.873,0,0,1-.085-.115l-.994-1.626a2.637,2.637,0,0,0-1.655-1.2,2.726,2.726,0,0,0-2.083.342,1,1,0,0,0-.463.713c-.011.085-.026.169-.041.252-.011.06-.024.12-.038.179,0,.02-.008.04-.013.06-.018.075-.037.149-.058.221l0,.009a4.227,4.227,0,0,1-.47,1.061,0,0,0,0,0,0,0,4.685,4.685,0,0,1-1.584,1.517,1,1,0,1,0,1.037,1.7,7.3,7.3,0,0,0,1.293-.992l4.166,6.57A4.134,4.134,0,0,0,32.492,75.5c.073,0,.146,0,.218-.008.029.052.058.1.089.155a3.29,3.29,0,0,0,.4.529ZM31.1,70.6v0c.017.047.035.092.054.139l.007.017c.017.042.036.083.055.124,0,.009.008.019.013.028.018.038.039.076.058.114.006.011.011.023.018.034.026.049.055.1.084.145.05.082.1.161.161.237l.062.08c.037.047.075.092.114.137s.055.063.083.094.045.044.067.066a3.287,3.287,0,0,0,.253.228l.028.022a3.24,3.24,0,0,0,.551.353,3.285,3.285,0,0,0-.352,1.086,2.118,2.118,0,0,1-1.647-.957l-4.587-7.233a6.42,6.42,0,0,0,.487-1.407.744.744,0,0,1,.214.019.659.659,0,0,1,.414.3l.994,1.626,0,.007a2.771,2.771,0,0,0,.158.231c.042.055.086.105.131.156.016.018.03.037.046.055l.007.026q.023.1.053.206c.006.02.012.04.018.059.024.077.05.153.081.228,0,.008.006.015.009.022.028.069.058.136.091.2.009.019.019.039.029.057.037.073.076.144.119.215a3.269,3.269,0,0,0,2,1.475A3.279,3.279,0,0,0,31.1,70.6Zm.636-11.873.335-.2a1.3,1.3,0,1,1,1.353,2.212l-.333.2L32.1,59.327Zm7.435,11.983a1.262,1.262,0,0,1,.362,2.3l-3.295,2.014a1.253,1.253,0,0,1-.875.165l-.053-.01-.027-.005a1.254,1.254,0,0,1-.94-.976.076.076,0,0,0,0-.011,1.271,1.271,0,0,1,.335-1.12l.023-.023L34.744,73c.015-.014.031-.027.047-.04l.036-.029c.03-.022.059-.043.091-.062h0l.655-.4a3.4,3.4,0,0,0,.339-.179l2.521-1.541A1.256,1.256,0,0,1,39.171,70.708Zm-2.295-4.373a1.3,1.3,0,0,1,1.235,2.276l-.593.363a3.334,3.334,0,0,0-.341.181l-2.507,1.532a1.3,1.3,0,0,1-1.353-.255h0c-.028-.026-.055-.053-.08-.081l-.02-.024c-.019-.022-.037-.044-.055-.067s-.047-.067-.069-.1-.042-.073-.06-.11l-.016-.036c-.011-.026-.023-.051-.033-.078s-.009-.028-.014-.042-.016-.05-.023-.076-.007-.029-.01-.043-.011-.051-.016-.078l-.006-.041c0-.027-.006-.054-.008-.081s0-.026,0-.039c0-.028,0-.056,0-.084,0-.013,0-.024,0-.036,0-.029,0-.057.008-.085,0-.012,0-.024,0-.036s.009-.05.014-.075a1.294,1.294,0,0,1,.416-.709l.025-.025.037-.032c.031-.018.063-.034.094-.053l3.237-1.979Q36.809,66.381,36.876,66.335Zm-1.55-3.98a1.3,1.3,0,0,1,.49,2.285c-.033.018-.066.037-.1.057l-2.5,1.528.024-.02c.048-.038.1-.076.14-.117.028-.025.055-.051.082-.077s.081-.08.12-.122.051-.058.076-.087.071-.085.1-.129.047-.062.069-.094.062-.092.092-.139.041-.065.059-.1c.029-.05.055-.1.08-.153.016-.033.033-.064.048-.1.026-.058.049-.117.072-.177.01-.029.023-.057.033-.086.031-.09.058-.181.081-.274s.038-.178.051-.268c0-.029.006-.057.01-.086.007-.061.013-.122.017-.183,0-.033,0-.067,0-.1,0-.057,0-.114,0-.17,0-.034,0-.068-.005-.1,0-.057-.011-.114-.018-.171,0-.032-.008-.063-.013-.095-.011-.064-.024-.128-.04-.191-.005-.023-.009-.046-.015-.069-.023-.086-.049-.17-.08-.254-.006-.016-.013-.032-.02-.049-.022-.056-.043-.113-.069-.168l.229-.14A1.289,1.289,0,0,1,35.326,62.355ZM59.048,52.278a.318.318,0,0,1-.143.2l-1.194.737a.319.319,0,0,1-.439-.1L44.708,32.743a1,1,0,1,0-1.7,1.048L53.779,51.244,30.6,56.29l-6.14-9.952L39.364,27.882l1.2,1.953a1,1,0,1,0,1.7-1.048l-3-4.864a.319.319,0,0,1,.1-.439l1.193-.736a.319.319,0,0,1,.439.1L59.009,52.038A.317.317,0,0,1,59.048,52.278Zm0,0" transform="translate(0 -17.951)" fill="#8c6df2"/>
    </g>
  </g>
</svg>
