<svg xmlns="http://www.w3.org/2000/svg" width="191.936" height="191.937" viewBox="0 0 191.936 191.937">
  <g id="Grupo_167877" data-name="Grupo 167877" transform="translate(248.996 9250.996)">
    <circle id="Elipse_5760" data-name="Elipse 5760" cx="95.968" cy="95.968" r="95.968" transform="translate(-248.996 -9250.996)" fill="#5038a1"/>
    <g id="exposicion" transform="translate(-203.271 -9205.267)">
      <path id="Trazado_226650" data-name="Trazado 226650" d="M95.094,328.806v-7.781a1.475,1.475,0,0,0-2.95,0v7.6H90.25v-20.59a6.9,6.9,0,0,0,1.895,0v7.094a1.475,1.475,0,0,0,2.95,0v-8.242a6.877,6.877,0,1,0-7.793,0v2.745a20.392,20.392,0,0,1-3.752,5.248,18.042,18.042,0,0,1-25.661,0,20.391,20.391,0,0,1-3.752-5.248v-2.745a6.877,6.877,0,1,0-7.793,0v2.745a20.392,20.392,0,0,1-3.752,5.248,17.43,17.43,0,0,1-12.831,5.358,17.43,17.43,0,0,1-12.831-5.358,20.391,20.391,0,0,1-3.752-5.248v-2.745a6.877,6.877,0,1,0-7.793,0v21.921A6.973,6.973,0,0,0,0,335.586a1.475,1.475,0,0,0,1.475,1.475h15.61a1.475,1.475,0,0,0,1.475-1.475,6.973,6.973,0,0,0-5.383-6.779V315.086a23.548,23.548,0,0,0,1.566,1.776,20.549,20.549,0,0,0,15.017,6.324,20.55,20.55,0,0,0,15.017-6.324,23.543,23.543,0,0,0,1.566-1.776v13.721a6.973,6.973,0,0,0-5.383,6.779,1.475,1.475,0,0,0,1.475,1.475H58.044a1.475,1.475,0,0,0,1.475-1.475,6.973,6.973,0,0,0-5.383-6.779V315.086a23.589,23.589,0,0,0,1.566,1.776,20.991,20.991,0,0,0,30.034,0,23.592,23.592,0,0,0,1.566-1.776v13.721a6.973,6.973,0,0,0-5.383,6.779,1.475,1.475,0,0,0,1.475,1.475H99a1.475,1.475,0,0,0,1.475-1.475,6.973,6.973,0,0,0-5.383-6.779ZM91.2,297.3a3.927,3.927,0,1,1-3.928,3.927A3.932,3.932,0,0,1,91.2,297.3Zm-81.917,0a3.927,3.927,0,1,1-3.928,3.927A3.932,3.932,0,0,1,9.28,297.3Zm0,10.8a6.914,6.914,0,0,0,.947-.067v20.59H8.333V308.033A6.886,6.886,0,0,0,9.28,308.1Zm6.05,26.011H3.23a4.02,4.02,0,0,1,3.732-2.538H11.6A4.019,4.019,0,0,1,15.33,334.111ZM50.239,297.3a3.927,3.927,0,1,1-3.928,3.927A3.932,3.932,0,0,1,50.239,297.3Zm0,10.8a6.914,6.914,0,0,0,.947-.067v20.59H49.292V308.033A6.885,6.885,0,0,0,50.239,308.1Zm6.05,26.011h-12.1a4.02,4.02,0,0,1,3.733-2.538h4.635A4.02,4.02,0,0,1,56.289,334.111Zm28.859,0a4.02,4.02,0,0,1,3.732-2.538h4.635a4.02,4.02,0,0,1,3.732,2.538Z" transform="translate(0 -236.583)" fill="#fedc72"/>
      <path id="Trazado_226651" data-name="Trazado 226651" d="M100.471,1.35A1.493,1.493,0,0,0,99,0H1.475A1.491,1.491,0,0,0,0,1.475V51.916A1.491,1.491,0,0,0,1.475,53.39H99a1.491,1.491,0,0,0,1.475-1.475V1.475c0-.042,0-.084-.006-.125ZM94.261,45.089V8.3l3.267-3.267V48.356Zm-28.624-.864-7.683-7.219L69.676,25.992a3.66,3.66,0,0,1,5,0L91.311,41.619v2.606H65.636ZM95.442,2.949,92.175,6.216H76.693a1.475,1.475,0,1,0,0,2.95H91.311V37.572L76.7,23.843a6.615,6.615,0,0,0-9.044,0L55.8,34.982,40.894,20.976a6.615,6.615,0,0,0-9.044,0L20.7,31.452A1.475,1.475,0,0,0,22.72,33.6L33.87,23.125a3.66,3.66,0,0,1,5,0l22.455,21.1H11.415l7.006-6.583a1.475,1.475,0,1,0-2.02-2.149l-7.235,6.8V9.166H70.794a1.475,1.475,0,1,0,0-2.95H8.3L5.035,2.949ZM2.949,5.035,6.217,8.3V45.089L2.949,48.356ZM5.035,50.441,8.3,47.174H92.175l3.267,3.267Z" transform="translate(0 0)" fill="#fedc72"/>
      <path id="Trazado_226652" data-name="Trazado 226652" d="M258.462,63.222a6.375,6.375,0,1,0,6.376,6.375A6.383,6.383,0,0,0,258.462,63.222Zm0,9.8a3.426,3.426,0,1,1,3.426-3.426A3.43,3.43,0,0,1,258.462,73.023Z" transform="translate(-202.615 -50.815)" fill="#fedc72"/>
    </g>
  </g>
</svg>
