<svg xmlns="http://www.w3.org/2000/svg" width="95" height="95" viewBox="0 0 95 95">
  <g id="Grupo_171024" data-name="Grupo 171024" transform="translate(-336.328 -1338.158)">
    <g id="Elipse_5098" data-name="Elipse 5098" transform="translate(336.328 1338.158)" fill="#fff" stroke="#5038a1" stroke-width="8">
      <circle cx="47.5" cy="47.5" r="47.5" stroke="none"/>
      <circle cx="47.5" cy="47.5" r="43.5" fill="none"/>
    </g>
    <g id="Grupo_132406" data-name="Grupo 132406" transform="translate(321.932 1211.158)">
      <path id="Trazado_188004" data-name="Trazado 188004" d="M46.263,149H66.182q0,5,0,10.007a4.489,4.489,0,0,0,4.883,4.858h9.982v.539q0,15.333,0,30.666a4.459,4.459,0,0,1-4.673,4.669q-14.64,0-29.279,0a5.211,5.211,0,0,1-.839-.047,4.443,4.443,0,0,1-3.856-4.6q0-15.209,0-30.418,0-5.573,0-11.147a4.231,4.231,0,0,1,1.965-3.732A10.933,10.933,0,0,1,46.263,149Zm16.95,26.856c2.425,0,4.85,0,7.276,0A1.5,1.5,0,0,0,72,174.952a1.486,1.486,0,0,0-1.5-2.067q-7.251-.006-14.5,0a1.5,1.5,0,1,0-.016,2.972Q59.6,175.859,63.214,175.856Zm.049,2.973q-3.663,0-7.325,0a1.494,1.494,0,1,0,.017,2.971c1.023,0,2.046,0,3.069,0q5.717,0,11.433,0a1.524,1.524,0,0,0,1.53-.878,1.479,1.479,0,0,0-1.447-2.1C68.113,178.824,65.688,178.829,63.263,178.829Zm-.056,8.919q3.638,0,7.276,0a1.494,1.494,0,1,0-.02-2.971c-.759,0-1.518,0-2.277,0q-6.113,0-12.225,0a1.527,1.527,0,0,0-1.506.835,1.479,1.479,0,0,0,1.428,2.139C58.324,187.754,60.765,187.748,63.207,187.748Zm-13.4-14.864a1.485,1.485,0,1,0,1.509,1.448A1.5,1.5,0,0,0,49.806,172.885Zm1.509,7.449a1.485,1.485,0,1,0-1.49,1.467A1.5,1.5,0,0,0,51.315,180.334Zm-1.5,7.413a1.485,1.485,0,1,0-1.472-1.485A1.5,1.5,0,0,0,49.818,187.747Z" fill="#5038a1"/>
      <path id="Trazado_188005" data-name="Trazado 188005" d="M244.512,156.467l10.877,10.875c-.1.008-.24.027-.377.028q-4.405,0-8.81,0a1.514,1.514,0,0,1-1.689-1.675C244.51,162.626,244.512,159.558,244.512,156.467Z" transform="translate(-175.356 -6.478)" fill="#5038a1"/>
    </g>
  </g>
</svg>
