<svg xmlns="http://www.w3.org/2000/svg" width="191.936" height="191.937" viewBox="0 0 191.936 191.937">
  <g id="Grupo_167876" data-name="Grupo 167876" transform="translate(249 8885)">
    <circle id="Elipse_5760" data-name="Elipse 5760" cx="95.968" cy="95.968" r="95.968" transform="translate(-249 -8885)" fill="#5038a1"/>
    <g id="pintar" transform="translate(-248.772 -8852)">
      <g id="Grupo_167843" data-name="Grupo 167843" transform="translate(94.965 43.233)">
        <g id="Grupo_167842" data-name="Grupo 167842" transform="translate(0)">
          <path id="Trazado_226653" data-name="Trazado 226653" d="M296.873,208.473A13.856,13.856,0,0,0,284.32,204.6a32.915,32.915,0,0,1-6.372.613A28.407,28.407,0,0,1,262.6,201.1c-3.826-2.493-5.933-5.725-5.933-9.1,0-4.835,4.512-9.434,11.5-11.716a1.861,1.861,0,1,0-1.156-3.537c-8.673,2.835-14.061,8.68-14.061,15.253,0,4.678,2.707,9.017,7.623,12.22a32.146,32.146,0,0,0,17.38,4.718,36.629,36.629,0,0,0,7.094-.684,10.211,10.211,0,0,1,11.943,12.031c-.034.165-.069.312-.1.435A46.855,46.855,0,0,1,278.291,246.8a1.86,1.86,0,1,0,2.113,3.063A50.578,50.578,0,0,0,300.47,221.7c.055-.2.108-.423.159-.666A13.829,13.829,0,0,0,296.873,208.473Z" transform="translate(-252.945 -176.649)" fill="#fedc72"/>
        </g>
      </g>
      <g id="Grupo_167845" data-name="Grupo 167845" transform="translate(43.772 24.811)">
        <g id="Grupo_167844" data-name="Grupo 167844" transform="translate(0)">
          <path id="Trazado_226654" data-name="Trazado 226654" d="M116.91,194.252a1.86,1.86,0,0,0-2.491-.847,45.79,45.79,0,0,1-20.34,4.747H94.02A46.528,46.528,0,1,1,110.772,108.2a1.861,1.861,0,0,0,1.34-3.471,50.254,50.254,0,1,0-18.093,97.14h.064a49.482,49.482,0,0,0,21.979-5.129A1.861,1.861,0,0,0,116.91,194.252Z" transform="translate(-43.772 -101.376)" fill="#fedc72"/>
        </g>
      </g>
      <g id="Grupo_167847" data-name="Grupo 167847" transform="translate(68.083 39.772)">
        <g id="Grupo_167846" data-name="Grupo 167846">
          <path id="Trazado_226655" data-name="Trazado 226655" d="M151.979,162.505a8.873,8.873,0,1,0,8.873,8.873A8.883,8.883,0,0,0,151.979,162.505Zm0,14.025a5.152,5.152,0,1,1,5.152-5.152A5.158,5.158,0,0,1,151.979,176.53Z" transform="translate(-143.106 -162.505)" fill="#fedc72"/>
        </g>
      </g>
      <g id="Grupo_167849" data-name="Grupo 167849" transform="translate(54.993 61.277)">
        <g id="Grupo_167848" data-name="Grupo 167848" transform="translate(0)">
          <path id="Trazado_226656" data-name="Trazado 226656" d="M98.493,250.375a8.873,8.873,0,1,0,8.873,8.873A8.883,8.883,0,0,0,98.493,250.375Zm0,14.025a5.152,5.152,0,1,1,5.152-5.152A5.158,5.158,0,0,1,98.493,264.4Z" transform="translate(-89.62 -250.375)" fill="#fedc72"/>
        </g>
      </g>
      <g id="Grupo_167851" data-name="Grupo 167851" transform="translate(63.407 85.12)">
        <g id="Grupo_167850" data-name="Grupo 167850">
          <path id="Trazado_226657" data-name="Trazado 226657" d="M132.876,347.8a8.873,8.873,0,1,0,8.874,8.873A8.883,8.883,0,0,0,132.876,347.8Zm0,14.025a5.152,5.152,0,1,1,5.153-5.152A5.158,5.158,0,0,1,132.876,361.822Z" transform="translate(-124.003 -347.797)" fill="#fedc72"/>
        </g>
      </g>
      <g id="Grupo_167853" data-name="Grupo 167853" transform="translate(85.147 97.042)">
        <g id="Grupo_167852" data-name="Grupo 167852">
          <path id="Trazado_226658" data-name="Trazado 226658" d="M221.7,396.509a8.873,8.873,0,1,0,8.873,8.873A8.883,8.883,0,0,0,221.7,396.509Zm0,14.025a5.152,5.152,0,1,1,5.152-5.152A5.158,5.158,0,0,1,221.7,410.534Z" transform="translate(-212.83 -396.509)" fill="#fedc72"/>
        </g>
      </g>
      <g id="Grupo_167855" data-name="Grupo 167855" transform="translate(108.289 85.12)">
        <g id="Grupo_167854" data-name="Grupo 167854">
          <path id="Trazado_226659" data-name="Trazado 226659" d="M316.26,347.8a8.873,8.873,0,1,0,8.874,8.873A8.883,8.883,0,0,0,316.26,347.8Zm0,14.025a5.152,5.152,0,1,1,5.152-5.152A5.158,5.158,0,0,1,316.26,361.822Z" transform="translate(-307.387 -347.797)" fill="#fedc72"/>
        </g>
      </g>
      <g id="Grupo_167857" data-name="Grupo 167857" transform="translate(106.171)">
        <g id="Grupo_167856" data-name="Grupo 167856">
          <path id="Trazado_226660" data-name="Trazado 226660" d="M339.638,16.447a1.86,1.86,0,0,0-3.678.563c1.844,12.039-.958,19.252-8.326,21.458l-3.394-1.389,5.27-8.195a1.861,1.861,0,1,0-3.13-2.013l-5.643,8.774-1.683-.688,2.127-10.213a1.86,1.86,0,1,0-3.643-.758l-1.986,9.539-2.787-1.14a9.137,9.137,0,0,1-1.9-8.125,14.041,14.041,0,0,1,8.333-9.852c6.828-2.863,11.362-5.2,14.095-8.323.4,1.214.846,2.686,1.277,4.323a1.861,1.861,0,1,0,3.6-.947,72.608,72.608,0,0,0-2.694-8.307A1.86,1.86,0,0,0,333.754,0h0a1.86,1.86,0,0,0-1.721,1.156c-1.435,3.506-4.9,5.893-14.272,9.821A17.81,17.81,0,0,0,307.223,23.5a13.006,13.006,0,0,0,2.333,10.836l-10.715,30.3a1.86,1.86,0,1,0,3.508,1.241l1.263-3.572,9.773,4-.958,2.052a1.86,1.86,0,1,0,3.371,1.575l13.052-27.948a14.842,14.842,0,0,0,10.229-10.277C340.376,27.631,340.565,22.495,339.638,16.447ZM314.96,62.935,304.854,58.8l7.918-22.391,3.407,1.394h0l8.83,3.613Z" transform="translate(-298.734)" fill="#fedc72"/>
        </g>
      </g>
    </g>
  </g>
</svg>
