<svg xmlns="http://www.w3.org/2000/svg" width="136.973" height="136.973" viewBox="0 0 136.973 136.973">
  <g id="Grupo_171017" data-name="Grupo 171017" transform="translate(4747.292 10297.091)">
    <g id="Grupo_156115" data-name="Grupo 156115" transform="translate(-4747.292 -10297.091)">
      <g id="Trazado_137458" data-name="Trazado 137458" transform="translate(0 0)" fill="#fff">
        <path d="M 68.48631286621094 131.9726409912109 C 59.91350936889648 131.9726409912109 51.59981155395508 130.2947692871094 43.77611541748047 126.9856185913086 C 40.01535797119141 125.3949661254883 36.38774871826172 123.4259033203125 32.9940071105957 121.1331405639648 C 29.6312255859375 118.8612899780273 26.46885681152344 116.2520523071289 23.5947265625 113.3779220581055 C 20.72059631347656 110.503791809082 18.11135673522949 107.341423034668 15.83950805664062 103.9786376953125 C 13.5467472076416 100.5848999023438 11.57768249511719 96.95726776123047 9.987030029296875 93.196533203125 C 6.677877902984619 85.37283325195312 5.000008583068848 77.05912017822266 5.000008583068848 68.48631286621094 C 5.000008583068848 59.91350936889648 6.677877902984619 51.59981155395508 9.987030029296875 43.77611541748047 C 11.57768249511719 40.01535797119141 13.5467472076416 36.38774871826172 15.83950805664062 32.9940071105957 C 18.11135673522949 29.6312255859375 20.72059631347656 26.46885681152344 23.5947265625 23.5947265625 C 26.46885681152344 20.72059631347656 29.6312255859375 18.11135673522949 32.9940071105957 15.83950805664062 C 36.38774871826172 13.5467472076416 40.01535797119141 11.57768249511719 43.77611541748047 9.987030029296875 C 51.59981155395508 6.677877902984619 59.91350936889648 5.000008583068848 68.48631286621094 5.000008583068848 C 77.05912017822266 5.000008583068848 85.37283325195312 6.677877902984619 93.196533203125 9.987030029296875 C 96.95726776123047 11.57768249511719 100.5848999023438 13.5467472076416 103.9786376953125 15.83950805664062 C 107.341423034668 18.11135673522949 110.503791809082 20.72059631347656 113.3779220581055 23.5947265625 C 116.2520523071289 26.46885681152344 118.8612899780273 29.6312255859375 121.1331405639648 32.9940071105957 C 123.4259033203125 36.38774871826172 125.3949661254883 40.01535797119141 126.9856185913086 43.77611541748047 C 130.2947692871094 51.59981155395508 131.9726409912109 59.91350936889648 131.9726409912109 68.48631286621094 C 131.9726409912109 77.05912017822266 130.2947692871094 85.37283325195312 126.9856185913086 93.196533203125 C 125.3949661254883 96.95726776123047 123.4259033203125 100.5848999023438 121.1331405639648 103.9786376953125 C 118.8612899780273 107.341423034668 116.2520523071289 110.503791809082 113.3779220581055 113.3779220581055 C 110.503791809082 116.2520523071289 107.341423034668 118.8612899780273 103.9786376953125 121.1331405639648 C 100.5848999023438 123.4259033203125 96.95726776123047 125.3949661254883 93.196533203125 126.9856185913086 C 85.37283325195312 130.2947692871094 77.05912017822266 131.9726409912109 68.48631286621094 131.9726409912109 Z" stroke="none"/>
        <path d="M 68.48631286621094 10.00000762939453 C 36.23686981201172 10.00000762939453 10.00000762939453 36.23686981201172 10.00000762939453 68.48631286621094 C 10.00000762939453 100.7357559204102 36.23686981201172 126.9726181030273 68.48631286621094 126.9726181030273 C 100.7357559204102 126.9726181030273 126.9726181030273 100.7357559204102 126.9726181030273 68.48631286621094 C 126.9726181030273 36.23686981201172 100.7357559204102 10.00000762939453 68.48631286621094 10.00000762939453 M 68.48631286621094 0 C 106.3102569580078 0 136.9726257324219 30.66236877441406 136.9726257324219 68.48631286621094 C 136.9726257324219 106.3102569580078 106.3102569580078 136.9726257324219 68.48631286621094 136.9726257324219 C 30.66236877441406 136.9726257324219 0 106.3102569580078 0 68.48631286621094 C 0 30.66236877441406 30.66236877441406 0 68.48631286621094 0 Z" stroke="none" fill="#8c6df2"/>
      </g>
    </g>
    <g id="Grupo_166402" data-name="Grupo 166402" transform="translate(-4715.184 -10794.702)">
      <path id="Trazado_226238" data-name="Trazado 226238" d="M70.766,559.883H67.488a12.494,12.494,0,0,0-12.477-12.217H16.739a12.494,12.494,0,0,0-12.48,12.48v10.16H2.019A2.021,2.021,0,0,0,0,572.326V575.6a2.02,2.02,0,0,0,1.876,2.012v25.006a2.022,2.022,0,0,0,2.02,2.02H5.08a3.946,3.946,0,0,0,.843,2.3v3.4a1.066,1.066,0,1,0,2.132,0v-2.011a3.965,3.965,0,0,0,3.784-1.035l1.906-1.906a2.141,2.141,0,0,0,.485-.746H41.39a1.066,1.066,0,1,0,0-2.132H32.08V590.933a2.036,2.036,0,0,0-2.033-2.033H19.074a2.036,2.036,0,0,0-2.033,2.033V602.5H13.906a2.152,2.152,0,0,0-.16-.181L11.2,599.777a2.163,2.163,0,0,0-3.059,0l-1.906,1.906a3.942,3.942,0,0,0-.629.819h-1.6V577.616h41.27v25.952a1.066,1.066,0,0,0,1.066,1.066H57.126a2.162,2.162,0,0,0,.486.746l1.906,1.906a3.938,3.938,0,0,0,2.8,1.161,4,4,0,0,0,.982-.122v2.007a1.066,1.066,0,1,0,2.132,0v-3.4a3.951,3.951,0,0,0,.843-2.3h2.437a2.022,2.022,0,0,0,2.02-2.02V571.141a1.066,1.066,0,0,0-2.132,0V602.5H65.751a3.94,3.94,0,0,0-.628-.819l-1.906-1.906a2.166,2.166,0,0,0-3.059,0l-2.545,2.545a2.151,2.151,0,0,0-.161.181H47.411v-31.13h0v-4.234H70.766a2.021,2.021,0,0,0,2.019-2.019V561.9A2.021,2.021,0,0,0,70.766,559.883ZM29.947,602.5H25.627v-11.47h4.321Zm-10.774-11.47h4.321V602.5H19.173ZM9.65,601.285a.026.026,0,0,1,.021-.009.028.028,0,0,1,.022.009l2.545,2.545a.031.031,0,0,1,0,.043l-1.906,1.906h0a1.83,1.83,0,1,1-2.588-2.589Zm52.016,0a.031.031,0,0,1,.022-.009.031.031,0,0,1,.022.009l1.906,1.906a1.832,1.832,0,0,1,0,2.588h0a1.83,1.83,0,0,1-2.588,0l-1.906-1.906a.028.028,0,0,1-.009-.022.027.027,0,0,1,.009-.022Zm8.987-36.279H44.925v-2.99H70.653Zm-5.3-5.122H56.668A12.479,12.479,0,0,0,51.16,549.8h3.851A10.36,10.36,0,0,1,65.355,559.883Zm-58.964.263A10.359,10.359,0,0,1,16.739,549.8h3.907a12.476,12.476,0,0,0-5.511,10.348,1.066,1.066,0,0,0,2.132,0A10.36,10.36,0,0,1,27.617,549.8h7.192v20.508H17.268v-4.952a1.066,1.066,0,0,0-2.132,0v4.952H6.391ZM2.132,572.439H45.279v3.045H2.132Zm43.147-2.132H36.941V549.8H44.19a10.361,10.361,0,0,1,10.346,10.085H44.812a2.022,2.022,0,0,0-2.019,2.019v3.216a2.022,2.022,0,0,0,2.019,2.019h.467Z" transform="translate(0 -9.179)" fill="#8c6df2"/>
      <path id="Trazado_226239" data-name="Trazado 226239" d="M29.8,619.049v-2.567a1.963,1.963,0,0,0-1.961-1.961H15a1.963,1.963,0,0,0-1.961,1.961v2.567A1.964,1.964,0,0,0,15,621.01H27.835A1.963,1.963,0,0,0,29.8,619.049Zm-2.132-.171h-12.5v-2.225h12.5Z" transform="translate(-6.763 -43.868)" fill="#8c6df2"/>
      <path id="Trazado_226240" data-name="Trazado 226240" d="M69.021,614.521H56.182a1.963,1.963,0,0,0-1.961,1.961v2.567a1.963,1.963,0,0,0,1.961,1.961H69.021a1.964,1.964,0,0,0,1.961-1.961v-2.567A1.963,1.963,0,0,0,69.021,614.521Zm-.171,4.357h-12.5v-2.225h12.5Z" transform="translate(-28.133 -43.868)" fill="#8c6df2"/>
      <path id="Trazado_226241" data-name="Trazado 226241" d="M15,633.368a1.963,1.963,0,0,0-1.961,1.961V637.9A1.964,1.964,0,0,0,15,639.858h4.185a1.964,1.964,0,0,0,1.961-1.961v-2.567a1.963,1.963,0,0,0-1.961-1.961Zm4.014,4.357H15.167V635.5H19.01Z" transform="translate(-6.763 -53.647)" fill="#8c6df2"/>
      <path id="Trazado_226242" data-name="Trazado 226242" d="M78.426,633.368H74.478a2.133,2.133,0,0,0-2.131,2.131v2.227a2.134,2.134,0,0,0,2.131,2.131h3.948a1.964,1.964,0,0,0,1.961-1.961v-2.567A1.963,1.963,0,0,0,78.426,633.368Zm-.171,4.357H74.479V635.5h3.777Z" transform="translate(-37.538 -53.647)" fill="#8c6df2"/>
      <path id="Trazado_226243" data-name="Trazado 226243" d="M120.015,597.976a1.964,1.964,0,0,0-1.961-1.961H105.215a1.963,1.963,0,0,0-1.961,1.961v2.567a1.963,1.963,0,0,0,1.961,1.961h12.839a1.963,1.963,0,0,0,1.961-1.961Zm-2.132,2.4h-12.5v-2.225h12.5Z" transform="translate(-53.575 -34.266)" fill="#8c6df2"/>
      <path id="Trazado_226244" data-name="Trazado 226244" d="M110.366,616.823a1.963,1.963,0,0,0-1.961-1.961h-3.19a1.963,1.963,0,0,0-1.961,1.961v2.567a1.963,1.963,0,0,0,1.961,1.961h3.19a1.963,1.963,0,0,0,1.961-1.961Zm-2.132,2.4h-2.847v-2.225h2.847Z" transform="translate(-53.575 -44.045)" fill="#8c6df2"/>
      <path id="Trazado_226245" data-name="Trazado 226245" d="M130.493,616.823a1.963,1.963,0,0,0-1.961-1.961h-3.123a1.963,1.963,0,0,0-1.961,1.961v2.567a1.963,1.963,0,0,0,1.961,1.961h3.123a1.963,1.963,0,0,0,1.961-1.961Zm-2.132,2.4h-2.78v-2.225h2.78Z" transform="translate(-64.053 -44.045)" fill="#8c6df2"/>
      <path id="Trazado_226246" data-name="Trazado 226246" d="M108.405,633.368h-3.19a1.963,1.963,0,0,0-1.961,1.961V637.9a1.963,1.963,0,0,0,1.961,1.961h3.19a1.963,1.963,0,0,0,1.961-1.961v-2.567A1.963,1.963,0,0,0,108.405,633.368Zm-.171,4.357h-2.847V635.5h2.847Z" transform="translate(-53.575 -53.647)" fill="#8c6df2"/>
      <path id="Trazado_226247" data-name="Trazado 226247" d="M128.532,633.368h-3.123a1.963,1.963,0,0,0-1.961,1.961V637.9a1.963,1.963,0,0,0,1.961,1.961h3.123a1.964,1.964,0,0,0,1.961-1.961v-2.567A1.963,1.963,0,0,0,128.532,633.368Zm-.171,4.357h-2.78V635.5h2.78Z" transform="translate(-64.053 -53.647)" fill="#8c6df2"/>
      <path id="Trazado_226248" data-name="Trazado 226248" d="M54.533,535.119a1.066,1.066,0,0,0,1.508,0l.908-.908.907.908a1.066,1.066,0,1,0,1.508-1.508l-.908-.908.908-.908a1.066,1.066,0,1,0-1.508-1.507l-.907.907-.908-.907a1.066,1.066,0,0,0-1.508,1.507l.908.908-.908.908A1.067,1.067,0,0,0,54.533,535.119Z" transform="translate(-28.134)" fill="#8c6df2"/>
      <path id="Trazado_226249" data-name="Trazado 226249" d="M85.651,555.712a1.1,1.1,0,1,0,1.1,1.1A1.1,1.1,0,0,0,85.651,555.712Z" transform="translate(-43.869 -13.354)" fill="#8c6df2"/>
      <path id="Trazado_226250" data-name="Trazado 226250" d="M58.7,575.188a1.1,1.1,0,1,0-1.1-1.1A1.1,1.1,0,0,0,58.7,575.188Z" transform="translate(-29.885 -22.314)" fill="#8c6df2"/>
    </g>
  </g>
</svg>
