<svg xmlns="http://www.w3.org/2000/svg" width="191.936" height="191.937" viewBox="0 0 191.936 191.937">
  <g id="Grupo_167875" data-name="Grupo 167875" transform="translate(249 8501)">
    <circle id="Elipse_5760" data-name="Elipse 5760" cx="95.968" cy="95.968" r="95.968" transform="translate(-249 -8501)" fill="#5038a1"/>
    <g id="caridad" transform="translate(-213.515 -8465.515)">
      <path id="Trazado_226661" data-name="Trazado 226661" d="M23,34.99c0,6.574,6.954,15.353,16.535,20.871a1.944,1.944,0,0,0,1.941,0c9.582-5.518,16.535-14.3,16.535-20.871,0-6.489-4.565-9.99-8.86-9.99-3.628,0-6.644,2.6-8.644,5.917C38.51,27.6,35.493,25,31.862,25,27.567,25,23,28.5,23,34.99Zm8.862-6.1c2.933,0,5.635,3.678,6.79,7.31a1.946,1.946,0,0,0,3.707,0c1.157-3.633,3.863-7.312,6.792-7.312,2.41,0,4.97,2.138,4.97,6.1,0,4.31-5.069,11.686-13.616,16.924C31.959,46.676,26.89,39.3,26.89,34.99c0-3.962,2.56-6.1,4.972-6.1Z" transform="translate(19.847 21.737)" fill="#fedc72"/>
      <path id="Trazado_226662" data-name="Trazado 226662" d="M77.852,39.074v-.358a5.83,5.83,0,0,0-8.006-5.407C68.061,26.722,58.4,28.082,58.4,34.825v.358a5.81,5.81,0,0,0-7.78,5.477V60.45c-2.474-2.536-3.637-6.174-7.78-6.174a5.842,5.842,0,0,0-4.929,8.955h0c9.354,14.4,9.941,16.316,13.046,19.416a12.06,12.06,0,0,1,3.556,8.586,1.945,1.945,0,0,0,3.89,0c0-8.152-4.929-10.813-7.438-14.754-.124-.195-10.021-15.732-9.774-15.343a1.945,1.945,0,0,1,3.167-2.245l6.265,7.743v1.257a1.945,1.945,0,0,0,3.89,0V40.661a1.945,1.945,0,0,1,3.89,0V58.167a1.945,1.945,0,1,0,3.89,0V34.825a1.945,1.945,0,0,1,3.89,0V58.167a1.945,1.945,0,1,0,3.89,0V38.716a1.945,1.945,0,0,1,3.89,0V58.167a1.945,1.945,0,1,0,3.89,0V44.551a1.945,1.945,0,0,1,3.89,0V69.476c0,7.642-3.89,9.584-3.89,18.228v3.53a1.945,1.945,0,0,0,3.89,0V87.705c0-7.566,3.89-9.671,3.89-18.228V44.551A5.81,5.81,0,0,0,77.852,39.074Z" transform="translate(33.074 25.528)" fill="#fedc72"/>
      <path id="Trazado_226663" data-name="Trazado 226663" d="M91.234,29.231c-8.132,0-10.838,4.943-14.754,7.44l-15.339,9.77-.006,0a1.945,1.945,0,0,1-2.245-3.167l7.745-6.265h1.257a1.945,1.945,0,0,0,0-3.89H40.661a1.945,1.945,0,0,1,0-3.89H58.167a1.945,1.945,0,0,0,0-3.89H34.825a1.945,1.945,0,0,1,0-3.89H58.167a1.945,1.945,0,0,0,0-3.89H38.716a1.945,1.945,0,0,1,0-3.89H58.167a1.945,1.945,0,0,0,0-3.89H44.551a1.945,1.945,0,0,1,0-3.89H69.476c7.666,0,9.622,3.89,18.228,3.89h3.53a1.945,1.945,0,0,0,0-3.89H87.705C80.078,5.89,78.1,2,69.478,2H44.551a5.81,5.81,0,0,0-5.477,7.78h-.358a5.83,5.83,0,0,0-5.407,8.006c-6.586,1.786-5.227,11.445,1.517,11.445h.358a5.81,5.81,0,0,0,5.477,7.78H60.452c-2.548,2.484-6.176,3.628-6.176,7.78a5.844,5.844,0,0,0,8.955,4.931l15.339-9.77c4.357-2.78,6.15-6.831,12.663-6.831a1.945,1.945,0,0,0,0-3.89Z" transform="translate(25.528 0)" fill="#fedc72"/>
      <path id="Trazado_226664" data-name="Trazado 226664" d="M9.78,56.1v.358a5.83,5.83,0,0,0,8.006,5.407c1.786,6.586,11.445,5.227,11.445-1.517v-.358a5.81,5.81,0,0,0,7.78-5.477V34.721c2.474,2.536,3.637,6.174,7.78,6.174a5.843,5.843,0,0,0,4.929-8.955h0C40.387,17.569,39.8,15.648,36.677,12.524a12.06,12.06,0,0,1-3.556-8.586,1.945,1.945,0,0,0-3.89,0,15.928,15.928,0,0,0,4.7,11.338c2.618,2.618,12.641,18.955,12.519,18.761a1.945,1.945,0,0,1-3.167,2.245l-6.267-7.745V27.279a1.945,1.945,0,0,0-3.89,0V54.511a1.945,1.945,0,0,1-3.89,0V37a1.945,1.945,0,0,0-3.89,0V60.346a1.945,1.945,0,0,1-3.89,0V37a1.945,1.945,0,0,0-3.89,0V56.456a1.945,1.945,0,0,1-3.89,0V37a1.945,1.945,0,0,0-3.89,0V50.621a1.945,1.945,0,0,1-3.89,0V25.7A20.032,20.032,0,0,1,7.33,18.221l.733-1.83A23.934,23.934,0,0,0,9.78,7.467V3.938a1.945,1.945,0,0,0-3.89,0V7.467a20.049,20.049,0,0,1-1.439,7.477l-.733,1.83A23.916,23.916,0,0,0,2,25.7V50.621A5.81,5.81,0,0,0,9.78,56.1Z" transform="translate(0 0.007)" fill="#fedc72"/>
      <path id="Trazado_226665" data-name="Trazado 226665" d="M60.353,58.4H60a5.81,5.81,0,0,0-5.477-7.78H34.726c2.548-2.484,6.176-3.628,6.176-7.78A5.842,5.842,0,0,0,35.067,37c-3,0-3.242,1.354-18.457,10.677-4.359,2.778-6.152,6.829-12.665,6.829a1.945,1.945,0,0,0,0,3.89,15.927,15.927,0,0,0,11.336-4.7c2.62-2.618,18.957-12.643,18.762-12.519a1.914,1.914,0,0,1,1.023-.292,1.947,1.947,0,0,1,1.222,3.458l-7.745,6.267H27.286a1.945,1.945,0,0,0,0,3.89H54.518a1.945,1.945,0,0,1,0,3.89H37.012a1.945,1.945,0,0,0,0,3.89H60.353a1.945,1.945,0,0,1,0,3.89H37.012a1.945,1.945,0,0,0,0,3.89H56.463a1.945,1.945,0,0,1,0,3.89H37.012a1.945,1.945,0,0,0,0,3.89H50.628a1.945,1.945,0,0,1,0,3.89H25.7A20.027,20.027,0,0,1,18.226,80.3l-1.832-.729a23.862,23.862,0,0,0-8.92-1.719H3.945a1.945,1.945,0,0,0,0,3.89H7.474a20.027,20.027,0,0,1,7.477,1.441l1.832.729a23.862,23.862,0,0,0,8.92,1.719H50.628a5.81,5.81,0,0,0,5.477-7.78h.358a5.831,5.831,0,0,0,5.407-8.006C68.456,68.056,67.1,58.4,60.353,58.4Z" transform="translate(0 33.079)" fill="#fedc72"/>
    </g>
  </g>
</svg>
