<svg xmlns="http://www.w3.org/2000/svg" width="191.936" height="191.936" viewBox="0 0 191.936 191.936">
  <g id="Grupo_167874" data-name="Grupo 167874" transform="translate(249 8069)">
    <circle id="Elipse_5760" data-name="Elipse 5760" cx="95.968" cy="95.968" r="95.968" transform="translate(-249 -8069)" fill="#5038a1"/>
    <g id="revista" transform="translate(-244.905 -8030.279)">
      <path id="Trazado_226666" data-name="Trazado 226666" d="M129.078,114.343H95.411a1.675,1.675,0,0,1,0-3.35h3a34.931,34.931,0,0,1,6.4-18.005L112.364,82.1V80.3A18.938,18.938,0,0,1,108,73.482a11.5,11.5,0,0,1-6.419,2.174,9.39,9.39,0,0,1-6.553-3.041,12.411,12.411,0,0,0,4.565,7.717,1.675,1.675,0,0,1-2.263,2.47c-3.143-2.88-5.129-5.522-6.044-12.1H84.4l-3.939,4.624a7.8,7.8,0,0,0-1.859,5.05V91.8c0,4.766-4.578,8.686-9.006,12.477-2.671,2.286-5.414,4.635-6.487,6.716h25.6a1.675,1.675,0,1,1,0,3.35H49.621a5.03,5.03,0,0,1-5.025-5.025v-45.5a1.675,1.675,0,1,1,3.35,0v8.441l18.585-9.408a23.728,23.728,0,0,1,5.206-4.771,11.658,11.658,0,0,1,9.849-1.062,22.7,22.7,0,0,0,9.1,1.054v-4c-3.065.408-8.052.64-10.685-1.563a4.98,4.98,0,0,1-1.795-3.948V44.149c-1.442-.919-3.441-2.533-3.441-4.408,0-1.69,1.17-2.611,2.11-3.351a5.067,5.067,0,0,0,1.736-1.929l-1.4-.582a99.935,99.935,0,0,0-13.639-4.919v3.7a1.675,1.675,0,1,1-3.35,0V28.23a41,41,0,0,0-7.258-.652,1.675,1.675,0,0,1,0-3.35h7.258V8.375A1.675,1.675,0,0,1,61.9,6.7h13.12a1.675,1.675,0,0,1,0,3.35H63.573v6.476h9.212a1.675,1.675,0,1,1,0,3.35H63.573v4.352h15.7a17,17,0,0,1,2.469-5.315c2.159-3.075,6.4-6.74,14.343-6.74,5.745,0,10.264,1.628,13.43,4.838a16.579,16.579,0,0,1,4.454,9.721l15,3.241V3.35H111.049a1.675,1.675,0,0,1,0-3.35h18.029a3.242,3.242,0,0,1,3.238,3.238V4.5l3.841.453a3.238,3.238,0,0,1,2.836,3.6l-6.662,56.408c0,.036-.009.07-.016.1V111.1a3.242,3.242,0,0,1-3.238,3.238Zm-3.434-3.35h3.323V40.417a91.4,91.4,0,0,1-16.589,1.7,73.351,73.351,0,0,1-18.338-2.269s0,19.687,0,19.707c.006,5.324,1.506,8.381,2.765,10.008a6.383,6.383,0,0,0,4.776,2.741c3.5,0,6.752-3.1,8.859-5.7a36.826,36.826,0,0,0,3.453-5.144,14.755,14.755,0,0,1-1.715-7.588V47.55a1.675,1.675,0,1,1,3.35,0v6.321a11.741,11.741,0,0,0,1.22,5.829,9.8,9.8,0,0,1,8.9,9.749v41.543Zm-9.93,0h6.58V69.45a6.45,6.45,0,0,0-5.469-6.367,36.584,36.584,0,0,1-5.913,7.983c.139,2.085,1.693,4.747,4.312,7.366a1.675,1.675,0,0,1,.491,1.184Zm-13.943,0h10.593V87.979l-4.8,6.918A31.647,31.647,0,0,0,101.771,110.993ZM47.946,80.728v28.59a1.677,1.677,0,0,0,1.675,1.675h9.9c.906-3.278,4.312-6.193,7.895-9.26l.3-.257A95.412,95.412,0,0,1,47.946,80.728Zm.8-5.122c5.048,9.343,16.359,20.05,21.56,23.6,2.1-1.917,3.9-3.846,4.614-5.731H68.947a1.677,1.677,0,0,1-.967-.307C62.2,89.082,58.5,80.4,58.344,80.037A1.675,1.675,0,0,1,59.12,77.9l11.169-5.765a9.408,9.408,0,0,1,8.594-.118l3.07-3.6V60.628c-.494-.134-.981-.282-1.455-.445a8.319,8.319,0,0,0-7.026.76,21.023,21.023,0,0,0-4.547,4.272,1.675,1.675,0,0,1-.561.461ZM69.5,90.126h5.756V80.378a11.149,11.149,0,0,1,1.534-5.641,6.241,6.241,0,0,0-4.962.373l-9.738,5.027C63.271,82.531,65.975,87.414,69.5,90.126ZM85.3,67.353h5.633c-.129-1.737-.207-3.7-.234-5.922a25.549,25.549,0,0,1-5.4-.139v6.061ZM78.152,39.716a8.568,8.568,0,0,0,2.542,2.014,1.678,1.678,0,0,1,.865,1.466v5.36a1.645,1.645,0,0,0,.594,1.379c1.432,1.2,5.172,1.244,8.536.749V38.919c-3.2-.965-6.16-2.067-8.973-3.192a8.171,8.171,0,0,1-2.767,3.294,6.5,6.5,0,0,0-.8.694Zm-7.73-12.138c2.706.974,5.366,2.08,8.077,3.208,9.436,3.925,19.194,7.984,33.879,7.984a89.056,89.056,0,0,0,16.589-1.762V33.4L112.023,29.74a1.675,1.675,0,0,1-1.321-1.66,13.578,13.578,0,0,0-3.6-8.743c-2.513-2.531-6.221-3.814-11.019-3.814-5.222,0-9.125,1.788-11.6,5.315a13.284,13.284,0,0,0-2.192,5.268,1.675,1.675,0,0,1-1.663,1.472h-10.2Zm61.894-19.7V36.532l3.337-28.26ZM46.265,58.79a1.675,1.675,0,0,1-1.675-1.675V5.025A5.031,5.031,0,0,1,49.615,0h54.728a1.675,1.675,0,0,1,0,3.35H49.615A1.677,1.677,0,0,0,47.94,5.025V57.116A1.675,1.675,0,0,1,46.265,58.79Z" fill="#fedc72"/>
    </g>
  </g>
</svg>
