<svg xmlns="http://www.w3.org/2000/svg" width="136.973" height="136.973" viewBox="0 0 136.973 136.973">
  <g id="Grupo_171019" data-name="Grupo 171019" transform="translate(4045.292 10297.091)">
    <g id="Grupo_156117" data-name="Grupo 156117" transform="translate(-4045.292 -10297.091)">
      <g id="Trazado_137458" data-name="Trazado 137458" transform="translate(0 0)" fill="#fff">
        <path d="M 68.48631286621094 131.9726409912109 C 59.91350936889648 131.9726409912109 51.59981155395508 130.2947692871094 43.77611541748047 126.9856185913086 C 40.01535797119141 125.3949661254883 36.38774871826172 123.4259033203125 32.9940071105957 121.1331405639648 C 29.6312255859375 118.8612899780273 26.46885681152344 116.2520523071289 23.5947265625 113.3779220581055 C 20.72059631347656 110.503791809082 18.11135673522949 107.341423034668 15.83950805664062 103.9786376953125 C 13.5467472076416 100.5848999023438 11.57768249511719 96.95726776123047 9.987030029296875 93.196533203125 C 6.677877902984619 85.37283325195312 5.000008583068848 77.05912017822266 5.000008583068848 68.48631286621094 C 5.000008583068848 59.91350936889648 6.677877902984619 51.59981155395508 9.987030029296875 43.77611541748047 C 11.57768249511719 40.01535797119141 13.5467472076416 36.38774871826172 15.83950805664062 32.9940071105957 C 18.11135673522949 29.6312255859375 20.72059631347656 26.46885681152344 23.5947265625 23.5947265625 C 26.46885681152344 20.72059631347656 29.6312255859375 18.11135673522949 32.9940071105957 15.83950805664062 C 36.38774871826172 13.5467472076416 40.01535797119141 11.57768249511719 43.77611541748047 9.987030029296875 C 51.59981155395508 6.677877902984619 59.91350936889648 5.000008583068848 68.48631286621094 5.000008583068848 C 77.05912017822266 5.000008583068848 85.37283325195312 6.677877902984619 93.196533203125 9.987030029296875 C 96.95726776123047 11.57768249511719 100.5848999023438 13.5467472076416 103.9786376953125 15.83950805664062 C 107.341423034668 18.11135673522949 110.503791809082 20.72059631347656 113.3779220581055 23.5947265625 C 116.2520523071289 26.46885681152344 118.8612899780273 29.6312255859375 121.1331405639648 32.9940071105957 C 123.4259033203125 36.38774871826172 125.3949661254883 40.01535797119141 126.9856185913086 43.77611541748047 C 130.2947692871094 51.59981155395508 131.9726409912109 59.91350936889648 131.9726409912109 68.48631286621094 C 131.9726409912109 77.05912017822266 130.2947692871094 85.37283325195312 126.9856185913086 93.196533203125 C 125.3949661254883 96.95726776123047 123.4259033203125 100.5848999023438 121.1331405639648 103.9786376953125 C 118.8612899780273 107.341423034668 116.2520523071289 110.503791809082 113.3779220581055 113.3779220581055 C 110.503791809082 116.2520523071289 107.341423034668 118.8612899780273 103.9786376953125 121.1331405639648 C 100.5848999023438 123.4259033203125 96.95726776123047 125.3949661254883 93.196533203125 126.9856185913086 C 85.37283325195312 130.2947692871094 77.05912017822266 131.9726409912109 68.48631286621094 131.9726409912109 Z" stroke="none"/>
        <path d="M 68.48631286621094 10.00000762939453 C 36.23686981201172 10.00000762939453 10.00000762939453 36.23686981201172 10.00000762939453 68.48631286621094 C 10.00000762939453 100.7357559204102 36.23686981201172 126.9726181030273 68.48631286621094 126.9726181030273 C 100.7357559204102 126.9726181030273 126.9726181030273 100.7357559204102 126.9726181030273 68.48631286621094 C 126.9726181030273 36.23686981201172 100.7357559204102 10.00000762939453 68.48631286621094 10.00000762939453 M 68.48631286621094 0 C 106.3102569580078 0 136.9726257324219 30.66236877441406 136.9726257324219 68.48631286621094 C 136.9726257324219 106.3102569580078 106.3102569580078 136.9726257324219 68.48631286621094 136.9726257324219 C 30.66236877441406 136.9726257324219 0 106.3102569580078 0 68.48631286621094 C 0 30.66236877441406 30.66236877441406 0 68.48631286621094 0 Z" stroke="none" fill="#8c6df2"/>
      </g>
    </g>
    <g id="escenario" transform="translate(-4011.549 -10272.624)">
      <ellipse id="Elipse_6499" data-name="Elipse 6499" cx="1.18" cy="1.475" rx="1.18" ry="1.475" transform="translate(8.26 48.717)" fill="#8c6df2"/>
      <ellipse id="Elipse_6500" data-name="Elipse 6500" cx="1.18" cy="1.475" rx="1.18" ry="1.475" transform="translate(58.412 48.717)" fill="#8c6df2"/>
      <path id="Trazado_226260" data-name="Trazado 226260" d="M67.655,43.345H65.5V20.434a4.033,4.033,0,0,0-1.346-3.009l-2.84-5.68a1.339,1.339,0,0,0-1.2-.745H40.555a1.348,1.348,0,1,0,0,2.7h18.72l1.387,2.774a4.057,4.057,0,0,0-3.018,2.617H52.212a5.376,5.376,0,0,0-7.12,0h-7.03a5.376,5.376,0,0,0-7.121,0H23.911a5.376,5.376,0,0,0-7.12,0H11.358A4.057,4.057,0,0,0,8.341,16.47L9.728,13.7h18.7a1.348,1.348,0,1,0,0-2.7H8.895a1.339,1.339,0,0,0-1.2.745L4.848,17.427A4.034,4.034,0,0,0,3.5,20.434V43.345H1.348A1.348,1.348,0,0,0,0,44.693v31a1.348,1.348,0,0,0,1.348,1.348H67.655A1.348,1.348,0,0,0,69,75.69v-31A1.348,1.348,0,0,0,67.655,43.345ZM66.307,64.908H52.83V46.04H66.307Zm-23.425,0-4-4.8V53.876a1.347,1.347,0,0,0,1.9-1.915l-1.9-1.9V47.119a1.348,1.348,0,0,0-2.7,0v.25l-2.012-2.012a4.045,4.045,0,1,0-1.906,1.906l3.918,3.918v8.927l-4,4.8H18.868V44.693a1.348,1.348,0,0,0-1.348-1.348H11.59V27.173h5.2a5.376,5.376,0,0,0,7.12,0h7.031a5.376,5.376,0,0,0,7.121,0h7.03a5.376,5.376,0,0,0,7.12,0h5.2V43.345h-5.93a1.348,1.348,0,0,0-1.348,1.348V64.908ZM37.534,62.7l1.839,2.207H35.694ZM30.526,44.962a1.348,1.348,0,1,1,1.348-1.348A1.349,1.349,0,0,1,30.526,44.962ZM15.13,24.477H11.59v-2.7h3.54a5.408,5.408,0,0,0,0,2.7Zm14.151,0H25.571a5.408,5.408,0,0,0,0-2.7h3.711a5.408,5.408,0,0,0,0,2.7Zm14.151,0H39.722a5.408,5.408,0,0,0,0-2.7h3.711a5.408,5.408,0,0,0,0,2.7Zm13.98,0h-3.54a5.408,5.408,0,0,0,0-2.7h3.54Zm2.7,18.868V25.825h2.7v17.52Zm1.348-24.259A1.349,1.349,0,0,1,62.8,20.434v2.7h-2.7v-2.7A1.349,1.349,0,0,1,61.456,19.086ZM51.348,23.129a2.7,2.7,0,1,1-2.7-2.7A2.7,2.7,0,0,1,51.348,23.129ZM34.5,20.434a2.7,2.7,0,1,1-2.7,2.7A2.7,2.7,0,0,1,34.5,20.434Zm-11.456,2.7a2.7,2.7,0,1,1-2.7-2.7A2.7,2.7,0,0,1,23.046,23.129Zm-14.151-2.7v2.7H6.2v-2.7a1.348,1.348,0,1,1,2.7,0ZM6.2,25.825h2.7v17.52H6.2ZM2.7,46.04H16.173V64.908H2.7ZM2.7,67.6H22.372v6.739H2.7Zm22.372,6.739V67.6H43.935v6.739Zm41.24,0H46.631V67.6H66.307Z" fill="#8c6df2"/>
      <circle id="Elipse_6501" data-name="Elipse 6501" cx="1.348" cy="1.348" r="1.348" transform="translate(33.143 11)" fill="#8c6df2"/>
      <path id="Trazado_226261" data-name="Trazado 226261" d="M44.043,331a4.043,4.043,0,1,0,4.043,4.043A4.048,4.048,0,0,0,44.043,331Zm0,5.391a1.348,1.348,0,1,1,1.348-1.348A1.349,1.349,0,0,1,44.043,336.391Z" transform="translate(-34.609 -276.873)" fill="#8c6df2"/>
      <path id="Trazado_226262" data-name="Trazado 226262" d="M416.043,331a4.043,4.043,0,1,0,4.043,4.043A4.048,4.048,0,0,0,416.043,331Zm0,5.391a1.348,1.348,0,1,1,1.348-1.348A1.349,1.349,0,0,1,416.043,336.391Z" transform="translate(-356.474 -276.873)" fill="#8c6df2"/>
    </g>
  </g>
</svg>
