<svg xmlns="http://www.w3.org/2000/svg" width="191.936" height="191.936" viewBox="0 0 191.936 191.936">
  <g id="Grupo_167873" data-name="Grupo 167873" transform="translate(249 7694)">
    <circle id="Elipse_5760" data-name="Elipse 5760" cx="95.968" cy="95.968" r="95.968" transform="translate(-249 -7694)" fill="#5038a1"/>
    <g id="Grupo_167858" data-name="Grupo 167858" transform="translate(-216 -8113.56)">
      <path id="Trazado_226667" data-name="Trazado 226667" d="M122.458,463.56H3.827A3.832,3.832,0,0,0,0,467.387v67.224a3.832,3.832,0,0,0,3.827,3.827H5.8a1.85,1.85,0,0,0,0-3.7H3.827a.127.127,0,0,1-.127-.127V467.387a.127.127,0,0,1,.127-.127h118.63a.127.127,0,0,1,.127.127v67.224a.127.127,0,0,1-.127.127H120.48a1.85,1.85,0,1,0,0,3.7h1.978a3.831,3.831,0,0,0,3.827-3.827V467.387A3.831,3.831,0,0,0,122.458,463.56Z" fill="#fedc72"/>
      <path id="Trazado_226668" data-name="Trazado 226668" d="M112.971,558.35h-2.1v-2.1a7.79,7.79,0,0,0-7.781-7.781H95.176a7.767,7.767,0,0,0-5.932,2.753,7.767,7.767,0,0,0-5.932-2.753H75.4a7.767,7.767,0,0,0-5.932,2.753,7.767,7.767,0,0,0-5.932-2.753H55.633a7.767,7.767,0,0,0-5.932,2.753,7.767,7.767,0,0,0-5.932-2.753H35.861a7.79,7.79,0,0,0-7.781,7.781v2.1h-2.1a7.79,7.79,0,0,0-7.781,7.781V587.88a1.85,1.85,0,0,0,1.85,1.851H28.08v4.209H20.044a1.85,1.85,0,1,0,0,3.7H118.9a1.85,1.85,0,1,0,0-3.7h-8.036v-4.209H118.9a1.85,1.85,0,0,0,1.85-1.851V566.131A7.79,7.79,0,0,0,112.971,558.35Zm4.082,7.781v11.99H100.981v-2.1a1.85,1.85,0,0,0-3.7,0v2.1H81.209v-11.99a4.086,4.086,0,0,1,4.081-4.082H93.2a4.086,4.086,0,0,1,4.082,4.082v1.977a1.85,1.85,0,1,0,3.7,0v-1.977a4.086,4.086,0,0,1,4.082-4.082h7.909A4.086,4.086,0,0,1,117.053,566.131Zm-19.772,19.9H81.209v-4.21H97.281ZM53.656,562.05a4.086,4.086,0,0,1,4.081,4.082v11.99H41.666V566.13a4.086,4.086,0,0,1,4.082-4.08Zm19.772,0a4.086,4.086,0,0,1,4.081,4.082v11.99H61.438v-11.99a4.086,4.086,0,0,1,4.082-4.082ZM61.438,586.03v-4.209H77.509v4.209Zm-19.772-4.209H57.737v4.209H41.666Zm17.921,7.909h8.036v4.209H51.551v-4.209Zm11.736,0H87.395v4.209H71.323Zm23.853-37.567h7.909a4.086,4.086,0,0,1,4.081,4.082v2.1h-2.1a7.767,7.767,0,0,0-5.932,2.753A7.767,7.767,0,0,0,93.2,558.35h-2.1v-2.1A4.087,4.087,0,0,1,95.176,552.164Zm-19.772,0h7.909a4.087,4.087,0,0,1,4.082,4.082v2.1h-2.1a7.764,7.764,0,0,0-5.931,2.753,7.767,7.767,0,0,0-5.932-2.753h-2.1v-2.1A4.087,4.087,0,0,1,75.4,552.164Zm-19.772,0h7.909a4.087,4.087,0,0,1,4.082,4.082v2.1h-2.1a7.765,7.765,0,0,0-5.932,2.753,7.767,7.767,0,0,0-5.932-2.753h-2.1v-2.1A4.087,4.087,0,0,1,55.633,552.164ZM31.78,556.245a4.087,4.087,0,0,1,4.082-4.082H43.77a4.087,4.087,0,0,1,4.082,4.082v2.1h-2.1a7.765,7.765,0,0,0-5.932,2.753,7.768,7.768,0,0,0-5.932-2.753h-2.1Zm-5.8,5.8h7.909a4.086,4.086,0,0,1,4.082,4.08v11.992H21.894v-11.99A4.087,4.087,0,0,1,25.975,562.05Zm-4.082,19.772H37.966v4.209H21.894Zm9.886,7.909H47.852v4.209H31.78Zm75.387,4.209H91.095v-4.209h16.072Zm-6.186-7.909v-4.209h16.072v4.209Z" transform="translate(-6.331 -29.544)" fill="#fedc72"/>
      <path id="Trazado_226669" data-name="Trazado 226669" d="M99.935,493.489a11.733,11.733,0,0,0-22.466-4.744A9.753,9.753,0,1,0,64.6,503.308c0,.022,0,.044,0,.067v9.885a3.832,3.832,0,0,0,3.827,3.827H92.154a3.832,3.832,0,0,0,3.827-3.827V512.3l9.186,4.593a1.85,1.85,0,0,0,2.677-1.654V503.375a1.85,1.85,0,0,0-2.677-1.655l-9.186,4.593v-4.049A11.71,11.71,0,0,0,99.935,493.489Zm4.21,12.879v5.877l-5.877-2.938ZM88.2,485.453a8.036,8.036,0,1,1-8.036,8.036A8.044,8.044,0,0,1,88.2,485.453Zm-17.795,3.955a6.058,6.058,0,1,1-6.059,6.058A6.065,6.065,0,0,1,70.405,489.408Zm21.876,19.9v3.957a.128.128,0,0,1-.128.128H68.428a.128.128,0,0,1-.128-.128v-8.267a9.74,9.74,0,0,0,10.476-4.519,11.723,11.723,0,0,0,13.506,4.017Z" transform="translate(-21.103 -6.331)" fill="#fedc72"/>
      <path id="Trazado_226670" data-name="Trazado 226670" d="M74.6,503.647h.02a1.85,1.85,0,0,0,0-3.7H74.6a1.85,1.85,0,0,0,0,3.7Z" transform="translate(-25.313 -12.661)" fill="#fedc72"/>
      <path id="Trazado_226671" data-name="Trazado 226671" d="M101.917,500.615h.02a1.85,1.85,0,1,0,0-3.7h-.02a1.85,1.85,0,1,0,0,3.7Z" transform="translate(-34.82 -11.606)" fill="#fedc72"/>
    </g>
  </g>
</svg>
