<svg xmlns="http://www.w3.org/2000/svg" width="136.973" height="136.973" viewBox="0 0 136.973 136.973">
  <g id="Grupo_171020" data-name="Grupo 171020" transform="translate(4747.292 9940.091)">
    <g id="Grupo_156130" data-name="Grupo 156130" transform="translate(-4747.292 -9940.091)">
      <g id="Trazado_137458" data-name="Trazado 137458" transform="translate(0 0)" fill="#fff">
        <path d="M 68.48631286621094 131.9726409912109 C 59.91350936889648 131.9726409912109 51.59981155395508 130.2947692871094 43.77611541748047 126.9856185913086 C 40.01535797119141 125.3949661254883 36.38774871826172 123.4259033203125 32.9940071105957 121.1331405639648 C 29.6312255859375 118.8612899780273 26.46885681152344 116.2520523071289 23.5947265625 113.3779220581055 C 20.72059631347656 110.503791809082 18.11135673522949 107.341423034668 15.83950805664062 103.9786376953125 C 13.5467472076416 100.5848999023438 11.57768249511719 96.95726776123047 9.987030029296875 93.196533203125 C 6.677877902984619 85.37283325195312 5.000008583068848 77.05912017822266 5.000008583068848 68.48631286621094 C 5.000008583068848 59.91350936889648 6.677877902984619 51.59981155395508 9.987030029296875 43.77611541748047 C 11.57768249511719 40.01535797119141 13.5467472076416 36.38774871826172 15.83950805664062 32.9940071105957 C 18.11135673522949 29.6312255859375 20.72059631347656 26.46885681152344 23.5947265625 23.5947265625 C 26.46885681152344 20.72059631347656 29.6312255859375 18.11135673522949 32.9940071105957 15.83950805664062 C 36.38774871826172 13.5467472076416 40.01535797119141 11.57768249511719 43.77611541748047 9.987030029296875 C 51.59981155395508 6.677877902984619 59.91350936889648 5.000008583068848 68.48631286621094 5.000008583068848 C 77.05912017822266 5.000008583068848 85.37283325195312 6.677877902984619 93.196533203125 9.987030029296875 C 96.95726776123047 11.57768249511719 100.5848999023438 13.5467472076416 103.9786376953125 15.83950805664062 C 107.341423034668 18.11135673522949 110.503791809082 20.72059631347656 113.3779220581055 23.5947265625 C 116.2520523071289 26.46885681152344 118.8612899780273 29.6312255859375 121.1331405639648 32.9940071105957 C 123.4259033203125 36.38774871826172 125.3949661254883 40.01535797119141 126.9856185913086 43.77611541748047 C 130.2947692871094 51.59981155395508 131.9726409912109 59.91350936889648 131.9726409912109 68.48631286621094 C 131.9726409912109 77.05912017822266 130.2947692871094 85.37283325195312 126.9856185913086 93.196533203125 C 125.3949661254883 96.95726776123047 123.4259033203125 100.5848999023438 121.1331405639648 103.9786376953125 C 118.8612899780273 107.341423034668 116.2520523071289 110.503791809082 113.3779220581055 113.3779220581055 C 110.503791809082 116.2520523071289 107.341423034668 118.8612899780273 103.9786376953125 121.1331405639648 C 100.5848999023438 123.4259033203125 96.95726776123047 125.3949661254883 93.196533203125 126.9856185913086 C 85.37283325195312 130.2947692871094 77.05912017822266 131.9726409912109 68.48631286621094 131.9726409912109 Z" stroke="none"/>
        <path d="M 68.48631286621094 10.00000762939453 C 36.23686981201172 10.00000762939453 10.00000762939453 36.23686981201172 10.00000762939453 68.48631286621094 C 10.00000762939453 100.7357559204102 36.23686981201172 126.9726181030273 68.48631286621094 126.9726181030273 C 100.7357559204102 126.9726181030273 126.9726181030273 100.7357559204102 126.9726181030273 68.48631286621094 C 126.9726181030273 36.23686981201172 100.7357559204102 10.00000762939453 68.48631286621094 10.00000762939453 M 68.48631286621094 0 C 106.3102569580078 0 136.9726257324219 30.66236877441406 136.9726257324219 68.48631286621094 C 136.9726257324219 106.3102569580078 106.3102569580078 136.9726257324219 68.48631286621094 136.9726257324219 C 30.66236877441406 136.9726257324219 0 106.3102569580078 0 68.48631286621094 C 0 30.66236877441406 30.66236877441406 0 68.48631286621094 0 Z" stroke="none" fill="#8c6df2"/>
      </g>
    </g>
    <g id="billete-de-vuelo" transform="translate(-4717 -9915)">
      <path id="Trazado_226263" data-name="Trazado 226263" d="M73.275,32.29H58.5a22.355,22.355,0,1,0-39.993,0H3.726A3.731,3.731,0,0,0,0,36.016V73.275A3.731,3.731,0,0,0,3.726,77H19.143l1.97-1.97L23.083,77H73.275A3.731,3.731,0,0,0,77,73.275V36.016a3.731,3.731,0,0,0-3.726-3.726Zm-17.914.529a31.626,31.626,0,0,0-7.692-3.908,28.42,28.42,0,0,0,0-13.112,31.627,31.627,0,0,0,7.692-3.908,19.693,19.693,0,0,1,0,20.929ZM31.049,22.355a26.024,26.024,0,0,1,.684-5.839,27.391,27.391,0,0,0,6.768.871,27.345,27.345,0,0,0,6.77-.872,25.308,25.308,0,0,1,0,11.678,26.724,26.724,0,0,0-13.538,0A26.1,26.1,0,0,1,31.049,22.355Zm1.341-8.247a33.861,33.861,0,0,1,6.111-11,33.694,33.694,0,0,1,6.113,11,24.6,24.6,0,0,1-6.114.8,24.641,24.641,0,0,1-6.11-.8Zm6.11,15.7a24.641,24.641,0,0,1,6.11.8,33.861,33.861,0,0,1-6.111,11,33.694,33.694,0,0,1-6.113-11A24.6,24.6,0,0,1,38.5,29.807ZM35.618,41.993a19.859,19.859,0,0,1-12.543-7.135A29.905,29.905,0,0,1,30,31.329,35.454,35.454,0,0,0,35.618,41.993ZM47.005,31.329a29.853,29.853,0,0,1,6.92,3.528,19.851,19.851,0,0,1-12.543,7.135A35.455,35.455,0,0,0,47.005,31.329Zm6.92-21.477a29.905,29.905,0,0,1-6.92,3.528A35.424,35.424,0,0,0,41.383,2.717,19.859,19.859,0,0,1,53.925,9.852ZM35.618,2.717A35.51,35.51,0,0,0,30,13.381a29.781,29.781,0,0,1-6.92-3.528A19.859,19.859,0,0,1,35.618,2.717ZM21.639,11.891A31.626,31.626,0,0,0,29.331,15.8a28.42,28.42,0,0,0,0,13.112,31.627,31.627,0,0,0-7.692,3.908,19.693,19.693,0,0,1,0-20.929ZM74.516,73.274a1.244,1.244,0,0,1-1.242,1.242H24.111L22.355,72.76v-5.7H19.871v5.7l-1.756,1.756H3.726a1.244,1.244,0,0,1-1.242-1.242V36.016a1.244,1.244,0,0,1,1.242-1.242H18.115l1.756,1.756v5.7h2.484V37.775a22.295,22.295,0,0,0,34.774-3.09v.089H73.274a1.244,1.244,0,0,1,1.242,1.242Zm0,0" fill="#8c6df2"/>
      <path id="Trazado_226264" data-name="Trazado 226264" d="M128,288h2.484v4.968H128Zm0,0" transform="translate(-108.129 -243.29)" fill="#8c6df2"/>
      <path id="Trazado_226265" data-name="Trazado 226265" d="M128,336h2.484v4.968H128Zm0,0" transform="translate(-108.129 -283.838)" fill="#8c6df2"/>
      <path id="Trazado_226266" data-name="Trazado 226266" d="M128,384h2.484v4.968H128Zm0,0" transform="translate(-108.129 -324.387)" fill="#8c6df2"/>
      <path id="Trazado_226267" data-name="Trazado 226267" d="M32,256h2.484v4.968H32Zm0,0" transform="translate(-27.032 -216.258)" fill="#8c6df2"/>
      <path id="Trazado_226268" data-name="Trazado 226268" d="M96,256h2.484v4.968H96Zm0,0" transform="translate(-81.097 -216.258)" fill="#8c6df2"/>
      <path id="Trazado_226269" data-name="Trazado 226269" d="M32,312H44.419v2.484H32Zm0,0" transform="translate(-27.032 -263.564)" fill="#8c6df2"/>
      <path id="Trazado_226270" data-name="Trazado 226270" d="M32,344H44.419v2.484H32Zm0,0" transform="translate(-27.032 -290.596)" fill="#8c6df2"/>
      <path id="Trazado_226271" data-name="Trazado 226271" d="M32,376H44.419v2.484H32Zm0,0" transform="translate(-27.032 -317.629)" fill="#8c6df2"/>
      <path id="Trazado_226272" data-name="Trazado 226272" d="M32,408H44.419v2.484H32Zm0,0" transform="translate(-27.032 -344.661)" fill="#8c6df2"/>
      <path id="Trazado_226273" data-name="Trazado 226273" d="M32,440H44.419v2.484H32Zm0,0" transform="translate(-27.032 -371.693)" fill="#8c6df2"/>
      <path id="Trazado_226274" data-name="Trazado 226274" d="M64,256h2.484v4.968H64Zm0,0" transform="translate(-54.064 -216.258)" fill="#8c6df2"/>
      <path id="Trazado_226275" data-name="Trazado 226275" d="M218.323,281.936h-4.034L210.977,272h-4.621v9.936H190.278l-1.656-4.968H184v8.694a6.217,6.217,0,0,0,6.21,6.21h13.661v9.936h4.622l3.312-9.936h11.787a3.876,3.876,0,0,0,2.741-6.617,11.257,11.257,0,0,0-8.01-3.318Zm-9.484-7.452h.346l2.485,7.452h-2.831Zm-22.355,4.968h.346l1.656,4.968h-2ZM206.7,299.323h-.346v-8.694H209.6Zm16.891-9.936h-10.96l.414-1.242h-9.174v1.242H190.21A3.733,3.733,0,0,1,186.7,286.9h5.238l-.828-2.484h27.217a8.791,8.791,0,0,1,6.254,2.591,1.393,1.393,0,0,1-.985,2.377Zm0,0" transform="translate(-155.436 -229.774)" fill="#8c6df2"/>
    </g>
  </g>
</svg>
