<svg xmlns="http://www.w3.org/2000/svg" width="191.936" height="191.936" viewBox="0 0 191.936 191.936">
  <g id="Grupo_167872" data-name="Grupo 167872" transform="translate(248.996 7328.996)">
    <circle id="Elipse_5760" data-name="Elipse 5760" cx="95.968" cy="95.968" r="95.968" transform="translate(-248.996 -7328.996)" fill="#5038a1"/>
    <g id="ensalada" transform="translate(-213.024 -7297.528)">
      <path id="Trazado_226672" data-name="Trazado 226672" d="M112.25,63.833h-7.779l9.806-41.185a2.083,2.083,0,0,0-1.521-2.5l-8.333-2.083a2.083,2.083,0,0,0-2.517,1.473l-12.081,44.3H85.112a10.308,10.308,0,0,0,2.138-6.25v-6.25H81a10.417,10.417,0,0,0-10.235,8.619A10.3,10.3,0,0,0,55.9,57.718c4.267-18.242,4.267-18.469,4.267-18.885a8.333,8.333,0,0,0-9.067-8.3,12.456,12.456,0,0,0-23.542,0,8.333,8.333,0,0,0-9.058,8.3c0,.565.012,1.508,3.542,12.646a10.418,10.418,0,0,0-1.458-.146h-6.25v6.25a10.308,10.308,0,0,0,2.138,6.25H8.083A2.083,2.083,0,0,0,6,65.916c0,19.39,18.179,31.667,22.917,34.531v7.135A2.083,2.083,0,0,0,31,109.666H89.333a2.083,2.083,0,0,0,2.083-2.083v-7.135c4.737-2.865,22.917-15.142,22.917-34.531a2.083,2.083,0,0,0-2.083-2.083ZM105.39,22.6l4.356,1.088-9.558,40.146H94.146ZM74.75,61.749A6.25,6.25,0,0,1,81,55.5h2.083v2.083a6.25,6.25,0,0,1-6.25,6.25H74.75Zm-12.5-2.083a6.262,6.262,0,0,1,5.894,4.167H56.356a6.262,6.262,0,0,1,5.894-4.167ZM51.477,63.833H39.69a6.25,6.25,0,0,1,11.787,0Zm-28.81-25a4.094,4.094,0,0,1,5.673-3.867,2.083,2.083,0,0,0,2.8-1.617,8.292,8.292,0,0,1,16.387,0,2.083,2.083,0,0,0,2.8,1.617A4.094,4.094,0,0,1,56,38.691c-.279,1.477-2.721,11.952-4.325,18.813a10.321,10.321,0,0,0-6.092-2,10.435,10.435,0,0,0-10.208,8.333H31V61.749a10.356,10.356,0,0,0-3.881-8.044c-3.871-12.069-4.408-14.483-4.452-14.873ZM18.5,57.583V55.5h2.083a6.25,6.25,0,0,1,6.25,6.25v2.083H24.75A6.25,6.25,0,0,1,18.5,57.583ZM88.771,97.166H78.917v4.167H87.25V105.5H33.083v-4.167H60.167V97.166h-28.6C29.217,95.778,17.3,88.23,12.346,76.333H35.167V72.166h-24.2A25.861,25.861,0,0,1,10.252,68h99.829a25.86,25.86,0,0,1-.717,4.167H64.333v4.167h43.654c-4.952,11.9-16.871,19.446-19.217,20.833Z" transform="translate(0 17.334)" fill="#fedc72"/>
      <path id="Trazado_226673" data-name="Trazado 226673" d="M22,44h4.167v4.167H22Z" transform="translate(17.333 45.5)" fill="#fedc72"/>
      <path id="Trazado_226674" data-name="Trazado 226674" d="M26,44h4.167v4.167H26Z" transform="translate(21.667 45.5)" fill="#fedc72"/>
      <path id="Trazado_226675" data-name="Trazado 226675" d="M30,44h4.167v4.167H30Z" transform="translate(26 45.5)" fill="#fedc72"/>
      <path id="Trazado_226676" data-name="Trazado 226676" d="M33.19,22.071a6.127,6.127,0,0,0-.354,3.821c.9,4.208,5.754,8.488,11.3,9.956A65.041,65.041,0,0,0,57.092,38h.075a2.083,2.083,0,0,0,1.692-3.3c-.023-.033-2.356-3.275-6.292-8.39-1.748-2.273-6.39-7.625-11.725-8.258a7.662,7.662,0,0,0-4.7.923A6.783,6.783,0,0,1,32.167,13H28A10.51,10.51,0,0,0,33.19,22.071Zm6.646.09a3.973,3.973,0,0,1,.515.033c2.573.3,5.987,2.856,8.917,6.667,1.335,1.738,2.485,3.254,3.419,4.5A67.754,67.754,0,0,1,45.2,31.825c-4.338-1.148-7.788-4.44-8.29-6.8a1.9,1.9,0,0,1,.731-2.069,3.358,3.358,0,0,1,2.194-.794Z" transform="translate(23.833 11.917)" fill="#fedc72"/>
      <path id="Trazado_226677" data-name="Trazado 226677" d="M18,30h4.167v4.167H18Z" transform="translate(13 30.333)" fill="#fedc72"/>
      <path id="Trazado_226678" data-name="Trazado 226678" d="M23,32h4.167v4.167H23Z" transform="translate(18.417 32.5)" fill="#fedc72"/>
      <path id="Trazado_226679" data-name="Trazado 226679" d="M11.97,29.489c.546.029,2.519.125,5.127.125,5.19,0,12.89-.383,16.794-2.448A11.758,11.758,0,0,0,39.243,20.3a11.023,11.023,0,0,0-.317-8.45C36.358,6.989,28.583,6.268,23.612,8.9,17.672,12.037,10.97,25,10.226,26.462a2.083,2.083,0,0,0,1.744,3.027Zm12.144-11.51-6.35,3.7c.977-1.544,2.046-3.1,3.125-4.508Zm2.554,3.331v3.565a65.569,65.569,0,0,1-7.006.523Zm8.612-2.292a7.727,7.727,0,0,1-3.333,4.469,8.9,8.9,0,0,1-1.11.452V18.881l4.9-2.86a9.081,9.081,0,0,1-.458,2.992Zm-1.573-6.631-4.442,2.592-5.2-1.3a8.473,8.473,0,0,1,1.5-1.087,9.517,9.517,0,0,1,8.142-.21Z" transform="translate(4.332 5.844)" fill="#fedc72"/>
      <path id="Trazado_226680" data-name="Trazado 226680" d="M52.583,18.667H56.75a2.083,2.083,0,0,0,2.083-2.083A14.6,14.6,0,0,0,44.25,2H40.083A2.083,2.083,0,0,0,38,4.083,14.6,14.6,0,0,0,52.583,18.667ZM44.25,6.167A10.433,10.433,0,0,1,54.458,14.5H52.583A10.433,10.433,0,0,1,42.375,6.167Z" transform="translate(34.667 0)" fill="#fedc72"/>
      <path id="Trazado_226681" data-name="Trazado 226681" d="M36.25,16.5A6.25,6.25,0,1,0,30,10.25,6.25,6.25,0,0,0,36.25,16.5Zm0-8.333a2.083,2.083,0,1,1-2.083,2.083A2.083,2.083,0,0,1,36.25,8.167Z" transform="translate(26 2.167)" fill="#fedc72"/>
      <path id="Trazado_226682" data-name="Trazado 226682" d="M44,19.25A6.25,6.25,0,1,0,50.25,13,6.25,6.25,0,0,0,44,19.25Zm8.333,0a2.083,2.083,0,1,1-2.083-2.083A2.083,2.083,0,0,1,52.333,19.25Z" transform="translate(41.167 11.917)" fill="#fedc72"/>
      <path id="Trazado_226683" data-name="Trazado 226683" d="M37,29h4.167v4.167H37Z" transform="translate(33.583 29.25)" fill="#fedc72"/>
      <path id="Trazado_226684" data-name="Trazado 226684" d="M40,12h4.167v4.167H40Z" transform="translate(36.833 10.833)" fill="#fedc72"/>
      <path id="Trazado_226685" data-name="Trazado 226685" d="M24,3h4.167V7.167H24Z" transform="translate(19.5 1.083)" fill="#fedc72"/>
      <path id="Trazado_226686" data-name="Trazado 226686" d="M45,25h4.167v4.167H45Z" transform="translate(42.25 24.917)" fill="#fedc72"/>
    </g>
  </g>
</svg>
