<svg xmlns="http://www.w3.org/2000/svg" width="109" height="109" viewBox="0 0 109 109">
  <g id="Grupo_147584" data-name="Grupo 147584" transform="translate(-167.667 -6473)">
    <g id="Grupo_147578" data-name="Grupo 147578" transform="translate(-93 5209)">
      <circle id="Elipse_4745" data-name="Elipse 4745" cx="54.5" cy="54.5" r="54.5" transform="translate(260.667 1264)" fill="#8c6df2"/>
    </g>
    <g id="Outline" transform="translate(161.667 6481)">
      <path id="Trazado_227349" data-name="Trazado 227349" d="M88.463,34.314l-1.149-1.149v-5.9a1.024,1.024,0,0,0-1.024-1.024h-5.9L78.22,24.07a3.053,3.053,0,0,0-2.173-.9H69.9V22.146A6.153,6.153,0,0,0,63.755,16H41.219a6.153,6.153,0,0,0-6.146,6.146V67.217H33.024A1.024,1.024,0,0,0,32,68.242v8.195a1.024,1.024,0,0,0,1.024,1.024H72.974V75.412H34.049V69.266H68.876A1.024,1.024,0,0,0,69.9,68.242V51.852h1.024a1.025,1.025,0,0,1,1.024,1.024V68.754a8.707,8.707,0,0,0,17.414,0V36.487A3.053,3.053,0,0,0,88.463,34.314ZM76.771,25.519l2.473,2.473a1.024,1.024,0,0,0,.724.3h5.3v5.3a1.024,1.024,0,0,0,.3.724l1.449,1.449a1.018,1.018,0,0,1,.3.724V48.779H85.266V37.335a1.024,1.024,0,0,0-.3-.724l-2.9-2.9a1.024,1.024,0,0,0-.724-.3h-5.29c0-2.787-.008-5.124-.008-5.124a1.024,1.024,0,0,0-1.024-1.022H74V25.219h2.049a1.018,1.018,0,0,1,.724.3ZM70.925,45.706H69.9V29.316H74c0,1.132.007,10.77,0,12.282a4.1,4.1,0,0,0,4.1,4.107h5.117V68.754a2.561,2.561,0,0,1-5.122,0V52.876a7.179,7.179,0,0,0-7.17-7.17ZM80.92,35.463l2.3,2.3v1.8H80.144v-4.1Zm-1.8,6.146h4.1v2.049H78.1A2.048,2.048,0,0,1,76.052,41.6c0-1.264,0-4.189,0-6.142H78.1v5.122A1.024,1.024,0,0,0,79.12,41.609Zm-7.17-16.39v2.049H69.9V25.219Zm-34.828,42V22.146a4.1,4.1,0,0,1,4.1-4.1H63.755a4.1,4.1,0,0,1,4.1,4.1V67.217Zm50.193,1.537a6.658,6.658,0,1,1-13.316,0V52.876A3.076,3.076,0,0,0,70.925,49.8H69.9V47.755h1.024a5.127,5.127,0,0,1,5.122,5.122V68.754a4.61,4.61,0,0,0,9.219,0V50.828h2.049Z" fill="#fff"/>
      <path id="Trazado_227350" data-name="Trazado 227350" d="M119.56,64H97.024A1.024,1.024,0,0,0,96,65.024v16.39a1.024,1.024,0,0,0,1.024,1.024H119.56a1.024,1.024,0,0,0,1.024-1.024V65.024A1.024,1.024,0,0,0,119.56,64Zm-1.024,16.39H98.049V66.049h20.487Z" transform="translate(-55.805 -41.854)" fill="#fff"/>
      <path id="Trazado_227351" data-name="Trazado 227351" d="M136,128h2.049v2.049H136Z" transform="translate(-90.684 -97.659)" fill="#fff"/>
      <path id="Trazado_227352" data-name="Trazado 227352" d="M168,128h2.049v2.049H168Z" transform="translate(-118.584 -97.659)" fill="#fff"/>
      <path id="Trazado_227353" data-name="Trazado 227353" d="M200,128h2.049v2.049H200Z" transform="translate(-146.489 -97.659)" fill="#fff"/>
      <path id="Trazado_227354" data-name="Trazado 227354" d="M232,128h2.049v2.049H232Z" transform="translate(-174.39 -97.659)" fill="#fff"/>
      <path id="Trazado_227355" data-name="Trazado 227355" d="M149.186,262.825a5.591,5.591,0,0,0,9.782-5.368l-4.138-8.867a1.024,1.024,0,0,0-1.857,0l-4.138,8.867A5.565,5.565,0,0,0,149.186,262.825Zm1.506-4.5,3.21-6.878,3.21,6.878a3.542,3.542,0,1,1-6.42,0Z" transform="translate(-101.415 -202.293)" fill="#fff"/>
    </g>
  </g>
</svg>
