<svg xmlns="http://www.w3.org/2000/svg" width="136.973" height="136.973" viewBox="0 0 136.973 136.973">
  <g id="Grupo_171021" data-name="Grupo 171021" transform="translate(4396.292 9940.091)">
    <g id="Grupo_156132" data-name="Grupo 156132" transform="translate(-4396.292 -9940.091)">
      <g id="Trazado_137458" data-name="Trazado 137458" transform="translate(0 0)" fill="#fff">
        <path d="M 68.48631286621094 131.9726409912109 C 59.91350936889648 131.9726409912109 51.59981155395508 130.2947692871094 43.77611541748047 126.9856185913086 C 40.01535797119141 125.3949661254883 36.38774871826172 123.4259033203125 32.9940071105957 121.1331405639648 C 29.6312255859375 118.8612899780273 26.46885681152344 116.2520523071289 23.5947265625 113.3779220581055 C 20.72059631347656 110.503791809082 18.11135673522949 107.341423034668 15.83950805664062 103.9786376953125 C 13.5467472076416 100.5848999023438 11.57768249511719 96.95726776123047 9.987030029296875 93.196533203125 C 6.677877902984619 85.37283325195312 5.000008583068848 77.05912017822266 5.000008583068848 68.48631286621094 C 5.000008583068848 59.91350936889648 6.677877902984619 51.59981155395508 9.987030029296875 43.77611541748047 C 11.57768249511719 40.01535797119141 13.5467472076416 36.38774871826172 15.83950805664062 32.9940071105957 C 18.11135673522949 29.6312255859375 20.72059631347656 26.46885681152344 23.5947265625 23.5947265625 C 26.46885681152344 20.72059631347656 29.6312255859375 18.11135673522949 32.9940071105957 15.83950805664062 C 36.38774871826172 13.5467472076416 40.01535797119141 11.57768249511719 43.77611541748047 9.987030029296875 C 51.59981155395508 6.677877902984619 59.91350936889648 5.000008583068848 68.48631286621094 5.000008583068848 C 77.05912017822266 5.000008583068848 85.37283325195312 6.677877902984619 93.196533203125 9.987030029296875 C 96.95726776123047 11.57768249511719 100.5848999023438 13.5467472076416 103.9786376953125 15.83950805664062 C 107.341423034668 18.11135673522949 110.503791809082 20.72059631347656 113.3779220581055 23.5947265625 C 116.2520523071289 26.46885681152344 118.8612899780273 29.6312255859375 121.1331405639648 32.9940071105957 C 123.4259033203125 36.38774871826172 125.3949661254883 40.01535797119141 126.9856185913086 43.77611541748047 C 130.2947692871094 51.59981155395508 131.9726409912109 59.91350936889648 131.9726409912109 68.48631286621094 C 131.9726409912109 77.05912017822266 130.2947692871094 85.37283325195312 126.9856185913086 93.196533203125 C 125.3949661254883 96.95726776123047 123.4259033203125 100.5848999023438 121.1331405639648 103.9786376953125 C 118.8612899780273 107.341423034668 116.2520523071289 110.503791809082 113.3779220581055 113.3779220581055 C 110.503791809082 116.2520523071289 107.341423034668 118.8612899780273 103.9786376953125 121.1331405639648 C 100.5848999023438 123.4259033203125 96.95726776123047 125.3949661254883 93.196533203125 126.9856185913086 C 85.37283325195312 130.2947692871094 77.05912017822266 131.9726409912109 68.48631286621094 131.9726409912109 Z" stroke="none"/>
        <path d="M 68.48631286621094 10.00000762939453 C 36.23686981201172 10.00000762939453 10.00000762939453 36.23686981201172 10.00000762939453 68.48631286621094 C 10.00000762939453 100.7357559204102 36.23686981201172 126.9726181030273 68.48631286621094 126.9726181030273 C 100.7357559204102 126.9726181030273 126.9726181030273 100.7357559204102 126.9726181030273 68.48631286621094 C 126.9726181030273 36.23686981201172 100.7357559204102 10.00000762939453 68.48631286621094 10.00000762939453 M 68.48631286621094 0 C 106.3102569580078 0 136.9726257324219 30.66236877441406 136.9726257324219 68.48631286621094 C 136.9726257324219 106.3102569580078 106.3102569580078 136.9726257324219 68.48631286621094 136.9726257324219 C 30.66236877441406 136.9726257324219 0 106.3102569580078 0 68.48631286621094 C 0 30.66236877441406 30.66236877441406 0 68.48631286621094 0 Z" stroke="none" fill="#8c6df2"/>
      </g>
    </g>
    <g id="Grupo_166404" data-name="Grupo 166404" transform="translate(-4367.191 -10365.531)">
      <path id="Trazado_226276" data-name="Trazado 226276" d="M110.456,583.6a1.176,1.176,0,1,0,1.176,1.176A1.175,1.175,0,0,0,110.456,583.6Z" transform="translate(-71.313 -83.639)" fill="#8c6df2"/>
      <path id="Trazado_226277" data-name="Trazado 226277" d="M38.707,625.835a6.423,6.423,0,1,0,6.423,6.422h0A6.43,6.43,0,0,0,38.707,625.835Zm0,10.552a4.129,4.129,0,1,1,4.13-4.13A4.133,4.133,0,0,1,38.707,636.387Z" transform="translate(-21.069 -111.202)" fill="#8c6df2"/>
      <path id="Trazado_226278" data-name="Trazado 226278" d="M162.494,625.835a6.43,6.43,0,0,0-6.424,6.422h0a6.423,6.423,0,1,0,12.846,0h0A6.429,6.429,0,0,0,162.494,625.835Zm0,10.552a4.129,4.129,0,1,1,4.128-4.13A4.134,4.134,0,0,1,162.494,636.387Z" transform="translate(-101.846 -111.202)" fill="#8c6df2"/>
      <path id="Trazado_226279" data-name="Trazado 226279" d="M76.991,508.409l-27.024,3.559a83.168,83.168,0,0,1-10.153.7L34.543,503.2q2.3.125,4.607.125a85.17,85.17,0,0,0,11.117-.728l27.024-3.558a1.147,1.147,0,0,0-.3-2.274l-21.652,2.851a14.494,14.494,0,0,0-.3-3.115l-1-4.818a1.932,1.932,0,0,0-3.577-.549l-5.392,9.685a82.986,82.986,0,0,1-11.852,0l-5.394-9.689a1.932,1.932,0,0,0-3.574.557l-1,4.816a14.405,14.405,0,0,0-.3,3.116L1.3,496.768a1.147,1.147,0,1,0-.3,2.274l22.175,2.92a14.473,14.473,0,0,0,1.1,3.553l8.224,17.894-5.289,9.5-1.246,2.238a.462.462,0,0,1-.333.234.435.435,0,0,1-.368-.106A11.369,11.369,0,1,0,29,544c.25-.454,1.063-1.9,3.685-6.476h0c1.046-1.828,1.929-3.365,2.05-3.574a2.668,2.668,0,0,1,2.011-1.215l2.091-.191c.1-.009.2-.022.3-.038.1.016.2.029.3.038l2.093.191a2.67,2.67,0,0,1,2.011,1.215c.127.222,1.105,1.926,2.228,3.886h0c2.142,3.738,3.185,5.578,3.506,6.162a11.371,11.371,0,0,0,22.356,2.635,1.147,1.147,0,1,0-2.217-.589,9.078,9.078,0,0,1-17.85-2.335c0-.339,0-.339-1.352-2.716-.626-1.1-1.386-2.431-2.019-3.536l1.791-1.791.331.594a2.752,2.752,0,0,0,4.243.713,9.032,9.032,0,0,1,6.416-2.333,9.178,9.178,0,0,1,8.4,6.607,1.147,1.147,0,1,0,2.206-.629,11.527,11.527,0,0,0-3.875-5.8,11.341,11.341,0,0,0-14.684.455.435.435,0,0,1-.368.106.463.463,0,0,1-.334-.234l-1.069-1.918v0l-5.465-9.819,4.2-9.132.277-.034,27.024-3.558a1.147,1.147,0,0,0-.3-2.274Zm-25-15.3.8,3.866a12.193,12.193,0,0,1,.246,2.952l-3.071.4q-1.067.141-2.139.253ZM28.144,540.861c-1.429,2.513-1.429,2.513-1.429,2.852a9.077,9.077,0,1,1-9.411-9.069c.113,0,.224-.006.337-.006a9.019,9.019,0,0,1,6.079,2.339,2.719,2.719,0,0,0,2.28.667,2.747,2.747,0,0,0,1.963-1.381l.507-.911,1.794,1.795C29.6,538.3,28.8,539.7,28.144,540.861Zm4.647-8.119-.026.044-1.319,2.3-1.815-1.816,4.051-7.278,1.691,3.678a4.958,4.958,0,0,0,.529.887A4.941,4.941,0,0,0,32.791,532.741ZM47.02,535.4l-1.5-2.612c-.008-.015-.017-.03-.027-.045a4.949,4.949,0,0,0-3.75-2.288l-2.1-.191a2.746,2.746,0,0,1-.279-.04,2.7,2.7,0,0,1-1.913-1.512l-2.635-5.731-8.466-18.422a12.3,12.3,0,0,1-.861-7.586l.8-3.865,11.837,21.262,0,.006,5.368,9.642,5.327,9.571Zm-2.61-14.474-3.329-5.979c2.085-.048,4.173-.171,6.247-.37Z" transform="translate(0 -22.657)" fill="#8c6df2"/>
      <path id="Trazado_226280" data-name="Trazado 226280" d="M23.422,547.906a1.147,1.147,0,0,0,.148-2.284L1.3,542.688a1.147,1.147,0,1,0-.3,2.274L23.271,547.9A1.114,1.114,0,0,0,23.422,547.906Z" transform="translate(0 -56.937)" fill="#8c6df2"/>
      <path id="Trazado_226281" data-name="Trazado 226281" d="M84.688,460.924a1.147,1.147,0,0,0,1.622,0l.959-.959.959.959a1.147,1.147,0,1,0,1.622-1.622l-.959-.959.959-.959a1.147,1.147,0,1,0-1.622-1.621l-.959.959-.959-.959a1.147,1.147,0,0,0-1.622,1.622l.959.959-.959.959A1.147,1.147,0,0,0,84.688,460.924Z" transform="translate(-55.046 0)" fill="#8c6df2"/>
      <path id="Trazado_226282" data-name="Trazado 226282" d="M121.115,484.282a1.176,1.176,0,1,0-1.176-1.176A1.176,1.176,0,0,0,121.115,484.282Z" transform="translate(-78.268 -17.296)" fill="#8c6df2"/>
    </g>
  </g>
</svg>
